{
 "cells": [
  {
   "cell_type": "markdown",
   "metadata": {},
   "source": [
    "!!!!!!!!!!!!!!!! DRAFT DRAFT DRAFT !!!!!!!!!!!!!!!!\n",
    "\n",
    "!!!!!!!!!!!!!!!! work in progesss  !!!!!!!!!!!!!!!! \n",
    "\n",
    "!!!!!!!!!!!!!!!! DRAFT DRAFT DRAFT !!!!!!!!!!!!!!!!"
   ]
  },
  {
   "cell_type": "markdown",
   "metadata": {},
   "source": [
    "Credits / Inspired by => https://github.com/mwitiderrick/stockprice"
   ]
  },
  {
   "cell_type": "code",
   "execution_count": 1,
   "metadata": {},
   "outputs": [],
   "source": [
    "import numpy as np\n",
    "import matplotlib.pyplot as plt\n",
    "import pandas as pd"
   ]
  },
  {
   "cell_type": "code",
   "execution_count": null,
   "metadata": {},
   "outputs": [],
   "source": [
    "!pip install mido"
   ]
  },
  {
   "cell_type": "code",
   "execution_count": 47,
   "metadata": {},
   "outputs": [],
   "source": [
    "import mido\n",
    "mid = mido.MidiFile('bach.mid')"
   ]
  },
  {
   "cell_type": "code",
   "execution_count": 48,
   "metadata": {
    "scrolled": true
   },
   "outputs": [
    {
     "name": "stdout",
     "output_type": "stream",
     "text": [
      "<meta message track_name name='Track 1' time=0>\n",
      "program_change channel=0 program=19 time=0\n",
      "note_on channel=0 note=67 velocity=92 time=0\n",
      "note_on channel=0 note=72 velocity=92 time=0\n",
      "note_off channel=0 note=72 velocity=64 time=192\n",
      "note_on channel=0 note=76 velocity=92 time=0\n",
      "note_off channel=0 note=76 velocity=64 time=96\n",
      "note_on channel=0 note=74 velocity=92 time=0\n",
      "note_off channel=0 note=74 velocity=64 time=96\n",
      "note_off channel=0 note=67 velocity=64 time=0\n",
      "note_on channel=0 note=72 velocity=92 time=0\n",
      "note_off channel=0 note=72 velocity=64 time=192\n",
      "note_on channel=0 note=67 velocity=92 time=0\n",
      "note_on channel=0 note=72 velocity=92 time=0\n",
      "note_on channel=0 note=76 velocity=92 time=0\n",
      "note_off channel=0 note=76 velocity=64 time=192\n",
      "note_off channel=0 note=72 velocity=64 time=0\n",
      "note_off channel=0 note=67 velocity=64 time=0\n",
      "note_on channel=0 note=67 velocity=92 time=0\n",
      "note_on channel=0 note=74 velocity=92 time=0\n",
      "note_off channel=0 note=74 velocity=64 time=192\n",
      "note_on channel=0 note=79 velocity=92 time=0\n",
      "note_off channel=0 note=79 velocity=64 time=192\n",
      "note_off channel=0 note=67 velocity=64 time=0\n",
      "note_on channel=0 note=67 velocity=92 time=0\n",
      "note_off channel=0 note=67 velocity=64 time=192\n",
      "note_on channel=0 note=79 velocity=92 time=0\n",
      "note_on channel=0 note=74 velocity=92 time=0\n",
      "note_on channel=0 note=67 velocity=92 time=0\n",
      "note_off channel=0 note=67 velocity=64 time=192\n",
      "note_off channel=0 note=74 velocity=64 time=0\n",
      "note_off channel=0 note=79 velocity=64 time=0\n",
      "note_on channel=0 note=67 velocity=92 time=0\n",
      "note_on channel=0 note=72 velocity=92 time=0\n",
      "note_on channel=0 note=76 velocity=92 time=0\n",
      "note_off channel=0 note=76 velocity=64 time=192\n",
      "note_on channel=0 note=76 velocity=92 time=0\n",
      "note_off channel=0 note=76 velocity=64 time=96\n",
      "note_on channel=0 note=77 velocity=92 time=0\n",
      "note_off channel=0 note=77 velocity=64 time=96\n",
      "note_off channel=0 note=72 velocity=64 time=0\n",
      "note_off channel=0 note=67 velocity=64 time=0\n",
      "note_on channel=0 note=79 velocity=92 time=0\n",
      "note_off channel=0 note=79 velocity=64 time=192\n",
      "note_on channel=0 note=72 velocity=92 time=0\n",
      "note_on channel=0 note=67 velocity=92 time=0\n",
      "note_on channel=0 note=77 velocity=92 time=0\n",
      "note_off channel=0 note=77 velocity=64 time=96\n",
      "note_on channel=0 note=76 velocity=92 time=0\n",
      "note_off channel=0 note=76 velocity=64 time=96\n",
      "note_off channel=0 note=67 velocity=64 time=0\n",
      "note_off channel=0 note=72 velocity=64 time=0\n",
      "note_on channel=0 note=67 velocity=92 time=0\n",
      "note_on channel=0 note=76 velocity=92 time=0\n",
      "note_off channel=0 note=76 velocity=64 time=48\n",
      "note_on channel=0 note=74 velocity=92 time=0\n",
      "note_off channel=0 note=74 velocity=64 time=48\n",
      "note_on channel=0 note=76 velocity=92 time=0\n",
      "note_off channel=0 note=76 velocity=64 time=48\n",
      "note_on channel=0 note=74 velocity=92 time=0\n",
      "note_off channel=0 note=74 velocity=64 time=48\n",
      "note_on channel=0 note=76 velocity=92 time=0\n",
      "note_off channel=0 note=76 velocity=64 time=48\n",
      "note_on channel=0 note=74 velocity=92 time=0\n",
      "note_off channel=0 note=74 velocity=64 time=48\n",
      "note_on channel=0 note=76 velocity=92 time=0\n",
      "note_off channel=0 note=76 velocity=64 time=48\n",
      "note_on channel=0 note=74 velocity=92 time=0\n",
      "note_off channel=0 note=74 velocity=64 time=48\n",
      "note_off channel=0 note=67 velocity=64 time=0\n",
      "note_on channel=0 note=67 velocity=92 time=0\n",
      "note_off channel=0 note=67 velocity=64 time=192\n",
      "note_on channel=0 note=79 velocity=92 time=0\n",
      "note_on channel=0 note=74 velocity=92 time=0\n",
      "note_on channel=0 note=67 velocity=92 time=0\n",
      "note_off channel=0 note=67 velocity=64 time=192\n",
      "note_off channel=0 note=74 velocity=64 time=0\n",
      "note_off channel=0 note=79 velocity=64 time=0\n",
      "note_on channel=0 note=67 velocity=92 time=0\n",
      "note_on channel=0 note=72 velocity=92 time=0\n",
      "note_on channel=0 note=76 velocity=92 time=0\n",
      "note_off channel=0 note=76 velocity=64 time=96\n",
      "note_off channel=0 note=72 velocity=64 time=0\n",
      "note_off channel=0 note=67 velocity=64 time=0\n",
      "note_on channel=0 note=64 velocity=92 time=0\n",
      "note_on channel=0 note=67 velocity=92 time=0\n",
      "note_off channel=0 note=67 velocity=64 time=96\n",
      "note_off channel=0 note=64 velocity=64 time=0\n",
      "note_on channel=0 note=62 velocity=92 time=0\n",
      "note_on channel=0 note=65 velocity=92 time=0\n",
      "note_off channel=0 note=65 velocity=64 time=96\n",
      "note_off channel=0 note=62 velocity=64 time=0\n",
      "note_on channel=0 note=64 velocity=92 time=0\n",
      "note_on channel=0 note=67 velocity=92 time=0\n",
      "note_off channel=0 note=67 velocity=64 time=96\n",
      "note_off channel=0 note=64 velocity=64 time=0\n",
      "note_on channel=0 note=60 velocity=92 time=0\n",
      "note_on channel=0 note=64 velocity=92 time=0\n",
      "note_off channel=0 note=64 velocity=64 time=96\n",
      "note_off channel=0 note=60 velocity=64 time=0\n",
      "note_on channel=0 note=64 velocity=92 time=0\n",
      "note_on channel=0 note=67 velocity=92 time=0\n",
      "note_off channel=0 note=67 velocity=64 time=96\n",
      "note_off channel=0 note=64 velocity=64 time=0\n",
      "note_on channel=0 note=62 velocity=92 time=0\n",
      "note_on channel=0 note=65 velocity=92 time=0\n",
      "note_off channel=0 note=65 velocity=64 time=96\n",
      "note_off channel=0 note=62 velocity=64 time=0\n",
      "note_on channel=0 note=64 velocity=92 time=0\n",
      "note_on channel=0 note=67 velocity=92 time=0\n",
      "note_off channel=0 note=67 velocity=64 time=96\n",
      "note_off channel=0 note=64 velocity=64 time=0\n",
      "note_on channel=0 note=65 velocity=92 time=0\n",
      "note_on channel=0 note=69 velocity=92 time=0\n",
      "note_off channel=0 note=69 velocity=64 time=96\n",
      "note_off channel=0 note=65 velocity=64 time=0\n",
      "note_on channel=0 note=77 velocity=92 time=0\n",
      "note_off channel=0 note=77 velocity=64 time=96\n",
      "note_on channel=0 note=76 velocity=92 time=0\n",
      "note_off channel=0 note=76 velocity=64 time=96\n",
      "note_on channel=0 note=77 velocity=92 time=0\n",
      "note_off channel=0 note=77 velocity=64 time=96\n",
      "note_on channel=0 note=72 velocity=92 time=0\n",
      "note_off channel=0 note=72 velocity=64 time=96\n",
      "note_on channel=0 note=77 velocity=92 time=0\n",
      "note_off channel=0 note=77 velocity=64 time=96\n",
      "note_on channel=0 note=76 velocity=92 time=0\n",
      "note_off channel=0 note=76 velocity=64 time=96\n",
      "note_on channel=0 note=77 velocity=92 time=0\n",
      "note_off channel=0 note=77 velocity=64 time=96\n",
      "note_on channel=0 note=74 velocity=92 time=0\n",
      "note_off channel=0 note=74 velocity=64 time=96\n",
      "note_on channel=0 note=62 velocity=92 time=0\n",
      "note_on channel=0 note=65 velocity=92 time=0\n",
      "note_off channel=0 note=65 velocity=64 time=96\n",
      "note_off channel=0 note=62 velocity=64 time=0\n",
      "note_on channel=0 note=60 velocity=92 time=0\n",
      "note_on channel=0 note=64 velocity=92 time=0\n",
      "note_off channel=0 note=64 velocity=64 time=96\n",
      "note_off channel=0 note=60 velocity=64 time=0\n",
      "note_on channel=0 note=62 velocity=92 time=0\n",
      "note_on channel=0 note=65 velocity=92 time=0\n",
      "note_off channel=0 note=65 velocity=64 time=96\n",
      "note_off channel=0 note=62 velocity=64 time=0\n",
      "note_on channel=0 note=59 velocity=92 time=0\n",
      "note_on channel=0 note=62 velocity=92 time=0\n",
      "note_off channel=0 note=62 velocity=64 time=96\n",
      "note_off channel=0 note=59 velocity=64 time=0\n",
      "note_on channel=0 note=62 velocity=92 time=0\n",
      "note_on channel=0 note=65 velocity=92 time=0\n",
      "note_off channel=0 note=65 velocity=64 time=96\n",
      "note_off channel=0 note=62 velocity=64 time=0\n",
      "note_on channel=0 note=60 velocity=92 time=0\n",
      "note_on channel=0 note=64 velocity=92 time=0\n",
      "note_off channel=0 note=64 velocity=64 time=96\n",
      "note_off channel=0 note=60 velocity=64 time=0\n",
      "note_on channel=0 note=62 velocity=92 time=0\n",
      "note_on channel=0 note=65 velocity=92 time=0\n",
      "note_off channel=0 note=65 velocity=64 time=96\n",
      "note_off channel=0 note=62 velocity=64 time=0\n",
      "note_on channel=0 note=64 velocity=92 time=0\n",
      "note_on channel=0 note=67 velocity=92 time=0\n",
      "note_off channel=0 note=67 velocity=64 time=96\n",
      "note_off channel=0 note=64 velocity=64 time=0\n",
      "note_on channel=0 note=76 velocity=92 time=0\n",
      "note_off channel=0 note=76 velocity=64 time=96\n",
      "note_on channel=0 note=74 velocity=92 time=0\n",
      "note_off channel=0 note=74 velocity=64 time=96\n",
      "note_on channel=0 note=76 velocity=92 time=0\n",
      "note_off channel=0 note=76 velocity=64 time=96\n",
      "note_on channel=0 note=71 velocity=92 time=0\n",
      "note_off channel=0 note=71 velocity=64 time=96\n",
      "note_on channel=0 note=76 velocity=92 time=0\n",
      "note_off channel=0 note=76 velocity=64 time=96\n",
      "note_on channel=0 note=74 velocity=92 time=0\n",
      "note_off channel=0 note=74 velocity=64 time=96\n",
      "note_on channel=0 note=76 velocity=92 time=0\n",
      "note_off channel=0 note=76 velocity=64 time=96\n",
      "note_on channel=0 note=72 velocity=92 time=0\n",
      "note_off channel=0 note=72 velocity=64 time=96\n",
      "note_on channel=0 note=64 velocity=92 time=0\n",
      "note_off channel=0 note=64 velocity=64 time=96\n",
      "note_on channel=0 note=62 velocity=92 time=0\n",
      "note_off channel=0 note=62 velocity=64 time=96\n",
      "note_on channel=0 note=64 velocity=92 time=0\n",
      "note_off channel=0 note=64 velocity=64 time=96\n",
      "note_on channel=0 note=60 velocity=92 time=0\n",
      "note_off channel=0 note=60 velocity=64 time=96\n",
      "note_on channel=0 note=64 velocity=92 time=0\n",
      "note_off channel=0 note=64 velocity=64 time=96\n",
      "note_on channel=0 note=62 velocity=92 time=0\n",
      "note_off channel=0 note=62 velocity=64 time=96\n",
      "note_on channel=0 note=64 velocity=92 time=0\n",
      "note_off channel=0 note=64 velocity=64 time=96\n",
      "note_on channel=0 note=65 velocity=92 time=0\n",
      "note_off channel=0 note=65 velocity=64 time=96\n",
      "note_on channel=0 note=74 velocity=92 time=0\n",
      "note_off channel=0 note=74 velocity=64 time=96\n",
      "note_on channel=0 note=72 velocity=92 time=0\n",
      "note_off channel=0 note=72 velocity=64 time=96\n",
      "note_on channel=0 note=74 velocity=92 time=0\n",
      "note_off channel=0 note=74 velocity=64 time=96\n",
      "note_on channel=0 note=69 velocity=92 time=0\n",
      "note_off channel=0 note=69 velocity=64 time=96\n",
      "note_on channel=0 note=74 velocity=92 time=0\n",
      "note_off channel=0 note=74 velocity=64 time=96\n",
      "note_on channel=0 note=72 velocity=92 time=0\n",
      "note_off channel=0 note=72 velocity=64 time=96\n",
      "note_on channel=0 note=74 velocity=92 time=0\n",
      "note_off channel=0 note=74 velocity=64 time=96\n",
      "note_on channel=0 note=71 velocity=92 time=0\n",
      "note_off channel=0 note=71 velocity=64 time=96\n",
      "note_on channel=0 note=62 velocity=92 time=0\n",
      "note_off channel=0 note=62 velocity=64 time=96\n",
      "note_on channel=0 note=60 velocity=92 time=0\n",
      "note_off channel=0 note=60 velocity=64 time=96\n",
      "note_on channel=0 note=62 velocity=92 time=0\n",
      "note_off channel=0 note=62 velocity=64 time=96\n",
      "note_on channel=0 note=59 velocity=92 time=0\n",
      "note_off channel=0 note=59 velocity=64 time=96\n",
      "note_on channel=0 note=62 velocity=92 time=0\n",
      "note_off channel=0 note=62 velocity=64 time=96\n",
      "note_on channel=0 note=60 velocity=92 time=0\n",
      "note_off channel=0 note=60 velocity=64 time=96\n",
      "note_on channel=0 note=62 velocity=92 time=0\n",
      "note_off channel=0 note=62 velocity=64 time=96\n",
      "note_on channel=0 note=64 velocity=92 time=0\n",
      "note_off channel=0 note=64 velocity=64 time=96\n",
      "note_on channel=0 note=72 velocity=92 time=0\n",
      "note_off channel=0 note=72 velocity=64 time=96\n",
      "note_on channel=0 note=71 velocity=92 time=0\n",
      "note_off channel=0 note=71 velocity=64 time=96\n",
      "note_on channel=0 note=72 velocity=92 time=0\n",
      "note_off channel=0 note=72 velocity=64 time=96\n",
      "note_on channel=0 note=67 velocity=92 time=0\n",
      "note_off channel=0 note=67 velocity=64 time=96\n",
      "note_on channel=0 note=72 velocity=92 time=0\n",
      "note_off channel=0 note=72 velocity=64 time=96\n",
      "note_on channel=0 note=71 velocity=92 time=0\n",
      "note_off channel=0 note=71 velocity=64 time=96\n",
      "note_on channel=0 note=72 velocity=92 time=0\n",
      "note_off channel=0 note=72 velocity=64 time=96\n",
      "note_on channel=0 note=69 velocity=92 time=0\n",
      "note_off channel=0 note=69 velocity=64 time=192\n",
      "note_on channel=0 note=72 velocity=92 time=0\n",
      "note_on channel=0 note=65 velocity=92 time=0\n",
      "note_on channel=0 note=69 velocity=92 time=0\n",
      "note_off channel=0 note=69 velocity=64 time=192\n",
      "note_off channel=0 note=65 velocity=64 time=0\n",
      "note_on channel=0 note=65 velocity=92 time=0\n",
      "note_on channel=0 note=67 velocity=92 time=0\n",
      "note_off channel=0 note=72 velocity=64 time=192\n",
      "note_on channel=0 note=71 velocity=92 time=0\n",
      "note_off channel=0 note=71 velocity=64 time=192\n",
      "note_off channel=0 note=67 velocity=64 time=0\n",
      "note_off channel=0 note=65 velocity=64 time=0\n",
      "note_on channel=0 note=64 velocity=92 time=0\n",
      "note_on channel=0 note=67 velocity=92 time=0\n",
      "note_on channel=0 note=72 velocity=92 time=0\n",
      "note_off channel=0 note=72 velocity=64 time=192\n",
      "note_off channel=0 note=67 velocity=64 time=0\n",
      "note_off channel=0 note=64 velocity=64 time=0\n",
      "note_on channel=0 note=76 velocity=92 time=0\n",
      "note_off channel=0 note=76 velocity=64 time=96\n",
      "note_on channel=0 note=74 velocity=92 time=0\n",
      "note_off channel=0 note=74 velocity=64 time=96\n",
      "note_on channel=0 note=72 velocity=92 time=0\n",
      "note_off channel=0 note=72 velocity=64 time=192\n",
      "note_on channel=0 note=67 velocity=92 time=0\n",
      "note_on channel=0 note=72 velocity=92 time=0\n",
      "note_on channel=0 note=76 velocity=92 time=0\n",
      "note_off channel=0 note=76 velocity=64 time=192\n",
      "note_off channel=0 note=72 velocity=64 time=0\n",
      "note_off channel=0 note=67 velocity=64 time=0\n",
      "note_on channel=0 note=74 velocity=92 time=0\n",
      "note_on channel=0 note=67 velocity=92 time=0\n",
      "note_on channel=0 note=71 velocity=92 time=0\n",
      "note_off channel=0 note=74 velocity=64 time=192\n",
      "note_on channel=0 note=79 velocity=92 time=0\n",
      "note_off channel=0 note=79 velocity=64 time=192\n",
      "note_off channel=0 note=71 velocity=64 time=0\n",
      "note_off channel=0 note=67 velocity=64 time=0\n",
      "note_on channel=0 note=67 velocity=92 time=0\n",
      "note_off channel=0 note=67 velocity=64 time=192\n",
      "note_on channel=0 note=79 velocity=92 time=0\n",
      "note_on channel=0 note=74 velocity=92 time=0\n",
      "note_on channel=0 note=67 velocity=92 time=0\n",
      "note_off channel=0 note=67 velocity=64 time=192\n",
      "note_off channel=0 note=74 velocity=64 time=0\n",
      "note_off channel=0 note=79 velocity=64 time=0\n",
      "note_on channel=0 note=76 velocity=92 time=0\n",
      "note_on channel=0 note=72 velocity=92 time=0\n",
      "note_on channel=0 note=67 velocity=92 time=0\n",
      "note_off channel=0 note=76 velocity=64 time=192\n",
      "note_on channel=0 note=76 velocity=92 time=0\n",
      "note_off channel=0 note=76 velocity=64 time=96\n",
      "note_on channel=0 note=77 velocity=92 time=0\n",
      "note_off channel=0 note=77 velocity=64 time=96\n",
      "note_off channel=0 note=67 velocity=64 time=0\n",
      "note_off channel=0 note=72 velocity=64 time=0\n",
      "note_on channel=0 note=79 velocity=92 time=0\n",
      "note_off channel=0 note=79 velocity=64 time=192\n",
      "note_on channel=0 note=77 velocity=92 time=0\n",
      "note_on channel=0 note=67 velocity=92 time=0\n",
      "note_on channel=0 note=72 velocity=92 time=0\n",
      "note_off channel=0 note=77 velocity=64 time=96\n",
      "note_on channel=0 note=76 velocity=92 time=0\n",
      "note_off channel=0 note=76 velocity=64 time=96\n",
      "note_off channel=0 note=72 velocity=64 time=0\n",
      "note_off channel=0 note=67 velocity=64 time=0\n",
      "note_on channel=0 note=67 velocity=92 time=0\n",
      "note_on channel=0 note=71 velocity=92 time=0\n",
      "note_on channel=0 note=74 velocity=92 time=0\n",
      "note_off channel=0 note=67 velocity=64 time=96\n",
      "note_on channel=0 note=66 velocity=92 time=0\n",
      "note_off channel=0 note=66 velocity=64 time=96\n",
      "note_on channel=0 note=67 velocity=92 time=0\n",
      "note_off channel=0 note=67 velocity=64 time=96\n",
      "note_on channel=0 note=69 velocity=92 time=0\n",
      "note_off channel=0 note=69 velocity=64 time=96\n",
      "note_off channel=0 note=74 velocity=64 time=0\n",
      "note_off channel=0 note=71 velocity=64 time=0\n",
      "note_on channel=0 note=71 velocity=92 time=0\n",
      "note_off channel=0 note=71 velocity=64 time=96\n",
      "note_on channel=0 note=66 velocity=92 time=0\n",
      "note_off channel=0 note=66 velocity=64 time=96\n",
      "note_on channel=0 note=67 velocity=92 time=0\n",
      "note_off channel=0 note=67 velocity=64 time=96\n",
      "note_on channel=0 note=62 velocity=92 time=0\n",
      "note_on channel=0 note=67 velocity=92 time=96\n",
      "note_off channel=0 note=67 velocity=64 time=192\n",
      "note_on channel=0 note=71 velocity=92 time=0\n",
      "note_off channel=0 note=71 velocity=64 time=96\n",
      "note_on channel=0 note=69 velocity=92 time=0\n",
      "note_off channel=0 note=69 velocity=64 time=96\n",
      "note_off channel=0 note=62 velocity=64 time=0\n",
      "note_on channel=0 note=67 velocity=92 time=0\n",
      "note_off channel=0 note=67 velocity=64 time=192\n",
      "note_on channel=0 note=62 velocity=92 time=0\n",
      "note_on channel=0 note=67 velocity=92 time=0\n",
      "note_on channel=0 note=71 velocity=92 time=0\n",
      "note_off channel=0 note=71 velocity=64 time=192\n",
      "note_off channel=0 note=67 velocity=64 time=0\n",
      "note_off channel=0 note=62 velocity=64 time=0\n",
      "note_on channel=0 note=69 velocity=92 time=0\n",
      "note_on channel=0 note=62 velocity=92 time=0\n",
      "note_off channel=0 note=69 velocity=64 time=192\n",
      "note_on channel=0 note=74 velocity=92 time=0\n",
      "note_off channel=0 note=74 velocity=64 time=192\n",
      "note_off channel=0 note=62 velocity=64 time=0\n",
      "note_on channel=0 note=62 velocity=92 time=0\n",
      "note_off channel=0 note=62 velocity=64 time=192\n",
      "note_on channel=0 note=74 velocity=92 time=0\n",
      "note_on channel=0 note=69 velocity=92 time=0\n",
      "note_on channel=0 note=62 velocity=92 time=0\n",
      "note_off channel=0 note=62 velocity=64 time=192\n",
      "note_off channel=0 note=69 velocity=64 time=0\n",
      "note_off channel=0 note=74 velocity=64 time=0\n",
      "note_on channel=0 note=71 velocity=92 time=0\n",
      "note_on channel=0 note=67 velocity=92 time=0\n",
      "note_on channel=0 note=62 velocity=92 time=0\n",
      "note_off channel=0 note=71 velocity=64 time=192\n",
      "note_on channel=0 note=71 velocity=92 time=0\n",
      "note_off channel=0 note=71 velocity=64 time=96\n",
      "note_on channel=0 note=72 velocity=92 time=0\n",
      "note_off channel=0 note=72 velocity=64 time=96\n",
      "note_off channel=0 note=62 velocity=64 time=0\n",
      "note_off channel=0 note=67 velocity=64 time=0\n",
      "note_on channel=0 note=74 velocity=92 time=0\n",
      "note_off channel=0 note=74 velocity=64 time=192\n",
      "note_on channel=0 note=72 velocity=92 time=0\n",
      "note_on channel=0 note=62 velocity=92 time=0\n",
      "note_on channel=0 note=67 velocity=92 time=0\n",
      "note_off channel=0 note=72 velocity=64 time=96\n",
      "note_on channel=0 note=71 velocity=92 time=0\n",
      "note_off channel=0 note=71 velocity=64 time=96\n",
      "note_off channel=0 note=67 velocity=64 time=0\n",
      "note_off channel=0 note=62 velocity=64 time=0\n",
      "note_on channel=0 note=62 velocity=92 time=0\n",
      "note_on channel=0 note=66 velocity=92 time=0\n",
      "note_on channel=0 note=69 velocity=92 time=0\n",
      "note_off channel=0 note=69 velocity=64 time=384\n",
      "note_off channel=0 note=66 velocity=64 time=0\n",
      "note_off channel=0 note=62 velocity=64 time=0\n",
      "note_on channel=0 note=62 velocity=92 time=0\n",
      "note_off channel=0 note=62 velocity=64 time=192\n",
      "note_on channel=0 note=74 velocity=92 time=0\n",
      "note_on channel=0 note=69 velocity=92 time=0\n",
      "note_on channel=0 note=62 velocity=92 time=0\n",
      "note_off channel=0 note=62 velocity=64 time=192\n",
      "note_off channel=0 note=69 velocity=64 time=0\n",
      "note_off channel=0 note=74 velocity=64 time=0\n",
      "note_on channel=0 note=62 velocity=92 time=0\n",
      "note_on channel=0 note=67 velocity=92 time=0\n",
      "note_on channel=0 note=71 velocity=92 time=0\n",
      "note_off channel=0 note=71 velocity=64 time=96\n",
      "note_off channel=0 note=67 velocity=64 time=0\n",
      "note_off channel=0 note=62 velocity=64 time=0\n",
      "note_on channel=0 note=62 velocity=92 time=0\n",
      "note_off channel=0 note=62 velocity=64 time=96\n",
      "note_on channel=0 note=60 velocity=92 time=0\n",
      "note_off channel=0 note=60 velocity=64 time=96\n",
      "note_on channel=0 note=62 velocity=92 time=0\n",
      "note_off channel=0 note=62 velocity=64 time=96\n",
      "note_on channel=0 note=59 velocity=92 time=0\n",
      "note_off channel=0 note=59 velocity=64 time=96\n",
      "note_on channel=0 note=62 velocity=92 time=0\n",
      "note_off channel=0 note=62 velocity=64 time=96\n",
      "note_on channel=0 note=60 velocity=92 time=0\n",
      "note_off channel=0 note=60 velocity=64 time=96\n",
      "note_on channel=0 note=62 velocity=92 time=0\n",
      "note_off channel=0 note=62 velocity=64 time=96\n",
      "note_on channel=0 note=64 velocity=92 time=0\n",
      "note_off channel=0 note=64 velocity=64 time=96\n",
      "note_on channel=0 note=72 velocity=92 time=0\n",
      "note_off channel=0 note=72 velocity=64 time=96\n",
      "note_on channel=0 note=71 velocity=92 time=0\n",
      "note_off channel=0 note=71 velocity=64 time=96\n",
      "note_on channel=0 note=72 velocity=92 time=0\n",
      "note_off channel=0 note=72 velocity=64 time=96\n",
      "note_on channel=0 note=67 velocity=92 time=0\n",
      "note_off channel=0 note=67 velocity=64 time=96\n",
      "note_on channel=0 note=72 velocity=92 time=0\n",
      "note_off channel=0 note=72 velocity=64 time=96\n",
      "note_on channel=0 note=71 velocity=92 time=0\n",
      "note_off channel=0 note=71 velocity=64 time=96\n",
      "note_on channel=0 note=72 velocity=92 time=0\n",
      "note_off channel=0 note=72 velocity=64 time=96\n",
      "note_on channel=0 note=69 velocity=92 time=0\n",
      "note_off channel=0 note=69 velocity=64 time=96\n",
      "note_on channel=0 note=60 velocity=92 time=0\n",
      "note_off channel=0 note=60 velocity=64 time=96\n",
      "note_on channel=0 note=59 velocity=92 time=0\n",
      "note_off channel=0 note=59 velocity=64 time=96\n",
      "note_on channel=0 note=60 velocity=92 time=0\n",
      "note_off channel=0 note=60 velocity=64 time=96\n",
      "note_on channel=0 note=57 velocity=92 time=0\n",
      "note_off channel=0 note=57 velocity=64 time=96\n",
      "note_on channel=0 note=60 velocity=92 time=0\n",
      "note_off channel=0 note=60 velocity=64 time=96\n",
      "note_on channel=0 note=59 velocity=92 time=0\n",
      "note_off channel=0 note=59 velocity=64 time=96\n",
      "note_on channel=0 note=60 velocity=92 time=0\n",
      "note_off channel=0 note=60 velocity=64 time=96\n",
      "note_on channel=0 note=62 velocity=92 time=0\n",
      "note_off channel=0 note=62 velocity=64 time=96\n",
      "note_on channel=0 note=71 velocity=92 time=0\n",
      "note_off channel=0 note=71 velocity=64 time=96\n",
      "note_on channel=0 note=69 velocity=92 time=0\n",
      "note_off channel=0 note=69 velocity=64 time=96\n",
      "note_on channel=0 note=71 velocity=92 time=0\n",
      "note_off channel=0 note=71 velocity=64 time=96\n",
      "note_on channel=0 note=66 velocity=92 time=0\n",
      "note_off channel=0 note=66 velocity=64 time=96\n",
      "note_on channel=0 note=71 velocity=92 time=0\n",
      "note_off channel=0 note=71 velocity=64 time=96\n",
      "note_on channel=0 note=69 velocity=92 time=0\n",
      "note_off channel=0 note=69 velocity=64 time=96\n",
      "note_on channel=0 note=71 velocity=92 time=0\n",
      "note_off channel=0 note=71 velocity=64 time=96\n",
      "note_on channel=0 note=67 velocity=92 time=0\n",
      "note_off channel=0 note=67 velocity=64 time=96\n",
      "note_on channel=0 note=69 velocity=92 time=768\n",
      "note_off channel=0 note=69 velocity=64 time=96\n",
      "note_on channel=0 note=67 velocity=92 time=0\n",
      "note_off channel=0 note=67 velocity=64 time=96\n",
      "note_on channel=0 note=69 velocity=92 time=0\n",
      "note_off channel=0 note=69 velocity=64 time=96\n",
      "note_on channel=0 note=64 velocity=92 time=0\n",
      "note_off channel=0 note=64 velocity=64 time=96\n",
      "note_on channel=0 note=69 velocity=92 time=0\n",
      "note_off channel=0 note=69 velocity=64 time=96\n",
      "note_on channel=0 note=67 velocity=92 time=0\n",
      "note_off channel=0 note=67 velocity=64 time=96\n",
      "note_on channel=0 note=69 velocity=92 time=0\n",
      "note_off channel=0 note=69 velocity=64 time=96\n",
      "note_on channel=0 note=66 velocity=92 time=0\n",
      "note_off channel=0 note=66 velocity=64 time=96\n",
      "note_on channel=0 note=67 velocity=92 time=768\n",
      "note_off channel=0 note=67 velocity=64 time=96\n",
      "note_on channel=0 note=66 velocity=92 time=0\n",
      "note_off channel=0 note=66 velocity=64 time=96\n",
      "note_on channel=0 note=67 velocity=92 time=0\n",
      "note_off channel=0 note=67 velocity=64 time=96\n",
      "note_on channel=0 note=62 velocity=92 time=0\n",
      "note_off channel=0 note=62 velocity=64 time=96\n",
      "note_on channel=0 note=67 velocity=92 time=0\n",
      "note_off channel=0 note=67 velocity=64 time=96\n",
      "note_on channel=0 note=66 velocity=92 time=0\n",
      "note_off channel=0 note=66 velocity=64 time=96\n",
      "note_on channel=0 note=67 velocity=92 time=0\n",
      "note_off channel=0 note=67 velocity=64 time=96\n",
      "note_on channel=0 note=64 velocity=92 time=0\n",
      "note_off channel=0 note=64 velocity=64 time=192\n",
      "note_on channel=0 note=60 velocity=92 time=0\n",
      "note_on channel=0 note=64 velocity=92 time=0\n",
      "note_on channel=0 note=67 velocity=92 time=0\n",
      "note_off channel=0 note=64 velocity=64 time=192\n",
      "note_off channel=0 note=60 velocity=64 time=0\n",
      "note_on channel=0 note=60 velocity=92 time=0\n",
      "note_on channel=0 note=62 velocity=92 time=0\n",
      "note_off channel=0 note=67 velocity=64 time=192\n",
      "note_on channel=0 note=66 velocity=92 time=0\n",
      "note_off channel=0 note=66 velocity=64 time=192\n",
      "note_off channel=0 note=62 velocity=64 time=0\n",
      "note_off channel=0 note=60 velocity=64 time=0\n",
      "note_on channel=0 note=59 velocity=92 time=0\n",
      "note_on channel=0 note=62 velocity=92 time=0\n",
      "note_on channel=0 note=67 velocity=92 time=0\n",
      "note_off channel=0 note=67 velocity=64 time=192\n",
      "note_off channel=0 note=62 velocity=64 time=0\n",
      "note_off channel=0 note=59 velocity=64 time=0\n",
      "note_on channel=0 note=71 velocity=92 time=0\n",
      "note_off channel=0 note=71 velocity=64 time=96\n",
      "note_on channel=0 note=69 velocity=92 time=0\n",
      "note_off channel=0 note=69 velocity=64 time=96\n",
      "note_on channel=0 note=67 velocity=92 time=0\n",
      "note_off channel=0 note=67 velocity=64 time=192\n",
      "note_on channel=0 note=62 velocity=92 time=0\n",
      "note_on channel=0 note=67 velocity=92 time=0\n",
      "note_on channel=0 note=71 velocity=92 time=0\n",
      "note_off channel=0 note=71 velocity=64 time=192\n",
      "note_off channel=0 note=67 velocity=64 time=0\n",
      "note_off channel=0 note=62 velocity=64 time=0\n",
      "note_on channel=0 note=62 velocity=92 time=0\n",
      "note_on channel=0 note=66 velocity=92 time=0\n",
      "note_on channel=0 note=69 velocity=92 time=0\n",
      "note_off channel=0 note=69 velocity=64 time=192\n",
      "note_on channel=0 note=74 velocity=92 time=0\n",
      "note_off channel=0 note=74 velocity=64 time=192\n",
      "note_off channel=0 note=66 velocity=64 time=0\n",
      "note_off channel=0 note=62 velocity=64 time=0\n",
      "note_on channel=0 note=62 velocity=92 time=0\n",
      "note_off channel=0 note=62 velocity=64 time=192\n",
      "note_on channel=0 note=74 velocity=92 time=0\n",
      "note_on channel=0 note=69 velocity=92 time=0\n",
      "note_on channel=0 note=62 velocity=92 time=0\n",
      "note_off channel=0 note=62 velocity=64 time=192\n",
      "note_off channel=0 note=69 velocity=64 time=0\n",
      "note_off channel=0 note=74 velocity=64 time=0\n",
      "note_on channel=0 note=62 velocity=92 time=0\n",
      "note_on channel=0 note=67 velocity=92 time=0\n",
      "note_on channel=0 note=71 velocity=92 time=0\n",
      "note_off channel=0 note=71 velocity=64 time=192\n",
      "note_on channel=0 note=71 velocity=92 time=0\n",
      "note_off channel=0 note=71 velocity=64 time=96\n",
      "note_on channel=0 note=72 velocity=92 time=0\n",
      "note_off channel=0 note=72 velocity=64 time=96\n",
      "note_off channel=0 note=67 velocity=64 time=0\n",
      "note_off channel=0 note=62 velocity=64 time=0\n",
      "note_on channel=0 note=74 velocity=92 time=0\n",
      "note_off channel=0 note=74 velocity=64 time=192\n",
      "note_on channel=0 note=62 velocity=92 time=0\n",
      "note_on channel=0 note=67 velocity=92 time=0\n",
      "note_off channel=0 note=67 velocity=64 time=192\n",
      "note_off channel=0 note=62 velocity=64 time=0\n",
      "note_on channel=0 note=69 velocity=92 time=0\n",
      "note_on channel=0 note=66 velocity=92 time=0\n",
      "note_on channel=0 note=62 velocity=92 time=192\n",
      "note_off channel=0 note=62 velocity=64 time=96\n",
      "note_on channel=0 note=64 velocity=92 time=0\n",
      "note_off channel=0 note=64 velocity=64 time=96\n",
      "note_off channel=0 note=66 velocity=64 time=0\n",
      "note_off channel=0 note=69 velocity=64 time=0\n",
      "note_on channel=0 note=66 velocity=92 time=0\n",
      "note_off channel=0 note=66 velocity=64 time=96\n",
      "note_on channel=0 note=64 velocity=92 time=0\n",
      "note_off channel=0 note=64 velocity=64 time=96\n",
      "note_on channel=0 note=66 velocity=92 time=0\n",
      "note_off channel=0 note=66 velocity=64 time=96\n",
      "note_on channel=0 note=68 velocity=92 time=0\n",
      "note_off channel=0 note=68 velocity=64 time=96\n",
      "note_on channel=0 note=69 velocity=92 time=0\n",
      "note_on channel=0 note=64 velocity=92 time=0\n",
      "note_off channel=0 note=69 velocity=64 time=192\n",
      "note_on channel=0 note=72 velocity=92 time=0\n",
      "note_off channel=0 note=72 velocity=64 time=96\n",
      "note_on channel=0 note=71 velocity=92 time=0\n",
      "note_off channel=0 note=71 velocity=64 time=96\n",
      "note_off channel=0 note=64 velocity=64 time=0\n",
      "note_on channel=0 note=69 velocity=92 time=0\n",
      "note_off channel=0 note=69 velocity=64 time=192\n",
      "note_on channel=0 note=64 velocity=92 time=0\n",
      "note_on channel=0 note=69 velocity=92 time=0\n",
      "note_on channel=0 note=72 velocity=92 time=0\n",
      "note_off channel=0 note=72 velocity=64 time=192\n",
      "note_off channel=0 note=69 velocity=64 time=0\n",
      "note_off channel=0 note=64 velocity=64 time=0\n",
      "note_on channel=0 note=71 velocity=92 time=0\n",
      "note_on channel=0 note=64 velocity=92 time=0\n",
      "note_off channel=0 note=71 velocity=64 time=192\n",
      "note_on channel=0 note=76 velocity=92 time=0\n",
      "note_off channel=0 note=76 velocity=64 time=192\n",
      "note_off channel=0 note=64 velocity=64 time=0\n",
      "note_on channel=0 note=64 velocity=92 time=0\n",
      "note_off channel=0 note=64 velocity=64 time=192\n",
      "note_on channel=0 note=76 velocity=92 time=0\n",
      "note_on channel=0 note=71 velocity=92 time=0\n",
      "note_on channel=0 note=64 velocity=92 time=0\n",
      "note_off channel=0 note=64 velocity=64 time=192\n",
      "note_off channel=0 note=71 velocity=64 time=0\n",
      "note_off channel=0 note=76 velocity=64 time=0\n",
      "note_on channel=0 note=72 velocity=92 time=0\n",
      "note_on channel=0 note=64 velocity=92 time=0\n",
      "note_on channel=0 note=69 velocity=92 time=0\n",
      "note_off channel=0 note=72 velocity=64 time=192\n",
      "note_on channel=0 note=72 velocity=92 time=0\n",
      "note_off channel=0 note=72 velocity=64 time=96\n",
      "note_on channel=0 note=74 velocity=92 time=0\n",
      "note_off channel=0 note=74 velocity=64 time=96\n",
      "note_off channel=0 note=69 velocity=64 time=0\n",
      "note_off channel=0 note=64 velocity=64 time=0\n",
      "note_on channel=0 note=76 velocity=92 time=0\n",
      "note_off channel=0 note=76 velocity=64 time=192\n",
      "note_on channel=0 note=64 velocity=92 time=0\n",
      "note_on channel=0 note=69 velocity=92 time=0\n",
      "note_on channel=0 note=74 velocity=92 time=0\n",
      "note_off channel=0 note=74 velocity=64 time=96\n",
      "note_on channel=0 note=72 velocity=92 time=0\n",
      "note_off channel=0 note=72 velocity=64 time=96\n",
      "note_off channel=0 note=69 velocity=64 time=0\n",
      "note_off channel=0 note=64 velocity=64 time=0\n",
      "note_on channel=0 note=64 velocity=92 time=0\n",
      "note_on channel=0 note=68 velocity=92 time=0\n",
      "note_on channel=0 note=71 velocity=92 time=0\n",
      "note_off channel=0 note=71 velocity=64 time=384\n",
      "note_off channel=0 note=68 velocity=64 time=0\n",
      "note_off channel=0 note=64 velocity=64 time=0\n",
      "note_on channel=0 note=64 velocity=92 time=0\n",
      "note_off channel=0 note=64 velocity=64 time=192\n",
      "note_on channel=0 note=76 velocity=92 time=0\n",
      "note_on channel=0 note=72 velocity=92 time=0\n",
      "note_on channel=0 note=69 velocity=92 time=0\n",
      "note_off channel=0 note=69 velocity=64 time=192\n",
      "note_off channel=0 note=72 velocity=64 time=0\n",
      "note_off channel=0 note=76 velocity=64 time=0\n",
      "note_on channel=0 note=77 velocity=92 time=0\n",
      "note_on channel=0 note=74 velocity=92 time=96\n",
      "note_off channel=0 note=74 velocity=64 time=96\n",
      "note_on channel=0 note=72 velocity=92 time=0\n",
      "note_off channel=0 note=72 velocity=64 time=96\n",
      "note_on channel=0 note=74 velocity=92 time=0\n",
      "note_off channel=0 note=74 velocity=64 time=96\n",
      "note_on channel=0 note=69 velocity=92 time=0\n",
      "note_off channel=0 note=69 velocity=64 time=96\n",
      "note_on channel=0 note=74 velocity=92 time=0\n",
      "note_off channel=0 note=74 velocity=64 time=96\n",
      "note_on channel=0 note=72 velocity=92 time=0\n",
      "note_off channel=0 note=72 velocity=64 time=96\n",
      "note_on channel=0 note=74 velocity=92 time=0\n",
      "note_off channel=0 note=74 velocity=64 time=96\n",
      "note_on channel=0 note=71 velocity=92 time=0\n",
      "note_off channel=0 note=71 velocity=64 time=96\n",
      "note_off channel=0 note=77 velocity=64 time=0\n",
      "note_on channel=0 note=76 velocity=92 time=672\n",
      "note_on channel=0 note=72 velocity=92 time=96\n",
      "note_off channel=0 note=72 velocity=64 time=96\n",
      "note_on channel=0 note=71 velocity=92 time=0\n",
      "note_off channel=0 note=71 velocity=64 time=96\n",
      "note_on channel=0 note=72 velocity=92 time=0\n",
      "note_off channel=0 note=72 velocity=64 time=96\n",
      "note_on channel=0 note=67 velocity=92 time=0\n",
      "note_off channel=0 note=67 velocity=64 time=96\n",
      "note_on channel=0 note=72 velocity=92 time=0\n",
      "note_off channel=0 note=72 velocity=64 time=96\n",
      "note_on channel=0 note=71 velocity=92 time=0\n",
      "note_off channel=0 note=71 velocity=64 time=96\n",
      "note_on channel=0 note=72 velocity=92 time=0\n",
      "note_off channel=0 note=72 velocity=64 time=96\n",
      "note_on channel=0 note=69 velocity=92 time=0\n",
      "note_off channel=0 note=69 velocity=64 time=96\n",
      "note_off channel=0 note=76 velocity=64 time=0\n",
      "note_on channel=0 note=74 velocity=92 time=672\n",
      "note_on channel=0 note=71 velocity=92 time=96\n",
      "note_off channel=0 note=71 velocity=64 time=96\n",
      "note_on channel=0 note=69 velocity=92 time=0\n",
      "note_off channel=0 note=69 velocity=64 time=96\n",
      "note_on channel=0 note=71 velocity=92 time=0\n",
      "note_off channel=0 note=71 velocity=64 time=96\n",
      "note_on channel=0 note=66 velocity=92 time=0\n",
      "note_off channel=0 note=66 velocity=64 time=96\n",
      "note_on channel=0 note=71 velocity=92 time=0\n",
      "note_off channel=0 note=71 velocity=64 time=96\n",
      "note_on channel=0 note=69 velocity=92 time=0\n",
      "note_off channel=0 note=69 velocity=64 time=96\n",
      "note_on channel=0 note=71 velocity=92 time=0\n",
      "note_off channel=0 note=71 velocity=64 time=96\n",
      "note_on channel=0 note=68 velocity=92 time=0\n",
      "note_off channel=0 note=68 velocity=64 time=96\n",
      "note_off channel=0 note=74 velocity=64 time=0\n",
      "note_on channel=0 note=72 velocity=92 time=672\n",
      "note_on channel=0 note=69 velocity=92 time=96\n",
      "note_off channel=0 note=69 velocity=64 time=96\n",
      "note_on channel=0 note=67 velocity=92 time=0\n",
      "note_off channel=0 note=67 velocity=64 time=96\n",
      "note_on channel=0 note=69 velocity=92 time=0\n",
      "note_off channel=0 note=69 velocity=64 time=96\n",
      "note_on channel=0 note=64 velocity=92 time=0\n",
      "note_off channel=0 note=64 velocity=64 time=96\n",
      "note_on channel=0 note=69 velocity=92 time=0\n",
      "note_off channel=0 note=69 velocity=64 time=96\n",
      "note_on channel=0 note=67 velocity=92 time=0\n",
      "note_off channel=0 note=67 velocity=64 time=96\n",
      "note_on channel=0 note=69 velocity=92 time=0\n",
      "note_off channel=0 note=69 velocity=64 time=96\n",
      "note_on channel=0 note=66 velocity=92 time=0\n",
      "note_off channel=0 note=66 velocity=64 time=96\n",
      "note_off channel=0 note=72 velocity=64 time=0\n",
      "note_on channel=0 note=64 velocity=92 time=768\n",
      "note_on channel=0 note=72 velocity=92 time=0\n",
      "note_off channel=0 note=72 velocity=64 time=96\n",
      "note_off channel=0 note=64 velocity=64 time=0\n",
      "note_on channel=0 note=62 velocity=92 time=0\n",
      "note_on channel=0 note=71 velocity=92 time=0\n",
      "note_off channel=0 note=71 velocity=64 time=96\n",
      "note_off channel=0 note=62 velocity=64 time=0\n",
      "note_on channel=0 note=60 velocity=92 time=0\n",
      "note_on channel=0 note=69 velocity=92 time=0\n",
      "note_off channel=0 note=69 velocity=64 time=96\n",
      "note_off channel=0 note=60 velocity=64 time=0\n",
      "note_on channel=0 note=59 velocity=92 time=0\n",
      "note_on channel=0 note=67 velocity=92 time=0\n",
      "note_off channel=0 note=67 velocity=64 time=96\n",
      "note_off channel=0 note=59 velocity=64 time=0\n",
      "note_on channel=0 note=71 velocity=92 time=0\n",
      "note_on channel=0 note=79 velocity=92 time=0\n",
      "note_off channel=0 note=79 velocity=64 time=96\n",
      "note_off channel=0 note=71 velocity=64 time=0\n",
      "note_on channel=0 note=69 velocity=92 time=0\n",
      "note_on channel=0 note=78 velocity=92 time=0\n",
      "note_off channel=0 note=78 velocity=64 time=96\n",
      "note_off channel=0 note=69 velocity=64 time=0\n",
      "note_on channel=0 note=67 velocity=92 time=0\n",
      "note_on channel=0 note=76 velocity=92 time=0\n",
      "note_off channel=0 note=76 velocity=64 time=96\n",
      "note_off channel=0 note=67 velocity=64 time=0\n",
      "note_on channel=0 note=66 velocity=92 time=0\n",
      "note_on channel=0 note=75 velocity=92 time=0\n",
      "note_off channel=0 note=75 velocity=64 time=96\n",
      "note_on channel=0 note=69 velocity=92 time=0\n",
      "note_off channel=0 note=69 velocity=64 time=96\n",
      "note_off channel=0 note=66 velocity=64 time=0\n",
      "note_on channel=0 note=64 velocity=92 time=0\n",
      "note_on channel=0 note=67 velocity=92 time=0\n",
      "note_off channel=0 note=67 velocity=64 time=96\n",
      "note_off channel=0 note=64 velocity=64 time=0\n",
      "note_on channel=0 note=62 velocity=92 time=0\n",
      "note_on channel=0 note=76 velocity=92 time=0\n",
      "note_off channel=0 note=76 velocity=64 time=96\n",
      "note_off channel=0 note=62 velocity=64 time=0\n",
      "note_on channel=0 note=60 velocity=92 time=0\n",
      "note_on channel=0 note=66 velocity=92 time=0\n",
      "note_off channel=0 note=66 velocity=64 time=96\n",
      "note_on channel=0 note=76 velocity=92 time=0\n",
      "note_off channel=0 note=76 velocity=64 time=96\n",
      "note_off channel=0 note=60 velocity=64 time=0\n",
      "note_on channel=0 note=66 velocity=92 time=0\n",
      "note_off channel=0 note=66 velocity=64 time=96\n",
      "note_on channel=0 note=75 velocity=92 time=0\n",
      "note_off channel=0 note=75 velocity=64 time=96\n",
      "note_on channel=0 note=64 velocity=92 time=0\n",
      "note_on channel=0 note=71 velocity=92 time=0\n",
      "note_on channel=0 note=76 velocity=92 time=0\n",
      "note_off channel=0 note=76 velocity=64 time=192\n",
      "note_off channel=0 note=71 velocity=64 time=0\n",
      "note_off channel=0 note=64 velocity=64 time=0\n",
      "note_on channel=0 note=79 velocity=92 time=0\n",
      "note_off channel=0 note=79 velocity=64 time=96\n",
      "note_on channel=0 note=78 velocity=92 time=0\n",
      "note_off channel=0 note=78 velocity=64 time=96\n",
      "note_on channel=0 note=76 velocity=92 time=0\n",
      "note_off channel=0 note=76 velocity=64 time=192\n",
      "note_on channel=0 note=71 velocity=92 time=0\n",
      "note_on channel=0 note=76 velocity=92 time=0\n",
      "note_on channel=0 note=79 velocity=92 time=0\n",
      "note_off channel=0 note=79 velocity=64 time=192\n",
      "note_off channel=0 note=76 velocity=64 time=0\n",
      "note_off channel=0 note=71 velocity=64 time=0\n",
      "note_on channel=0 note=78 velocity=92 time=0\n",
      "note_on channel=0 note=71 velocity=92 time=0\n",
      "note_off channel=0 note=78 velocity=64 time=192\n",
      "note_on channel=0 note=83 velocity=92 time=0\n",
      "note_off channel=0 note=83 velocity=64 time=192\n",
      "note_off channel=0 note=71 velocity=64 time=0\n",
      "note_on channel=0 note=71 velocity=92 time=0\n",
      "note_off channel=0 note=71 velocity=64 time=192\n",
      "note_on channel=0 note=83 velocity=92 time=0\n",
      "note_on channel=0 note=78 velocity=92 time=0\n",
      "note_on channel=0 note=71 velocity=92 time=0\n",
      "note_off channel=0 note=71 velocity=64 time=192\n",
      "note_off channel=0 note=78 velocity=64 time=0\n",
      "note_off channel=0 note=83 velocity=64 time=0\n",
      "note_on channel=0 note=71 velocity=92 time=0\n",
      "note_on channel=0 note=76 velocity=92 time=0\n",
      "note_on channel=0 note=79 velocity=92 time=0\n",
      "note_off channel=0 note=79 velocity=64 time=192\n",
      "note_off channel=0 note=76 velocity=64 time=0\n",
      "note_off channel=0 note=71 velocity=64 time=0\n",
      "note_on channel=0 note=79 velocity=92 time=0\n",
      "note_off channel=0 note=79 velocity=64 time=96\n",
      "note_on channel=0 note=81 velocity=92 time=0\n",
      "note_off channel=0 note=81 velocity=64 time=96\n",
      "note_on channel=0 note=83 velocity=92 time=0\n",
      "note_off channel=0 note=83 velocity=64 time=192\n",
      "note_on channel=0 note=81 velocity=92 time=0\n",
      "note_on channel=0 note=71 velocity=92 time=0\n",
      "note_on channel=0 note=76 velocity=92 time=0\n",
      "note_off channel=0 note=81 velocity=64 time=96\n",
      "note_on channel=0 note=79 velocity=92 time=0\n",
      "note_off channel=0 note=79 velocity=64 time=96\n",
      "note_off channel=0 note=76 velocity=64 time=0\n",
      "note_off channel=0 note=71 velocity=64 time=0\n",
      "note_on channel=0 note=71 velocity=92 time=0\n",
      "note_on channel=0 note=75 velocity=92 time=0\n",
      "note_on channel=0 note=78 velocity=92 time=0\n",
      "note_off channel=0 note=78 velocity=64 time=384\n",
      "note_off channel=0 note=75 velocity=64 time=0\n",
      "note_off channel=0 note=71 velocity=64 time=0\n",
      "note_on channel=0 note=71 velocity=92 time=0\n",
      "note_off channel=0 note=71 velocity=64 time=192\n",
      "note_on channel=0 note=83 velocity=92 time=0\n",
      "note_on channel=0 note=78 velocity=92 time=0\n",
      "note_on channel=0 note=71 velocity=92 time=0\n",
      "note_off channel=0 note=71 velocity=64 time=192\n",
      "note_off channel=0 note=78 velocity=64 time=0\n",
      "note_off channel=0 note=83 velocity=64 time=0\n",
      "note_on channel=0 note=71 velocity=92 time=0\n",
      "note_on channel=0 note=76 velocity=92 time=0\n",
      "note_on channel=0 note=79 velocity=92 time=0\n",
      "note_off channel=0 note=79 velocity=64 time=96\n",
      "note_off channel=0 note=76 velocity=64 time=0\n",
      "note_off channel=0 note=71 velocity=64 time=0\n",
      "note_on channel=0 note=76 velocity=92 time=0\n",
      "note_on channel=0 note=67 velocity=92 time=0\n",
      "note_off channel=0 note=67 velocity=64 time=96\n",
      "note_off channel=0 note=76 velocity=64 time=0\n",
      "note_on channel=0 note=74 velocity=92 time=0\n",
      "note_on channel=0 note=66 velocity=92 time=0\n",
      "note_off channel=0 note=66 velocity=64 time=96\n",
      "note_off channel=0 note=74 velocity=64 time=0\n",
      "note_on channel=0 note=76 velocity=92 time=0\n",
      "note_on channel=0 note=67 velocity=92 time=0\n",
      "note_off channel=0 note=67 velocity=64 time=96\n",
      "note_off channel=0 note=76 velocity=64 time=0\n",
      "note_on channel=0 note=71 velocity=92 time=0\n",
      "note_on channel=0 note=64 velocity=92 time=0\n",
      "note_off channel=0 note=64 velocity=64 time=96\n",
      "note_off channel=0 note=71 velocity=64 time=0\n",
      "note_on channel=0 note=76 velocity=92 time=0\n",
      "note_on channel=0 note=67 velocity=92 time=0\n",
      "note_off channel=0 note=67 velocity=64 time=96\n",
      "note_off channel=0 note=76 velocity=64 time=0\n",
      "note_on channel=0 note=74 velocity=92 time=0\n",
      "note_on channel=0 note=66 velocity=92 time=0\n",
      "note_off channel=0 note=66 velocity=64 time=96\n",
      "note_off channel=0 note=74 velocity=64 time=0\n",
      "note_on channel=0 note=76 velocity=92 time=0\n",
      "note_on channel=0 note=67 velocity=92 time=0\n",
      "note_off channel=0 note=67 velocity=64 time=96\n",
      "note_off channel=0 note=76 velocity=64 time=0\n",
      "note_on channel=0 note=69 velocity=92 time=0\n",
      "note_on channel=0 note=72 velocity=92 time=0\n",
      "note_off channel=0 note=72 velocity=64 time=96\n",
      "note_off channel=0 note=69 velocity=64 time=0\n",
      "note_on channel=0 note=81 velocity=92 time=0\n",
      "note_off channel=0 note=81 velocity=64 time=96\n",
      "note_on channel=0 note=79 velocity=92 time=0\n",
      "note_off channel=0 note=79 velocity=64 time=96\n",
      "note_on channel=0 note=81 velocity=92 time=0\n",
      "note_off channel=0 note=81 velocity=64 time=96\n",
      "note_on channel=0 note=76 velocity=92 time=0\n",
      "note_off channel=0 note=76 velocity=64 time=96\n",
      "note_on channel=0 note=81 velocity=92 time=0\n",
      "note_off channel=0 note=81 velocity=64 time=96\n",
      "note_on channel=0 note=79 velocity=92 time=0\n",
      "note_off channel=0 note=79 velocity=64 time=96\n",
      "note_on channel=0 note=81 velocity=92 time=0\n",
      "note_off channel=0 note=81 velocity=64 time=96\n",
      "note_on channel=0 note=78 velocity=92 time=0\n",
      "note_off channel=0 note=78 velocity=64 time=96\n",
      "note_on channel=0 note=66 velocity=92 time=0\n",
      "note_on channel=0 note=74 velocity=92 time=0\n",
      "note_off channel=0 note=74 velocity=64 time=96\n",
      "note_off channel=0 note=66 velocity=64 time=0\n",
      "note_on channel=0 note=64 velocity=92 time=0\n",
      "note_on channel=0 note=72 velocity=92 time=0\n",
      "note_off channel=0 note=72 velocity=64 time=96\n",
      "note_off channel=0 note=64 velocity=64 time=0\n",
      "note_on channel=0 note=66 velocity=92 time=0\n",
      "note_on channel=0 note=74 velocity=92 time=0\n",
      "note_off channel=0 note=74 velocity=64 time=96\n",
      "note_off channel=0 note=66 velocity=64 time=0\n",
      "note_on channel=0 note=69 velocity=92 time=0\n",
      "note_on channel=0 note=62 velocity=92 time=0\n",
      "note_off channel=0 note=62 velocity=64 time=96\n",
      "note_off channel=0 note=69 velocity=64 time=0\n",
      "note_on channel=0 note=74 velocity=92 time=0\n",
      "note_on channel=0 note=66 velocity=92 time=0\n",
      "note_off channel=0 note=66 velocity=64 time=96\n",
      "note_off channel=0 note=74 velocity=64 time=0\n",
      "note_on channel=0 note=72 velocity=92 time=0\n",
      "note_on channel=0 note=64 velocity=92 time=0\n",
      "note_off channel=0 note=64 velocity=64 time=96\n",
      "note_off channel=0 note=72 velocity=64 time=0\n",
      "note_on channel=0 note=74 velocity=92 time=0\n",
      "note_on channel=0 note=66 velocity=92 time=0\n",
      "note_off channel=0 note=66 velocity=64 time=96\n",
      "note_off channel=0 note=74 velocity=64 time=0\n",
      "note_on channel=0 note=67 velocity=92 time=0\n",
      "note_on channel=0 note=71 velocity=92 time=0\n",
      "note_off channel=0 note=71 velocity=64 time=96\n",
      "note_off channel=0 note=67 velocity=64 time=0\n",
      "note_on channel=0 note=79 velocity=92 time=0\n",
      "note_off channel=0 note=79 velocity=64 time=96\n",
      "note_on channel=0 note=77 velocity=92 time=0\n",
      "note_off channel=0 note=77 velocity=64 time=96\n",
      "note_on channel=0 note=79 velocity=92 time=0\n",
      "note_off channel=0 note=79 velocity=64 time=96\n",
      "note_on channel=0 note=74 velocity=92 time=0\n",
      "note_off channel=0 note=74 velocity=64 time=96\n",
      "note_on channel=0 note=79 velocity=92 time=0\n",
      "note_off channel=0 note=79 velocity=64 time=96\n",
      "note_on channel=0 note=77 velocity=92 time=0\n",
      "note_off channel=0 note=77 velocity=64 time=96\n",
      "note_on channel=0 note=79 velocity=92 time=0\n",
      "note_off channel=0 note=79 velocity=64 time=96\n",
      "note_on channel=0 note=76 velocity=92 time=0\n",
      "note_off channel=0 note=76 velocity=64 time=96\n",
      "note_on channel=0 note=64 velocity=92 time=0\n",
      "note_on channel=0 note=72 velocity=92 time=0\n",
      "note_off channel=0 note=72 velocity=64 time=96\n",
      "note_off channel=0 note=64 velocity=64 time=0\n",
      "note_on channel=0 note=62 velocity=92 time=0\n",
      "note_on channel=0 note=71 velocity=92 time=0\n",
      "note_off channel=0 note=71 velocity=64 time=96\n",
      "note_off channel=0 note=62 velocity=64 time=0\n",
      "note_on channel=0 note=64 velocity=92 time=0\n",
      "note_on channel=0 note=72 velocity=92 time=0\n",
      "note_off channel=0 note=72 velocity=64 time=96\n",
      "note_off channel=0 note=64 velocity=64 time=0\n",
      "note_on channel=0 note=67 velocity=92 time=0\n",
      "note_on channel=0 note=60 velocity=92 time=0\n",
      "note_off channel=0 note=60 velocity=64 time=96\n",
      "note_off channel=0 note=67 velocity=64 time=0\n",
      "note_on channel=0 note=72 velocity=92 time=0\n",
      "note_on channel=0 note=64 velocity=92 time=0\n",
      "note_off channel=0 note=64 velocity=64 time=96\n",
      "note_off channel=0 note=72 velocity=64 time=0\n",
      "note_on channel=0 note=71 velocity=92 time=0\n",
      "note_on channel=0 note=62 velocity=92 time=0\n",
      "note_off channel=0 note=62 velocity=64 time=96\n",
      "note_off channel=0 note=71 velocity=64 time=0\n",
      "note_on channel=0 note=72 velocity=92 time=0\n",
      "note_on channel=0 note=64 velocity=92 time=0\n",
      "note_off channel=0 note=64 velocity=64 time=96\n",
      "note_off channel=0 note=72 velocity=64 time=0\n",
      "note_on channel=0 note=66 velocity=92 time=0\n",
      "note_on channel=0 note=69 velocity=92 time=0\n",
      "note_off channel=0 note=69 velocity=64 time=96\n",
      "note_off channel=0 note=66 velocity=64 time=0\n",
      "note_on channel=0 note=78 velocity=92 time=0\n",
      "note_off channel=0 note=78 velocity=64 time=96\n",
      "note_on channel=0 note=76 velocity=92 time=0\n",
      "note_off channel=0 note=76 velocity=64 time=96\n",
      "note_on channel=0 note=78 velocity=92 time=0\n",
      "note_off channel=0 note=78 velocity=64 time=96\n",
      "note_on channel=0 note=73 velocity=92 time=0\n",
      "note_off channel=0 note=73 velocity=64 time=96\n",
      "note_on channel=0 note=78 velocity=92 time=0\n",
      "note_off channel=0 note=78 velocity=64 time=96\n",
      "note_on channel=0 note=76 velocity=92 time=0\n",
      "note_off channel=0 note=76 velocity=64 time=96\n",
      "note_on channel=0 note=78 velocity=92 time=0\n",
      "note_off channel=0 note=78 velocity=64 time=96\n",
      "note_on channel=0 note=75 velocity=92 time=0\n",
      "note_off channel=0 note=75 velocity=64 time=96\n",
      "note_on channel=0 note=63 velocity=92 time=0\n",
      "note_on channel=0 note=71 velocity=92 time=0\n",
      "note_off channel=0 note=71 velocity=64 time=96\n",
      "note_off channel=0 note=63 velocity=64 time=0\n",
      "note_on channel=0 note=61 velocity=92 time=0\n",
      "note_on channel=0 note=69 velocity=92 time=0\n",
      "note_off channel=0 note=69 velocity=64 time=96\n",
      "note_off channel=0 note=61 velocity=64 time=0\n",
      "note_on channel=0 note=63 velocity=92 time=0\n",
      "note_on channel=0 note=71 velocity=92 time=0\n",
      "note_off channel=0 note=71 velocity=64 time=96\n",
      "note_off channel=0 note=63 velocity=64 time=0\n",
      "note_on channel=0 note=66 velocity=92 time=0\n",
      "note_on channel=0 note=59 velocity=92 time=0\n",
      "note_off channel=0 note=59 velocity=64 time=96\n",
      "note_off channel=0 note=66 velocity=64 time=0\n",
      "note_on channel=0 note=71 velocity=92 time=0\n",
      "note_on channel=0 note=63 velocity=92 time=0\n",
      "note_off channel=0 note=63 velocity=64 time=96\n",
      "note_off channel=0 note=71 velocity=64 time=0\n",
      "note_on channel=0 note=69 velocity=92 time=0\n",
      "note_on channel=0 note=61 velocity=92 time=0\n",
      "note_off channel=0 note=61 velocity=64 time=96\n",
      "note_off channel=0 note=69 velocity=64 time=0\n",
      "note_on channel=0 note=71 velocity=92 time=0\n",
      "note_on channel=0 note=63 velocity=92 time=0\n",
      "note_off channel=0 note=63 velocity=64 time=96\n",
      "note_off channel=0 note=71 velocity=64 time=0\n",
      "note_on channel=0 note=67 velocity=92 time=0\n",
      "note_on channel=0 note=64 velocity=92 time=0\n",
      "note_off channel=0 note=64 velocity=64 time=96\n",
      "note_off channel=0 note=67 velocity=64 time=0\n",
      "note_on channel=0 note=76 velocity=92 time=0\n",
      "note_off channel=0 note=76 velocity=64 time=96\n",
      "note_on channel=0 note=74 velocity=92 time=0\n",
      "note_off channel=0 note=74 velocity=64 time=96\n",
      "note_on channel=0 note=76 velocity=92 time=0\n",
      "note_off channel=0 note=76 velocity=64 time=96\n",
      "note_on channel=0 note=71 velocity=92 time=0\n",
      "note_off channel=0 note=71 velocity=64 time=96\n",
      "note_on channel=0 note=76 velocity=92 time=0\n",
      "note_off channel=0 note=76 velocity=64 time=96\n",
      "note_on channel=0 note=74 velocity=92 time=0\n",
      "note_off channel=0 note=74 velocity=64 time=96\n",
      "note_on channel=0 note=76 velocity=92 time=0\n",
      "note_off channel=0 note=76 velocity=64 time=96\n",
      "note_on channel=0 note=72 velocity=92 time=0\n",
      "note_off channel=0 note=72 velocity=64 time=192\n",
      "note_on channel=0 note=76 velocity=92 time=0\n",
      "note_on channel=0 note=72 velocity=92 time=0\n",
      "note_on channel=0 note=69 velocity=92 time=0\n",
      "note_off channel=0 note=69 velocity=64 time=192\n",
      "note_off channel=0 note=72 velocity=64 time=0\n",
      "note_on channel=0 note=69 velocity=92 time=0\n",
      "note_on channel=0 note=71 velocity=92 time=0\n",
      "note_off channel=0 note=76 velocity=64 time=192\n",
      "note_on channel=0 note=75 velocity=92 time=0\n",
      "note_off channel=0 note=75 velocity=64 time=192\n",
      "note_off channel=0 note=71 velocity=64 time=0\n",
      "note_off channel=0 note=69 velocity=64 time=0\n",
      "note_on channel=0 note=67 velocity=92 time=0\n",
      "note_on channel=0 note=71 velocity=92 time=0\n",
      "note_on channel=0 note=76 velocity=92 time=0\n",
      "note_off channel=0 note=76 velocity=64 time=192\n",
      "note_off channel=0 note=71 velocity=64 time=0\n",
      "note_off channel=0 note=67 velocity=64 time=0\n",
      "note_on channel=0 note=79 velocity=92 time=0\n",
      "note_off channel=0 note=79 velocity=64 time=96\n",
      "note_on channel=0 note=78 velocity=92 time=0\n",
      "note_off channel=0 note=78 velocity=64 time=96\n",
      "note_on channel=0 note=76 velocity=92 time=0\n",
      "note_off channel=0 note=76 velocity=64 time=192\n",
      "note_on channel=0 note=71 velocity=92 time=0\n",
      "note_on channel=0 note=79 velocity=92 time=0\n",
      "note_on channel=0 note=76 velocity=92 time=0\n",
      "note_off channel=0 note=76 velocity=64 time=192\n",
      "note_off channel=0 note=79 velocity=64 time=0\n",
      "note_off channel=0 note=71 velocity=64 time=0\n",
      "note_on channel=0 note=78 velocity=92 time=0\n",
      "note_on channel=0 note=71 velocity=92 time=0\n",
      "note_on channel=0 note=75 velocity=92 time=0\n",
      "note_off channel=0 note=78 velocity=64 time=192\n",
      "note_on channel=0 note=83 velocity=92 time=0\n",
      "note_off channel=0 note=83 velocity=64 time=192\n",
      "note_off channel=0 note=75 velocity=64 time=0\n",
      "note_off channel=0 note=71 velocity=64 time=0\n",
      "note_on channel=0 note=71 velocity=92 time=0\n",
      "note_off channel=0 note=71 velocity=64 time=192\n",
      "note_on channel=0 note=83 velocity=92 time=0\n",
      "note_on channel=0 note=78 velocity=92 time=0\n",
      "note_on channel=0 note=71 velocity=92 time=0\n",
      "note_off channel=0 note=71 velocity=64 time=192\n",
      "note_off channel=0 note=78 velocity=64 time=0\n",
      "note_off channel=0 note=83 velocity=64 time=0\n",
      "note_on channel=0 note=79 velocity=92 time=0\n",
      "note_on channel=0 note=71 velocity=92 time=0\n",
      "note_on channel=0 note=76 velocity=92 time=0\n",
      "note_off channel=0 note=79 velocity=64 time=192\n",
      "note_on channel=0 note=79 velocity=92 time=0\n",
      "note_off channel=0 note=79 velocity=64 time=96\n",
      "note_on channel=0 note=81 velocity=92 time=0\n",
      "note_off channel=0 note=81 velocity=64 time=96\n",
      "note_off channel=0 note=76 velocity=64 time=0\n",
      "note_off channel=0 note=71 velocity=64 time=0\n",
      "note_on channel=0 note=83 velocity=92 time=0\n",
      "note_off channel=0 note=83 velocity=64 time=192\n",
      "note_on channel=0 note=81 velocity=92 time=0\n",
      "note_on channel=0 note=71 velocity=92 time=0\n",
      "note_on channel=0 note=76 velocity=92 time=0\n",
      "note_off channel=0 note=81 velocity=64 time=96\n",
      "note_on channel=0 note=79 velocity=92 time=0\n",
      "note_off channel=0 note=79 velocity=64 time=96\n",
      "note_off channel=0 note=76 velocity=64 time=0\n",
      "note_off channel=0 note=71 velocity=64 time=0\n",
      "note_on channel=0 note=75 velocity=92 time=0\n",
      "note_on channel=0 note=78 velocity=92 time=0\n",
      "note_off channel=0 note=78 velocity=64 time=384\n",
      "note_off channel=0 note=75 velocity=64 time=0\n",
      "note_on channel=0 note=74 velocity=92 time=384\n",
      "note_off channel=0 note=74 velocity=64 time=192\n",
      "note_on channel=0 note=77 velocity=92 time=0\n",
      "note_off channel=0 note=77 velocity=64 time=96\n",
      "note_on channel=0 note=76 velocity=92 time=0\n",
      "note_off channel=0 note=76 velocity=64 time=96\n",
      "note_on channel=0 note=74 velocity=92 time=0\n",
      "note_off channel=0 note=74 velocity=64 time=192\n",
      "note_on channel=0 note=77 velocity=92 time=0\n",
      "note_on channel=0 note=74 velocity=92 time=0\n",
      "note_off channel=0 note=74 velocity=64 time=192\n",
      "note_off channel=0 note=77 velocity=64 time=0\n",
      "note_on channel=0 note=76 velocity=92 time=0\n",
      "note_on channel=0 note=73 velocity=92 time=0\n",
      "note_off channel=0 note=76 velocity=64 time=192\n",
      "note_on channel=0 note=81 velocity=92 time=0\n",
      "note_off channel=0 note=81 velocity=64 time=192\n",
      "note_off channel=0 note=73 velocity=64 time=0\n",
      "note_on channel=0 note=69 velocity=92 time=0\n",
      "note_off channel=0 note=69 velocity=64 time=192\n",
      "note_on channel=0 note=81 velocity=92 time=0\n",
      "note_on channel=0 note=76 velocity=92 time=0\n",
      "note_on channel=0 note=69 velocity=92 time=0\n",
      "note_off channel=0 note=69 velocity=64 time=192\n",
      "note_off channel=0 note=76 velocity=64 time=0\n",
      "note_off channel=0 note=81 velocity=64 time=0\n",
      "note_on channel=0 note=77 velocity=92 time=0\n",
      "note_on channel=0 note=74 velocity=92 time=0\n",
      "note_on channel=0 note=69 velocity=92 time=0\n",
      "note_off channel=0 note=77 velocity=64 time=192\n",
      "note_on channel=0 note=77 velocity=92 time=0\n",
      "note_off channel=0 note=77 velocity=64 time=96\n",
      "note_on channel=0 note=79 velocity=92 time=0\n",
      "note_off channel=0 note=79 velocity=64 time=96\n",
      "note_off channel=0 note=69 velocity=64 time=0\n",
      "note_off channel=0 note=74 velocity=64 time=0\n",
      "note_on channel=0 note=81 velocity=92 time=0\n",
      "note_off channel=0 note=81 velocity=64 time=192\n",
      "note_on channel=0 note=79 velocity=92 time=0\n",
      "note_on channel=0 note=69 velocity=92 time=0\n",
      "note_on channel=0 note=74 velocity=92 time=0\n",
      "note_off channel=0 note=79 velocity=64 time=96\n",
      "note_on channel=0 note=77 velocity=92 time=0\n",
      "note_off channel=0 note=77 velocity=64 time=96\n",
      "note_off channel=0 note=74 velocity=64 time=0\n",
      "note_off channel=0 note=69 velocity=64 time=0\n",
      "note_on channel=0 note=69 velocity=92 time=0\n",
      "note_on channel=0 note=73 velocity=92 time=0\n",
      "note_on channel=0 note=76 velocity=92 time=0\n",
      "note_off channel=0 note=76 velocity=64 time=384\n",
      "note_off channel=0 note=73 velocity=64 time=0\n",
      "note_off channel=0 note=69 velocity=64 time=0\n",
      "note_on channel=0 note=69 velocity=92 time=0\n",
      "note_off channel=0 note=69 velocity=64 time=192\n",
      "note_on channel=0 note=81 velocity=92 time=0\n",
      "note_on channel=0 note=76 velocity=92 time=0\n",
      "note_on channel=0 note=69 velocity=92 time=0\n",
      "note_off channel=0 note=69 velocity=64 time=192\n",
      "note_off channel=0 note=76 velocity=64 time=0\n",
      "note_off channel=0 note=81 velocity=64 time=0\n",
      "note_on channel=0 note=69 velocity=92 time=0\n",
      "note_on channel=0 note=74 velocity=92 time=0\n",
      "note_on channel=0 note=77 velocity=92 time=0\n",
      "note_off channel=0 note=77 velocity=64 time=96\n",
      "note_off channel=0 note=74 velocity=64 time=0\n",
      "note_off channel=0 note=69 velocity=64 time=0\n",
      "note_on channel=0 note=65 velocity=92 time=0\n",
      "note_on channel=0 note=74 velocity=92 time=0\n",
      "note_off channel=0 note=74 velocity=64 time=96\n",
      "note_off channel=0 note=65 velocity=64 time=0\n",
      "note_on channel=0 note=64 velocity=92 time=0\n",
      "note_on channel=0 note=72 velocity=92 time=0\n",
      "note_off channel=0 note=72 velocity=64 time=96\n",
      "note_off channel=0 note=64 velocity=64 time=0\n",
      "note_on channel=0 note=65 velocity=92 time=0\n",
      "note_on channel=0 note=74 velocity=92 time=0\n",
      "note_off channel=0 note=74 velocity=64 time=96\n",
      "note_off channel=0 note=65 velocity=64 time=0\n",
      "note_on channel=0 note=62 velocity=92 time=0\n",
      "note_on channel=0 note=69 velocity=92 time=0\n",
      "note_off channel=0 note=69 velocity=64 time=96\n",
      "note_off channel=0 note=62 velocity=64 time=0\n",
      "note_on channel=0 note=65 velocity=92 time=0\n",
      "note_on channel=0 note=74 velocity=92 time=0\n",
      "note_off channel=0 note=74 velocity=64 time=96\n",
      "note_off channel=0 note=65 velocity=64 time=0\n",
      "note_on channel=0 note=64 velocity=92 time=0\n",
      "note_on channel=0 note=72 velocity=92 time=0\n",
      "note_off channel=0 note=72 velocity=64 time=96\n",
      "note_off channel=0 note=64 velocity=64 time=0\n",
      "note_on channel=0 note=65 velocity=92 time=0\n",
      "note_on channel=0 note=74 velocity=92 time=0\n",
      "note_off channel=0 note=74 velocity=64 time=96\n",
      "note_off channel=0 note=65 velocity=64 time=0\n",
      "note_on channel=0 note=67 velocity=92 time=0\n",
      "note_on channel=0 note=70 velocity=92 time=0\n",
      "note_off channel=0 note=70 velocity=64 time=96\n",
      "note_off channel=0 note=67 velocity=64 time=0\n",
      "note_on channel=0 note=79 velocity=92 time=0\n",
      "note_off channel=0 note=79 velocity=64 time=96\n",
      "note_on channel=0 note=77 velocity=92 time=0\n",
      "note_off channel=0 note=77 velocity=64 time=96\n",
      "note_on channel=0 note=79 velocity=92 time=0\n",
      "note_off channel=0 note=79 velocity=64 time=96\n",
      "note_on channel=0 note=74 velocity=92 time=0\n",
      "note_off channel=0 note=74 velocity=64 time=96\n",
      "note_on channel=0 note=79 velocity=92 time=0\n",
      "note_off channel=0 note=79 velocity=64 time=96\n",
      "note_on channel=0 note=77 velocity=92 time=0\n",
      "note_off channel=0 note=77 velocity=64 time=96\n",
      "note_on channel=0 note=79 velocity=92 time=0\n",
      "note_off channel=0 note=79 velocity=64 time=96\n",
      "note_on channel=0 note=76 velocity=92 time=0\n",
      "note_off channel=0 note=76 velocity=64 time=96\n",
      "note_on channel=0 note=64 velocity=92 time=0\n",
      "note_on channel=0 note=72 velocity=92 time=0\n",
      "note_off channel=0 note=72 velocity=64 time=96\n",
      "note_off channel=0 note=64 velocity=64 time=0\n",
      "note_on channel=0 note=62 velocity=92 time=0\n",
      "note_on channel=0 note=70 velocity=92 time=0\n",
      "note_off channel=0 note=70 velocity=64 time=96\n",
      "note_off channel=0 note=62 velocity=64 time=0\n",
      "note_on channel=0 note=64 velocity=92 time=0\n",
      "note_on channel=0 note=72 velocity=92 time=0\n",
      "note_off channel=0 note=72 velocity=64 time=96\n",
      "note_off channel=0 note=64 velocity=64 time=0\n",
      "note_on channel=0 note=60 velocity=92 time=0\n",
      "note_on channel=0 note=67 velocity=92 time=0\n",
      "note_off channel=0 note=67 velocity=64 time=96\n",
      "note_off channel=0 note=60 velocity=64 time=0\n",
      "note_on channel=0 note=64 velocity=92 time=0\n",
      "note_on channel=0 note=72 velocity=92 time=0\n",
      "note_off channel=0 note=72 velocity=64 time=96\n",
      "note_off channel=0 note=64 velocity=64 time=0\n",
      "note_on channel=0 note=62 velocity=92 time=0\n",
      "note_on channel=0 note=70 velocity=92 time=0\n",
      "note_off channel=0 note=70 velocity=64 time=96\n",
      "note_off channel=0 note=62 velocity=64 time=0\n",
      "note_on channel=0 note=64 velocity=92 time=0\n",
      "note_on channel=0 note=72 velocity=92 time=0\n",
      "note_off channel=0 note=72 velocity=64 time=96\n",
      "note_off channel=0 note=64 velocity=64 time=0\n",
      "note_on channel=0 note=65 velocity=92 time=0\n",
      "note_on channel=0 note=69 velocity=92 time=0\n",
      "note_off channel=0 note=69 velocity=64 time=96\n",
      "note_off channel=0 note=65 velocity=64 time=0\n",
      "note_on channel=0 note=77 velocity=92 time=0\n",
      "note_off channel=0 note=77 velocity=64 time=96\n",
      "note_on channel=0 note=76 velocity=92 time=0\n",
      "note_off channel=0 note=76 velocity=64 time=96\n",
      "note_on channel=0 note=77 velocity=92 time=0\n",
      "note_off channel=0 note=77 velocity=64 time=96\n",
      "note_on channel=0 note=72 velocity=92 time=0\n",
      "note_off channel=0 note=72 velocity=64 time=96\n",
      "note_on channel=0 note=77 velocity=92 time=0\n",
      "note_off channel=0 note=77 velocity=64 time=96\n",
      "note_on channel=0 note=76 velocity=92 time=0\n",
      "note_off channel=0 note=76 velocity=64 time=96\n",
      "note_on channel=0 note=77 velocity=92 time=0\n",
      "note_off channel=0 note=77 velocity=64 time=96\n",
      "note_on channel=0 note=74 velocity=92 time=0\n",
      "note_off channel=0 note=74 velocity=64 time=96\n",
      "note_on channel=0 note=62 velocity=92 time=0\n",
      "note_on channel=0 note=70 velocity=92 time=0\n",
      "note_off channel=0 note=70 velocity=64 time=96\n",
      "note_off channel=0 note=62 velocity=64 time=0\n",
      "note_on channel=0 note=60 velocity=92 time=0\n",
      "note_on channel=0 note=69 velocity=92 time=0\n",
      "note_off channel=0 note=69 velocity=64 time=96\n",
      "note_off channel=0 note=60 velocity=64 time=0\n",
      "note_on channel=0 note=62 velocity=92 time=0\n",
      "note_on channel=0 note=70 velocity=92 time=0\n",
      "note_off channel=0 note=70 velocity=64 time=96\n",
      "note_off channel=0 note=62 velocity=64 time=0\n",
      "note_on channel=0 note=58 velocity=92 time=0\n",
      "note_on channel=0 note=65 velocity=92 time=0\n",
      "note_off channel=0 note=65 velocity=64 time=96\n",
      "note_off channel=0 note=58 velocity=64 time=0\n",
      "note_on channel=0 note=62 velocity=92 time=0\n",
      "note_on channel=0 note=70 velocity=92 time=0\n",
      "note_off channel=0 note=70 velocity=64 time=96\n",
      "note_off channel=0 note=62 velocity=64 time=0\n",
      "note_on channel=0 note=60 velocity=92 time=0\n",
      "note_on channel=0 note=69 velocity=92 time=0\n",
      "note_off channel=0 note=69 velocity=64 time=96\n",
      "note_off channel=0 note=60 velocity=64 time=0\n",
      "note_on channel=0 note=62 velocity=92 time=0\n",
      "note_on channel=0 note=70 velocity=92 time=0\n",
      "note_off channel=0 note=70 velocity=64 time=96\n",
      "note_off channel=0 note=62 velocity=64 time=0\n",
      "note_on channel=0 note=64 velocity=92 time=0\n",
      "note_on channel=0 note=67 velocity=92 time=0\n",
      "note_off channel=0 note=67 velocity=64 time=96\n",
      "note_off channel=0 note=64 velocity=64 time=0\n",
      "note_on channel=0 note=76 velocity=92 time=0\n",
      "note_off channel=0 note=76 velocity=64 time=96\n",
      "note_on channel=0 note=74 velocity=92 time=0\n",
      "note_off channel=0 note=74 velocity=64 time=96\n",
      "note_on channel=0 note=76 velocity=92 time=0\n",
      "note_off channel=0 note=76 velocity=64 time=96\n",
      "note_on channel=0 note=71 velocity=92 time=0\n",
      "note_off channel=0 note=71 velocity=64 time=96\n",
      "note_on channel=0 note=76 velocity=92 time=0\n",
      "note_off channel=0 note=76 velocity=64 time=96\n",
      "note_on channel=0 note=74 velocity=92 time=0\n",
      "note_off channel=0 note=74 velocity=64 time=96\n",
      "note_on channel=0 note=76 velocity=92 time=0\n",
      "note_off channel=0 note=76 velocity=64 time=96\n",
      "note_on channel=0 note=73 velocity=92 time=0\n",
      "note_off channel=0 note=73 velocity=64 time=96\n",
      "note_on channel=0 note=69 velocity=92 time=0\n",
      "note_off channel=0 note=69 velocity=64 time=96\n",
      "note_on channel=0 note=67 velocity=92 time=0\n",
      "note_off channel=0 note=67 velocity=64 time=96\n",
      "note_on channel=0 note=69 velocity=92 time=0\n",
      "note_off channel=0 note=69 velocity=64 time=96\n",
      "note_on channel=0 note=64 velocity=92 time=0\n",
      "note_off channel=0 note=64 velocity=64 time=96\n",
      "note_on channel=0 note=69 velocity=92 time=0\n",
      "note_off channel=0 note=69 velocity=64 time=96\n",
      "note_on channel=0 note=67 velocity=92 time=0\n",
      "note_off channel=0 note=67 velocity=64 time=96\n",
      "note_on channel=0 note=69 velocity=92 time=0\n",
      "note_off channel=0 note=69 velocity=64 time=96\n",
      "note_on channel=0 note=65 velocity=92 time=0\n",
      "note_off channel=0 note=65 velocity=64 time=96\n",
      "note_on channel=0 note=74 velocity=92 time=0\n",
      "note_off channel=0 note=74 velocity=64 time=96\n",
      "note_on channel=0 note=72 velocity=92 time=0\n",
      "note_off channel=0 note=72 velocity=64 time=96\n",
      "note_on channel=0 note=74 velocity=92 time=0\n",
      "note_off channel=0 note=74 velocity=64 time=96\n",
      "note_on channel=0 note=69 velocity=92 time=0\n",
      "note_off channel=0 note=69 velocity=64 time=96\n",
      "note_on channel=0 note=74 velocity=92 time=0\n",
      "note_off channel=0 note=74 velocity=64 time=96\n",
      "note_on channel=0 note=72 velocity=92 time=0\n",
      "note_off channel=0 note=72 velocity=64 time=96\n",
      "note_on channel=0 note=74 velocity=92 time=0\n",
      "note_off channel=0 note=74 velocity=64 time=96\n",
      "note_on channel=0 note=70 velocity=92 time=0\n",
      "note_off channel=0 note=70 velocity=64 time=96\n",
      "note_on channel=0 note=69 velocity=92 time=0\n",
      "note_off channel=0 note=69 velocity=64 time=96\n",
      "note_on channel=0 note=67 velocity=92 time=0\n",
      "note_off channel=0 note=67 velocity=64 time=96\n",
      "note_on channel=0 note=65 velocity=92 time=0\n",
      "note_off channel=0 note=65 velocity=64 time=96\n",
      "note_on channel=0 note=64 velocity=92 time=0\n",
      "note_off channel=0 note=64 velocity=64 time=96\n",
      "note_on channel=0 note=62 velocity=92 time=0\n",
      "note_off channel=0 note=62 velocity=64 time=96\n",
      "note_on channel=0 note=73 velocity=92 time=288\n",
      "note_off channel=0 note=73 velocity=64 time=96\n",
      "note_on channel=0 note=71 velocity=92 time=0\n",
      "note_off channel=0 note=71 velocity=64 time=96\n",
      "note_on channel=0 note=73 velocity=92 time=0\n",
      "note_off channel=0 note=73 velocity=64 time=96\n",
      "note_on channel=0 note=69 velocity=92 time=0\n",
      "note_off channel=0 note=69 velocity=64 time=96\n",
      "note_on channel=0 note=73 velocity=92 time=0\n",
      "note_off channel=0 note=73 velocity=64 time=96\n",
      "note_on channel=0 note=71 velocity=92 time=0\n",
      "note_off channel=0 note=71 velocity=64 time=96\n",
      "note_on channel=0 note=73 velocity=92 time=0\n",
      "note_off channel=0 note=73 velocity=64 time=96\n",
      "note_on channel=0 note=74 velocity=92 time=0\n",
      "note_off channel=0 note=74 velocity=64 time=96\n",
      "note_on channel=0 note=67 velocity=92 time=0\n",
      "note_off channel=0 note=67 velocity=64 time=96\n",
      "note_on channel=0 note=65 velocity=92 time=0\n",
      "note_off channel=0 note=65 velocity=64 time=96\n",
      "note_on channel=0 note=64 velocity=92 time=0\n",
      "note_off channel=0 note=64 velocity=64 time=96\n",
      "note_on channel=0 note=62 velocity=92 time=0\n",
      "note_off channel=0 note=62 velocity=64 time=96\n",
      "note_on channel=0 note=60 velocity=92 time=0\n",
      "note_off channel=0 note=60 velocity=64 time=96\n",
      "note_on channel=0 note=82 velocity=92 time=288\n",
      "note_off channel=0 note=82 velocity=64 time=96\n",
      "note_on channel=0 note=81 velocity=92 time=0\n",
      "note_off channel=0 note=81 velocity=64 time=96\n",
      "note_on channel=0 note=82 velocity=92 time=0\n",
      "note_off channel=0 note=82 velocity=64 time=96\n",
      "note_on channel=0 note=79 velocity=92 time=0\n",
      "note_off channel=0 note=79 velocity=64 time=96\n",
      "note_on channel=0 note=82 velocity=92 time=0\n",
      "note_off channel=0 note=82 velocity=64 time=96\n",
      "note_on channel=0 note=81 velocity=92 time=0\n",
      "note_off channel=0 note=81 velocity=64 time=96\n",
      "note_on channel=0 note=82 velocity=92 time=0\n",
      "note_off channel=0 note=82 velocity=64 time=96\n",
      "note_on channel=0 note=76 velocity=92 time=0\n",
      "note_off channel=0 note=76 velocity=64 time=96\n",
      "note_on channel=0 note=70 velocity=92 time=0\n",
      "note_on channel=0 note=79 velocity=92 time=0\n",
      "note_off channel=0 note=79 velocity=64 time=96\n",
      "note_off channel=0 note=70 velocity=64 time=0\n",
      "note_on channel=0 note=69 velocity=92 time=0\n",
      "note_on channel=0 note=77 velocity=92 time=0\n",
      "note_off channel=0 note=77 velocity=64 time=96\n",
      "note_off channel=0 note=69 velocity=64 time=0\n",
      "note_on channel=0 note=70 velocity=92 time=0\n",
      "note_on channel=0 note=79 velocity=92 time=0\n",
      "note_off channel=0 note=79 velocity=64 time=96\n",
      "note_off channel=0 note=70 velocity=64 time=0\n",
      "note_on channel=0 note=67 velocity=92 time=0\n",
      "note_on channel=0 note=76 velocity=92 time=0\n",
      "note_off channel=0 note=76 velocity=64 time=96\n",
      "note_off channel=0 note=67 velocity=64 time=0\n",
      "note_on channel=0 note=70 velocity=92 time=0\n",
      "note_on channel=0 note=79 velocity=92 time=0\n",
      "note_off channel=0 note=79 velocity=64 time=96\n",
      "note_off channel=0 note=70 velocity=64 time=0\n",
      "note_on channel=0 note=69 velocity=92 time=0\n",
      "note_on channel=0 note=77 velocity=92 time=0\n",
      "note_off channel=0 note=77 velocity=64 time=96\n",
      "note_off channel=0 note=69 velocity=64 time=0\n",
      "note_on channel=0 note=70 velocity=92 time=0\n",
      "note_on channel=0 note=79 velocity=92 time=0\n",
      "note_off channel=0 note=79 velocity=64 time=96\n",
      "note_off channel=0 note=70 velocity=64 time=0\n",
      "note_on channel=0 note=64 velocity=92 time=0\n",
      "note_on channel=0 note=73 velocity=92 time=0\n",
      "note_off channel=0 note=73 velocity=64 time=96\n",
      "note_off channel=0 note=64 velocity=64 time=0\n",
      "note_on channel=0 note=67 velocity=92 time=0\n",
      "note_on channel=0 note=76 velocity=92 time=0\n",
      "note_off channel=0 note=76 velocity=64 time=96\n",
      "note_off channel=0 note=67 velocity=64 time=0\n",
      "note_on channel=0 note=65 velocity=92 time=0\n",
      "note_on channel=0 note=74 velocity=92 time=0\n",
      "note_off channel=0 note=74 velocity=64 time=96\n",
      "note_off channel=0 note=65 velocity=64 time=0\n",
      "note_on channel=0 note=67 velocity=92 time=0\n",
      "note_on channel=0 note=76 velocity=92 time=0\n",
      "note_off channel=0 note=76 velocity=64 time=96\n",
      "note_off channel=0 note=67 velocity=64 time=0\n",
      "note_on channel=0 note=64 velocity=92 time=0\n",
      "note_on channel=0 note=73 velocity=92 time=0\n",
      "note_off channel=0 note=73 velocity=64 time=96\n",
      "note_off channel=0 note=64 velocity=64 time=0\n",
      "note_on channel=0 note=67 velocity=92 time=0\n",
      "note_on channel=0 note=76 velocity=92 time=0\n",
      "note_off channel=0 note=76 velocity=64 time=96\n",
      "note_off channel=0 note=67 velocity=64 time=0\n",
      "note_on channel=0 note=65 velocity=92 time=0\n",
      "note_on channel=0 note=74 velocity=92 time=0\n",
      "note_off channel=0 note=74 velocity=64 time=96\n",
      "note_off channel=0 note=65 velocity=64 time=0\n",
      "note_on channel=0 note=67 velocity=92 time=0\n",
      "note_on channel=0 note=76 velocity=92 time=0\n",
      "note_off channel=0 note=76 velocity=64 time=96\n",
      "note_off channel=0 note=67 velocity=64 time=0\n",
      "note_on channel=0 note=69 velocity=92 time=0\n",
      "note_on channel=0 note=61 velocity=92 time=0\n",
      "note_off channel=0 note=61 velocity=64 time=96\n",
      "note_off channel=0 note=69 velocity=64 time=0\n",
      "note_on channel=0 note=71 velocity=92 time=0\n",
      "note_on channel=0 note=62 velocity=92 time=0\n",
      "note_off channel=0 note=62 velocity=64 time=96\n",
      "note_off channel=0 note=71 velocity=64 time=0\n",
      "note_on channel=0 note=69 velocity=92 time=0\n",
      "note_on channel=0 note=61 velocity=92 time=0\n",
      "note_off channel=0 note=61 velocity=64 time=96\n",
      "note_off channel=0 note=69 velocity=64 time=0\n",
      "note_on channel=0 note=71 velocity=92 time=0\n",
      "note_on channel=0 note=62 velocity=92 time=0\n",
      "note_off channel=0 note=62 velocity=64 time=96\n",
      "note_off channel=0 note=71 velocity=64 time=0\n",
      "note_on channel=0 note=73 velocity=92 time=0\n",
      "note_on channel=0 note=64 velocity=92 time=0\n",
      "note_off channel=0 note=64 velocity=64 time=96\n",
      "note_off channel=0 note=73 velocity=64 time=0\n",
      "note_on channel=0 note=74 velocity=92 time=0\n",
      "note_on channel=0 note=65 velocity=92 time=0\n",
      "note_off channel=0 note=65 velocity=64 time=96\n",
      "note_off channel=0 note=74 velocity=64 time=0\n",
      "note_on channel=0 note=73 velocity=92 time=0\n",
      "note_on channel=0 note=64 velocity=92 time=0\n",
      "note_off channel=0 note=64 velocity=64 time=96\n",
      "note_off channel=0 note=73 velocity=64 time=0\n",
      "note_on channel=0 note=74 velocity=92 time=0\n",
      "note_on channel=0 note=65 velocity=92 time=0\n",
      "note_off channel=0 note=65 velocity=64 time=96\n",
      "note_off channel=0 note=74 velocity=64 time=0\n",
      "note_on channel=0 note=74 velocity=92 time=0\n",
      "note_on channel=0 note=67 velocity=92 time=0\n",
      "note_off channel=0 note=74 velocity=64 time=48\n",
      "note_on channel=0 note=73 velocity=92 time=0\n",
      "note_off channel=0 note=73 velocity=64 time=48\n",
      "note_off channel=0 note=67 velocity=64 time=0\n",
      "note_on channel=0 note=74 velocity=92 time=0\n",
      "note_on channel=0 note=70 velocity=92 time=0\n",
      "note_off channel=0 note=74 velocity=64 time=48\n",
      "note_on channel=0 note=73 velocity=92 time=0\n",
      "note_off channel=0 note=73 velocity=64 time=48\n",
      "note_off channel=0 note=70 velocity=64 time=0\n",
      "note_on channel=0 note=74 velocity=92 time=0\n",
      "note_on channel=0 note=69 velocity=92 time=0\n",
      "note_off channel=0 note=74 velocity=64 time=48\n",
      "note_on channel=0 note=73 velocity=92 time=0\n",
      "note_off channel=0 note=73 velocity=64 time=48\n",
      "note_off channel=0 note=69 velocity=64 time=0\n",
      "note_on channel=0 note=74 velocity=92 time=0\n",
      "note_on channel=0 note=70 velocity=92 time=0\n",
      "note_off channel=0 note=74 velocity=64 time=48\n",
      "note_on channel=0 note=73 velocity=92 time=0\n",
      "note_off channel=0 note=73 velocity=64 time=48\n",
      "note_off channel=0 note=70 velocity=64 time=0\n",
      "note_on channel=0 note=74 velocity=92 time=0\n",
      "note_on channel=0 note=64 velocity=92 time=0\n",
      "note_off channel=0 note=74 velocity=64 time=48\n",
      "note_on channel=0 note=73 velocity=92 time=0\n",
      "note_off channel=0 note=73 velocity=64 time=48\n",
      "note_off channel=0 note=64 velocity=64 time=0\n",
      "note_on channel=0 note=74 velocity=92 time=0\n",
      "note_on channel=0 note=65 velocity=92 time=0\n",
      "note_off channel=0 note=74 velocity=64 time=48\n",
      "note_on channel=0 note=73 velocity=92 time=0\n",
      "note_off channel=0 note=73 velocity=64 time=48\n",
      "note_off channel=0 note=65 velocity=64 time=0\n",
      "note_on channel=0 note=74 velocity=92 time=0\n",
      "note_on channel=0 note=64 velocity=92 time=0\n",
      "note_off channel=0 note=74 velocity=64 time=48\n",
      "note_on channel=0 note=73 velocity=92 time=0\n",
      "note_off channel=0 note=73 velocity=64 time=48\n",
      "note_off channel=0 note=64 velocity=64 time=0\n",
      "note_on channel=0 note=74 velocity=92 time=0\n",
      "note_on channel=0 note=65 velocity=92 time=0\n",
      "note_off channel=0 note=74 velocity=64 time=48\n",
      "note_on channel=0 note=73 velocity=92 time=0\n",
      "note_off channel=0 note=73 velocity=64 time=48\n",
      "note_off channel=0 note=65 velocity=64 time=0\n",
      "note_on channel=0 note=74 velocity=92 time=0\n",
      "note_on channel=0 note=67 velocity=92 time=0\n",
      "note_off channel=0 note=74 velocity=64 time=48\n",
      "note_on channel=0 note=73 velocity=92 time=0\n",
      "note_off channel=0 note=73 velocity=64 time=48\n",
      "note_off channel=0 note=67 velocity=64 time=0\n",
      "note_on channel=0 note=74 velocity=92 time=0\n",
      "note_on channel=0 note=70 velocity=92 time=0\n",
      "note_off channel=0 note=74 velocity=64 time=48\n",
      "note_on channel=0 note=73 velocity=92 time=0\n",
      "note_off channel=0 note=73 velocity=64 time=48\n",
      "note_off channel=0 note=70 velocity=64 time=0\n",
      "note_on channel=0 note=74 velocity=92 time=0\n",
      "note_on channel=0 note=69 velocity=92 time=0\n",
      "note_off channel=0 note=74 velocity=64 time=48\n",
      "note_on channel=0 note=73 velocity=92 time=0\n",
      "note_off channel=0 note=73 velocity=64 time=48\n",
      "note_off channel=0 note=69 velocity=64 time=0\n",
      "note_on channel=0 note=74 velocity=92 time=0\n",
      "note_on channel=0 note=70 velocity=92 time=0\n",
      "note_off channel=0 note=74 velocity=64 time=48\n",
      "note_on channel=0 note=73 velocity=92 time=0\n",
      "note_off channel=0 note=73 velocity=64 time=48\n",
      "note_off channel=0 note=70 velocity=64 time=0\n",
      "note_on channel=0 note=74 velocity=92 time=0\n",
      "note_on channel=0 note=64 velocity=92 time=0\n",
      "note_off channel=0 note=74 velocity=64 time=48\n",
      "note_on channel=0 note=73 velocity=92 time=0\n",
      "note_off channel=0 note=73 velocity=64 time=48\n",
      "note_off channel=0 note=64 velocity=64 time=0\n",
      "note_on channel=0 note=74 velocity=92 time=0\n",
      "note_on channel=0 note=65 velocity=92 time=0\n",
      "note_off channel=0 note=74 velocity=64 time=48\n",
      "note_on channel=0 note=73 velocity=92 time=0\n",
      "note_off channel=0 note=73 velocity=64 time=48\n",
      "note_off channel=0 note=65 velocity=64 time=0\n",
      "note_on channel=0 note=74 velocity=92 time=0\n",
      "note_on channel=0 note=64 velocity=92 time=0\n",
      "note_off channel=0 note=74 velocity=64 time=48\n",
      "note_on channel=0 note=73 velocity=92 time=0\n",
      "note_off channel=0 note=73 velocity=64 time=48\n",
      "note_off channel=0 note=64 velocity=64 time=0\n",
      "note_on channel=0 note=74 velocity=92 time=0\n",
      "note_on channel=0 note=65 velocity=92 time=0\n",
      "note_off channel=0 note=74 velocity=64 time=48\n",
      "note_on channel=0 note=73 velocity=92 time=0\n",
      "note_off channel=0 note=73 velocity=64 time=48\n",
      "note_off channel=0 note=65 velocity=64 time=0\n",
      "note_on channel=0 note=67 velocity=92 time=0\n",
      "note_on channel=0 note=74 velocity=92 time=0\n",
      "note_off channel=0 note=74 velocity=64 time=48\n",
      "note_on channel=0 note=73 velocity=92 time=0\n",
      "note_off channel=0 note=73 velocity=64 time=48\n",
      "note_on channel=0 note=76 velocity=92 time=0\n",
      "note_off channel=0 note=76 velocity=64 time=96\n",
      "note_on channel=0 note=73 velocity=92 time=0\n",
      "note_off channel=0 note=73 velocity=64 time=96\n",
      "note_on channel=0 note=76 velocity=92 time=0\n",
      "note_off channel=0 note=76 velocity=64 time=96\n",
      "note_off channel=0 note=67 velocity=64 time=0\n",
      "note_on channel=0 note=69 velocity=92 time=0\n",
      "note_off channel=0 note=69 velocity=64 time=96\n",
      "note_on channel=0 note=76 velocity=92 time=0\n",
      "note_off channel=0 note=76 velocity=64 time=96\n",
      "note_on channel=0 note=73 velocity=92 time=0\n",
      "note_off channel=0 note=73 velocity=64 time=96\n",
      "note_on channel=0 note=76 velocity=92 time=0\n",
      "note_off channel=0 note=76 velocity=64 time=96\n",
      "note_on channel=0 note=69 velocity=92 time=0\n",
      "note_off channel=0 note=69 velocity=64 time=96\n",
      "note_on channel=0 note=76 velocity=92 time=0\n",
      "note_off channel=0 note=76 velocity=64 time=96\n",
      "note_on channel=0 note=73 velocity=92 time=0\n",
      "note_off channel=0 note=73 velocity=64 time=96\n",
      "note_on channel=0 note=76 velocity=92 time=0\n",
      "note_off channel=0 note=76 velocity=64 time=96\n",
      "note_on channel=0 note=69 velocity=92 time=0\n",
      "note_off channel=0 note=69 velocity=64 time=96\n",
      "note_on channel=0 note=76 velocity=92 time=0\n",
      "note_off channel=0 note=76 velocity=64 time=96\n",
      "note_on channel=0 note=73 velocity=92 time=0\n",
      "note_off channel=0 note=73 velocity=64 time=96\n",
      "note_on channel=0 note=76 velocity=92 time=0\n",
      "note_off channel=0 note=76 velocity=64 time=96\n",
      "note_on channel=0 note=69 velocity=92 time=0\n",
      "note_off channel=0 note=69 velocity=64 time=96\n",
      "note_on channel=0 note=77 velocity=92 time=0\n",
      "note_off channel=0 note=77 velocity=64 time=96\n",
      "note_on channel=0 note=74 velocity=92 time=0\n",
      "note_off channel=0 note=74 velocity=64 time=96\n",
      "note_on channel=0 note=77 velocity=92 time=0\n",
      "note_off channel=0 note=77 velocity=64 time=96\n",
      "note_on channel=0 note=69 velocity=92 time=0\n",
      "note_off channel=0 note=69 velocity=64 time=96\n",
      "note_on channel=0 note=77 velocity=92 time=0\n",
      "note_off channel=0 note=77 velocity=64 time=96\n",
      "note_on channel=0 note=74 velocity=92 time=0\n",
      "note_off channel=0 note=74 velocity=64 time=96\n",
      "note_on channel=0 note=77 velocity=92 time=0\n",
      "note_off channel=0 note=77 velocity=64 time=96\n",
      "note_on channel=0 note=69 velocity=92 time=0\n",
      "note_off channel=0 note=69 velocity=64 time=96\n",
      "note_on channel=0 note=77 velocity=92 time=0\n",
      "note_off channel=0 note=77 velocity=64 time=96\n",
      "note_on channel=0 note=74 velocity=92 time=0\n",
      "note_off channel=0 note=74 velocity=64 time=96\n",
      "note_on channel=0 note=77 velocity=92 time=0\n",
      "note_off channel=0 note=77 velocity=64 time=96\n",
      "note_on channel=0 note=69 velocity=92 time=0\n",
      "note_off channel=0 note=69 velocity=64 time=96\n",
      "note_on channel=0 note=77 velocity=92 time=0\n",
      "note_off channel=0 note=77 velocity=64 time=96\n",
      "note_on channel=0 note=74 velocity=92 time=0\n",
      "note_off channel=0 note=74 velocity=64 time=96\n",
      "note_on channel=0 note=77 velocity=92 time=0\n",
      "note_off channel=0 note=77 velocity=64 time=96\n",
      "note_on channel=0 note=73 velocity=92 time=0\n",
      "note_off channel=0 note=73 velocity=64 time=96\n",
      "note_on channel=0 note=79 velocity=92 time=0\n",
      "note_off channel=0 note=79 velocity=64 time=96\n",
      "note_on channel=0 note=76 velocity=92 time=0\n",
      "note_off channel=0 note=76 velocity=64 time=96\n",
      "note_on channel=0 note=79 velocity=92 time=0\n",
      "note_off channel=0 note=79 velocity=64 time=96\n",
      "note_on channel=0 note=73 velocity=92 time=0\n",
      "note_off channel=0 note=73 velocity=64 time=96\n",
      "note_on channel=0 note=79 velocity=92 time=0\n",
      "note_off channel=0 note=79 velocity=64 time=96\n",
      "note_on channel=0 note=76 velocity=92 time=0\n",
      "note_off channel=0 note=76 velocity=64 time=96\n",
      "note_on channel=0 note=79 velocity=92 time=0\n",
      "note_off channel=0 note=79 velocity=64 time=96\n",
      "note_on channel=0 note=73 velocity=92 time=0\n",
      "note_off channel=0 note=73 velocity=64 time=96\n",
      "note_on channel=0 note=79 velocity=92 time=0\n",
      "note_off channel=0 note=79 velocity=64 time=96\n",
      "note_on channel=0 note=76 velocity=92 time=0\n",
      "note_off channel=0 note=76 velocity=64 time=96\n",
      "note_on channel=0 note=79 velocity=92 time=0\n",
      "note_off channel=0 note=79 velocity=64 time=96\n",
      "note_on channel=0 note=73 velocity=92 time=0\n",
      "note_off channel=0 note=73 velocity=64 time=96\n",
      "note_on channel=0 note=79 velocity=92 time=0\n",
      "note_off channel=0 note=79 velocity=64 time=96\n",
      "note_on channel=0 note=76 velocity=92 time=0\n",
      "note_off channel=0 note=76 velocity=64 time=96\n",
      "note_on channel=0 note=79 velocity=92 time=0\n",
      "note_off channel=0 note=79 velocity=64 time=96\n",
      "note_on channel=0 note=69 velocity=92 time=0\n",
      "note_off channel=0 note=69 velocity=64 time=96\n",
      "note_on channel=0 note=79 velocity=92 time=0\n",
      "note_off channel=0 note=79 velocity=64 time=96\n",
      "note_on channel=0 note=73 velocity=92 time=0\n",
      "note_off channel=0 note=73 velocity=64 time=96\n",
      "note_on channel=0 note=79 velocity=92 time=0\n",
      "note_off channel=0 note=79 velocity=64 time=96\n",
      "note_on channel=0 note=69 velocity=92 time=0\n",
      "note_off channel=0 note=69 velocity=64 time=96\n",
      "note_on channel=0 note=79 velocity=92 time=0\n",
      "note_off channel=0 note=79 velocity=64 time=96\n",
      "note_on channel=0 note=73 velocity=92 time=0\n",
      "note_off channel=0 note=73 velocity=64 time=96\n",
      "note_on channel=0 note=79 velocity=92 time=0\n",
      "note_off channel=0 note=79 velocity=64 time=96\n",
      "note_on channel=0 note=69 velocity=92 time=0\n",
      "note_off channel=0 note=69 velocity=64 time=96\n",
      "note_on channel=0 note=79 velocity=92 time=0\n",
      "note_off channel=0 note=79 velocity=64 time=96\n",
      "note_on channel=0 note=73 velocity=92 time=0\n",
      "note_off channel=0 note=73 velocity=64 time=96\n",
      "note_on channel=0 note=79 velocity=92 time=0\n",
      "note_off channel=0 note=79 velocity=64 time=96\n",
      "note_on channel=0 note=69 velocity=92 time=0\n",
      "note_off channel=0 note=69 velocity=64 time=96\n",
      "note_on channel=0 note=79 velocity=92 time=0\n",
      "note_off channel=0 note=79 velocity=64 time=96\n",
      "note_on channel=0 note=73 velocity=92 time=0\n",
      "note_off channel=0 note=73 velocity=64 time=96\n",
      "note_on channel=0 note=79 velocity=92 time=0\n",
      "note_off channel=0 note=79 velocity=64 time=96\n",
      "note_on channel=0 note=69 velocity=92 time=0\n",
      "note_off channel=0 note=69 velocity=64 time=96\n",
      "note_on channel=0 note=77 velocity=92 time=0\n",
      "note_off channel=0 note=77 velocity=64 time=96\n",
      "note_on channel=0 note=74 velocity=92 time=0\n",
      "note_off channel=0 note=74 velocity=64 time=96\n",
      "note_on channel=0 note=77 velocity=92 time=0\n",
      "note_off channel=0 note=77 velocity=64 time=96\n",
      "note_on channel=0 note=69 velocity=92 time=0\n",
      "note_off channel=0 note=69 velocity=64 time=96\n",
      "note_on channel=0 note=77 velocity=92 time=0\n",
      "note_off channel=0 note=77 velocity=64 time=96\n",
      "note_on channel=0 note=74 velocity=92 time=0\n",
      "note_off channel=0 note=74 velocity=64 time=96\n",
      "note_on channel=0 note=77 velocity=92 time=0\n",
      "note_off channel=0 note=77 velocity=64 time=96\n",
      "note_on channel=0 note=69 velocity=92 time=0\n",
      "note_off channel=0 note=69 velocity=64 time=96\n",
      "note_on channel=0 note=77 velocity=92 time=0\n",
      "note_off channel=0 note=77 velocity=64 time=96\n",
      "note_on channel=0 note=74 velocity=92 time=0\n",
      "note_off channel=0 note=74 velocity=64 time=96\n",
      "note_on channel=0 note=77 velocity=92 time=0\n",
      "note_off channel=0 note=77 velocity=64 time=96\n",
      "note_on channel=0 note=69 velocity=92 time=0\n",
      "note_off channel=0 note=69 velocity=64 time=96\n",
      "note_on channel=0 note=77 velocity=92 time=0\n",
      "note_off channel=0 note=77 velocity=64 time=96\n",
      "note_on channel=0 note=74 velocity=92 time=0\n",
      "note_off channel=0 note=74 velocity=64 time=96\n",
      "note_on channel=0 note=77 velocity=92 time=0\n",
      "note_off channel=0 note=77 velocity=64 time=96\n",
      "note_on channel=0 note=69 velocity=92 time=0\n",
      "note_off channel=0 note=69 velocity=64 time=96\n",
      "note_on channel=0 note=76 velocity=92 time=0\n",
      "note_off channel=0 note=76 velocity=64 time=96\n",
      "note_on channel=0 note=74 velocity=92 time=0\n",
      "note_off channel=0 note=74 velocity=64 time=96\n",
      "note_on channel=0 note=76 velocity=92 time=0\n",
      "note_off channel=0 note=76 velocity=64 time=96\n",
      "note_on channel=0 note=69 velocity=92 time=0\n",
      "note_off channel=0 note=69 velocity=64 time=96\n",
      "note_on channel=0 note=76 velocity=92 time=0\n",
      "note_off channel=0 note=76 velocity=64 time=96\n",
      "note_on channel=0 note=74 velocity=92 time=0\n",
      "note_off channel=0 note=74 velocity=64 time=96\n",
      "note_on channel=0 note=76 velocity=92 time=0\n",
      "note_off channel=0 note=76 velocity=64 time=96\n",
      "note_on channel=0 note=69 velocity=92 time=0\n",
      "note_off channel=0 note=69 velocity=64 time=96\n",
      "note_on channel=0 note=76 velocity=92 time=0\n",
      "note_off channel=0 note=76 velocity=64 time=96\n",
      "note_on channel=0 note=73 velocity=92 time=0\n",
      "note_off channel=0 note=73 velocity=64 time=96\n",
      "note_on channel=0 note=76 velocity=92 time=0\n",
      "note_off channel=0 note=76 velocity=64 time=96\n",
      "note_on channel=0 note=69 velocity=92 time=0\n",
      "note_off channel=0 note=69 velocity=64 time=96\n",
      "note_on channel=0 note=76 velocity=92 time=0\n",
      "note_off channel=0 note=76 velocity=64 time=96\n",
      "note_on channel=0 note=73 velocity=92 time=0\n",
      "note_off channel=0 note=73 velocity=64 time=96\n",
      "note_on channel=0 note=76 velocity=92 time=0\n",
      "note_off channel=0 note=76 velocity=64 time=96\n",
      "note_on channel=0 note=74 velocity=92 time=0\n",
      "note_on channel=0 note=69 velocity=92 time=0\n",
      "note_off channel=0 note=74 velocity=64 time=192\n",
      "note_on channel=0 note=77 velocity=92 time=0\n",
      "note_off channel=0 note=77 velocity=64 time=96\n",
      "note_on channel=0 note=76 velocity=92 time=0\n",
      "note_off channel=0 note=76 velocity=64 time=96\n",
      "note_off channel=0 note=69 velocity=64 time=0\n",
      "note_on channel=0 note=74 velocity=92 time=0\n",
      "note_off channel=0 note=74 velocity=64 time=192\n",
      "note_on channel=0 note=69 velocity=92 time=0\n",
      "note_on channel=0 note=74 velocity=92 time=0\n",
      "note_on channel=0 note=77 velocity=92 time=0\n",
      "note_off channel=0 note=77 velocity=64 time=192\n",
      "note_off channel=0 note=74 velocity=64 time=0\n",
      "note_off channel=0 note=69 velocity=64 time=0\n",
      "note_on channel=0 note=76 velocity=92 time=0\n",
      "note_on channel=0 note=73 velocity=92 time=0\n",
      "note_off channel=0 note=76 velocity=64 time=192\n",
      "note_on channel=0 note=81 velocity=92 time=0\n",
      "note_off channel=0 note=81 velocity=64 time=192\n",
      "note_off channel=0 note=73 velocity=64 time=0\n",
      "note_on channel=0 note=69 velocity=92 time=0\n",
      "note_off channel=0 note=69 velocity=64 time=192\n",
      "note_on channel=0 note=69 velocity=92 time=0\n",
      "note_on channel=0 note=76 velocity=92 time=0\n",
      "note_on channel=0 note=81 velocity=92 time=0\n",
      "note_off channel=0 note=81 velocity=64 time=192\n",
      "note_off channel=0 note=76 velocity=64 time=0\n",
      "note_off channel=0 note=69 velocity=64 time=0\n",
      "note_on channel=0 note=77 velocity=92 time=0\n",
      "note_on channel=0 note=69 velocity=92 time=0\n",
      "note_on channel=0 note=74 velocity=92 time=0\n",
      "note_off channel=0 note=77 velocity=64 time=192\n",
      "note_on channel=0 note=77 velocity=92 time=0\n",
      "note_off channel=0 note=77 velocity=64 time=96\n",
      "note_on channel=0 note=79 velocity=92 time=0\n",
      "note_off channel=0 note=79 velocity=64 time=96\n",
      "note_off channel=0 note=74 velocity=64 time=0\n",
      "note_off channel=0 note=69 velocity=64 time=0\n",
      "note_on channel=0 note=81 velocity=92 time=0\n",
      "note_off channel=0 note=81 velocity=64 time=192\n",
      "note_on channel=0 note=79 velocity=92 time=0\n",
      "note_on channel=0 note=69 velocity=92 time=0\n",
      "note_on channel=0 note=74 velocity=92 time=0\n",
      "note_off channel=0 note=79 velocity=64 time=96\n",
      "note_on channel=0 note=77 velocity=92 time=0\n",
      "note_off channel=0 note=77 velocity=64 time=96\n",
      "note_off channel=0 note=74 velocity=64 time=0\n",
      "note_off channel=0 note=69 velocity=64 time=0\n",
      "note_on channel=0 note=69 velocity=92 time=0\n",
      "note_on channel=0 note=73 velocity=92 time=0\n",
      "note_on channel=0 note=76 velocity=92 time=0\n",
      "note_off channel=0 note=76 velocity=64 time=384\n",
      "note_off channel=0 note=73 velocity=64 time=0\n",
      "note_off channel=0 note=69 velocity=64 time=0\n",
      "note_on channel=0 note=69 velocity=92 time=0\n",
      "note_off channel=0 note=69 velocity=64 time=384\n",
      "note_on channel=0 note=81 velocity=92 time=0\n",
      "note_off channel=0 note=81 velocity=64 time=96\n",
      "note_on channel=0 note=77 velocity=92 time=0\n",
      "note_off channel=0 note=77 velocity=64 time=96\n",
      "note_on channel=0 note=81 velocity=92 time=0\n",
      "note_off channel=0 note=81 velocity=64 time=96\n",
      "note_on channel=0 note=74 velocity=92 time=0\n",
      "note_off channel=0 note=74 velocity=64 time=96\n",
      "note_on channel=0 note=81 velocity=92 time=0\n",
      "note_off channel=0 note=81 velocity=64 time=96\n",
      "note_on channel=0 note=77 velocity=92 time=0\n",
      "note_off channel=0 note=77 velocity=64 time=96\n",
      "note_on channel=0 note=81 velocity=92 time=0\n",
      "note_off channel=0 note=81 velocity=64 time=96\n",
      "note_on channel=0 note=74 velocity=92 time=0\n",
      "note_off channel=0 note=74 velocity=64 time=96\n",
      "note_on channel=0 note=82 velocity=92 time=0\n",
      "note_off channel=0 note=82 velocity=64 time=192\n",
      "note_on channel=0 note=82 velocity=92 time=0\n",
      "note_off channel=0 note=82 velocity=64 time=192\n",
      "note_on channel=0 note=82 velocity=92 time=0\n",
      "note_off channel=0 note=82 velocity=64 time=192\n",
      "note_on channel=0 note=82 velocity=92 time=0\n",
      "note_off channel=0 note=82 velocity=64 time=192\n",
      "note_on channel=0 note=82 velocity=92 time=0\n",
      "note_off channel=0 note=82 velocity=64 time=96\n",
      "note_on channel=0 note=79 velocity=92 time=0\n",
      "note_off channel=0 note=79 velocity=64 time=96\n",
      "note_on channel=0 note=82 velocity=92 time=0\n",
      "note_off channel=0 note=82 velocity=64 time=96\n",
      "note_on channel=0 note=76 velocity=92 time=0\n",
      "note_off channel=0 note=76 velocity=64 time=96\n",
      "note_on channel=0 note=82 velocity=92 time=0\n",
      "note_off channel=0 note=82 velocity=64 time=96\n",
      "note_on channel=0 note=79 velocity=92 time=0\n",
      "note_off channel=0 note=79 velocity=64 time=96\n",
      "note_on channel=0 note=82 velocity=92 time=0\n",
      "note_off channel=0 note=82 velocity=64 time=96\n",
      "note_on channel=0 note=76 velocity=92 time=0\n",
      "note_off channel=0 note=76 velocity=64 time=96\n",
      "note_on channel=0 note=81 velocity=92 time=0\n",
      "note_off channel=0 note=81 velocity=64 time=192\n",
      "note_on channel=0 note=81 velocity=92 time=0\n",
      "note_off channel=0 note=81 velocity=64 time=192\n",
      "note_on channel=0 note=81 velocity=92 time=0\n",
      "note_off channel=0 note=81 velocity=64 time=192\n",
      "note_on channel=0 note=81 velocity=92 time=0\n",
      "note_off channel=0 note=81 velocity=64 time=192\n",
      "note_on channel=0 note=81 velocity=92 time=0\n",
      "note_off channel=0 note=81 velocity=64 time=96\n",
      "note_on channel=0 note=77 velocity=92 time=0\n",
      "note_off channel=0 note=77 velocity=64 time=96\n",
      "note_on channel=0 note=81 velocity=92 time=0\n",
      "note_off channel=0 note=81 velocity=64 time=96\n",
      "note_on channel=0 note=74 velocity=92 time=0\n",
      "note_off channel=0 note=74 velocity=64 time=96\n",
      "note_on channel=0 note=81 velocity=92 time=0\n",
      "note_off channel=0 note=81 velocity=64 time=96\n",
      "note_on channel=0 note=77 velocity=92 time=0\n",
      "note_off channel=0 note=77 velocity=64 time=96\n",
      "note_on channel=0 note=81 velocity=92 time=0\n",
      "note_off channel=0 note=81 velocity=64 time=96\n",
      "note_on channel=0 note=74 velocity=92 time=0\n",
      "note_off channel=0 note=74 velocity=64 time=96\n",
      "note_on channel=0 note=79 velocity=92 time=0\n",
      "note_off channel=0 note=79 velocity=64 time=192\n",
      "note_on channel=0 note=79 velocity=92 time=0\n",
      "note_off channel=0 note=79 velocity=64 time=192\n",
      "note_on channel=0 note=79 velocity=92 time=0\n",
      "note_off channel=0 note=79 velocity=64 time=192\n",
      "note_on channel=0 note=79 velocity=92 time=0\n",
      "note_off channel=0 note=79 velocity=64 time=192\n",
      "note_on channel=0 note=79 velocity=92 time=0\n",
      "note_off channel=0 note=79 velocity=64 time=96\n",
      "note_on channel=0 note=76 velocity=92 time=0\n",
      "note_off channel=0 note=76 velocity=64 time=96\n",
      "note_on channel=0 note=79 velocity=92 time=0\n",
      "note_off channel=0 note=79 velocity=64 time=96\n",
      "note_on channel=0 note=73 velocity=92 time=0\n",
      "note_off channel=0 note=73 velocity=64 time=96\n",
      "note_on channel=0 note=79 velocity=92 time=0\n",
      "note_off channel=0 note=79 velocity=64 time=96\n",
      "note_on channel=0 note=76 velocity=92 time=0\n",
      "note_off channel=0 note=76 velocity=64 time=96\n",
      "note_on channel=0 note=79 velocity=92 time=0\n",
      "note_off channel=0 note=79 velocity=64 time=96\n",
      "note_on channel=0 note=73 velocity=92 time=0\n",
      "note_off channel=0 note=73 velocity=64 time=96\n",
      "note_on channel=0 note=69 velocity=92 time=0\n",
      "note_on channel=0 note=77 velocity=92 time=0\n",
      "note_off channel=0 note=77 velocity=64 time=96\n",
      "note_off channel=0 note=69 velocity=64 time=0\n",
      "note_on channel=0 note=65 velocity=92 time=0\n",
      "note_on channel=0 note=74 velocity=92 time=0\n",
      "note_off channel=0 note=74 velocity=64 time=96\n",
      "note_off channel=0 note=65 velocity=64 time=0\n",
      "note_on channel=0 note=69 velocity=92 time=0\n",
      "note_on channel=0 note=77 velocity=92 time=0\n",
      "note_off channel=0 note=77 velocity=64 time=96\n",
      "note_off channel=0 note=69 velocity=64 time=0\n",
      "note_on channel=0 note=62 velocity=92 time=0\n",
      "note_on channel=0 note=81 velocity=92 time=0\n",
      "note_off channel=0 note=81 velocity=64 time=96\n",
      "note_off channel=0 note=62 velocity=64 time=0\n",
      "note_on channel=0 note=69 velocity=92 time=0\n",
      "note_on channel=0 note=77 velocity=92 time=0\n",
      "note_off channel=0 note=77 velocity=64 time=96\n",
      "note_off channel=0 note=69 velocity=64 time=0\n",
      "note_on channel=0 note=65 velocity=92 time=0\n",
      "note_on channel=0 note=74 velocity=92 time=0\n",
      "note_off channel=0 note=74 velocity=64 time=96\n",
      "note_off channel=0 note=65 velocity=64 time=0\n",
      "note_on channel=0 note=69 velocity=92 time=0\n",
      "note_on channel=0 note=77 velocity=92 time=0\n",
      "note_off channel=0 note=77 velocity=64 time=96\n",
      "note_off channel=0 note=69 velocity=64 time=0\n",
      "note_on channel=0 note=65 velocity=92 time=0\n",
      "note_on channel=0 note=81 velocity=92 time=0\n",
      "note_off channel=0 note=81 velocity=64 time=96\n",
      "note_off channel=0 note=65 velocity=64 time=0\n",
      "note_on channel=0 note=67 velocity=92 time=0\n",
      "note_on channel=0 note=82 velocity=92 time=0\n",
      "note_off channel=0 note=82 velocity=64 time=96\n",
      "note_on channel=0 note=79 velocity=92 time=0\n",
      "note_off channel=0 note=79 velocity=64 time=96\n",
      "note_on channel=0 note=80 velocity=92 time=0\n",
      "note_off channel=0 note=80 velocity=64 time=96\n",
      "note_on channel=0 note=77 velocity=92 time=0\n",
      "note_off channel=0 note=77 velocity=64 time=96\n",
      "note_off channel=0 note=67 velocity=64 time=0\n",
      "note_on channel=0 note=79 velocity=92 time=0\n",
      "note_off channel=0 note=79 velocity=64 time=96\n",
      "note_on channel=0 note=75 velocity=92 time=0\n",
      "note_off channel=0 note=75 velocity=64 time=96\n",
      "note_on channel=0 note=77 velocity=92 time=0\n",
      "note_off channel=0 note=77 velocity=64 time=96\n",
      "note_on channel=0 note=74 velocity=92 time=0\n",
      "note_off channel=0 note=74 velocity=64 time=96\n",
      "note_on channel=0 note=70 velocity=92 time=0\n",
      "note_on channel=0 note=79 velocity=92 time=0\n",
      "note_off channel=0 note=79 velocity=64 time=96\n",
      "note_off channel=0 note=70 velocity=64 time=0\n",
      "note_on channel=0 note=67 velocity=92 time=0\n",
      "note_on channel=0 note=75 velocity=92 time=0\n",
      "note_off channel=0 note=75 velocity=64 time=96\n",
      "note_off channel=0 note=67 velocity=64 time=0\n",
      "note_on channel=0 note=68 velocity=92 time=0\n",
      "note_on channel=0 note=79 velocity=92 time=0\n",
      "note_off channel=0 note=79 velocity=64 time=96\n",
      "note_off channel=0 note=68 velocity=64 time=0\n",
      "note_on channel=0 note=65 velocity=92 time=0\n",
      "note_on channel=0 note=74 velocity=92 time=0\n",
      "note_off channel=0 note=74 velocity=64 time=96\n",
      "note_off channel=0 note=65 velocity=64 time=0\n",
      "note_on channel=0 note=67 velocity=92 time=0\n",
      "note_on channel=0 note=75 velocity=92 time=0\n",
      "note_off channel=0 note=75 velocity=64 time=96\n",
      "note_off channel=0 note=67 velocity=64 time=0\n",
      "note_on channel=0 note=64 velocity=92 time=0\n",
      "note_on channel=0 note=73 velocity=92 time=0\n",
      "note_off channel=0 note=73 velocity=64 time=96\n",
      "note_off channel=0 note=64 velocity=64 time=0\n",
      "note_on channel=0 note=65 velocity=92 time=0\n",
      "note_on channel=0 note=74 velocity=92 time=0\n",
      "note_off channel=0 note=74 velocity=64 time=96\n",
      "note_off channel=0 note=65 velocity=64 time=0\n",
      "note_on channel=0 note=67 velocity=92 time=0\n",
      "note_on channel=0 note=76 velocity=92 time=0\n",
      "note_off channel=0 note=76 velocity=64 time=96\n",
      "note_off channel=0 note=67 velocity=64 time=0\n",
      "note_on channel=0 note=64 velocity=92 time=0\n",
      "note_on channel=0 note=73 velocity=92 time=0\n",
      "note_off channel=0 note=73 velocity=64 time=96\n",
      "note_off channel=0 note=64 velocity=64 time=0\n",
      "note_on channel=0 note=61 velocity=92 time=0\n",
      "note_on channel=0 note=69 velocity=92 time=0\n",
      "note_off channel=0 note=69 velocity=64 time=96\n",
      "note_off channel=0 note=61 velocity=64 time=0\n",
      "note_on channel=0 note=62 velocity=92 time=0\n",
      "note_on channel=0 note=71 velocity=92 time=0\n",
      "note_off channel=0 note=71 velocity=64 time=96\n",
      "note_off channel=0 note=62 velocity=64 time=0\n",
      "note_on channel=0 note=68 velocity=92 time=0\n",
      "note_off channel=0 note=68 velocity=64 time=96\n",
      "note_on channel=0 note=69 velocity=92 time=0\n",
      "note_off channel=0 note=69 velocity=64 time=192\n",
      "note_on channel=0 note=81 velocity=92 time=1056\n",
      "note_off channel=0 note=81 velocity=64 time=96\n",
      "note_on channel=0 note=79 velocity=92 time=0\n",
      "note_off channel=0 note=79 velocity=64 time=96\n",
      "note_on channel=0 note=81 velocity=92 time=0\n",
      "note_off channel=0 note=81 velocity=64 time=96\n",
      "note_on channel=0 note=76 velocity=92 time=0\n",
      "note_off channel=0 note=76 velocity=64 time=96\n",
      "note_on channel=0 note=81 velocity=92 time=0\n",
      "note_off channel=0 note=81 velocity=64 time=96\n",
      "note_on channel=0 note=79 velocity=92 time=0\n",
      "note_off channel=0 note=79 velocity=64 time=96\n",
      "note_on channel=0 note=81 velocity=92 time=0\n",
      "note_off channel=0 note=81 velocity=64 time=96\n",
      "note_on channel=0 note=77 velocity=92 time=0\n",
      "note_off channel=0 note=77 velocity=64 time=96\n",
      "note_on channel=0 note=74 velocity=92 time=0\n",
      "note_on channel=0 note=77 velocity=92 time=0\n",
      "note_off channel=0 note=77 velocity=64 time=96\n",
      "note_off channel=0 note=74 velocity=64 time=0\n",
      "note_on channel=0 note=72 velocity=92 time=0\n",
      "note_on channel=0 note=76 velocity=92 time=0\n",
      "note_off channel=0 note=76 velocity=64 time=96\n",
      "note_off channel=0 note=72 velocity=64 time=0\n",
      "note_on channel=0 note=74 velocity=92 time=0\n",
      "note_on channel=0 note=77 velocity=92 time=0\n",
      "note_off channel=0 note=77 velocity=64 time=96\n",
      "note_off channel=0 note=74 velocity=64 time=0\n",
      "note_on channel=0 note=65 velocity=92 time=0\n",
      "note_on channel=0 note=74 velocity=92 time=0\n",
      "note_off channel=0 note=74 velocity=64 time=96\n",
      "note_off channel=0 note=65 velocity=64 time=0\n",
      "note_on channel=0 note=74 velocity=92 time=0\n",
      "note_on channel=0 note=77 velocity=92 time=0\n",
      "note_off channel=0 note=77 velocity=64 time=96\n",
      "note_off channel=0 note=74 velocity=64 time=0\n",
      "note_on channel=0 note=72 velocity=92 time=0\n",
      "note_on channel=0 note=76 velocity=92 time=0\n",
      "note_off channel=0 note=76 velocity=64 time=96\n",
      "note_off channel=0 note=72 velocity=64 time=0\n",
      "note_on channel=0 note=74 velocity=92 time=0\n",
      "note_on channel=0 note=77 velocity=92 time=0\n",
      "note_off channel=0 note=77 velocity=64 time=96\n",
      "note_off channel=0 note=74 velocity=64 time=0\n",
      "note_on channel=0 note=71 velocity=92 time=0\n",
      "note_on channel=0 note=79 velocity=92 time=0\n",
      "note_off channel=0 note=79 velocity=64 time=96\n",
      "note_off channel=0 note=71 velocity=64 time=0\n",
      "note_on channel=0 note=71 velocity=92 time=0\n",
      "note_on channel=0 note=79 velocity=92 time=0\n",
      "note_off channel=0 note=79 velocity=64 time=96\n",
      "note_off channel=0 note=71 velocity=64 time=0\n",
      "note_on channel=0 note=69 velocity=92 time=0\n",
      "note_on channel=0 note=77 velocity=92 time=0\n",
      "note_off channel=0 note=77 velocity=64 time=96\n",
      "note_off channel=0 note=69 velocity=64 time=0\n",
      "note_on channel=0 note=71 velocity=92 time=0\n",
      "note_on channel=0 note=79 velocity=92 time=0\n",
      "note_off channel=0 note=79 velocity=64 time=96\n",
      "note_off channel=0 note=71 velocity=64 time=0\n",
      "note_on channel=0 note=67 velocity=92 time=0\n",
      "note_on channel=0 note=74 velocity=92 time=0\n",
      "note_off channel=0 note=74 velocity=64 time=96\n",
      "note_off channel=0 note=67 velocity=64 time=0\n",
      "note_on channel=0 note=71 velocity=92 time=0\n",
      "note_on channel=0 note=79 velocity=92 time=0\n",
      "note_off channel=0 note=79 velocity=64 time=96\n",
      "note_off channel=0 note=71 velocity=64 time=0\n",
      "note_on channel=0 note=69 velocity=92 time=0\n",
      "note_on channel=0 note=77 velocity=92 time=0\n",
      "note_off channel=0 note=77 velocity=64 time=96\n",
      "note_off channel=0 note=69 velocity=64 time=0\n",
      "note_on channel=0 note=71 velocity=92 time=0\n",
      "note_on channel=0 note=79 velocity=92 time=0\n",
      "note_off channel=0 note=79 velocity=64 time=96\n",
      "note_off channel=0 note=71 velocity=64 time=0\n",
      "note_on channel=0 note=72 velocity=92 time=0\n",
      "note_on channel=0 note=76 velocity=92 time=0\n",
      "note_off channel=0 note=76 velocity=64 time=96\n",
      "note_off channel=0 note=72 velocity=64 time=0\n",
      "note_on channel=0 note=72 velocity=92 time=0\n",
      "note_on channel=0 note=76 velocity=92 time=0\n",
      "note_off channel=0 note=76 velocity=64 time=96\n",
      "note_off channel=0 note=72 velocity=64 time=0\n",
      "note_on channel=0 note=71 velocity=92 time=0\n",
      "note_on channel=0 note=74 velocity=92 time=0\n",
      "note_off channel=0 note=74 velocity=64 time=96\n",
      "note_off channel=0 note=71 velocity=64 time=0\n",
      "note_on channel=0 note=72 velocity=92 time=0\n",
      "note_on channel=0 note=76 velocity=92 time=0\n",
      "note_off channel=0 note=76 velocity=64 time=96\n",
      "note_off channel=0 note=72 velocity=64 time=0\n",
      "note_on channel=0 note=67 velocity=92 time=0\n",
      "note_on channel=0 note=72 velocity=92 time=0\n",
      "note_off channel=0 note=72 velocity=64 time=96\n",
      "note_off channel=0 note=67 velocity=64 time=0\n",
      "note_on channel=0 note=72 velocity=92 time=0\n",
      "note_on channel=0 note=76 velocity=92 time=0\n",
      "note_off channel=0 note=76 velocity=64 time=96\n",
      "note_off channel=0 note=72 velocity=64 time=0\n",
      "note_on channel=0 note=71 velocity=92 time=0\n",
      "note_on channel=0 note=74 velocity=92 time=0\n",
      "note_off channel=0 note=74 velocity=64 time=96\n",
      "note_off channel=0 note=71 velocity=64 time=0\n",
      "note_on channel=0 note=72 velocity=92 time=0\n",
      "note_on channel=0 note=76 velocity=92 time=0\n",
      "note_off channel=0 note=76 velocity=64 time=96\n",
      "note_off channel=0 note=72 velocity=64 time=0\n",
      "note_on channel=0 note=69 velocity=92 time=0\n",
      "note_on channel=0 note=77 velocity=92 time=0\n",
      "note_off channel=0 note=77 velocity=64 time=96\n",
      "note_off channel=0 note=69 velocity=64 time=0\n",
      "note_on channel=0 note=69 velocity=92 time=0\n",
      "note_on channel=0 note=77 velocity=92 time=0\n",
      "note_off channel=0 note=77 velocity=64 time=96\n",
      "note_off channel=0 note=69 velocity=64 time=0\n",
      "note_on channel=0 note=67 velocity=92 time=0\n",
      "note_on channel=0 note=76 velocity=92 time=0\n",
      "note_off channel=0 note=76 velocity=64 time=96\n",
      "note_off channel=0 note=67 velocity=64 time=0\n",
      "note_on channel=0 note=69 velocity=92 time=0\n",
      "note_on channel=0 note=77 velocity=92 time=0\n",
      "note_off channel=0 note=77 velocity=64 time=96\n",
      "note_off channel=0 note=69 velocity=64 time=0\n",
      "note_on channel=0 note=65 velocity=92 time=0\n",
      "note_on channel=0 note=72 velocity=92 time=0\n",
      "note_off channel=0 note=72 velocity=64 time=96\n",
      "note_off channel=0 note=65 velocity=64 time=0\n",
      "note_on channel=0 note=69 velocity=92 time=0\n",
      "note_on channel=0 note=77 velocity=92 time=0\n",
      "note_off channel=0 note=77 velocity=64 time=96\n",
      "note_off channel=0 note=69 velocity=64 time=0\n",
      "note_on channel=0 note=67 velocity=92 time=0\n",
      "note_on channel=0 note=76 velocity=92 time=0\n",
      "note_off channel=0 note=76 velocity=64 time=96\n",
      "note_off channel=0 note=67 velocity=64 time=0\n",
      "note_on channel=0 note=69 velocity=92 time=0\n",
      "note_on channel=0 note=77 velocity=92 time=0\n",
      "note_off channel=0 note=77 velocity=64 time=96\n",
      "note_off channel=0 note=69 velocity=64 time=0\n",
      "note_on channel=0 note=71 velocity=92 time=0\n",
      "note_on channel=0 note=74 velocity=92 time=0\n",
      "note_off channel=0 note=74 velocity=64 time=96\n",
      "note_off channel=0 note=71 velocity=64 time=0\n",
      "note_on channel=0 note=71 velocity=92 time=0\n",
      "note_on channel=0 note=74 velocity=92 time=0\n",
      "note_off channel=0 note=74 velocity=64 time=96\n",
      "note_off channel=0 note=71 velocity=64 time=0\n",
      "note_on channel=0 note=69 velocity=92 time=0\n",
      "note_on channel=0 note=72 velocity=92 time=0\n",
      "note_off channel=0 note=72 velocity=64 time=96\n",
      "note_off channel=0 note=69 velocity=64 time=0\n",
      "note_on channel=0 note=71 velocity=92 time=0\n",
      "note_on channel=0 note=74 velocity=92 time=0\n",
      "note_off channel=0 note=74 velocity=64 time=96\n",
      "note_off channel=0 note=71 velocity=64 time=0\n",
      "note_on channel=0 note=66 velocity=92 time=0\n",
      "note_on channel=0 note=71 velocity=92 time=0\n",
      "note_off channel=0 note=71 velocity=64 time=96\n",
      "note_off channel=0 note=66 velocity=64 time=0\n",
      "note_on channel=0 note=71 velocity=92 time=0\n",
      "note_on channel=0 note=74 velocity=92 time=0\n",
      "note_off channel=0 note=74 velocity=64 time=96\n",
      "note_off channel=0 note=71 velocity=64 time=0\n",
      "note_on channel=0 note=69 velocity=92 time=0\n",
      "note_on channel=0 note=72 velocity=92 time=0\n",
      "note_off channel=0 note=72 velocity=64 time=96\n",
      "note_off channel=0 note=69 velocity=64 time=0\n",
      "note_on channel=0 note=71 velocity=92 time=0\n",
      "note_on channel=0 note=74 velocity=92 time=0\n",
      "note_off channel=0 note=74 velocity=64 time=96\n",
      "note_off channel=0 note=71 velocity=64 time=0\n",
      "note_on channel=0 note=68 velocity=92 time=0\n",
      "note_on channel=0 note=76 velocity=92 time=0\n",
      "note_off channel=0 note=76 velocity=64 time=96\n",
      "note_off channel=0 note=68 velocity=64 time=0\n",
      "note_on channel=0 note=68 velocity=92 time=0\n",
      "note_on channel=0 note=76 velocity=92 time=0\n",
      "note_off channel=0 note=76 velocity=64 time=96\n",
      "note_off channel=0 note=68 velocity=64 time=0\n",
      "note_on channel=0 note=66 velocity=92 time=0\n",
      "note_on channel=0 note=74 velocity=92 time=0\n",
      "note_off channel=0 note=74 velocity=64 time=96\n",
      "note_off channel=0 note=66 velocity=64 time=0\n",
      "note_on channel=0 note=68 velocity=92 time=0\n",
      "note_on channel=0 note=76 velocity=92 time=0\n",
      "note_off channel=0 note=76 velocity=64 time=96\n",
      "note_off channel=0 note=68 velocity=64 time=0\n",
      "note_on channel=0 note=64 velocity=92 time=0\n",
      "note_on channel=0 note=71 velocity=92 time=0\n",
      "note_off channel=0 note=71 velocity=64 time=96\n",
      "note_off channel=0 note=64 velocity=64 time=0\n",
      "note_on channel=0 note=68 velocity=92 time=0\n",
      "note_on channel=0 note=76 velocity=92 time=0\n",
      "note_off channel=0 note=76 velocity=64 time=96\n",
      "note_off channel=0 note=68 velocity=64 time=0\n",
      "note_on channel=0 note=66 velocity=92 time=0\n",
      "note_on channel=0 note=74 velocity=92 time=0\n",
      "note_off channel=0 note=74 velocity=64 time=96\n",
      "note_off channel=0 note=66 velocity=64 time=0\n",
      "note_on channel=0 note=68 velocity=92 time=0\n",
      "note_on channel=0 note=76 velocity=92 time=0\n",
      "note_off channel=0 note=76 velocity=64 time=96\n",
      "note_off channel=0 note=68 velocity=64 time=0\n",
      "note_on channel=0 note=69 velocity=92 time=0\n",
      "note_on channel=0 note=72 velocity=92 time=0\n",
      "note_off channel=0 note=72 velocity=64 time=96\n",
      "note_off channel=0 note=69 velocity=64 time=0\n",
      "note_on channel=0 note=69 velocity=92 time=0\n",
      "note_on channel=0 note=72 velocity=92 time=0\n",
      "note_off channel=0 note=72 velocity=64 time=96\n",
      "note_off channel=0 note=69 velocity=64 time=0\n",
      "note_on channel=0 note=67 velocity=92 time=0\n",
      "note_on channel=0 note=71 velocity=92 time=0\n",
      "note_off channel=0 note=71 velocity=64 time=96\n",
      "note_off channel=0 note=67 velocity=64 time=0\n",
      "note_on channel=0 note=69 velocity=92 time=0\n",
      "note_on channel=0 note=72 velocity=92 time=0\n",
      "note_off channel=0 note=72 velocity=64 time=96\n",
      "note_off channel=0 note=69 velocity=64 time=0\n",
      "note_on channel=0 note=64 velocity=92 time=0\n",
      "note_on channel=0 note=69 velocity=92 time=0\n",
      "note_off channel=0 note=69 velocity=64 time=96\n",
      "note_off channel=0 note=64 velocity=64 time=0\n",
      "note_on channel=0 note=69 velocity=92 time=0\n",
      "note_on channel=0 note=72 velocity=92 time=0\n",
      "note_off channel=0 note=72 velocity=64 time=96\n",
      "note_off channel=0 note=69 velocity=64 time=0\n",
      "note_on channel=0 note=67 velocity=92 time=0\n",
      "note_on channel=0 note=71 velocity=92 time=0\n",
      "note_off channel=0 note=71 velocity=64 time=96\n",
      "note_off channel=0 note=67 velocity=64 time=0\n",
      "note_on channel=0 note=69 velocity=92 time=0\n",
      "note_on channel=0 note=72 velocity=92 time=0\n",
      "note_off channel=0 note=72 velocity=64 time=96\n",
      "note_off channel=0 note=69 velocity=64 time=0\n",
      "note_on channel=0 note=65 velocity=92 time=0\n",
      "note_on channel=0 note=74 velocity=92 time=0\n",
      "note_off channel=0 note=74 velocity=64 time=96\n",
      "note_off channel=0 note=65 velocity=64 time=0\n",
      "note_on channel=0 note=65 velocity=92 time=0\n",
      "note_on channel=0 note=74 velocity=92 time=0\n",
      "note_off channel=0 note=74 velocity=64 time=96\n",
      "note_off channel=0 note=65 velocity=64 time=0\n",
      "note_on channel=0 note=64 velocity=92 time=0\n",
      "note_on channel=0 note=72 velocity=92 time=0\n",
      "note_off channel=0 note=72 velocity=64 time=96\n",
      "note_off channel=0 note=64 velocity=64 time=0\n",
      "note_on channel=0 note=65 velocity=92 time=0\n",
      "note_on channel=0 note=74 velocity=92 time=0\n",
      "note_off channel=0 note=74 velocity=64 time=96\n",
      "note_off channel=0 note=65 velocity=64 time=0\n",
      "note_on channel=0 note=62 velocity=92 time=0\n",
      "note_on channel=0 note=71 velocity=92 time=0\n",
      "note_off channel=0 note=71 velocity=64 time=96\n",
      "note_off channel=0 note=62 velocity=64 time=0\n",
      "note_on channel=0 note=64 velocity=92 time=0\n",
      "note_on channel=0 note=72 velocity=92 time=0\n",
      "note_off channel=0 note=72 velocity=64 time=96\n",
      "note_off channel=0 note=64 velocity=64 time=0\n",
      "note_on channel=0 note=60 velocity=92 time=0\n",
      "note_on channel=0 note=69 velocity=92 time=0\n",
      "note_off channel=0 note=69 velocity=64 time=96\n",
      "note_off channel=0 note=60 velocity=64 time=0\n",
      "note_on channel=0 note=62 velocity=92 time=0\n",
      "note_on channel=0 note=71 velocity=92 time=0\n",
      "note_off channel=0 note=71 velocity=64 time=96\n",
      "note_off channel=0 note=62 velocity=64 time=0\n",
      "note_on channel=0 note=68 velocity=92 time=0\n",
      "note_off channel=0 note=68 velocity=64 time=96\n",
      "note_on channel=0 note=64 velocity=92 time=0\n",
      "note_off channel=0 note=64 velocity=64 time=96\n",
      "note_on channel=0 note=69 velocity=92 time=0\n",
      "note_off channel=0 note=69 velocity=64 time=192\n",
      "note_on channel=0 note=64 velocity=92 time=96\n",
      "note_off channel=0 note=64 velocity=64 time=96\n",
      "note_on channel=0 note=69 velocity=92 time=0\n",
      "note_off channel=0 note=69 velocity=64 time=96\n",
      "note_on channel=0 note=68 velocity=92 time=0\n",
      "note_off channel=0 note=68 velocity=64 time=96\n",
      "note_on channel=0 note=60 velocity=92 time=0\n",
      "note_on channel=0 note=69 velocity=92 time=0\n",
      "note_off channel=0 note=69 velocity=64 time=192\n",
      "note_off channel=0 note=60 velocity=64 time=0\n",
      "note_on channel=0 note=72 velocity=92 time=0\n",
      "note_off channel=0 note=72 velocity=64 time=96\n",
      "note_on channel=0 note=71 velocity=92 time=0\n",
      "note_off channel=0 note=71 velocity=64 time=96\n",
      "note_on channel=0 note=69 velocity=92 time=0\n",
      "note_off channel=0 note=69 velocity=64 time=192\n",
      "note_on channel=0 note=64 velocity=92 time=0\n",
      "note_on channel=0 note=69 velocity=92 time=0\n",
      "note_on channel=0 note=72 velocity=92 time=0\n",
      "note_off channel=0 note=72 velocity=64 time=192\n",
      "note_off channel=0 note=69 velocity=64 time=0\n",
      "note_off channel=0 note=64 velocity=64 time=0\n",
      "note_on channel=0 note=68 velocity=92 time=0\n",
      "note_on channel=0 note=71 velocity=92 time=0\n",
      "note_off channel=0 note=71 velocity=64 time=192\n",
      "note_on channel=0 note=76 velocity=92 time=0\n",
      "note_off channel=0 note=76 velocity=64 time=192\n",
      "note_off channel=0 note=68 velocity=64 time=0\n",
      "note_on channel=0 note=64 velocity=92 time=0\n",
      "note_off channel=0 note=64 velocity=64 time=192\n",
      "note_on channel=0 note=76 velocity=92 time=0\n",
      "note_on channel=0 note=71 velocity=92 time=0\n",
      "note_on channel=0 note=64 velocity=92 time=0\n",
      "note_off channel=0 note=64 velocity=64 time=192\n",
      "note_off channel=0 note=71 velocity=64 time=0\n",
      "note_off channel=0 note=76 velocity=64 time=0\n",
      "note_on channel=0 note=72 velocity=92 time=0\n",
      "note_on channel=0 note=64 velocity=92 time=0\n",
      "note_on channel=0 note=69 velocity=92 time=0\n",
      "note_off channel=0 note=72 velocity=64 time=192\n",
      "note_on channel=0 note=72 velocity=92 time=0\n",
      "note_off channel=0 note=72 velocity=64 time=96\n",
      "note_on channel=0 note=74 velocity=92 time=0\n",
      "note_off channel=0 note=74 velocity=64 time=96\n",
      "note_off channel=0 note=69 velocity=64 time=0\n",
      "note_off channel=0 note=64 velocity=64 time=0\n",
      "note_on channel=0 note=76 velocity=92 time=0\n",
      "note_off channel=0 note=76 velocity=64 time=192\n",
      "note_on channel=0 note=64 velocity=92 time=0\n",
      "note_on channel=0 note=69 velocity=92 time=0\n",
      "note_on channel=0 note=74 velocity=92 time=0\n",
      "note_off channel=0 note=74 velocity=64 time=96\n",
      "note_on channel=0 note=72 velocity=92 time=0\n",
      "note_off channel=0 note=72 velocity=64 time=96\n",
      "note_off channel=0 note=69 velocity=64 time=0\n",
      "note_off channel=0 note=64 velocity=64 time=0\n",
      "note_on channel=0 note=64 velocity=92 time=0\n",
      "note_on channel=0 note=68 velocity=92 time=0\n",
      "note_on channel=0 note=71 velocity=92 time=0\n",
      "note_off channel=0 note=71 velocity=64 time=384\n",
      "note_off channel=0 note=68 velocity=64 time=0\n",
      "note_off channel=0 note=64 velocity=64 time=0\n",
      "note_on channel=0 note=64 velocity=92 time=0\n",
      "note_off channel=0 note=64 velocity=64 time=192\n",
      "note_on channel=0 note=76 velocity=92 time=0\n",
      "note_on channel=0 note=72 velocity=92 time=0\n",
      "note_on channel=0 note=69 velocity=92 time=0\n",
      "note_off channel=0 note=69 velocity=64 time=192\n",
      "note_off channel=0 note=72 velocity=64 time=0\n",
      "note_off channel=0 note=76 velocity=64 time=0\n",
      "note_on channel=0 note=69 velocity=92 time=0\n",
      "note_on channel=0 note=74 velocity=92 time=0\n",
      "note_on channel=0 note=77 velocity=92 time=0\n",
      "note_off channel=0 note=74 velocity=64 time=96\n",
      "note_off channel=0 note=69 velocity=64 time=0\n",
      "note_on channel=0 note=74 velocity=92 time=0\n",
      "note_off channel=0 note=74 velocity=64 time=96\n",
      "note_on channel=0 note=72 velocity=92 time=0\n",
      "note_off channel=0 note=72 velocity=64 time=96\n",
      "note_on channel=0 note=74 velocity=92 time=0\n",
      "note_off channel=0 note=74 velocity=64 time=96\n",
      "note_on channel=0 note=69 velocity=92 time=0\n",
      "note_off channel=0 note=69 velocity=64 time=96\n",
      "note_on channel=0 note=74 velocity=92 time=0\n",
      "note_off channel=0 note=74 velocity=64 time=96\n",
      "note_on channel=0 note=72 velocity=92 time=0\n",
      "note_off channel=0 note=72 velocity=64 time=96\n",
      "note_on channel=0 note=74 velocity=92 time=0\n",
      "note_off channel=0 note=74 velocity=64 time=96\n",
      "note_on channel=0 note=71 velocity=92 time=0\n",
      "note_off channel=0 note=71 velocity=64 time=96\n",
      "note_off channel=0 note=77 velocity=64 time=0\n",
      "note_on channel=0 note=76 velocity=92 time=672\n",
      "note_on channel=0 note=72 velocity=92 time=96\n",
      "note_off channel=0 note=72 velocity=64 time=96\n",
      "note_on channel=0 note=71 velocity=92 time=0\n",
      "note_off channel=0 note=71 velocity=64 time=96\n",
      "note_on channel=0 note=72 velocity=92 time=0\n",
      "note_off channel=0 note=72 velocity=64 time=96\n",
      "note_on channel=0 note=67 velocity=92 time=0\n",
      "note_off channel=0 note=67 velocity=64 time=96\n",
      "note_on channel=0 note=72 velocity=92 time=0\n",
      "note_off channel=0 note=72 velocity=64 time=96\n",
      "note_on channel=0 note=71 velocity=92 time=0\n",
      "note_off channel=0 note=71 velocity=64 time=96\n",
      "note_on channel=0 note=72 velocity=92 time=0\n",
      "note_off channel=0 note=72 velocity=64 time=96\n",
      "note_on channel=0 note=69 velocity=92 time=0\n",
      "note_off channel=0 note=69 velocity=64 time=96\n",
      "note_off channel=0 note=76 velocity=64 time=0\n",
      "note_on channel=0 note=74 velocity=92 time=672\n",
      "note_on channel=0 note=71 velocity=92 time=96\n",
      "note_off channel=0 note=71 velocity=64 time=96\n",
      "note_on channel=0 note=69 velocity=92 time=0\n",
      "note_off channel=0 note=69 velocity=64 time=96\n",
      "note_on channel=0 note=71 velocity=92 time=0\n",
      "note_off channel=0 note=71 velocity=64 time=96\n",
      "note_on channel=0 note=66 velocity=92 time=0\n",
      "note_off channel=0 note=66 velocity=64 time=96\n",
      "note_on channel=0 note=71 velocity=92 time=0\n",
      "note_off channel=0 note=71 velocity=64 time=96\n",
      "note_on channel=0 note=69 velocity=92 time=0\n",
      "note_off channel=0 note=69 velocity=64 time=96\n",
      "note_on channel=0 note=71 velocity=92 time=0\n",
      "note_off channel=0 note=71 velocity=64 time=96\n",
      "note_on channel=0 note=68 velocity=92 time=0\n",
      "note_off channel=0 note=68 velocity=64 time=96\n",
      "note_off channel=0 note=74 velocity=64 time=0\n",
      "note_on channel=0 note=64 velocity=92 time=768\n",
      "note_on channel=0 note=72 velocity=92 time=0\n",
      "note_off channel=0 note=72 velocity=64 time=96\n",
      "note_off channel=0 note=64 velocity=64 time=0\n",
      "note_on channel=0 note=62 velocity=92 time=0\n",
      "note_on channel=0 note=71 velocity=92 time=0\n",
      "note_off channel=0 note=71 velocity=64 time=96\n",
      "note_off channel=0 note=62 velocity=64 time=0\n",
      "note_on channel=0 note=64 velocity=92 time=0\n",
      "note_on channel=0 note=72 velocity=92 time=0\n",
      "note_off channel=0 note=72 velocity=64 time=96\n",
      "note_off channel=0 note=64 velocity=64 time=0\n",
      "note_on channel=0 note=60 velocity=92 time=0\n",
      "note_on channel=0 note=69 velocity=92 time=0\n",
      "note_off channel=0 note=69 velocity=64 time=96\n",
      "note_off channel=0 note=60 velocity=64 time=0\n",
      "note_on channel=0 note=62 velocity=92 time=0\n",
      "note_on channel=0 note=81 velocity=92 time=0\n",
      "note_off channel=0 note=81 velocity=64 time=96\n",
      "note_off channel=0 note=62 velocity=64 time=0\n",
      "note_on channel=0 note=59 velocity=92 time=0\n",
      "note_on channel=0 note=79 velocity=92 time=0\n",
      "note_off channel=0 note=79 velocity=64 time=96\n",
      "note_off channel=0 note=59 velocity=64 time=0\n",
      "note_on channel=0 note=60 velocity=92 time=0\n",
      "note_on channel=0 note=81 velocity=92 time=0\n",
      "note_off channel=0 note=81 velocity=64 time=96\n",
      "note_off channel=0 note=60 velocity=64 time=0\n",
      "note_on channel=0 note=62 velocity=92 time=0\n",
      "note_on channel=0 note=77 velocity=92 time=0\n",
      "note_off channel=0 note=77 velocity=64 time=96\n",
      "note_off channel=0 note=62 velocity=64 time=0\n",
      "note_on channel=0 note=60 velocity=92 time=0\n",
      "note_on channel=0 note=81 velocity=92 time=0\n",
      "note_off channel=0 note=81 velocity=64 time=96\n",
      "note_off channel=0 note=60 velocity=64 time=0\n",
      "note_on channel=0 note=62 velocity=92 time=0\n",
      "note_on channel=0 note=74 velocity=92 time=0\n",
      "note_off channel=0 note=74 velocity=64 time=96\n",
      "note_off channel=0 note=62 velocity=64 time=0\n",
      "note_on channel=0 note=59 velocity=92 time=0\n",
      "note_on channel=0 note=81 velocity=92 time=0\n",
      "note_off channel=0 note=81 velocity=64 time=96\n",
      "note_off channel=0 note=59 velocity=64 time=0\n",
      "note_on channel=0 note=64 velocity=92 time=0\n",
      "note_on channel=0 note=71 velocity=92 time=0\n",
      "note_off channel=0 note=71 velocity=64 time=96\n",
      "note_off channel=0 note=64 velocity=64 time=0\n",
      "note_on channel=0 note=65 velocity=92 time=0\n",
      "note_on channel=0 note=80 velocity=92 time=0\n",
      "note_off channel=0 note=80 velocity=64 time=96\n",
      "note_off channel=0 note=65 velocity=64 time=0\n",
      "note_on channel=0 note=62 velocity=92 time=0\n",
      "note_on channel=0 note=78 velocity=92 time=0\n",
      "note_off channel=0 note=78 velocity=64 time=96\n",
      "note_off channel=0 note=62 velocity=64 time=0\n",
      "note_on channel=0 note=64 velocity=92 time=0\n",
      "note_on channel=0 note=80 velocity=92 time=0\n",
      "note_off channel=0 note=80 velocity=64 time=96\n",
      "note_off channel=0 note=64 velocity=64 time=0\n",
      "note_on channel=0 note=81 velocity=92 time=0\n",
      "note_on channel=0 note=60 velocity=92 time=0\n",
      "note_off channel=0 note=60 velocity=64 time=96\n",
      "note_on channel=0 note=76 velocity=92 time=0\n",
      "note_off channel=0 note=76 velocity=64 time=96\n",
      "note_on channel=0 note=74 velocity=92 time=0\n",
      "note_off channel=0 note=74 velocity=64 time=96\n",
      "note_on channel=0 note=76 velocity=92 time=0\n",
      "note_off channel=0 note=76 velocity=64 time=96\n",
      "note_on channel=0 note=72 velocity=92 time=0\n",
      "note_off channel=0 note=72 velocity=64 time=96\n",
      "note_on channel=0 note=76 velocity=92 time=0\n",
      "note_off channel=0 note=76 velocity=64 time=96\n",
      "note_on channel=0 note=74 velocity=92 time=0\n",
      "note_off channel=0 note=74 velocity=64 time=96\n",
      "note_on channel=0 note=76 velocity=92 time=0\n",
      "note_off channel=0 note=76 velocity=64 time=96\n",
      "note_off channel=0 note=81 velocity=64 time=0\n",
      "note_on channel=0 note=69 velocity=92 time=0\n",
      "note_off channel=0 note=69 velocity=64 time=96\n",
      "note_on channel=0 note=77 velocity=92 time=0\n",
      "note_on channel=0 note=69 velocity=92 time=0\n",
      "note_off channel=0 note=69 velocity=64 time=96\n",
      "note_off channel=0 note=77 velocity=64 time=0\n",
      "note_on channel=0 note=76 velocity=92 time=0\n",
      "note_on channel=0 note=67 velocity=92 time=0\n",
      "note_off channel=0 note=67 velocity=64 time=96\n",
      "note_off channel=0 note=76 velocity=64 time=0\n",
      "note_on channel=0 note=77 velocity=92 time=0\n",
      "note_on channel=0 note=69 velocity=92 time=0\n",
      "note_off channel=0 note=69 velocity=64 time=96\n",
      "note_off channel=0 note=77 velocity=64 time=0\n",
      "note_on channel=0 note=74 velocity=92 time=0\n",
      "note_on channel=0 note=65 velocity=92 time=0\n",
      "note_off channel=0 note=65 velocity=64 time=96\n",
      "note_off channel=0 note=74 velocity=64 time=0\n",
      "note_on channel=0 note=77 velocity=92 time=0\n",
      "note_on channel=0 note=69 velocity=92 time=0\n",
      "note_off channel=0 note=69 velocity=64 time=96\n",
      "note_off channel=0 note=77 velocity=64 time=0\n",
      "note_on channel=0 note=76 velocity=92 time=0\n",
      "note_on channel=0 note=67 velocity=92 time=0\n",
      "note_off channel=0 note=67 velocity=64 time=96\n",
      "note_off channel=0 note=76 velocity=64 time=0\n",
      "note_on channel=0 note=77 velocity=92 time=0\n",
      "note_on channel=0 note=69 velocity=92 time=0\n",
      "note_off channel=0 note=69 velocity=64 time=96\n",
      "note_off channel=0 note=77 velocity=64 time=0\n",
      "note_on channel=0 note=62 velocity=92 time=0\n",
      "note_on channel=0 note=79 velocity=92 time=0\n",
      "note_off channel=0 note=62 velocity=64 time=96\n",
      "note_on channel=0 note=74 velocity=92 time=0\n",
      "note_off channel=0 note=74 velocity=64 time=96\n",
      "note_on channel=0 note=72 velocity=92 time=0\n",
      "note_off channel=0 note=72 velocity=64 time=96\n",
      "note_on channel=0 note=74 velocity=92 time=0\n",
      "note_off channel=0 note=74 velocity=64 time=96\n",
      "note_on channel=0 note=71 velocity=92 time=0\n",
      "note_off channel=0 note=71 velocity=64 time=96\n",
      "note_on channel=0 note=74 velocity=92 time=0\n",
      "note_off channel=0 note=74 velocity=64 time=96\n",
      "note_on channel=0 note=72 velocity=92 time=0\n",
      "note_off channel=0 note=72 velocity=64 time=96\n",
      "note_on channel=0 note=74 velocity=92 time=0\n",
      "note_off channel=0 note=74 velocity=64 time=96\n",
      "note_off channel=0 note=79 velocity=64 time=0\n",
      "note_on channel=0 note=67 velocity=92 time=0\n",
      "note_off channel=0 note=67 velocity=64 time=96\n",
      "note_on channel=0 note=76 velocity=92 time=0\n",
      "note_on channel=0 note=67 velocity=92 time=0\n",
      "note_off channel=0 note=67 velocity=64 time=96\n",
      "note_off channel=0 note=76 velocity=64 time=0\n",
      "note_on channel=0 note=74 velocity=92 time=0\n",
      "note_on channel=0 note=65 velocity=92 time=0\n",
      "note_off channel=0 note=65 velocity=64 time=96\n",
      "note_off channel=0 note=74 velocity=64 time=0\n",
      "note_on channel=0 note=76 velocity=92 time=0\n",
      "note_on channel=0 note=67 velocity=92 time=0\n",
      "note_off channel=0 note=67 velocity=64 time=96\n",
      "note_off channel=0 note=76 velocity=64 time=0\n",
      "note_on channel=0 note=72 velocity=92 time=0\n",
      "note_on channel=0 note=64 velocity=92 time=0\n",
      "note_off channel=0 note=64 velocity=64 time=96\n",
      "note_off channel=0 note=72 velocity=64 time=0\n",
      "note_on channel=0 note=76 velocity=92 time=0\n",
      "note_on channel=0 note=67 velocity=92 time=0\n",
      "note_off channel=0 note=67 velocity=64 time=96\n",
      "note_off channel=0 note=76 velocity=64 time=0\n",
      "note_on channel=0 note=74 velocity=92 time=0\n",
      "note_on channel=0 note=65 velocity=92 time=0\n",
      "note_off channel=0 note=65 velocity=64 time=96\n",
      "note_off channel=0 note=74 velocity=64 time=0\n",
      "note_on channel=0 note=76 velocity=92 time=0\n",
      "note_on channel=0 note=67 velocity=92 time=0\n",
      "note_off channel=0 note=67 velocity=64 time=96\n",
      "note_off channel=0 note=76 velocity=64 time=0\n",
      "note_on channel=0 note=69 velocity=92 time=0\n",
      "note_on channel=0 note=77 velocity=92 time=0\n",
      "note_off channel=0 note=77 velocity=64 time=96\n",
      "note_off channel=0 note=69 velocity=64 time=0\n",
      "note_on channel=0 note=71 velocity=92 time=0\n",
      "note_on channel=0 note=79 velocity=92 time=0\n",
      "note_off channel=0 note=79 velocity=64 time=96\n",
      "note_off channel=0 note=71 velocity=64 time=0\n",
      "note_on channel=0 note=67 velocity=92 time=0\n",
      "note_on channel=0 note=76 velocity=92 time=0\n",
      "note_off channel=0 note=76 velocity=64 time=96\n",
      "note_off channel=0 note=67 velocity=64 time=0\n",
      "note_on channel=0 note=69 velocity=92 time=0\n",
      "note_on channel=0 note=77 velocity=92 time=0\n",
      "note_off channel=0 note=77 velocity=64 time=96\n",
      "note_off channel=0 note=69 velocity=64 time=0\n",
      "note_on channel=0 note=65 velocity=92 time=0\n",
      "note_on channel=0 note=74 velocity=92 time=0\n",
      "note_off channel=0 note=74 velocity=64 time=96\n",
      "note_off channel=0 note=65 velocity=64 time=0\n",
      "note_on channel=0 note=67 velocity=92 time=0\n",
      "note_on channel=0 note=76 velocity=92 time=0\n",
      "note_off channel=0 note=76 velocity=64 time=96\n",
      "note_off channel=0 note=67 velocity=64 time=0\n",
      "note_on channel=0 note=64 velocity=92 time=0\n",
      "note_on channel=0 note=72 velocity=92 time=0\n",
      "note_off channel=0 note=72 velocity=64 time=96\n",
      "note_off channel=0 note=64 velocity=64 time=0\n",
      "note_on channel=0 note=65 velocity=92 time=0\n",
      "note_on channel=0 note=74 velocity=92 time=0\n",
      "note_off channel=0 note=74 velocity=64 time=96\n",
      "note_off channel=0 note=65 velocity=64 time=0\n",
      "note_on channel=0 note=62 velocity=92 time=0\n",
      "note_on channel=0 note=71 velocity=92 time=0\n",
      "note_off channel=0 note=71 velocity=64 time=96\n",
      "note_on channel=0 note=67 velocity=92 time=0\n",
      "note_off channel=0 note=67 velocity=64 time=96\n",
      "note_off channel=0 note=62 velocity=64 time=0\n",
      "note_on channel=0 note=60 velocity=92 time=0\n",
      "note_on channel=0 note=72 velocity=92 time=0\n",
      "note_off channel=0 note=72 velocity=64 time=96\n",
      "note_off channel=0 note=60 velocity=64 time=0\n",
      "note_on channel=0 note=59 velocity=92 time=0\n",
      "note_on channel=0 note=64 velocity=92 time=0\n",
      "note_off channel=0 note=64 velocity=64 time=96\n",
      "note_off channel=0 note=59 velocity=64 time=0\n",
      "note_on channel=0 note=62 velocity=92 time=0\n",
      "note_off channel=0 note=62 velocity=64 time=96\n",
      "note_on channel=0 note=72 velocity=92 time=0\n",
      "note_off channel=0 note=72 velocity=64 time=96\n",
      "note_on channel=0 note=62 velocity=92 time=0\n",
      "note_off channel=0 note=62 velocity=64 time=96\n",
      "note_on channel=0 note=71 velocity=92 time=0\n",
      "note_off channel=0 note=71 velocity=64 time=96\n",
      "note_on channel=0 note=72 velocity=92 time=0\n",
      "note_off channel=0 note=72 velocity=64 time=96\n",
      "note_on channel=0 note=74 velocity=92 time=0\n",
      "note_off channel=0 note=74 velocity=64 time=96\n",
      "note_on channel=0 note=76 velocity=92 time=0\n",
      "note_off channel=0 note=76 velocity=64 time=96\n",
      "note_on channel=0 note=74 velocity=92 time=0\n",
      "note_off channel=0 note=74 velocity=64 time=96\n",
      "note_on channel=0 note=72 velocity=92 time=0\n",
      "note_off channel=0 note=72 velocity=64 time=192\n",
      "note_on channel=0 note=67 velocity=92 time=0\n",
      "note_on channel=0 note=72 velocity=92 time=0\n",
      "note_on channel=0 note=76 velocity=92 time=0\n",
      "note_off channel=0 note=76 velocity=64 time=192\n",
      "note_off channel=0 note=72 velocity=64 time=0\n",
      "note_off channel=0 note=67 velocity=64 time=0\n",
      "note_on channel=0 note=71 velocity=92 time=0\n",
      "note_on channel=0 note=67 velocity=92 time=0\n",
      "note_on channel=0 note=74 velocity=92 time=0\n",
      "note_off channel=0 note=74 velocity=64 time=192\n",
      "note_on channel=0 note=79 velocity=92 time=0\n",
      "note_off channel=0 note=79 velocity=64 time=192\n",
      "note_off channel=0 note=67 velocity=64 time=0\n",
      "note_off channel=0 note=71 velocity=64 time=0\n",
      "note_on channel=0 note=67 velocity=92 time=0\n",
      "note_off channel=0 note=67 velocity=64 time=192\n",
      "note_on channel=0 note=79 velocity=92 time=0\n",
      "note_on channel=0 note=74 velocity=92 time=0\n",
      "note_on channel=0 note=67 velocity=92 time=0\n",
      "note_off channel=0 note=67 velocity=64 time=192\n",
      "note_off channel=0 note=74 velocity=64 time=0\n",
      "note_off channel=0 note=79 velocity=64 time=0\n",
      "note_on channel=0 note=67 velocity=92 time=0\n",
      "note_on channel=0 note=72 velocity=92 time=0\n",
      "note_on channel=0 note=76 velocity=92 time=0\n",
      "note_off channel=0 note=76 velocity=64 time=192\n",
      "note_on channel=0 note=76 velocity=92 time=0\n",
      "note_off channel=0 note=76 velocity=64 time=96\n",
      "note_on channel=0 note=77 velocity=92 time=0\n",
      "note_off channel=0 note=77 velocity=64 time=96\n",
      "note_off channel=0 note=72 velocity=64 time=0\n",
      "note_off channel=0 note=67 velocity=64 time=0\n",
      "note_on channel=0 note=79 velocity=92 time=0\n",
      "note_off channel=0 note=79 velocity=64 time=192\n",
      "note_on channel=0 note=77 velocity=92 time=0\n",
      "note_on channel=0 note=67 velocity=92 time=0\n",
      "note_on channel=0 note=72 velocity=92 time=0\n",
      "note_off channel=0 note=77 velocity=64 time=96\n",
      "note_on channel=0 note=76 velocity=92 time=0\n",
      "note_off channel=0 note=76 velocity=64 time=96\n",
      "note_off channel=0 note=72 velocity=64 time=0\n",
      "note_off channel=0 note=67 velocity=64 time=0\n",
      "note_on channel=0 note=71 velocity=92 time=0\n",
      "note_on channel=0 note=74 velocity=92 time=0\n",
      "note_off channel=0 note=74 velocity=64 time=384\n",
      "note_off channel=0 note=71 velocity=64 time=0\n",
      "note_on channel=0 note=67 velocity=92 time=0\n",
      "note_off channel=0 note=67 velocity=64 time=192\n",
      "note_on channel=0 note=74 velocity=92 time=0\n",
      "note_on channel=0 note=79 velocity=92 time=0\n",
      "note_off channel=0 note=79 velocity=64 time=192\n",
      "note_off channel=0 note=74 velocity=64 time=0\n",
      "note_on channel=0 note=76 velocity=92 time=0\n",
      "note_off channel=0 note=76 velocity=64 time=96\n",
      "note_on channel=0 note=67 velocity=92 time=0\n",
      "note_off channel=0 note=67 velocity=64 time=96\n",
      "note_on channel=0 note=65 velocity=92 time=0\n",
      "note_off channel=0 note=65 velocity=64 time=96\n",
      "note_on channel=0 note=67 velocity=92 time=0\n",
      "note_off channel=0 note=67 velocity=64 time=96\n",
      "note_on channel=0 note=64 velocity=92 time=0\n",
      "note_off channel=0 note=64 velocity=64 time=96\n",
      "note_on channel=0 note=67 velocity=92 time=0\n",
      "note_off channel=0 note=67 velocity=64 time=96\n",
      "note_on channel=0 note=65 velocity=92 time=0\n",
      "note_off channel=0 note=65 velocity=64 time=96\n",
      "note_on channel=0 note=67 velocity=92 time=0\n",
      "note_off channel=0 note=67 velocity=64 time=96\n",
      "note_on channel=0 note=69 velocity=92 time=0\n",
      "note_off channel=0 note=69 velocity=64 time=96\n",
      "note_on channel=0 note=77 velocity=92 time=0\n",
      "note_off channel=0 note=77 velocity=64 time=96\n",
      "note_on channel=0 note=76 velocity=92 time=0\n",
      "note_off channel=0 note=76 velocity=64 time=96\n",
      "note_on channel=0 note=77 velocity=92 time=0\n",
      "note_off channel=0 note=77 velocity=64 time=96\n",
      "note_on channel=0 note=72 velocity=92 time=0\n",
      "note_off channel=0 note=72 velocity=64 time=96\n",
      "note_on channel=0 note=77 velocity=92 time=0\n",
      "note_off channel=0 note=77 velocity=64 time=96\n",
      "note_on channel=0 note=76 velocity=92 time=0\n",
      "note_off channel=0 note=76 velocity=64 time=96\n",
      "note_on channel=0 note=77 velocity=92 time=0\n",
      "note_off channel=0 note=77 velocity=64 time=96\n",
      "note_on channel=0 note=74 velocity=92 time=0\n",
      "note_off channel=0 note=74 velocity=64 time=96\n",
      "note_on channel=0 note=65 velocity=92 time=0\n",
      "note_off channel=0 note=65 velocity=64 time=96\n",
      "note_on channel=0 note=64 velocity=92 time=0\n",
      "note_off channel=0 note=64 velocity=64 time=96\n",
      "note_on channel=0 note=65 velocity=92 time=0\n",
      "note_off channel=0 note=65 velocity=64 time=96\n",
      "note_on channel=0 note=62 velocity=92 time=0\n",
      "note_off channel=0 note=62 velocity=64 time=96\n",
      "note_on channel=0 note=65 velocity=92 time=0\n",
      "note_off channel=0 note=65 velocity=64 time=96\n",
      "note_on channel=0 note=64 velocity=92 time=0\n",
      "note_off channel=0 note=64 velocity=64 time=96\n",
      "note_on channel=0 note=65 velocity=92 time=0\n",
      "note_off channel=0 note=65 velocity=64 time=96\n",
      "note_on channel=0 note=67 velocity=92 time=0\n",
      "note_off channel=0 note=67 velocity=64 time=96\n",
      "note_on channel=0 note=76 velocity=92 time=0\n",
      "note_off channel=0 note=76 velocity=64 time=96\n",
      "note_on channel=0 note=74 velocity=92 time=0\n",
      "note_off channel=0 note=74 velocity=64 time=96\n",
      "note_on channel=0 note=76 velocity=92 time=0\n",
      "note_off channel=0 note=76 velocity=64 time=96\n",
      "note_on channel=0 note=71 velocity=92 time=0\n",
      "note_off channel=0 note=71 velocity=64 time=96\n",
      "note_on channel=0 note=76 velocity=92 time=0\n",
      "note_off channel=0 note=76 velocity=64 time=96\n",
      "note_on channel=0 note=74 velocity=92 time=0\n",
      "note_off channel=0 note=74 velocity=64 time=96\n",
      "note_on channel=0 note=76 velocity=92 time=0\n",
      "note_off channel=0 note=76 velocity=64 time=96\n",
      "note_on channel=0 note=72 velocity=92 time=0\n",
      "note_off channel=0 note=72 velocity=64 time=96\n",
      "note_on channel=0 note=64 velocity=92 time=0\n",
      "note_off channel=0 note=64 velocity=64 time=96\n",
      "note_on channel=0 note=62 velocity=92 time=0\n",
      "note_off channel=0 note=62 velocity=64 time=96\n",
      "note_on channel=0 note=64 velocity=92 time=0\n",
      "note_off channel=0 note=64 velocity=64 time=96\n",
      "note_on channel=0 note=60 velocity=92 time=0\n",
      "note_off channel=0 note=60 velocity=64 time=96\n",
      "note_on channel=0 note=64 velocity=92 time=0\n",
      "note_off channel=0 note=64 velocity=64 time=96\n",
      "note_on channel=0 note=62 velocity=92 time=0\n",
      "note_off channel=0 note=62 velocity=64 time=96\n",
      "note_on channel=0 note=64 velocity=92 time=0\n",
      "note_off channel=0 note=64 velocity=64 time=96\n",
      "note_on channel=0 note=65 velocity=92 time=0\n",
      "note_off channel=0 note=65 velocity=64 time=96\n",
      "note_on channel=0 note=74 velocity=92 time=0\n",
      "note_off channel=0 note=74 velocity=64 time=96\n",
      "note_on channel=0 note=72 velocity=92 time=0\n",
      "note_off channel=0 note=72 velocity=64 time=96\n",
      "note_on channel=0 note=74 velocity=92 time=0\n",
      "note_off channel=0 note=74 velocity=64 time=96\n",
      "note_on channel=0 note=69 velocity=92 time=0\n",
      "note_off channel=0 note=69 velocity=64 time=96\n",
      "note_on channel=0 note=74 velocity=92 time=0\n",
      "note_off channel=0 note=74 velocity=64 time=96\n",
      "note_on channel=0 note=72 velocity=92 time=0\n",
      "note_off channel=0 note=72 velocity=64 time=96\n",
      "note_on channel=0 note=74 velocity=92 time=0\n",
      "note_off channel=0 note=74 velocity=64 time=96\n",
      "note_on channel=0 note=71 velocity=92 time=0\n",
      "note_off channel=0 note=71 velocity=64 time=96\n",
      "note_on channel=0 note=62 velocity=92 time=0\n",
      "note_off channel=0 note=62 velocity=64 time=96\n",
      "note_on channel=0 note=60 velocity=92 time=0\n",
      "note_off channel=0 note=60 velocity=64 time=96\n",
      "note_on channel=0 note=62 velocity=92 time=0\n",
      "note_off channel=0 note=62 velocity=64 time=96\n",
      "note_on channel=0 note=59 velocity=92 time=0\n",
      "note_off channel=0 note=59 velocity=64 time=96\n",
      "note_on channel=0 note=62 velocity=92 time=0\n",
      "note_off channel=0 note=62 velocity=64 time=96\n",
      "note_on channel=0 note=60 velocity=92 time=0\n",
      "note_off channel=0 note=60 velocity=64 time=96\n",
      "note_on channel=0 note=62 velocity=92 time=0\n",
      "note_off channel=0 note=62 velocity=64 time=96\n",
      "note_on channel=0 note=64 velocity=92 time=0\n",
      "note_off channel=0 note=64 velocity=64 time=96\n",
      "note_on channel=0 note=72 velocity=92 time=0\n",
      "note_off channel=0 note=72 velocity=64 time=96\n",
      "note_on channel=0 note=71 velocity=92 time=0\n",
      "note_off channel=0 note=71 velocity=64 time=96\n",
      "note_on channel=0 note=72 velocity=92 time=0\n",
      "note_off channel=0 note=72 velocity=64 time=96\n",
      "note_on channel=0 note=67 velocity=92 time=0\n",
      "note_off channel=0 note=67 velocity=64 time=96\n",
      "note_on channel=0 note=72 velocity=92 time=0\n",
      "note_off channel=0 note=72 velocity=64 time=96\n",
      "note_on channel=0 note=71 velocity=92 time=0\n",
      "note_off channel=0 note=71 velocity=64 time=96\n",
      "note_on channel=0 note=72 velocity=92 time=0\n",
      "note_off channel=0 note=72 velocity=64 time=96\n",
      "note_on channel=0 note=69 velocity=92 time=0\n",
      "note_off channel=0 note=69 velocity=64 time=96\n",
      "note_on channel=0 note=72 velocity=92 time=0\n",
      "note_off channel=0 note=72 velocity=64 time=96\n",
      "note_on channel=0 note=65 velocity=92 time=0\n",
      "note_on channel=0 note=69 velocity=92 time=0\n",
      "note_off channel=0 note=69 velocity=64 time=96\n",
      "note_on channel=0 note=72 velocity=92 time=0\n",
      "note_off channel=0 note=72 velocity=64 time=96\n",
      "note_off channel=0 note=65 velocity=64 time=0\n",
      "note_on channel=0 note=65 velocity=92 time=0\n",
      "note_on channel=0 note=69 velocity=92 time=0\n",
      "note_off channel=0 note=69 velocity=64 time=96\n",
      "note_on channel=0 note=72 velocity=92 time=0\n",
      "note_off channel=0 note=72 velocity=64 time=96\n",
      "note_off channel=0 note=65 velocity=64 time=0\n",
      "note_on channel=0 note=65 velocity=92 time=0\n",
      "note_on channel=0 note=69 velocity=92 time=0\n",
      "note_off channel=0 note=69 velocity=64 time=96\n",
      "note_on channel=0 note=72 velocity=92 time=0\n",
      "note_off channel=0 note=72 velocity=64 time=96\n",
      "note_off channel=0 note=65 velocity=64 time=0\n",
      "note_on channel=0 note=64 velocity=92 time=0\n",
      "note_on channel=0 note=67 velocity=92 time=0\n",
      "note_off channel=0 note=67 velocity=64 time=96\n",
      "note_on channel=0 note=72 velocity=92 time=0\n",
      "note_off channel=0 note=72 velocity=64 time=96\n",
      "note_off channel=0 note=64 velocity=64 time=0\n",
      "note_on channel=0 note=64 velocity=92 time=0\n",
      "note_on channel=0 note=67 velocity=92 time=0\n",
      "note_off channel=0 note=67 velocity=64 time=96\n",
      "note_on channel=0 note=72 velocity=92 time=0\n",
      "note_off channel=0 note=72 velocity=64 time=96\n",
      "note_off channel=0 note=64 velocity=64 time=0\n",
      "note_on channel=0 note=64 velocity=92 time=0\n",
      "note_on channel=0 note=67 velocity=92 time=0\n",
      "note_off channel=0 note=67 velocity=64 time=96\n",
      "note_on channel=0 note=72 velocity=92 time=0\n",
      "note_off channel=0 note=72 velocity=64 time=96\n",
      "note_off channel=0 note=64 velocity=64 time=0\n",
      "note_on channel=0 note=64 velocity=92 time=0\n",
      "note_on channel=0 note=67 velocity=92 time=0\n",
      "note_off channel=0 note=67 velocity=64 time=96\n",
      "note_on channel=0 note=72 velocity=92 time=0\n",
      "note_off channel=0 note=72 velocity=64 time=96\n",
      "note_off channel=0 note=64 velocity=64 time=0\n",
      "note_on channel=0 note=62 velocity=92 time=0\n",
      "note_on channel=0 note=71 velocity=92 time=0\n",
      "note_off channel=0 note=71 velocity=64 time=96\n",
      "note_off channel=0 note=62 velocity=64 time=0\n",
      "note_on channel=0 note=79 velocity=92 time=0\n",
      "note_off channel=0 note=79 velocity=64 time=96\n",
      "note_on channel=0 note=77 velocity=92 time=0\n",
      "note_off channel=0 note=77 velocity=64 time=96\n",
      "note_on channel=0 note=79 velocity=92 time=0\n",
      "note_off channel=0 note=79 velocity=64 time=96\n",
      "note_on channel=0 note=74 velocity=92 time=0\n",
      "note_off channel=0 note=74 velocity=64 time=96\n",
      "note_on channel=0 note=79 velocity=92 time=0\n",
      "note_off channel=0 note=79 velocity=64 time=96\n",
      "note_on channel=0 note=77 velocity=92 time=0\n",
      "note_off channel=0 note=77 velocity=64 time=96\n",
      "note_on channel=0 note=79 velocity=92 time=0\n",
      "note_off channel=0 note=79 velocity=64 time=96\n",
      "note_on channel=0 note=76 velocity=92 time=0\n",
      "note_off channel=0 note=76 velocity=64 time=96\n",
      "note_on channel=0 note=84 velocity=92 time=0\n",
      "note_off channel=0 note=84 velocity=64 time=96\n",
      "note_on channel=0 note=60 velocity=92 time=0\n",
      "note_on channel=0 note=83 velocity=92 time=0\n",
      "note_off channel=0 note=83 velocity=64 time=96\n",
      "note_off channel=0 note=60 velocity=64 time=0\n",
      "note_on channel=0 note=62 velocity=92 time=0\n",
      "note_on channel=0 note=84 velocity=92 time=0\n",
      "note_off channel=0 note=84 velocity=64 time=96\n",
      "note_off channel=0 note=62 velocity=64 time=0\n",
      "note_on channel=0 note=64 velocity=92 time=0\n",
      "note_on channel=0 note=79 velocity=92 time=0\n",
      "note_off channel=0 note=79 velocity=64 time=96\n",
      "note_off channel=0 note=64 velocity=64 time=0\n",
      "note_on channel=0 note=62 velocity=92 time=0\n",
      "note_on channel=0 note=84 velocity=92 time=0\n",
      "note_off channel=0 note=84 velocity=64 time=96\n",
      "note_off channel=0 note=62 velocity=64 time=0\n",
      "note_on channel=0 note=64 velocity=92 time=0\n",
      "note_on channel=0 note=83 velocity=92 time=0\n",
      "note_off channel=0 note=83 velocity=64 time=96\n",
      "note_off channel=0 note=64 velocity=64 time=0\n",
      "note_on channel=0 note=60 velocity=92 time=0\n",
      "note_on channel=0 note=84 velocity=92 time=0\n",
      "note_off channel=0 note=84 velocity=64 time=96\n",
      "note_off channel=0 note=60 velocity=64 time=0\n",
      "note_on channel=0 note=65 velocity=92 time=0\n",
      "note_on channel=0 note=81 velocity=92 time=0\n",
      "note_off channel=0 note=81 velocity=64 time=96\n",
      "note_off channel=0 note=65 velocity=64 time=0\n",
      "note_on channel=0 note=64 velocity=92 time=0\n",
      "note_on channel=0 note=84 velocity=92 time=0\n",
      "note_off channel=0 note=84 velocity=64 time=96\n",
      "note_off channel=0 note=64 velocity=64 time=0\n",
      "note_on channel=0 note=65 velocity=92 time=0\n",
      "note_on channel=0 note=83 velocity=92 time=0\n",
      "note_off channel=0 note=83 velocity=64 time=96\n",
      "note_off channel=0 note=65 velocity=64 time=0\n",
      "note_on channel=0 note=62 velocity=92 time=0\n",
      "note_on channel=0 note=84 velocity=92 time=0\n",
      "note_off channel=0 note=84 velocity=64 time=96\n",
      "note_off channel=0 note=62 velocity=64 time=0\n",
      "note_on channel=0 note=67 velocity=92 time=0\n",
      "note_on channel=0 note=74 velocity=92 time=0\n",
      "note_off channel=0 note=74 velocity=64 time=96\n",
      "note_off channel=0 note=67 velocity=64 time=0\n",
      "note_on channel=0 note=69 velocity=92 time=0\n",
      "note_on channel=0 note=83 velocity=92 time=0\n",
      "note_off channel=0 note=83 velocity=64 time=96\n",
      "note_off channel=0 note=69 velocity=64 time=0\n",
      "note_on channel=0 note=67 velocity=92 time=0\n",
      "note_on channel=0 note=81 velocity=92 time=0\n",
      "note_off channel=0 note=81 velocity=64 time=96\n",
      "note_off channel=0 note=67 velocity=64 time=0\n",
      "note_on channel=0 note=65 velocity=92 time=0\n",
      "note_on channel=0 note=83 velocity=92 time=0\n",
      "note_off channel=0 note=83 velocity=64 time=96\n",
      "note_off channel=0 note=65 velocity=64 time=0\n",
      "note_on channel=0 note=64 velocity=92 time=0\n",
      "note_on channel=0 note=84 velocity=92 time=0\n",
      "note_off channel=0 note=84 velocity=64 time=96\n",
      "note_off channel=0 note=64 velocity=64 time=0\n",
      "note_on channel=0 note=62 velocity=92 time=0\n",
      "note_on channel=0 note=81 velocity=92 time=0\n",
      "note_off channel=0 note=81 velocity=64 time=96\n",
      "note_off channel=0 note=62 velocity=64 time=0\n",
      "note_on channel=0 note=64 velocity=92 time=0\n",
      "note_on channel=0 note=79 velocity=92 time=0\n",
      "note_off channel=0 note=79 velocity=64 time=96\n",
      "note_off channel=0 note=64 velocity=64 time=0\n",
      "note_on channel=0 note=65 velocity=92 time=0\n",
      "note_on channel=0 note=77 velocity=92 time=0\n",
      "note_off channel=0 note=77 velocity=64 time=96\n",
      "note_off channel=0 note=65 velocity=64 time=0\n",
      "note_on channel=0 note=76 velocity=92 time=0\n",
      "note_on channel=0 note=72 velocity=92 time=0\n",
      "note_on channel=0 note=67 velocity=92 time=0\n",
      "note_off channel=0 note=67 velocity=64 time=192\n",
      "note_off channel=0 note=72 velocity=64 time=0\n",
      "note_off channel=0 note=76 velocity=64 time=0\n",
      "note_on channel=0 note=74 velocity=92 time=0\n",
      "note_on channel=0 note=71 velocity=92 time=0\n",
      "note_on channel=0 note=65 velocity=92 time=0\n",
      "note_off channel=0 note=65 velocity=64 time=192\n",
      "note_off channel=0 note=71 velocity=64 time=0\n",
      "note_off channel=0 note=74 velocity=64 time=0\n",
      "note_on channel=0 note=64 velocity=92 time=0\n",
      "note_on channel=0 note=67 velocity=92 time=0\n",
      "note_on channel=0 note=72 velocity=92 time=0\n",
      "note_off channel=0 note=72 velocity=64 time=384\n",
      "note_off channel=0 note=67 velocity=64 time=0\n",
      "note_off channel=0 note=64 velocity=64 time=0\n",
      "<meta message end_of_track time=1152>\n"
     ]
    }
   ],
   "source": [
    "song = []\n",
    "full_song_message = []\n",
    "for i, track in enumerate(mid.tracks):\n",
    "    if track.name == \"Track 1\":\n",
    "        for msg in track:\n",
    "            print(msg)\n",
    "            if msg.dict()['type'] in ['note_on','note_off']:\n",
    "                song.append((msg.dict()['note'],msg.dict()['velocity'],msg.dict()['time'],msg.dict()['type']))\n",
    "            full_song_message.append(msg)"
   ]
  },
  {
   "cell_type": "code",
   "execution_count": 49,
   "metadata": {
    "scrolled": true
   },
   "outputs": [
    {
     "data": {
      "text/plain": [
       "[(67, 92, 0, 'note_on'),\n",
       " (72, 92, 0, 'note_on'),\n",
       " (72, 64, 192, 'note_off'),\n",
       " (76, 92, 0, 'note_on'),\n",
       " (76, 64, 96, 'note_off'),\n",
       " (74, 92, 0, 'note_on'),\n",
       " (74, 64, 96, 'note_off'),\n",
       " (67, 64, 0, 'note_off'),\n",
       " (72, 92, 0, 'note_on'),\n",
       " (72, 64, 192, 'note_off'),\n",
       " (67, 92, 0, 'note_on'),\n",
       " (72, 92, 0, 'note_on'),\n",
       " (76, 92, 0, 'note_on'),\n",
       " (76, 64, 192, 'note_off'),\n",
       " (72, 64, 0, 'note_off'),\n",
       " (67, 64, 0, 'note_off'),\n",
       " (67, 92, 0, 'note_on'),\n",
       " (74, 92, 0, 'note_on'),\n",
       " (74, 64, 192, 'note_off'),\n",
       " (79, 92, 0, 'note_on'),\n",
       " (79, 64, 192, 'note_off'),\n",
       " (67, 64, 0, 'note_off'),\n",
       " (67, 92, 0, 'note_on'),\n",
       " (67, 64, 192, 'note_off'),\n",
       " (79, 92, 0, 'note_on'),\n",
       " (74, 92, 0, 'note_on'),\n",
       " (67, 92, 0, 'note_on'),\n",
       " (67, 64, 192, 'note_off'),\n",
       " (74, 64, 0, 'note_off'),\n",
       " (79, 64, 0, 'note_off'),\n",
       " (67, 92, 0, 'note_on'),\n",
       " (72, 92, 0, 'note_on'),\n",
       " (76, 92, 0, 'note_on'),\n",
       " (76, 64, 192, 'note_off'),\n",
       " (76, 92, 0, 'note_on'),\n",
       " (76, 64, 96, 'note_off'),\n",
       " (77, 92, 0, 'note_on'),\n",
       " (77, 64, 96, 'note_off'),\n",
       " (72, 64, 0, 'note_off'),\n",
       " (67, 64, 0, 'note_off'),\n",
       " (79, 92, 0, 'note_on'),\n",
       " (79, 64, 192, 'note_off'),\n",
       " (72, 92, 0, 'note_on'),\n",
       " (67, 92, 0, 'note_on'),\n",
       " (77, 92, 0, 'note_on'),\n",
       " (77, 64, 96, 'note_off'),\n",
       " (76, 92, 0, 'note_on'),\n",
       " (76, 64, 96, 'note_off'),\n",
       " (67, 64, 0, 'note_off'),\n",
       " (72, 64, 0, 'note_off'),\n",
       " (67, 92, 0, 'note_on'),\n",
       " (76, 92, 0, 'note_on'),\n",
       " (76, 64, 48, 'note_off'),\n",
       " (74, 92, 0, 'note_on'),\n",
       " (74, 64, 48, 'note_off'),\n",
       " (76, 92, 0, 'note_on'),\n",
       " (76, 64, 48, 'note_off'),\n",
       " (74, 92, 0, 'note_on'),\n",
       " (74, 64, 48, 'note_off'),\n",
       " (76, 92, 0, 'note_on'),\n",
       " (76, 64, 48, 'note_off'),\n",
       " (74, 92, 0, 'note_on'),\n",
       " (74, 64, 48, 'note_off'),\n",
       " (76, 92, 0, 'note_on'),\n",
       " (76, 64, 48, 'note_off'),\n",
       " (74, 92, 0, 'note_on'),\n",
       " (74, 64, 48, 'note_off'),\n",
       " (67, 64, 0, 'note_off'),\n",
       " (67, 92, 0, 'note_on'),\n",
       " (67, 64, 192, 'note_off'),\n",
       " (79, 92, 0, 'note_on'),\n",
       " (74, 92, 0, 'note_on'),\n",
       " (67, 92, 0, 'note_on'),\n",
       " (67, 64, 192, 'note_off'),\n",
       " (74, 64, 0, 'note_off'),\n",
       " (79, 64, 0, 'note_off'),\n",
       " (67, 92, 0, 'note_on'),\n",
       " (72, 92, 0, 'note_on'),\n",
       " (76, 92, 0, 'note_on'),\n",
       " (76, 64, 96, 'note_off'),\n",
       " (72, 64, 0, 'note_off'),\n",
       " (67, 64, 0, 'note_off'),\n",
       " (64, 92, 0, 'note_on'),\n",
       " (67, 92, 0, 'note_on'),\n",
       " (67, 64, 96, 'note_off'),\n",
       " (64, 64, 0, 'note_off'),\n",
       " (62, 92, 0, 'note_on'),\n",
       " (65, 92, 0, 'note_on'),\n",
       " (65, 64, 96, 'note_off'),\n",
       " (62, 64, 0, 'note_off'),\n",
       " (64, 92, 0, 'note_on'),\n",
       " (67, 92, 0, 'note_on'),\n",
       " (67, 64, 96, 'note_off'),\n",
       " (64, 64, 0, 'note_off'),\n",
       " (60, 92, 0, 'note_on'),\n",
       " (64, 92, 0, 'note_on'),\n",
       " (64, 64, 96, 'note_off'),\n",
       " (60, 64, 0, 'note_off'),\n",
       " (64, 92, 0, 'note_on'),\n",
       " (67, 92, 0, 'note_on'),\n",
       " (67, 64, 96, 'note_off'),\n",
       " (64, 64, 0, 'note_off'),\n",
       " (62, 92, 0, 'note_on'),\n",
       " (65, 92, 0, 'note_on'),\n",
       " (65, 64, 96, 'note_off'),\n",
       " (62, 64, 0, 'note_off'),\n",
       " (64, 92, 0, 'note_on'),\n",
       " (67, 92, 0, 'note_on'),\n",
       " (67, 64, 96, 'note_off'),\n",
       " (64, 64, 0, 'note_off'),\n",
       " (65, 92, 0, 'note_on'),\n",
       " (69, 92, 0, 'note_on'),\n",
       " (69, 64, 96, 'note_off'),\n",
       " (65, 64, 0, 'note_off'),\n",
       " (77, 92, 0, 'note_on'),\n",
       " (77, 64, 96, 'note_off'),\n",
       " (76, 92, 0, 'note_on'),\n",
       " (76, 64, 96, 'note_off'),\n",
       " (77, 92, 0, 'note_on'),\n",
       " (77, 64, 96, 'note_off'),\n",
       " (72, 92, 0, 'note_on'),\n",
       " (72, 64, 96, 'note_off'),\n",
       " (77, 92, 0, 'note_on'),\n",
       " (77, 64, 96, 'note_off'),\n",
       " (76, 92, 0, 'note_on'),\n",
       " (76, 64, 96, 'note_off'),\n",
       " (77, 92, 0, 'note_on'),\n",
       " (77, 64, 96, 'note_off'),\n",
       " (74, 92, 0, 'note_on'),\n",
       " (74, 64, 96, 'note_off'),\n",
       " (62, 92, 0, 'note_on'),\n",
       " (65, 92, 0, 'note_on'),\n",
       " (65, 64, 96, 'note_off'),\n",
       " (62, 64, 0, 'note_off'),\n",
       " (60, 92, 0, 'note_on'),\n",
       " (64, 92, 0, 'note_on'),\n",
       " (64, 64, 96, 'note_off'),\n",
       " (60, 64, 0, 'note_off'),\n",
       " (62, 92, 0, 'note_on'),\n",
       " (65, 92, 0, 'note_on'),\n",
       " (65, 64, 96, 'note_off'),\n",
       " (62, 64, 0, 'note_off'),\n",
       " (59, 92, 0, 'note_on'),\n",
       " (62, 92, 0, 'note_on'),\n",
       " (62, 64, 96, 'note_off'),\n",
       " (59, 64, 0, 'note_off'),\n",
       " (62, 92, 0, 'note_on'),\n",
       " (65, 92, 0, 'note_on'),\n",
       " (65, 64, 96, 'note_off'),\n",
       " (62, 64, 0, 'note_off'),\n",
       " (60, 92, 0, 'note_on'),\n",
       " (64, 92, 0, 'note_on'),\n",
       " (64, 64, 96, 'note_off'),\n",
       " (60, 64, 0, 'note_off'),\n",
       " (62, 92, 0, 'note_on'),\n",
       " (65, 92, 0, 'note_on'),\n",
       " (65, 64, 96, 'note_off'),\n",
       " (62, 64, 0, 'note_off'),\n",
       " (64, 92, 0, 'note_on'),\n",
       " (67, 92, 0, 'note_on'),\n",
       " (67, 64, 96, 'note_off'),\n",
       " (64, 64, 0, 'note_off'),\n",
       " (76, 92, 0, 'note_on'),\n",
       " (76, 64, 96, 'note_off'),\n",
       " (74, 92, 0, 'note_on'),\n",
       " (74, 64, 96, 'note_off'),\n",
       " (76, 92, 0, 'note_on'),\n",
       " (76, 64, 96, 'note_off'),\n",
       " (71, 92, 0, 'note_on'),\n",
       " (71, 64, 96, 'note_off'),\n",
       " (76, 92, 0, 'note_on'),\n",
       " (76, 64, 96, 'note_off'),\n",
       " (74, 92, 0, 'note_on'),\n",
       " (74, 64, 96, 'note_off'),\n",
       " (76, 92, 0, 'note_on'),\n",
       " (76, 64, 96, 'note_off'),\n",
       " (72, 92, 0, 'note_on'),\n",
       " (72, 64, 96, 'note_off'),\n",
       " (64, 92, 0, 'note_on'),\n",
       " (64, 64, 96, 'note_off'),\n",
       " (62, 92, 0, 'note_on'),\n",
       " (62, 64, 96, 'note_off'),\n",
       " (64, 92, 0, 'note_on'),\n",
       " (64, 64, 96, 'note_off'),\n",
       " (60, 92, 0, 'note_on'),\n",
       " (60, 64, 96, 'note_off'),\n",
       " (64, 92, 0, 'note_on'),\n",
       " (64, 64, 96, 'note_off'),\n",
       " (62, 92, 0, 'note_on'),\n",
       " (62, 64, 96, 'note_off'),\n",
       " (64, 92, 0, 'note_on'),\n",
       " (64, 64, 96, 'note_off'),\n",
       " (65, 92, 0, 'note_on'),\n",
       " (65, 64, 96, 'note_off'),\n",
       " (74, 92, 0, 'note_on'),\n",
       " (74, 64, 96, 'note_off'),\n",
       " (72, 92, 0, 'note_on'),\n",
       " (72, 64, 96, 'note_off'),\n",
       " (74, 92, 0, 'note_on'),\n",
       " (74, 64, 96, 'note_off'),\n",
       " (69, 92, 0, 'note_on'),\n",
       " (69, 64, 96, 'note_off'),\n",
       " (74, 92, 0, 'note_on'),\n",
       " (74, 64, 96, 'note_off'),\n",
       " (72, 92, 0, 'note_on'),\n",
       " (72, 64, 96, 'note_off'),\n",
       " (74, 92, 0, 'note_on'),\n",
       " (74, 64, 96, 'note_off'),\n",
       " (71, 92, 0, 'note_on'),\n",
       " (71, 64, 96, 'note_off'),\n",
       " (62, 92, 0, 'note_on'),\n",
       " (62, 64, 96, 'note_off'),\n",
       " (60, 92, 0, 'note_on'),\n",
       " (60, 64, 96, 'note_off'),\n",
       " (62, 92, 0, 'note_on'),\n",
       " (62, 64, 96, 'note_off'),\n",
       " (59, 92, 0, 'note_on'),\n",
       " (59, 64, 96, 'note_off'),\n",
       " (62, 92, 0, 'note_on'),\n",
       " (62, 64, 96, 'note_off'),\n",
       " (60, 92, 0, 'note_on'),\n",
       " (60, 64, 96, 'note_off'),\n",
       " (62, 92, 0, 'note_on'),\n",
       " (62, 64, 96, 'note_off'),\n",
       " (64, 92, 0, 'note_on'),\n",
       " (64, 64, 96, 'note_off'),\n",
       " (72, 92, 0, 'note_on'),\n",
       " (72, 64, 96, 'note_off'),\n",
       " (71, 92, 0, 'note_on'),\n",
       " (71, 64, 96, 'note_off'),\n",
       " (72, 92, 0, 'note_on'),\n",
       " (72, 64, 96, 'note_off'),\n",
       " (67, 92, 0, 'note_on'),\n",
       " (67, 64, 96, 'note_off'),\n",
       " (72, 92, 0, 'note_on'),\n",
       " (72, 64, 96, 'note_off'),\n",
       " (71, 92, 0, 'note_on'),\n",
       " (71, 64, 96, 'note_off'),\n",
       " (72, 92, 0, 'note_on'),\n",
       " (72, 64, 96, 'note_off'),\n",
       " (69, 92, 0, 'note_on'),\n",
       " (69, 64, 192, 'note_off'),\n",
       " (72, 92, 0, 'note_on'),\n",
       " (65, 92, 0, 'note_on'),\n",
       " (69, 92, 0, 'note_on'),\n",
       " (69, 64, 192, 'note_off'),\n",
       " (65, 64, 0, 'note_off'),\n",
       " (65, 92, 0, 'note_on'),\n",
       " (67, 92, 0, 'note_on'),\n",
       " (72, 64, 192, 'note_off'),\n",
       " (71, 92, 0, 'note_on'),\n",
       " (71, 64, 192, 'note_off'),\n",
       " (67, 64, 0, 'note_off'),\n",
       " (65, 64, 0, 'note_off'),\n",
       " (64, 92, 0, 'note_on'),\n",
       " (67, 92, 0, 'note_on'),\n",
       " (72, 92, 0, 'note_on'),\n",
       " (72, 64, 192, 'note_off'),\n",
       " (67, 64, 0, 'note_off'),\n",
       " (64, 64, 0, 'note_off'),\n",
       " (76, 92, 0, 'note_on'),\n",
       " (76, 64, 96, 'note_off'),\n",
       " (74, 92, 0, 'note_on'),\n",
       " (74, 64, 96, 'note_off'),\n",
       " (72, 92, 0, 'note_on'),\n",
       " (72, 64, 192, 'note_off'),\n",
       " (67, 92, 0, 'note_on'),\n",
       " (72, 92, 0, 'note_on'),\n",
       " (76, 92, 0, 'note_on'),\n",
       " (76, 64, 192, 'note_off'),\n",
       " (72, 64, 0, 'note_off'),\n",
       " (67, 64, 0, 'note_off'),\n",
       " (74, 92, 0, 'note_on'),\n",
       " (67, 92, 0, 'note_on'),\n",
       " (71, 92, 0, 'note_on'),\n",
       " (74, 64, 192, 'note_off'),\n",
       " (79, 92, 0, 'note_on'),\n",
       " (79, 64, 192, 'note_off'),\n",
       " (71, 64, 0, 'note_off'),\n",
       " (67, 64, 0, 'note_off'),\n",
       " (67, 92, 0, 'note_on'),\n",
       " (67, 64, 192, 'note_off'),\n",
       " (79, 92, 0, 'note_on'),\n",
       " (74, 92, 0, 'note_on'),\n",
       " (67, 92, 0, 'note_on'),\n",
       " (67, 64, 192, 'note_off'),\n",
       " (74, 64, 0, 'note_off'),\n",
       " (79, 64, 0, 'note_off'),\n",
       " (76, 92, 0, 'note_on'),\n",
       " (72, 92, 0, 'note_on'),\n",
       " (67, 92, 0, 'note_on'),\n",
       " (76, 64, 192, 'note_off'),\n",
       " (76, 92, 0, 'note_on'),\n",
       " (76, 64, 96, 'note_off'),\n",
       " (77, 92, 0, 'note_on'),\n",
       " (77, 64, 96, 'note_off'),\n",
       " (67, 64, 0, 'note_off'),\n",
       " (72, 64, 0, 'note_off'),\n",
       " (79, 92, 0, 'note_on'),\n",
       " (79, 64, 192, 'note_off'),\n",
       " (77, 92, 0, 'note_on'),\n",
       " (67, 92, 0, 'note_on'),\n",
       " (72, 92, 0, 'note_on'),\n",
       " (77, 64, 96, 'note_off'),\n",
       " (76, 92, 0, 'note_on'),\n",
       " (76, 64, 96, 'note_off'),\n",
       " (72, 64, 0, 'note_off'),\n",
       " (67, 64, 0, 'note_off'),\n",
       " (67, 92, 0, 'note_on'),\n",
       " (71, 92, 0, 'note_on'),\n",
       " (74, 92, 0, 'note_on'),\n",
       " (67, 64, 96, 'note_off'),\n",
       " (66, 92, 0, 'note_on'),\n",
       " (66, 64, 96, 'note_off'),\n",
       " (67, 92, 0, 'note_on'),\n",
       " (67, 64, 96, 'note_off'),\n",
       " (69, 92, 0, 'note_on'),\n",
       " (69, 64, 96, 'note_off'),\n",
       " (74, 64, 0, 'note_off'),\n",
       " (71, 64, 0, 'note_off'),\n",
       " (71, 92, 0, 'note_on'),\n",
       " (71, 64, 96, 'note_off'),\n",
       " (66, 92, 0, 'note_on'),\n",
       " (66, 64, 96, 'note_off'),\n",
       " (67, 92, 0, 'note_on'),\n",
       " (67, 64, 96, 'note_off'),\n",
       " (62, 92, 0, 'note_on'),\n",
       " (67, 92, 96, 'note_on'),\n",
       " (67, 64, 192, 'note_off'),\n",
       " (71, 92, 0, 'note_on'),\n",
       " (71, 64, 96, 'note_off'),\n",
       " (69, 92, 0, 'note_on'),\n",
       " (69, 64, 96, 'note_off'),\n",
       " (62, 64, 0, 'note_off'),\n",
       " (67, 92, 0, 'note_on'),\n",
       " (67, 64, 192, 'note_off'),\n",
       " (62, 92, 0, 'note_on'),\n",
       " (67, 92, 0, 'note_on'),\n",
       " (71, 92, 0, 'note_on'),\n",
       " (71, 64, 192, 'note_off'),\n",
       " (67, 64, 0, 'note_off'),\n",
       " (62, 64, 0, 'note_off'),\n",
       " (69, 92, 0, 'note_on'),\n",
       " (62, 92, 0, 'note_on'),\n",
       " (69, 64, 192, 'note_off'),\n",
       " (74, 92, 0, 'note_on'),\n",
       " (74, 64, 192, 'note_off'),\n",
       " (62, 64, 0, 'note_off'),\n",
       " (62, 92, 0, 'note_on'),\n",
       " (62, 64, 192, 'note_off'),\n",
       " (74, 92, 0, 'note_on'),\n",
       " (69, 92, 0, 'note_on'),\n",
       " (62, 92, 0, 'note_on'),\n",
       " (62, 64, 192, 'note_off'),\n",
       " (69, 64, 0, 'note_off'),\n",
       " (74, 64, 0, 'note_off'),\n",
       " (71, 92, 0, 'note_on'),\n",
       " (67, 92, 0, 'note_on'),\n",
       " (62, 92, 0, 'note_on'),\n",
       " (71, 64, 192, 'note_off'),\n",
       " (71, 92, 0, 'note_on'),\n",
       " (71, 64, 96, 'note_off'),\n",
       " (72, 92, 0, 'note_on'),\n",
       " (72, 64, 96, 'note_off'),\n",
       " (62, 64, 0, 'note_off'),\n",
       " (67, 64, 0, 'note_off'),\n",
       " (74, 92, 0, 'note_on'),\n",
       " (74, 64, 192, 'note_off'),\n",
       " (72, 92, 0, 'note_on'),\n",
       " (62, 92, 0, 'note_on'),\n",
       " (67, 92, 0, 'note_on'),\n",
       " (72, 64, 96, 'note_off'),\n",
       " (71, 92, 0, 'note_on'),\n",
       " (71, 64, 96, 'note_off'),\n",
       " (67, 64, 0, 'note_off'),\n",
       " (62, 64, 0, 'note_off'),\n",
       " (62, 92, 0, 'note_on'),\n",
       " (66, 92, 0, 'note_on'),\n",
       " (69, 92, 0, 'note_on'),\n",
       " (69, 64, 384, 'note_off'),\n",
       " (66, 64, 0, 'note_off'),\n",
       " (62, 64, 0, 'note_off'),\n",
       " (62, 92, 0, 'note_on'),\n",
       " (62, 64, 192, 'note_off'),\n",
       " (74, 92, 0, 'note_on'),\n",
       " (69, 92, 0, 'note_on'),\n",
       " (62, 92, 0, 'note_on'),\n",
       " (62, 64, 192, 'note_off'),\n",
       " (69, 64, 0, 'note_off'),\n",
       " (74, 64, 0, 'note_off'),\n",
       " (62, 92, 0, 'note_on'),\n",
       " (67, 92, 0, 'note_on'),\n",
       " (71, 92, 0, 'note_on'),\n",
       " (71, 64, 96, 'note_off'),\n",
       " (67, 64, 0, 'note_off'),\n",
       " (62, 64, 0, 'note_off'),\n",
       " (62, 92, 0, 'note_on'),\n",
       " (62, 64, 96, 'note_off'),\n",
       " (60, 92, 0, 'note_on'),\n",
       " (60, 64, 96, 'note_off'),\n",
       " (62, 92, 0, 'note_on'),\n",
       " (62, 64, 96, 'note_off'),\n",
       " (59, 92, 0, 'note_on'),\n",
       " (59, 64, 96, 'note_off'),\n",
       " (62, 92, 0, 'note_on'),\n",
       " (62, 64, 96, 'note_off'),\n",
       " (60, 92, 0, 'note_on'),\n",
       " (60, 64, 96, 'note_off'),\n",
       " (62, 92, 0, 'note_on'),\n",
       " (62, 64, 96, 'note_off'),\n",
       " (64, 92, 0, 'note_on'),\n",
       " (64, 64, 96, 'note_off'),\n",
       " (72, 92, 0, 'note_on'),\n",
       " (72, 64, 96, 'note_off'),\n",
       " (71, 92, 0, 'note_on'),\n",
       " (71, 64, 96, 'note_off'),\n",
       " (72, 92, 0, 'note_on'),\n",
       " (72, 64, 96, 'note_off'),\n",
       " (67, 92, 0, 'note_on'),\n",
       " (67, 64, 96, 'note_off'),\n",
       " (72, 92, 0, 'note_on'),\n",
       " (72, 64, 96, 'note_off'),\n",
       " (71, 92, 0, 'note_on'),\n",
       " (71, 64, 96, 'note_off'),\n",
       " (72, 92, 0, 'note_on'),\n",
       " (72, 64, 96, 'note_off'),\n",
       " (69, 92, 0, 'note_on'),\n",
       " (69, 64, 96, 'note_off'),\n",
       " (60, 92, 0, 'note_on'),\n",
       " (60, 64, 96, 'note_off'),\n",
       " (59, 92, 0, 'note_on'),\n",
       " (59, 64, 96, 'note_off'),\n",
       " (60, 92, 0, 'note_on'),\n",
       " (60, 64, 96, 'note_off'),\n",
       " (57, 92, 0, 'note_on'),\n",
       " (57, 64, 96, 'note_off'),\n",
       " (60, 92, 0, 'note_on'),\n",
       " (60, 64, 96, 'note_off'),\n",
       " (59, 92, 0, 'note_on'),\n",
       " (59, 64, 96, 'note_off'),\n",
       " (60, 92, 0, 'note_on'),\n",
       " (60, 64, 96, 'note_off'),\n",
       " (62, 92, 0, 'note_on'),\n",
       " (62, 64, 96, 'note_off'),\n",
       " (71, 92, 0, 'note_on'),\n",
       " (71, 64, 96, 'note_off'),\n",
       " (69, 92, 0, 'note_on'),\n",
       " (69, 64, 96, 'note_off'),\n",
       " (71, 92, 0, 'note_on'),\n",
       " (71, 64, 96, 'note_off'),\n",
       " (66, 92, 0, 'note_on'),\n",
       " (66, 64, 96, 'note_off'),\n",
       " (71, 92, 0, 'note_on'),\n",
       " (71, 64, 96, 'note_off'),\n",
       " (69, 92, 0, 'note_on'),\n",
       " (69, 64, 96, 'note_off'),\n",
       " (71, 92, 0, 'note_on'),\n",
       " (71, 64, 96, 'note_off'),\n",
       " (67, 92, 0, 'note_on'),\n",
       " (67, 64, 96, 'note_off'),\n",
       " (69, 92, 768, 'note_on'),\n",
       " (69, 64, 96, 'note_off'),\n",
       " (67, 92, 0, 'note_on'),\n",
       " (67, 64, 96, 'note_off'),\n",
       " (69, 92, 0, 'note_on'),\n",
       " (69, 64, 96, 'note_off'),\n",
       " (64, 92, 0, 'note_on'),\n",
       " (64, 64, 96, 'note_off'),\n",
       " (69, 92, 0, 'note_on'),\n",
       " (69, 64, 96, 'note_off'),\n",
       " (67, 92, 0, 'note_on'),\n",
       " (67, 64, 96, 'note_off'),\n",
       " (69, 92, 0, 'note_on'),\n",
       " (69, 64, 96, 'note_off'),\n",
       " (66, 92, 0, 'note_on'),\n",
       " (66, 64, 96, 'note_off'),\n",
       " (67, 92, 768, 'note_on'),\n",
       " (67, 64, 96, 'note_off'),\n",
       " (66, 92, 0, 'note_on'),\n",
       " (66, 64, 96, 'note_off'),\n",
       " (67, 92, 0, 'note_on'),\n",
       " (67, 64, 96, 'note_off'),\n",
       " (62, 92, 0, 'note_on'),\n",
       " (62, 64, 96, 'note_off'),\n",
       " (67, 92, 0, 'note_on'),\n",
       " (67, 64, 96, 'note_off'),\n",
       " (66, 92, 0, 'note_on'),\n",
       " (66, 64, 96, 'note_off'),\n",
       " (67, 92, 0, 'note_on'),\n",
       " (67, 64, 96, 'note_off'),\n",
       " (64, 92, 0, 'note_on'),\n",
       " (64, 64, 192, 'note_off'),\n",
       " (60, 92, 0, 'note_on'),\n",
       " (64, 92, 0, 'note_on'),\n",
       " (67, 92, 0, 'note_on'),\n",
       " (64, 64, 192, 'note_off'),\n",
       " (60, 64, 0, 'note_off'),\n",
       " (60, 92, 0, 'note_on'),\n",
       " (62, 92, 0, 'note_on'),\n",
       " (67, 64, 192, 'note_off'),\n",
       " (66, 92, 0, 'note_on'),\n",
       " (66, 64, 192, 'note_off'),\n",
       " (62, 64, 0, 'note_off'),\n",
       " (60, 64, 0, 'note_off'),\n",
       " (59, 92, 0, 'note_on'),\n",
       " (62, 92, 0, 'note_on'),\n",
       " (67, 92, 0, 'note_on'),\n",
       " (67, 64, 192, 'note_off'),\n",
       " (62, 64, 0, 'note_off'),\n",
       " (59, 64, 0, 'note_off'),\n",
       " (71, 92, 0, 'note_on'),\n",
       " (71, 64, 96, 'note_off'),\n",
       " (69, 92, 0, 'note_on'),\n",
       " (69, 64, 96, 'note_off'),\n",
       " (67, 92, 0, 'note_on'),\n",
       " (67, 64, 192, 'note_off'),\n",
       " (62, 92, 0, 'note_on'),\n",
       " (67, 92, 0, 'note_on'),\n",
       " (71, 92, 0, 'note_on'),\n",
       " (71, 64, 192, 'note_off'),\n",
       " (67, 64, 0, 'note_off'),\n",
       " (62, 64, 0, 'note_off'),\n",
       " (62, 92, 0, 'note_on'),\n",
       " (66, 92, 0, 'note_on'),\n",
       " (69, 92, 0, 'note_on'),\n",
       " (69, 64, 192, 'note_off'),\n",
       " (74, 92, 0, 'note_on'),\n",
       " (74, 64, 192, 'note_off'),\n",
       " (66, 64, 0, 'note_off'),\n",
       " (62, 64, 0, 'note_off'),\n",
       " (62, 92, 0, 'note_on'),\n",
       " (62, 64, 192, 'note_off'),\n",
       " (74, 92, 0, 'note_on'),\n",
       " (69, 92, 0, 'note_on'),\n",
       " (62, 92, 0, 'note_on'),\n",
       " (62, 64, 192, 'note_off'),\n",
       " (69, 64, 0, 'note_off'),\n",
       " (74, 64, 0, 'note_off'),\n",
       " (62, 92, 0, 'note_on'),\n",
       " (67, 92, 0, 'note_on'),\n",
       " (71, 92, 0, 'note_on'),\n",
       " (71, 64, 192, 'note_off'),\n",
       " (71, 92, 0, 'note_on'),\n",
       " (71, 64, 96, 'note_off'),\n",
       " (72, 92, 0, 'note_on'),\n",
       " (72, 64, 96, 'note_off'),\n",
       " (67, 64, 0, 'note_off'),\n",
       " (62, 64, 0, 'note_off'),\n",
       " (74, 92, 0, 'note_on'),\n",
       " (74, 64, 192, 'note_off'),\n",
       " (62, 92, 0, 'note_on'),\n",
       " (67, 92, 0, 'note_on'),\n",
       " (67, 64, 192, 'note_off'),\n",
       " (62, 64, 0, 'note_off'),\n",
       " (69, 92, 0, 'note_on'),\n",
       " (66, 92, 0, 'note_on'),\n",
       " (62, 92, 192, 'note_on'),\n",
       " (62, 64, 96, 'note_off'),\n",
       " (64, 92, 0, 'note_on'),\n",
       " (64, 64, 96, 'note_off'),\n",
       " (66, 64, 0, 'note_off'),\n",
       " (69, 64, 0, 'note_off'),\n",
       " (66, 92, 0, 'note_on'),\n",
       " (66, 64, 96, 'note_off'),\n",
       " (64, 92, 0, 'note_on'),\n",
       " (64, 64, 96, 'note_off'),\n",
       " (66, 92, 0, 'note_on'),\n",
       " (66, 64, 96, 'note_off'),\n",
       " (68, 92, 0, 'note_on'),\n",
       " (68, 64, 96, 'note_off'),\n",
       " (69, 92, 0, 'note_on'),\n",
       " (64, 92, 0, 'note_on'),\n",
       " (69, 64, 192, 'note_off'),\n",
       " (72, 92, 0, 'note_on'),\n",
       " (72, 64, 96, 'note_off'),\n",
       " (71, 92, 0, 'note_on'),\n",
       " (71, 64, 96, 'note_off'),\n",
       " (64, 64, 0, 'note_off'),\n",
       " (69, 92, 0, 'note_on'),\n",
       " (69, 64, 192, 'note_off'),\n",
       " (64, 92, 0, 'note_on'),\n",
       " (69, 92, 0, 'note_on'),\n",
       " (72, 92, 0, 'note_on'),\n",
       " (72, 64, 192, 'note_off'),\n",
       " (69, 64, 0, 'note_off'),\n",
       " (64, 64, 0, 'note_off'),\n",
       " (71, 92, 0, 'note_on'),\n",
       " (64, 92, 0, 'note_on'),\n",
       " (71, 64, 192, 'note_off'),\n",
       " (76, 92, 0, 'note_on'),\n",
       " (76, 64, 192, 'note_off'),\n",
       " (64, 64, 0, 'note_off'),\n",
       " (64, 92, 0, 'note_on'),\n",
       " (64, 64, 192, 'note_off'),\n",
       " (76, 92, 0, 'note_on'),\n",
       " (71, 92, 0, 'note_on'),\n",
       " (64, 92, 0, 'note_on'),\n",
       " (64, 64, 192, 'note_off'),\n",
       " (71, 64, 0, 'note_off'),\n",
       " (76, 64, 0, 'note_off'),\n",
       " (72, 92, 0, 'note_on'),\n",
       " (64, 92, 0, 'note_on'),\n",
       " (69, 92, 0, 'note_on'),\n",
       " (72, 64, 192, 'note_off'),\n",
       " (72, 92, 0, 'note_on'),\n",
       " (72, 64, 96, 'note_off'),\n",
       " (74, 92, 0, 'note_on'),\n",
       " (74, 64, 96, 'note_off'),\n",
       " (69, 64, 0, 'note_off'),\n",
       " (64, 64, 0, 'note_off'),\n",
       " (76, 92, 0, 'note_on'),\n",
       " (76, 64, 192, 'note_off'),\n",
       " (64, 92, 0, 'note_on'),\n",
       " (69, 92, 0, 'note_on'),\n",
       " (74, 92, 0, 'note_on'),\n",
       " (74, 64, 96, 'note_off'),\n",
       " (72, 92, 0, 'note_on'),\n",
       " (72, 64, 96, 'note_off'),\n",
       " (69, 64, 0, 'note_off'),\n",
       " (64, 64, 0, 'note_off'),\n",
       " (64, 92, 0, 'note_on'),\n",
       " (68, 92, 0, 'note_on'),\n",
       " (71, 92, 0, 'note_on'),\n",
       " (71, 64, 384, 'note_off'),\n",
       " (68, 64, 0, 'note_off'),\n",
       " (64, 64, 0, 'note_off'),\n",
       " (64, 92, 0, 'note_on'),\n",
       " (64, 64, 192, 'note_off'),\n",
       " (76, 92, 0, 'note_on'),\n",
       " (72, 92, 0, 'note_on'),\n",
       " (69, 92, 0, 'note_on'),\n",
       " (69, 64, 192, 'note_off'),\n",
       " (72, 64, 0, 'note_off'),\n",
       " (76, 64, 0, 'note_off'),\n",
       " (77, 92, 0, 'note_on'),\n",
       " (74, 92, 96, 'note_on'),\n",
       " (74, 64, 96, 'note_off'),\n",
       " (72, 92, 0, 'note_on'),\n",
       " (72, 64, 96, 'note_off'),\n",
       " (74, 92, 0, 'note_on'),\n",
       " (74, 64, 96, 'note_off'),\n",
       " (69, 92, 0, 'note_on'),\n",
       " (69, 64, 96, 'note_off'),\n",
       " (74, 92, 0, 'note_on'),\n",
       " (74, 64, 96, 'note_off'),\n",
       " (72, 92, 0, 'note_on'),\n",
       " (72, 64, 96, 'note_off'),\n",
       " (74, 92, 0, 'note_on'),\n",
       " (74, 64, 96, 'note_off'),\n",
       " (71, 92, 0, 'note_on'),\n",
       " (71, 64, 96, 'note_off'),\n",
       " (77, 64, 0, 'note_off'),\n",
       " (76, 92, 672, 'note_on'),\n",
       " (72, 92, 96, 'note_on'),\n",
       " (72, 64, 96, 'note_off'),\n",
       " (71, 92, 0, 'note_on'),\n",
       " (71, 64, 96, 'note_off'),\n",
       " (72, 92, 0, 'note_on'),\n",
       " (72, 64, 96, 'note_off'),\n",
       " (67, 92, 0, 'note_on'),\n",
       " (67, 64, 96, 'note_off'),\n",
       " (72, 92, 0, 'note_on'),\n",
       " (72, 64, 96, 'note_off'),\n",
       " (71, 92, 0, 'note_on'),\n",
       " (71, 64, 96, 'note_off'),\n",
       " (72, 92, 0, 'note_on'),\n",
       " (72, 64, 96, 'note_off'),\n",
       " (69, 92, 0, 'note_on'),\n",
       " (69, 64, 96, 'note_off'),\n",
       " (76, 64, 0, 'note_off'),\n",
       " (74, 92, 672, 'note_on'),\n",
       " (71, 92, 96, 'note_on'),\n",
       " (71, 64, 96, 'note_off'),\n",
       " (69, 92, 0, 'note_on'),\n",
       " (69, 64, 96, 'note_off'),\n",
       " (71, 92, 0, 'note_on'),\n",
       " (71, 64, 96, 'note_off'),\n",
       " (66, 92, 0, 'note_on'),\n",
       " (66, 64, 96, 'note_off'),\n",
       " (71, 92, 0, 'note_on'),\n",
       " (71, 64, 96, 'note_off'),\n",
       " (69, 92, 0, 'note_on'),\n",
       " (69, 64, 96, 'note_off'),\n",
       " (71, 92, 0, 'note_on'),\n",
       " (71, 64, 96, 'note_off'),\n",
       " (68, 92, 0, 'note_on'),\n",
       " (68, 64, 96, 'note_off'),\n",
       " (74, 64, 0, 'note_off'),\n",
       " (72, 92, 672, 'note_on'),\n",
       " (69, 92, 96, 'note_on'),\n",
       " (69, 64, 96, 'note_off'),\n",
       " (67, 92, 0, 'note_on'),\n",
       " (67, 64, 96, 'note_off'),\n",
       " (69, 92, 0, 'note_on'),\n",
       " (69, 64, 96, 'note_off'),\n",
       " (64, 92, 0, 'note_on'),\n",
       " (64, 64, 96, 'note_off'),\n",
       " (69, 92, 0, 'note_on'),\n",
       " (69, 64, 96, 'note_off'),\n",
       " (67, 92, 0, 'note_on'),\n",
       " (67, 64, 96, 'note_off'),\n",
       " (69, 92, 0, 'note_on'),\n",
       " (69, 64, 96, 'note_off'),\n",
       " (66, 92, 0, 'note_on'),\n",
       " (66, 64, 96, 'note_off'),\n",
       " (72, 64, 0, 'note_off'),\n",
       " (64, 92, 768, 'note_on'),\n",
       " (72, 92, 0, 'note_on'),\n",
       " (72, 64, 96, 'note_off'),\n",
       " (64, 64, 0, 'note_off'),\n",
       " (62, 92, 0, 'note_on'),\n",
       " (71, 92, 0, 'note_on'),\n",
       " (71, 64, 96, 'note_off'),\n",
       " (62, 64, 0, 'note_off'),\n",
       " (60, 92, 0, 'note_on'),\n",
       " (69, 92, 0, 'note_on'),\n",
       " (69, 64, 96, 'note_off'),\n",
       " (60, 64, 0, 'note_off'),\n",
       " (59, 92, 0, 'note_on'),\n",
       " (67, 92, 0, 'note_on'),\n",
       " (67, 64, 96, 'note_off'),\n",
       " (59, 64, 0, 'note_off'),\n",
       " (71, 92, 0, 'note_on'),\n",
       " (79, 92, 0, 'note_on'),\n",
       " (79, 64, 96, 'note_off'),\n",
       " (71, 64, 0, 'note_off'),\n",
       " (69, 92, 0, 'note_on'),\n",
       " (78, 92, 0, 'note_on'),\n",
       " (78, 64, 96, 'note_off'),\n",
       " (69, 64, 0, 'note_off'),\n",
       " (67, 92, 0, 'note_on'),\n",
       " (76, 92, 0, 'note_on'),\n",
       " (76, 64, 96, 'note_off'),\n",
       " (67, 64, 0, 'note_off'),\n",
       " (66, 92, 0, 'note_on'),\n",
       " (75, 92, 0, 'note_on'),\n",
       " (75, 64, 96, 'note_off'),\n",
       " (69, 92, 0, 'note_on'),\n",
       " (69, 64, 96, 'note_off'),\n",
       " (66, 64, 0, 'note_off'),\n",
       " (64, 92, 0, 'note_on'),\n",
       " (67, 92, 0, 'note_on'),\n",
       " (67, 64, 96, 'note_off'),\n",
       " (64, 64, 0, 'note_off'),\n",
       " (62, 92, 0, 'note_on'),\n",
       " (76, 92, 0, 'note_on'),\n",
       " (76, 64, 96, 'note_off'),\n",
       " (62, 64, 0, 'note_off'),\n",
       " (60, 92, 0, 'note_on'),\n",
       " (66, 92, 0, 'note_on'),\n",
       " (66, 64, 96, 'note_off'),\n",
       " (76, 92, 0, 'note_on'),\n",
       " (76, 64, 96, 'note_off'),\n",
       " (60, 64, 0, 'note_off'),\n",
       " (66, 92, 0, 'note_on'),\n",
       " (66, 64, 96, 'note_off'),\n",
       " (75, 92, 0, 'note_on'),\n",
       " (75, 64, 96, 'note_off'),\n",
       " (64, 92, 0, 'note_on'),\n",
       " (71, 92, 0, 'note_on'),\n",
       " (76, 92, 0, 'note_on'),\n",
       " (76, 64, 192, 'note_off'),\n",
       " (71, 64, 0, 'note_off'),\n",
       " (64, 64, 0, 'note_off'),\n",
       " (79, 92, 0, 'note_on'),\n",
       " (79, 64, 96, 'note_off'),\n",
       " (78, 92, 0, 'note_on'),\n",
       " (78, 64, 96, 'note_off'),\n",
       " (76, 92, 0, 'note_on'),\n",
       " (76, 64, 192, 'note_off'),\n",
       " (71, 92, 0, 'note_on'),\n",
       " (76, 92, 0, 'note_on'),\n",
       " (79, 92, 0, 'note_on'),\n",
       " (79, 64, 192, 'note_off'),\n",
       " (76, 64, 0, 'note_off'),\n",
       " (71, 64, 0, 'note_off'),\n",
       " (78, 92, 0, 'note_on'),\n",
       " (71, 92, 0, 'note_on'),\n",
       " (78, 64, 192, 'note_off'),\n",
       " (83, 92, 0, 'note_on'),\n",
       " (83, 64, 192, 'note_off'),\n",
       " (71, 64, 0, 'note_off'),\n",
       " (71, 92, 0, 'note_on'),\n",
       " (71, 64, 192, 'note_off'),\n",
       " (83, 92, 0, 'note_on'),\n",
       " (78, 92, 0, 'note_on'),\n",
       " (71, 92, 0, 'note_on'),\n",
       " (71, 64, 192, 'note_off'),\n",
       " (78, 64, 0, 'note_off'),\n",
       " (83, 64, 0, 'note_off'),\n",
       " (71, 92, 0, 'note_on'),\n",
       " (76, 92, 0, 'note_on'),\n",
       " (79, 92, 0, 'note_on'),\n",
       " (79, 64, 192, 'note_off'),\n",
       " (76, 64, 0, 'note_off'),\n",
       " (71, 64, 0, 'note_off'),\n",
       " (79, 92, 0, 'note_on'),\n",
       " (79, 64, 96, 'note_off'),\n",
       " (81, 92, 0, 'note_on'),\n",
       " (81, 64, 96, 'note_off'),\n",
       " (83, 92, 0, 'note_on'),\n",
       " (83, 64, 192, 'note_off'),\n",
       " (81, 92, 0, 'note_on'),\n",
       " (71, 92, 0, 'note_on'),\n",
       " (76, 92, 0, 'note_on'),\n",
       " (81, 64, 96, 'note_off'),\n",
       " (79, 92, 0, 'note_on'),\n",
       " (79, 64, 96, 'note_off'),\n",
       " (76, 64, 0, 'note_off'),\n",
       " (71, 64, 0, 'note_off'),\n",
       " (71, 92, 0, 'note_on'),\n",
       " (75, 92, 0, 'note_on'),\n",
       " (78, 92, 0, 'note_on'),\n",
       " (78, 64, 384, 'note_off'),\n",
       " (75, 64, 0, 'note_off'),\n",
       " (71, 64, 0, 'note_off'),\n",
       " (71, 92, 0, 'note_on'),\n",
       " (71, 64, 192, 'note_off'),\n",
       " (83, 92, 0, 'note_on'),\n",
       " (78, 92, 0, 'note_on'),\n",
       " (71, 92, 0, 'note_on'),\n",
       " (71, 64, 192, 'note_off'),\n",
       " (78, 64, 0, 'note_off'),\n",
       " (83, 64, 0, 'note_off'),\n",
       " (71, 92, 0, 'note_on'),\n",
       " (76, 92, 0, 'note_on'),\n",
       " (79, 92, 0, 'note_on'),\n",
       " (79, 64, 96, 'note_off'),\n",
       " (76, 64, 0, 'note_off'),\n",
       " (71, 64, 0, 'note_off'),\n",
       " (76, 92, 0, 'note_on'),\n",
       " (67, 92, 0, 'note_on'),\n",
       " (67, 64, 96, 'note_off'),\n",
       " (76, 64, 0, 'note_off'),\n",
       " (74, 92, 0, 'note_on'),\n",
       " (66, 92, 0, 'note_on'),\n",
       " (66, 64, 96, 'note_off'),\n",
       " (74, 64, 0, 'note_off'),\n",
       " (76, 92, 0, 'note_on'),\n",
       " (67, 92, 0, 'note_on'),\n",
       " (67, 64, 96, 'note_off'),\n",
       " (76, 64, 0, 'note_off'),\n",
       " (71, 92, 0, 'note_on'),\n",
       " (64, 92, 0, 'note_on'),\n",
       " (64, 64, 96, 'note_off'),\n",
       " (71, 64, 0, 'note_off'),\n",
       " (76, 92, 0, 'note_on'),\n",
       " (67, 92, 0, 'note_on'),\n",
       " (67, 64, 96, 'note_off'),\n",
       " (76, 64, 0, 'note_off'),\n",
       " (74, 92, 0, 'note_on'),\n",
       " (66, 92, 0, 'note_on'),\n",
       " (66, 64, 96, 'note_off'),\n",
       " (74, 64, 0, 'note_off'),\n",
       " (76, 92, 0, 'note_on'),\n",
       " (67, 92, 0, 'note_on'),\n",
       " (67, 64, 96, 'note_off'),\n",
       " (76, 64, 0, 'note_off'),\n",
       " (69, 92, 0, 'note_on'),\n",
       " (72, 92, 0, 'note_on'),\n",
       " (72, 64, 96, 'note_off'),\n",
       " (69, 64, 0, 'note_off'),\n",
       " (81, 92, 0, 'note_on'),\n",
       " (81, 64, 96, 'note_off'),\n",
       " (79, 92, 0, 'note_on'),\n",
       " (79, 64, 96, 'note_off'),\n",
       " (81, 92, 0, 'note_on'),\n",
       " (81, 64, 96, 'note_off'),\n",
       " (76, 92, 0, 'note_on'),\n",
       " (76, 64, 96, 'note_off'),\n",
       " (81, 92, 0, 'note_on'),\n",
       " (81, 64, 96, 'note_off'),\n",
       " (79, 92, 0, 'note_on'),\n",
       " (79, 64, 96, 'note_off'),\n",
       " (81, 92, 0, 'note_on'),\n",
       " (81, 64, 96, 'note_off'),\n",
       " (78, 92, 0, 'note_on'),\n",
       " (78, 64, 96, 'note_off'),\n",
       " (66, 92, 0, 'note_on'),\n",
       " (74, 92, 0, 'note_on'),\n",
       " (74, 64, 96, 'note_off'),\n",
       " (66, 64, 0, 'note_off'),\n",
       " (64, 92, 0, 'note_on'),\n",
       " (72, 92, 0, 'note_on'),\n",
       " (72, 64, 96, 'note_off'),\n",
       " (64, 64, 0, 'note_off'),\n",
       " (66, 92, 0, 'note_on'),\n",
       " (74, 92, 0, 'note_on'),\n",
       " (74, 64, 96, 'note_off'),\n",
       " (66, 64, 0, 'note_off'),\n",
       " (69, 92, 0, 'note_on'),\n",
       " (62, 92, 0, 'note_on'),\n",
       " (62, 64, 96, 'note_off'),\n",
       " (69, 64, 0, 'note_off'),\n",
       " (74, 92, 0, 'note_on'),\n",
       " (66, 92, 0, 'note_on'),\n",
       " (66, 64, 96, 'note_off'),\n",
       " (74, 64, 0, 'note_off'),\n",
       " (72, 92, 0, 'note_on'),\n",
       " (64, 92, 0, 'note_on'),\n",
       " (64, 64, 96, 'note_off'),\n",
       " (72, 64, 0, 'note_off'),\n",
       " (74, 92, 0, 'note_on'),\n",
       " (66, 92, 0, 'note_on'),\n",
       " (66, 64, 96, 'note_off'),\n",
       " (74, 64, 0, 'note_off'),\n",
       " (67, 92, 0, 'note_on'),\n",
       " (71, 92, 0, 'note_on'),\n",
       " (71, 64, 96, 'note_off'),\n",
       " (67, 64, 0, 'note_off'),\n",
       " (79, 92, 0, 'note_on'),\n",
       " (79, 64, 96, 'note_off'),\n",
       " (77, 92, 0, 'note_on'),\n",
       " (77, 64, 96, 'note_off'),\n",
       " (79, 92, 0, 'note_on'),\n",
       " (79, 64, 96, 'note_off'),\n",
       " (74, 92, 0, 'note_on'),\n",
       " (74, 64, 96, 'note_off'),\n",
       " (79, 92, 0, 'note_on'),\n",
       " (79, 64, 96, 'note_off'),\n",
       " (77, 92, 0, 'note_on'),\n",
       " (77, 64, 96, 'note_off'),\n",
       " (79, 92, 0, 'note_on'),\n",
       " (79, 64, 96, 'note_off'),\n",
       " (76, 92, 0, 'note_on'),\n",
       " (76, 64, 96, 'note_off'),\n",
       " (64, 92, 0, 'note_on'),\n",
       " (72, 92, 0, 'note_on'),\n",
       " (72, 64, 96, 'note_off'),\n",
       " (64, 64, 0, 'note_off'),\n",
       " (62, 92, 0, 'note_on'),\n",
       " (71, 92, 0, 'note_on'),\n",
       " (71, 64, 96, 'note_off'),\n",
       " (62, 64, 0, 'note_off'),\n",
       " (64, 92, 0, 'note_on'),\n",
       " (72, 92, 0, 'note_on'),\n",
       " (72, 64, 96, 'note_off'),\n",
       " (64, 64, 0, 'note_off'),\n",
       " (67, 92, 0, 'note_on'),\n",
       " (60, 92, 0, 'note_on'),\n",
       " (60, 64, 96, 'note_off'),\n",
       " (67, 64, 0, 'note_off'),\n",
       " (72, 92, 0, 'note_on'),\n",
       " (64, 92, 0, 'note_on'),\n",
       " (64, 64, 96, 'note_off'),\n",
       " (72, 64, 0, 'note_off'),\n",
       " (71, 92, 0, 'note_on'),\n",
       " (62, 92, 0, 'note_on'),\n",
       " (62, 64, 96, 'note_off'),\n",
       " (71, 64, 0, 'note_off'),\n",
       " (72, 92, 0, 'note_on'),\n",
       " (64, 92, 0, 'note_on'),\n",
       " (64, 64, 96, 'note_off'),\n",
       " (72, 64, 0, 'note_off'),\n",
       " (66, 92, 0, 'note_on'),\n",
       " (69, 92, 0, 'note_on'),\n",
       " (69, 64, 96, 'note_off'),\n",
       " (66, 64, 0, 'note_off'),\n",
       " (78, 92, 0, 'note_on'),\n",
       " (78, 64, 96, 'note_off'),\n",
       " (76, 92, 0, 'note_on'),\n",
       " (76, 64, 96, 'note_off'),\n",
       " (78, 92, 0, 'note_on'),\n",
       " (78, 64, 96, 'note_off'),\n",
       " (73, 92, 0, 'note_on'),\n",
       " (73, 64, 96, 'note_off'),\n",
       " (78, 92, 0, 'note_on'),\n",
       " (78, 64, 96, 'note_off'),\n",
       " (76, 92, 0, 'note_on'),\n",
       " (76, 64, 96, 'note_off'),\n",
       " (78, 92, 0, 'note_on'),\n",
       " (78, 64, 96, 'note_off'),\n",
       " (75, 92, 0, 'note_on'),\n",
       " (75, 64, 96, 'note_off'),\n",
       " (63, 92, 0, 'note_on'),\n",
       " (71, 92, 0, 'note_on'),\n",
       " (71, 64, 96, 'note_off'),\n",
       " (63, 64, 0, 'note_off'),\n",
       " (61, 92, 0, 'note_on'),\n",
       " (69, 92, 0, 'note_on'),\n",
       " (69, 64, 96, 'note_off'),\n",
       " (61, 64, 0, 'note_off'),\n",
       " (63, 92, 0, 'note_on'),\n",
       " (71, 92, 0, 'note_on'),\n",
       " (71, 64, 96, 'note_off'),\n",
       " (63, 64, 0, 'note_off'),\n",
       " (66, 92, 0, 'note_on'),\n",
       " (59, 92, 0, 'note_on'),\n",
       " (59, 64, 96, 'note_off'),\n",
       " (66, 64, 0, 'note_off'),\n",
       " (71, 92, 0, 'note_on'),\n",
       " (63, 92, 0, 'note_on'),\n",
       " (63, 64, 96, 'note_off'),\n",
       " (71, 64, 0, 'note_off'),\n",
       " (69, 92, 0, 'note_on'),\n",
       " (61, 92, 0, 'note_on'),\n",
       " (61, 64, 96, 'note_off'),\n",
       " (69, 64, 0, 'note_off'),\n",
       " (71, 92, 0, 'note_on'),\n",
       " (63, 92, 0, 'note_on'),\n",
       " ...]"
      ]
     },
     "execution_count": 49,
     "metadata": {},
     "output_type": "execute_result"
    }
   ],
   "source": [
    "song"
   ]
  },
  {
   "cell_type": "code",
   "execution_count": 50,
   "metadata": {},
   "outputs": [],
   "source": [
    "from mido import Message, MidiFile, MidiTrack\n",
    "\n",
    "mid = MidiFile()\n",
    "track = MidiTrack()\n",
    "mid.tracks.append(track)\n",
    "\n",
    "\n",
    "\n",
    "\n",
    "for note, velocity, time, type in song:\n",
    "    track.append(mido.Message(type, note=note, velocity=velocity, time=time))\n",
    "    #track.append(message)\n",
    "    \n",
    "mid.save('new_song.mid')"
   ]
  },
  {
   "cell_type": "code",
   "execution_count": 56,
   "metadata": {},
   "outputs": [],
   "source": [
    "training_set = pd.DataFrame(song)\n",
    "del training_set[1]\n",
    "del training_set[2]\n",
    "del training_set[3]\n",
    "training_set = training_set.to_numpy()"
   ]
  },
  {
   "cell_type": "code",
   "execution_count": 57,
   "metadata": {},
   "outputs": [
    {
     "data": {
      "text/plain": [
       "array([[67],\n",
       "       [72],\n",
       "       [72],\n",
       "       ...,\n",
       "       [72],\n",
       "       [67],\n",
       "       [64]])"
      ]
     },
     "execution_count": 57,
     "metadata": {},
     "output_type": "execute_result"
    }
   ],
   "source": [
    "\"\"\"\n",
    "from sklearn.preprocessing import MinMaxScaler\n",
    "sc = MinMaxScaler(feature_range = (0, 1))\n",
    "training_set_scaled = sc.fit_transform(training_set)\n",
    "\"\"\"\n",
    "training_set_scaled = training_set\n",
    "training_set_scaled"
   ]
  },
  {
   "cell_type": "code",
   "execution_count": 59,
   "metadata": {},
   "outputs": [],
   "source": [
    "X_train = []\n",
    "y_train = []\n",
    "for i in range(60, 2974):\n",
    "    X_train.append(training_set_scaled[i-60:i, 0])\n",
    "    y_train.append(training_set_scaled[i, 0])\n",
    "X_train, y_train = np.array(X_train), np.array(y_train)\n",
    "\n",
    "X_train = np.reshape(X_train, (X_train.shape[0], X_train.shape[1], 1))"
   ]
  },
  {
   "cell_type": "code",
   "execution_count": 60,
   "metadata": {},
   "outputs": [
    {
     "data": {
      "text/plain": [
       "array([[[67],\n",
       "        [72],\n",
       "        [72],\n",
       "        ...,\n",
       "        [74],\n",
       "        [74],\n",
       "        [76]],\n",
       "\n",
       "       [[72],\n",
       "        [72],\n",
       "        [76],\n",
       "        ...,\n",
       "        [74],\n",
       "        [76],\n",
       "        [76]],\n",
       "\n",
       "       [[72],\n",
       "        [76],\n",
       "        [76],\n",
       "        ...,\n",
       "        [76],\n",
       "        [76],\n",
       "        [74]],\n",
       "\n",
       "       ...,\n",
       "\n",
       "       [[65],\n",
       "        [64],\n",
       "        [84],\n",
       "        ...,\n",
       "        [64],\n",
       "        [67],\n",
       "        [72]],\n",
       "\n",
       "       [[64],\n",
       "        [84],\n",
       "        [84],\n",
       "        ...,\n",
       "        [67],\n",
       "        [72],\n",
       "        [72]],\n",
       "\n",
       "       [[84],\n",
       "        [84],\n",
       "        [64],\n",
       "        ...,\n",
       "        [72],\n",
       "        [72],\n",
       "        [67]]])"
      ]
     },
     "execution_count": 60,
     "metadata": {},
     "output_type": "execute_result"
    }
   ],
   "source": [
    "X_train"
   ]
  },
  {
   "cell_type": "code",
   "execution_count": null,
   "metadata": {},
   "outputs": [],
   "source": []
  },
  {
   "cell_type": "code",
   "execution_count": 61,
   "metadata": {},
   "outputs": [
    {
     "name": "stderr",
     "output_type": "stream",
     "text": [
      "Using TensorFlow backend.\n"
     ]
    }
   ],
   "source": [
    "from keras.models import Sequential\n",
    "from keras.layers import Dense\n",
    "from keras.layers import LSTM\n",
    "from keras.layers import Dropout"
   ]
  },
  {
   "cell_type": "code",
   "execution_count": 62,
   "metadata": {},
   "outputs": [
    {
     "name": "stdout",
     "output_type": "stream",
     "text": [
      "Epoch 1/10\n",
      "2914/2914 [==============================] - 24s 8ms/step - loss: 3971.0271\n",
      "Epoch 2/10\n",
      "2914/2914 [==============================] - 23s 8ms/step - loss: 2996.5045\n",
      "Epoch 3/10\n",
      "2914/2914 [==============================] - 19s 7ms/step - loss: 2489.1895\n",
      "Epoch 4/10\n",
      "2914/2914 [==============================] - 26s 9ms/step - loss: 2069.5571\n",
      "Epoch 5/10\n",
      "2914/2914 [==============================] - 19s 6ms/step - loss: 1712.3842\n",
      "Epoch 6/10\n",
      "2914/2914 [==============================] - 15s 5ms/step - loss: 1407.6200\n",
      "Epoch 7/10\n",
      "2914/2914 [==============================] - 15s 5ms/step - loss: 1148.2875\n",
      "Epoch 8/10\n",
      "2914/2914 [==============================] - 14s 5ms/step - loss: 929.5467\n",
      "Epoch 9/10\n",
      "2914/2914 [==============================] - 14s 5ms/step - loss: 746.2645\n",
      "Epoch 10/10\n",
      "2914/2914 [==============================] - 16s 6ms/step - loss: 594.0202\n"
     ]
    },
    {
     "data": {
      "text/plain": [
       "<keras.callbacks.callbacks.History at 0x1a3179c3d0>"
      ]
     },
     "execution_count": 62,
     "metadata": {},
     "output_type": "execute_result"
    }
   ],
   "source": [
    "model = Sequential()\n",
    "model.add(LSTM(units = 50, return_sequences = True, input_shape = (X_train.shape[1], 1)))\n",
    "model.add(LSTM(units = 50))\n",
    "model.add(Dense(units = 1))\n",
    "\n",
    "model.compile(optimizer = 'adam', loss = 'mean_squared_error')\n",
    "\n"
   ]
  },
  {
   "cell_type": "code",
   "execution_count": 65,
   "metadata": {
    "scrolled": true
   },
   "outputs": [
    {
     "name": "stdout",
     "output_type": "stream",
     "text": [
      "Epoch 1/100\n",
      "2914/2914 [==============================] - 10s 3ms/step - loss: 468.4469\n",
      "Epoch 2/100\n",
      "2914/2914 [==============================] - 14s 5ms/step - loss: 366.9769\n",
      "Epoch 3/100\n",
      "2914/2914 [==============================] - 16s 5ms/step - loss: 285.4160\n",
      "Epoch 4/100\n",
      "2914/2914 [==============================] - 17s 6ms/step - loss: 220.9638\n",
      "Epoch 5/100\n",
      "2914/2914 [==============================] - 15s 5ms/step - loss: 170.4245\n",
      "Epoch 6/100\n",
      "2914/2914 [==============================] - 16s 6ms/step - loss: 131.8250\n",
      "Epoch 7/100\n",
      "2914/2914 [==============================] - 18s 6ms/step - loss: 102.7235\n",
      "Epoch 8/100\n",
      "2914/2914 [==============================] - 16s 5ms/step - loss: 81.2007\n",
      "Epoch 9/100\n",
      "2914/2914 [==============================] - 16s 5ms/step - loss: 65.5380\n",
      "Epoch 10/100\n",
      "2914/2914 [==============================] - 17s 6ms/step - loss: 54.4310\n",
      "Epoch 11/100\n",
      "2914/2914 [==============================] - 15s 5ms/step - loss: 46.7368\n",
      "Epoch 12/100\n",
      "2914/2914 [==============================] - 13s 4ms/step - loss: 41.5393\n",
      "Epoch 13/100\n",
      "2914/2914 [==============================] - 11s 4ms/step - loss: 38.0915\n",
      "Epoch 14/100\n",
      "2914/2914 [==============================] - 10s 3ms/step - loss: 35.7991\n",
      "Epoch 15/100\n",
      "2914/2914 [==============================] - 10s 3ms/step - loss: 34.3521\n",
      "Epoch 16/100\n",
      "2914/2914 [==============================] - 9s 3ms/step - loss: 33.4782\n",
      "Epoch 17/100\n",
      "2914/2914 [==============================] - 10s 4ms/step - loss: 32.9737\n",
      "Epoch 18/100\n",
      "2914/2914 [==============================] - 15s 5ms/step - loss: 32.6547\n",
      "Epoch 19/100\n",
      "2914/2914 [==============================] - 15s 5ms/step - loss: 32.4665\n",
      "Epoch 20/100\n",
      "2914/2914 [==============================] - 16s 6ms/step - loss: 32.3660\n",
      "Epoch 21/100\n",
      "2914/2914 [==============================] - 16s 5ms/step - loss: 32.3350\n",
      "Epoch 22/100\n",
      "2914/2914 [==============================] - 16s 5ms/step - loss: 32.3092\n",
      "Epoch 23/100\n",
      "2914/2914 [==============================] - 19s 6ms/step - loss: 32.3000\n",
      "Epoch 24/100\n",
      "2914/2914 [==============================] - 18s 6ms/step - loss: 32.2944\n",
      "Epoch 25/100\n",
      "2914/2914 [==============================] - 16s 6ms/step - loss: 32.2977\n",
      "Epoch 26/100\n",
      "2914/2914 [==============================] - 18s 6ms/step - loss: 32.2941\n",
      "Epoch 27/100\n",
      "2914/2914 [==============================] - 20s 7ms/step - loss: 32.2942\n",
      "Epoch 28/100\n",
      "2914/2914 [==============================] - 19s 6ms/step - loss: 32.2930\n",
      "Epoch 29/100\n",
      "2914/2914 [==============================] - 17s 6ms/step - loss: 32.2962\n",
      "Epoch 30/100\n",
      "2914/2914 [==============================] - 14s 5ms/step - loss: 32.3023\n",
      "Epoch 31/100\n",
      "2914/2914 [==============================] - 12s 4ms/step - loss: 32.2938\n",
      "Epoch 32/100\n",
      "2914/2914 [==============================] - 12s 4ms/step - loss: 32.3055\n",
      "Epoch 33/100\n",
      "2914/2914 [==============================] - 12s 4ms/step - loss: 32.2980\n",
      "Epoch 34/100\n",
      "2914/2914 [==============================] - 11s 4ms/step - loss: 32.3004\n",
      "Epoch 35/100\n",
      "2914/2914 [==============================] - 11s 4ms/step - loss: 32.2947\n",
      "Epoch 36/100\n",
      "2914/2914 [==============================] - 10s 3ms/step - loss: 32.2931\n",
      "Epoch 37/100\n",
      "2914/2914 [==============================] - 10s 3ms/step - loss: 32.2977\n",
      "Epoch 38/100\n",
      "2914/2914 [==============================] - 9s 3ms/step - loss: 32.2945\n",
      "Epoch 39/100\n",
      "2914/2914 [==============================] - 9s 3ms/step - loss: 32.2981\n",
      "Epoch 40/100\n",
      "2914/2914 [==============================] - 9s 3ms/step - loss: 32.2984\n",
      "Epoch 41/100\n",
      "2914/2914 [==============================] - 9s 3ms/step - loss: 32.2957\n",
      "Epoch 42/100\n",
      "2914/2914 [==============================] - 9s 3ms/step - loss: 32.2950\n",
      "Epoch 43/100\n",
      "2914/2914 [==============================] - 9s 3ms/step - loss: 32.3015\n",
      "Epoch 44/100\n",
      "2914/2914 [==============================] - 9s 3ms/step - loss: 32.3028\n",
      "Epoch 45/100\n",
      "2914/2914 [==============================] - 9s 3ms/step - loss: 32.3084\n",
      "Epoch 46/100\n",
      "2914/2914 [==============================] - 9s 3ms/step - loss: 32.2964\n",
      "Epoch 47/100\n",
      "2914/2914 [==============================] - 9s 3ms/step - loss: 32.2981\n",
      "Epoch 48/100\n",
      "2914/2914 [==============================] - 9s 3ms/step - loss: 32.2975\n",
      "Epoch 49/100\n",
      "2914/2914 [==============================] - 11s 4ms/step - loss: 32.3007\n",
      "Epoch 50/100\n",
      "2914/2914 [==============================] - 14s 5ms/step - loss: 32.3094\n",
      "Epoch 51/100\n",
      "2914/2914 [==============================] - 14s 5ms/step - loss: 32.3258\n",
      "Epoch 52/100\n",
      "2914/2914 [==============================] - 14s 5ms/step - loss: 32.3051\n",
      "Epoch 53/100\n",
      "2914/2914 [==============================] - 12s 4ms/step - loss: 32.2975\n",
      "Epoch 54/100\n",
      "2914/2914 [==============================] - 12s 4ms/step - loss: 32.2979\n",
      "Epoch 55/100\n",
      "2914/2914 [==============================] - 13s 4ms/step - loss: 32.3076\n",
      "Epoch 56/100\n",
      "2914/2914 [==============================] - 12s 4ms/step - loss: 32.3061\n",
      "Epoch 57/100\n",
      "2914/2914 [==============================] - 11s 4ms/step - loss: 32.3029\n",
      "Epoch 58/100\n",
      "2914/2914 [==============================] - 11s 4ms/step - loss: 32.3091\n",
      "Epoch 59/100\n",
      "2914/2914 [==============================] - 10s 3ms/step - loss: 32.3127\n",
      "Epoch 60/100\n",
      "2914/2914 [==============================] - 9s 3ms/step - loss: 32.2999\n",
      "Epoch 61/100\n",
      "2914/2914 [==============================] - 9s 3ms/step - loss: 32.3039\n",
      "Epoch 62/100\n",
      "2914/2914 [==============================] - 9s 3ms/step - loss: 32.3064\n",
      "Epoch 63/100\n",
      "2914/2914 [==============================] - 9s 3ms/step - loss: 32.3114\n",
      "Epoch 64/100\n",
      "2914/2914 [==============================] - 9s 3ms/step - loss: 32.2990\n",
      "Epoch 65/100\n",
      "2914/2914 [==============================] - 9s 3ms/step - loss: 32.3232\n",
      "Epoch 66/100\n",
      "2914/2914 [==============================] - 9s 3ms/step - loss: 32.3123\n",
      "Epoch 67/100\n",
      "2914/2914 [==============================] - 9s 3ms/step - loss: 32.3169\n",
      "Epoch 68/100\n",
      "2914/2914 [==============================] - 9s 3ms/step - loss: 32.3008\n",
      "Epoch 69/100\n",
      "2914/2914 [==============================] - 9s 3ms/step - loss: 32.3104\n",
      "Epoch 70/100\n",
      "2914/2914 [==============================] - 9s 3ms/step - loss: 32.3116\n",
      "Epoch 71/100\n",
      "2914/2914 [==============================] - 9s 3ms/step - loss: 32.3006\n",
      "Epoch 72/100\n",
      "2914/2914 [==============================] - 9s 3ms/step - loss: 32.0737\n",
      "Epoch 73/100\n",
      "2914/2914 [==============================] - 9s 3ms/step - loss: 30.9159\n",
      "Epoch 74/100\n",
      "2914/2914 [==============================] - 9s 3ms/step - loss: 27.2171\n",
      "Epoch 75/100\n",
      "2914/2914 [==============================] - 9s 3ms/step - loss: 25.0294\n",
      "Epoch 76/100\n",
      "2914/2914 [==============================] - 9s 3ms/step - loss: 22.5837\n",
      "Epoch 77/100\n",
      "2914/2914 [==============================] - 10s 4ms/step - loss: 21.1007\n",
      "Epoch 78/100\n",
      "2914/2914 [==============================] - 14s 5ms/step - loss: 20.3017\n",
      "Epoch 79/100\n",
      "2914/2914 [==============================] - 13s 4ms/step - loss: 19.4017\n",
      "Epoch 80/100\n",
      "2914/2914 [==============================] - 13s 5ms/step - loss: 20.2161\n",
      "Epoch 81/100\n",
      "2914/2914 [==============================] - 13s 4ms/step - loss: 18.9186\n",
      "Epoch 82/100\n",
      "2914/2914 [==============================] - 13s 4ms/step - loss: 18.8187\n",
      "Epoch 83/100\n",
      "2914/2914 [==============================] - 13s 4ms/step - loss: 18.1586\n",
      "Epoch 84/100\n",
      "2914/2914 [==============================] - 13s 4ms/step - loss: 17.8382\n",
      "Epoch 85/100\n",
      "2914/2914 [==============================] - 14s 5ms/step - loss: 17.0075\n",
      "Epoch 86/100\n",
      "2914/2914 [==============================] - 14s 5ms/step - loss: 16.9354\n",
      "Epoch 87/100\n",
      "2914/2914 [==============================] - 17s 6ms/step - loss: 16.4242\n",
      "Epoch 88/100\n",
      "2914/2914 [==============================] - 16s 5ms/step - loss: 16.4071\n",
      "Epoch 89/100\n",
      "2914/2914 [==============================] - 17s 6ms/step - loss: 15.8690\n",
      "Epoch 90/100\n",
      "2914/2914 [==============================] - 19s 6ms/step - loss: 15.2991\n",
      "Epoch 91/100\n",
      "2914/2914 [==============================] - 20s 7ms/step - loss: 15.2741\n",
      "Epoch 92/100\n",
      "2914/2914 [==============================] - 21s 7ms/step - loss: 15.1209\n",
      "Epoch 93/100\n",
      "2914/2914 [==============================] - 19s 7ms/step - loss: 15.0399\n",
      "Epoch 94/100\n",
      "2914/2914 [==============================] - 19s 6ms/step - loss: 15.1908\n",
      "Epoch 95/100\n",
      "2914/2914 [==============================] - 20s 7ms/step - loss: 15.2792\n",
      "Epoch 96/100\n",
      "2914/2914 [==============================] - 24s 8ms/step - loss: 14.9271\n",
      "Epoch 97/100\n",
      "2914/2914 [==============================] - 24s 8ms/step - loss: 14.8296\n",
      "Epoch 98/100\n",
      "2914/2914 [==============================] - 20s 7ms/step - loss: 14.7111\n",
      "Epoch 99/100\n",
      "2914/2914 [==============================] - 15s 5ms/step - loss: 14.7926\n",
      "Epoch 100/100\n",
      "2914/2914 [==============================] - 17s 6ms/step - loss: 14.6518\n"
     ]
    },
    {
     "data": {
      "text/plain": [
       "<keras.callbacks.callbacks.History at 0x1a32866150>"
      ]
     },
     "execution_count": 65,
     "metadata": {},
     "output_type": "execute_result"
    }
   ],
   "source": [
    "model.fit(X_train, y_train, epochs = 100, batch_size = 32)"
   ]
  },
  {
   "cell_type": "code",
   "execution_count": 66,
   "metadata": {},
   "outputs": [],
   "source": [
    "y_predict = model.predict(X_train)"
   ]
  },
  {
   "cell_type": "code",
   "execution_count": 64,
   "metadata": {},
   "outputs": [
    {
     "data": {
      "text/plain": [
       "array([[48.93138],\n",
       "       [48.93138],\n",
       "       [48.93138],\n",
       "       ...,\n",
       "       [48.93138],\n",
       "       [48.93138],\n",
       "       [48.93138]], dtype=float32)"
      ]
     },
     "execution_count": 64,
     "metadata": {},
     "output_type": "execute_result"
    }
   ],
   "source": [
    "y_predict"
   ]
  },
  {
   "cell_type": "code",
   "execution_count": 67,
   "metadata": {},
   "outputs": [],
   "source": [
    "created_song = pd.DataFrame(song)"
   ]
  },
  {
   "cell_type": "code",
   "execution_count": 68,
   "metadata": {},
   "outputs": [
    {
     "data": {
      "text/html": [
       "<div>\n",
       "<style scoped>\n",
       "    .dataframe tbody tr th:only-of-type {\n",
       "        vertical-align: middle;\n",
       "    }\n",
       "\n",
       "    .dataframe tbody tr th {\n",
       "        vertical-align: top;\n",
       "    }\n",
       "\n",
       "    .dataframe thead th {\n",
       "        text-align: right;\n",
       "    }\n",
       "</style>\n",
       "<table border=\"1\" class=\"dataframe\">\n",
       "  <thead>\n",
       "    <tr style=\"text-align: right;\">\n",
       "      <th></th>\n",
       "      <th>0</th>\n",
       "      <th>1</th>\n",
       "      <th>2</th>\n",
       "      <th>3</th>\n",
       "    </tr>\n",
       "  </thead>\n",
       "  <tbody>\n",
       "    <tr>\n",
       "      <td>0</td>\n",
       "      <td>67</td>\n",
       "      <td>92</td>\n",
       "      <td>0</td>\n",
       "      <td>note_on</td>\n",
       "    </tr>\n",
       "    <tr>\n",
       "      <td>1</td>\n",
       "      <td>72</td>\n",
       "      <td>92</td>\n",
       "      <td>0</td>\n",
       "      <td>note_on</td>\n",
       "    </tr>\n",
       "    <tr>\n",
       "      <td>2</td>\n",
       "      <td>72</td>\n",
       "      <td>64</td>\n",
       "      <td>192</td>\n",
       "      <td>note_off</td>\n",
       "    </tr>\n",
       "    <tr>\n",
       "      <td>3</td>\n",
       "      <td>76</td>\n",
       "      <td>92</td>\n",
       "      <td>0</td>\n",
       "      <td>note_on</td>\n",
       "    </tr>\n",
       "    <tr>\n",
       "      <td>4</td>\n",
       "      <td>76</td>\n",
       "      <td>64</td>\n",
       "      <td>96</td>\n",
       "      <td>note_off</td>\n",
       "    </tr>\n",
       "    <tr>\n",
       "      <td>...</td>\n",
       "      <td>...</td>\n",
       "      <td>...</td>\n",
       "      <td>...</td>\n",
       "      <td>...</td>\n",
       "    </tr>\n",
       "    <tr>\n",
       "      <td>2969</td>\n",
       "      <td>67</td>\n",
       "      <td>92</td>\n",
       "      <td>0</td>\n",
       "      <td>note_on</td>\n",
       "    </tr>\n",
       "    <tr>\n",
       "      <td>2970</td>\n",
       "      <td>72</td>\n",
       "      <td>92</td>\n",
       "      <td>0</td>\n",
       "      <td>note_on</td>\n",
       "    </tr>\n",
       "    <tr>\n",
       "      <td>2971</td>\n",
       "      <td>72</td>\n",
       "      <td>64</td>\n",
       "      <td>384</td>\n",
       "      <td>note_off</td>\n",
       "    </tr>\n",
       "    <tr>\n",
       "      <td>2972</td>\n",
       "      <td>67</td>\n",
       "      <td>64</td>\n",
       "      <td>0</td>\n",
       "      <td>note_off</td>\n",
       "    </tr>\n",
       "    <tr>\n",
       "      <td>2973</td>\n",
       "      <td>64</td>\n",
       "      <td>64</td>\n",
       "      <td>0</td>\n",
       "      <td>note_off</td>\n",
       "    </tr>\n",
       "  </tbody>\n",
       "</table>\n",
       "<p>2974 rows  4 columns</p>\n",
       "</div>"
      ],
      "text/plain": [
       "       0   1    2         3\n",
       "0     67  92    0   note_on\n",
       "1     72  92    0   note_on\n",
       "2     72  64  192  note_off\n",
       "3     76  92    0   note_on\n",
       "4     76  64   96  note_off\n",
       "...   ..  ..  ...       ...\n",
       "2969  67  92    0   note_on\n",
       "2970  72  92    0   note_on\n",
       "2971  72  64  384  note_off\n",
       "2972  67  64    0  note_off\n",
       "2973  64  64    0  note_off\n",
       "\n",
       "[2974 rows x 4 columns]"
      ]
     },
     "execution_count": 68,
     "metadata": {},
     "output_type": "execute_result"
    }
   ],
   "source": [
    "created_song"
   ]
  },
  {
   "cell_type": "code",
   "execution_count": null,
   "metadata": {},
   "outputs": [],
   "source": []
  }
 ],
 "metadata": {
  "kernelspec": {
   "display_name": "Python 3",
   "language": "python",
   "name": "python3"
  },
  "language_info": {
   "codemirror_mode": {
    "name": "ipython",
    "version": 3
   },
   "file_extension": ".py",
   "mimetype": "text/x-python",
   "name": "python",
   "nbconvert_exporter": "python",
   "pygments_lexer": "ipython3",
   "version": "3.7.4"
  }
 },
 "nbformat": 4,
 "nbformat_minor": 4
}
