{
 "cells": [
  {
   "cell_type": "markdown",
   "metadata": {},
   "source": [
    "Credits / Inspired by => https://github.com/mwitiderrick/stockprice"
   ]
  },
  {
   "cell_type": "code",
   "execution_count": 1,
   "metadata": {},
   "outputs": [],
   "source": [
    "import numpy as np\n",
    "import matplotlib.pyplot as plt\n",
    "import pandas as pd"
   ]
  },
  {
   "cell_type": "code",
   "execution_count": 2,
   "metadata": {},
   "outputs": [
    {
     "name": "stdout",
     "output_type": "stream",
     "text": [
      "Collecting mido\n",
      "  Downloading mido-1.2.9-py2.py3-none-any.whl (52 kB)\n",
      "Installing collected packages: mido\n",
      "Successfully installed mido-1.2.9\n"
     ]
    }
   ],
   "source": [
    "!pip install mido"
   ]
  },
  {
   "cell_type": "code",
   "execution_count": 3,
   "metadata": {},
   "outputs": [],
   "source": [
    "import mido\n",
    "mid = mido.MidiFile('bach.mid')"
   ]
  },
  {
   "cell_type": "code",
   "execution_count": 4,
   "metadata": {
    "scrolled": true
   },
   "outputs": [
    {
     "name": "stdout",
     "output_type": "stream",
     "text": [
      "<meta message track_name name='Track 1' time=0>\n",
      "program_change channel=0 program=19 time=0\n",
      "note_on channel=0 note=67 velocity=92 time=0\n",
      "note_on channel=0 note=72 velocity=92 time=0\n",
      "note_off channel=0 note=72 velocity=64 time=192\n",
      "note_on channel=0 note=76 velocity=92 time=0\n",
      "note_off channel=0 note=76 velocity=64 time=96\n",
      "note_on channel=0 note=74 velocity=92 time=0\n",
      "note_off channel=0 note=74 velocity=64 time=96\n",
      "note_off channel=0 note=67 velocity=64 time=0\n",
      "note_on channel=0 note=72 velocity=92 time=0\n",
      "note_off channel=0 note=72 velocity=64 time=192\n",
      "note_on channel=0 note=67 velocity=92 time=0\n",
      "note_on channel=0 note=72 velocity=92 time=0\n",
      "note_on channel=0 note=76 velocity=92 time=0\n",
      "note_off channel=0 note=76 velocity=64 time=192\n",
      "note_off channel=0 note=72 velocity=64 time=0\n",
      "note_off channel=0 note=67 velocity=64 time=0\n",
      "note_on channel=0 note=67 velocity=92 time=0\n",
      "note_on channel=0 note=74 velocity=92 time=0\n",
      "note_off channel=0 note=74 velocity=64 time=192\n",
      "note_on channel=0 note=79 velocity=92 time=0\n",
      "note_off channel=0 note=79 velocity=64 time=192\n",
      "note_off channel=0 note=67 velocity=64 time=0\n",
      "note_on channel=0 note=67 velocity=92 time=0\n",
      "note_off channel=0 note=67 velocity=64 time=192\n",
      "note_on channel=0 note=79 velocity=92 time=0\n",
      "note_on channel=0 note=74 velocity=92 time=0\n",
      "note_on channel=0 note=67 velocity=92 time=0\n",
      "note_off channel=0 note=67 velocity=64 time=192\n",
      "note_off channel=0 note=74 velocity=64 time=0\n",
      "note_off channel=0 note=79 velocity=64 time=0\n",
      "note_on channel=0 note=67 velocity=92 time=0\n",
      "note_on channel=0 note=72 velocity=92 time=0\n",
      "note_on channel=0 note=76 velocity=92 time=0\n",
      "note_off channel=0 note=76 velocity=64 time=192\n",
      "note_on channel=0 note=76 velocity=92 time=0\n",
      "note_off channel=0 note=76 velocity=64 time=96\n",
      "note_on channel=0 note=77 velocity=92 time=0\n",
      "note_off channel=0 note=77 velocity=64 time=96\n",
      "note_off channel=0 note=72 velocity=64 time=0\n",
      "note_off channel=0 note=67 velocity=64 time=0\n",
      "note_on channel=0 note=79 velocity=92 time=0\n",
      "note_off channel=0 note=79 velocity=64 time=192\n",
      "note_on channel=0 note=72 velocity=92 time=0\n",
      "note_on channel=0 note=67 velocity=92 time=0\n",
      "note_on channel=0 note=77 velocity=92 time=0\n",
      "note_off channel=0 note=77 velocity=64 time=96\n",
      "note_on channel=0 note=76 velocity=92 time=0\n",
      "note_off channel=0 note=76 velocity=64 time=96\n",
      "note_off channel=0 note=67 velocity=64 time=0\n",
      "note_off channel=0 note=72 velocity=64 time=0\n",
      "note_on channel=0 note=67 velocity=92 time=0\n",
      "note_on channel=0 note=76 velocity=92 time=0\n",
      "note_off channel=0 note=76 velocity=64 time=48\n",
      "note_on channel=0 note=74 velocity=92 time=0\n",
      "note_off channel=0 note=74 velocity=64 time=48\n",
      "note_on channel=0 note=76 velocity=92 time=0\n",
      "note_off channel=0 note=76 velocity=64 time=48\n",
      "note_on channel=0 note=74 velocity=92 time=0\n",
      "note_off channel=0 note=74 velocity=64 time=48\n",
      "note_on channel=0 note=76 velocity=92 time=0\n",
      "note_off channel=0 note=76 velocity=64 time=48\n",
      "note_on channel=0 note=74 velocity=92 time=0\n",
      "note_off channel=0 note=74 velocity=64 time=48\n",
      "note_on channel=0 note=76 velocity=92 time=0\n",
      "note_off channel=0 note=76 velocity=64 time=48\n",
      "note_on channel=0 note=74 velocity=92 time=0\n",
      "note_off channel=0 note=74 velocity=64 time=48\n",
      "note_off channel=0 note=67 velocity=64 time=0\n",
      "note_on channel=0 note=67 velocity=92 time=0\n",
      "note_off channel=0 note=67 velocity=64 time=192\n",
      "note_on channel=0 note=79 velocity=92 time=0\n",
      "note_on channel=0 note=74 velocity=92 time=0\n",
      "note_on channel=0 note=67 velocity=92 time=0\n",
      "note_off channel=0 note=67 velocity=64 time=192\n",
      "note_off channel=0 note=74 velocity=64 time=0\n",
      "note_off channel=0 note=79 velocity=64 time=0\n",
      "note_on channel=0 note=67 velocity=92 time=0\n",
      "note_on channel=0 note=72 velocity=92 time=0\n",
      "note_on channel=0 note=76 velocity=92 time=0\n",
      "note_off channel=0 note=76 velocity=64 time=96\n",
      "note_off channel=0 note=72 velocity=64 time=0\n",
      "note_off channel=0 note=67 velocity=64 time=0\n",
      "note_on channel=0 note=64 velocity=92 time=0\n",
      "note_on channel=0 note=67 velocity=92 time=0\n",
      "note_off channel=0 note=67 velocity=64 time=96\n",
      "note_off channel=0 note=64 velocity=64 time=0\n",
      "note_on channel=0 note=62 velocity=92 time=0\n",
      "note_on channel=0 note=65 velocity=92 time=0\n",
      "note_off channel=0 note=65 velocity=64 time=96\n",
      "note_off channel=0 note=62 velocity=64 time=0\n",
      "note_on channel=0 note=64 velocity=92 time=0\n",
      "note_on channel=0 note=67 velocity=92 time=0\n",
      "note_off channel=0 note=67 velocity=64 time=96\n",
      "note_off channel=0 note=64 velocity=64 time=0\n",
      "note_on channel=0 note=60 velocity=92 time=0\n",
      "note_on channel=0 note=64 velocity=92 time=0\n",
      "note_off channel=0 note=64 velocity=64 time=96\n",
      "note_off channel=0 note=60 velocity=64 time=0\n",
      "note_on channel=0 note=64 velocity=92 time=0\n",
      "note_on channel=0 note=67 velocity=92 time=0\n",
      "note_off channel=0 note=67 velocity=64 time=96\n",
      "note_off channel=0 note=64 velocity=64 time=0\n",
      "note_on channel=0 note=62 velocity=92 time=0\n",
      "note_on channel=0 note=65 velocity=92 time=0\n",
      "note_off channel=0 note=65 velocity=64 time=96\n",
      "note_off channel=0 note=62 velocity=64 time=0\n",
      "note_on channel=0 note=64 velocity=92 time=0\n",
      "note_on channel=0 note=67 velocity=92 time=0\n",
      "note_off channel=0 note=67 velocity=64 time=96\n",
      "note_off channel=0 note=64 velocity=64 time=0\n",
      "note_on channel=0 note=65 velocity=92 time=0\n",
      "note_on channel=0 note=69 velocity=92 time=0\n",
      "note_off channel=0 note=69 velocity=64 time=96\n",
      "note_off channel=0 note=65 velocity=64 time=0\n",
      "note_on channel=0 note=77 velocity=92 time=0\n",
      "note_off channel=0 note=77 velocity=64 time=96\n",
      "note_on channel=0 note=76 velocity=92 time=0\n",
      "note_off channel=0 note=76 velocity=64 time=96\n",
      "note_on channel=0 note=77 velocity=92 time=0\n",
      "note_off channel=0 note=77 velocity=64 time=96\n",
      "note_on channel=0 note=72 velocity=92 time=0\n",
      "note_off channel=0 note=72 velocity=64 time=96\n",
      "note_on channel=0 note=77 velocity=92 time=0\n",
      "note_off channel=0 note=77 velocity=64 time=96\n",
      "note_on channel=0 note=76 velocity=92 time=0\n",
      "note_off channel=0 note=76 velocity=64 time=96\n",
      "note_on channel=0 note=77 velocity=92 time=0\n",
      "note_off channel=0 note=77 velocity=64 time=96\n",
      "note_on channel=0 note=74 velocity=92 time=0\n",
      "note_off channel=0 note=74 velocity=64 time=96\n",
      "note_on channel=0 note=62 velocity=92 time=0\n",
      "note_on channel=0 note=65 velocity=92 time=0\n",
      "note_off channel=0 note=65 velocity=64 time=96\n",
      "note_off channel=0 note=62 velocity=64 time=0\n",
      "note_on channel=0 note=60 velocity=92 time=0\n",
      "note_on channel=0 note=64 velocity=92 time=0\n",
      "note_off channel=0 note=64 velocity=64 time=96\n",
      "note_off channel=0 note=60 velocity=64 time=0\n",
      "note_on channel=0 note=62 velocity=92 time=0\n",
      "note_on channel=0 note=65 velocity=92 time=0\n",
      "note_off channel=0 note=65 velocity=64 time=96\n",
      "note_off channel=0 note=62 velocity=64 time=0\n",
      "note_on channel=0 note=59 velocity=92 time=0\n",
      "note_on channel=0 note=62 velocity=92 time=0\n",
      "note_off channel=0 note=62 velocity=64 time=96\n",
      "note_off channel=0 note=59 velocity=64 time=0\n",
      "note_on channel=0 note=62 velocity=92 time=0\n",
      "note_on channel=0 note=65 velocity=92 time=0\n",
      "note_off channel=0 note=65 velocity=64 time=96\n",
      "note_off channel=0 note=62 velocity=64 time=0\n",
      "note_on channel=0 note=60 velocity=92 time=0\n",
      "note_on channel=0 note=64 velocity=92 time=0\n",
      "note_off channel=0 note=64 velocity=64 time=96\n",
      "note_off channel=0 note=60 velocity=64 time=0\n",
      "note_on channel=0 note=62 velocity=92 time=0\n",
      "note_on channel=0 note=65 velocity=92 time=0\n",
      "note_off channel=0 note=65 velocity=64 time=96\n",
      "note_off channel=0 note=62 velocity=64 time=0\n",
      "note_on channel=0 note=64 velocity=92 time=0\n",
      "note_on channel=0 note=67 velocity=92 time=0\n",
      "note_off channel=0 note=67 velocity=64 time=96\n",
      "note_off channel=0 note=64 velocity=64 time=0\n",
      "note_on channel=0 note=76 velocity=92 time=0\n",
      "note_off channel=0 note=76 velocity=64 time=96\n",
      "note_on channel=0 note=74 velocity=92 time=0\n",
      "note_off channel=0 note=74 velocity=64 time=96\n",
      "note_on channel=0 note=76 velocity=92 time=0\n",
      "note_off channel=0 note=76 velocity=64 time=96\n",
      "note_on channel=0 note=71 velocity=92 time=0\n",
      "note_off channel=0 note=71 velocity=64 time=96\n",
      "note_on channel=0 note=76 velocity=92 time=0\n",
      "note_off channel=0 note=76 velocity=64 time=96\n",
      "note_on channel=0 note=74 velocity=92 time=0\n",
      "note_off channel=0 note=74 velocity=64 time=96\n",
      "note_on channel=0 note=76 velocity=92 time=0\n",
      "note_off channel=0 note=76 velocity=64 time=96\n",
      "note_on channel=0 note=72 velocity=92 time=0\n",
      "note_off channel=0 note=72 velocity=64 time=96\n",
      "note_on channel=0 note=64 velocity=92 time=0\n",
      "note_off channel=0 note=64 velocity=64 time=96\n",
      "note_on channel=0 note=62 velocity=92 time=0\n",
      "note_off channel=0 note=62 velocity=64 time=96\n",
      "note_on channel=0 note=64 velocity=92 time=0\n",
      "note_off channel=0 note=64 velocity=64 time=96\n",
      "note_on channel=0 note=60 velocity=92 time=0\n",
      "note_off channel=0 note=60 velocity=64 time=96\n",
      "note_on channel=0 note=64 velocity=92 time=0\n",
      "note_off channel=0 note=64 velocity=64 time=96\n",
      "note_on channel=0 note=62 velocity=92 time=0\n",
      "note_off channel=0 note=62 velocity=64 time=96\n",
      "note_on channel=0 note=64 velocity=92 time=0\n",
      "note_off channel=0 note=64 velocity=64 time=96\n",
      "note_on channel=0 note=65 velocity=92 time=0\n",
      "note_off channel=0 note=65 velocity=64 time=96\n",
      "note_on channel=0 note=74 velocity=92 time=0\n",
      "note_off channel=0 note=74 velocity=64 time=96\n",
      "note_on channel=0 note=72 velocity=92 time=0\n",
      "note_off channel=0 note=72 velocity=64 time=96\n",
      "note_on channel=0 note=74 velocity=92 time=0\n",
      "note_off channel=0 note=74 velocity=64 time=96\n",
      "note_on channel=0 note=69 velocity=92 time=0\n",
      "note_off channel=0 note=69 velocity=64 time=96\n",
      "note_on channel=0 note=74 velocity=92 time=0\n",
      "note_off channel=0 note=74 velocity=64 time=96\n",
      "note_on channel=0 note=72 velocity=92 time=0\n",
      "note_off channel=0 note=72 velocity=64 time=96\n",
      "note_on channel=0 note=74 velocity=92 time=0\n",
      "note_off channel=0 note=74 velocity=64 time=96\n",
      "note_on channel=0 note=71 velocity=92 time=0\n",
      "note_off channel=0 note=71 velocity=64 time=96\n",
      "note_on channel=0 note=62 velocity=92 time=0\n",
      "note_off channel=0 note=62 velocity=64 time=96\n",
      "note_on channel=0 note=60 velocity=92 time=0\n",
      "note_off channel=0 note=60 velocity=64 time=96\n",
      "note_on channel=0 note=62 velocity=92 time=0\n",
      "note_off channel=0 note=62 velocity=64 time=96\n",
      "note_on channel=0 note=59 velocity=92 time=0\n",
      "note_off channel=0 note=59 velocity=64 time=96\n",
      "note_on channel=0 note=62 velocity=92 time=0\n",
      "note_off channel=0 note=62 velocity=64 time=96\n",
      "note_on channel=0 note=60 velocity=92 time=0\n",
      "note_off channel=0 note=60 velocity=64 time=96\n",
      "note_on channel=0 note=62 velocity=92 time=0\n",
      "note_off channel=0 note=62 velocity=64 time=96\n",
      "note_on channel=0 note=64 velocity=92 time=0\n",
      "note_off channel=0 note=64 velocity=64 time=96\n",
      "note_on channel=0 note=72 velocity=92 time=0\n",
      "note_off channel=0 note=72 velocity=64 time=96\n",
      "note_on channel=0 note=71 velocity=92 time=0\n",
      "note_off channel=0 note=71 velocity=64 time=96\n",
      "note_on channel=0 note=72 velocity=92 time=0\n",
      "note_off channel=0 note=72 velocity=64 time=96\n",
      "note_on channel=0 note=67 velocity=92 time=0\n",
      "note_off channel=0 note=67 velocity=64 time=96\n",
      "note_on channel=0 note=72 velocity=92 time=0\n",
      "note_off channel=0 note=72 velocity=64 time=96\n",
      "note_on channel=0 note=71 velocity=92 time=0\n",
      "note_off channel=0 note=71 velocity=64 time=96\n",
      "note_on channel=0 note=72 velocity=92 time=0\n",
      "note_off channel=0 note=72 velocity=64 time=96\n",
      "note_on channel=0 note=69 velocity=92 time=0\n",
      "note_off channel=0 note=69 velocity=64 time=192\n",
      "note_on channel=0 note=72 velocity=92 time=0\n",
      "note_on channel=0 note=65 velocity=92 time=0\n",
      "note_on channel=0 note=69 velocity=92 time=0\n",
      "note_off channel=0 note=69 velocity=64 time=192\n",
      "note_off channel=0 note=65 velocity=64 time=0\n",
      "note_on channel=0 note=65 velocity=92 time=0\n",
      "note_on channel=0 note=67 velocity=92 time=0\n",
      "note_off channel=0 note=72 velocity=64 time=192\n",
      "note_on channel=0 note=71 velocity=92 time=0\n",
      "note_off channel=0 note=71 velocity=64 time=192\n",
      "note_off channel=0 note=67 velocity=64 time=0\n",
      "note_off channel=0 note=65 velocity=64 time=0\n",
      "note_on channel=0 note=64 velocity=92 time=0\n",
      "note_on channel=0 note=67 velocity=92 time=0\n",
      "note_on channel=0 note=72 velocity=92 time=0\n",
      "note_off channel=0 note=72 velocity=64 time=192\n",
      "note_off channel=0 note=67 velocity=64 time=0\n",
      "note_off channel=0 note=64 velocity=64 time=0\n",
      "note_on channel=0 note=76 velocity=92 time=0\n",
      "note_off channel=0 note=76 velocity=64 time=96\n",
      "note_on channel=0 note=74 velocity=92 time=0\n",
      "note_off channel=0 note=74 velocity=64 time=96\n",
      "note_on channel=0 note=72 velocity=92 time=0\n",
      "note_off channel=0 note=72 velocity=64 time=192\n",
      "note_on channel=0 note=67 velocity=92 time=0\n",
      "note_on channel=0 note=72 velocity=92 time=0\n",
      "note_on channel=0 note=76 velocity=92 time=0\n",
      "note_off channel=0 note=76 velocity=64 time=192\n",
      "note_off channel=0 note=72 velocity=64 time=0\n",
      "note_off channel=0 note=67 velocity=64 time=0\n",
      "note_on channel=0 note=74 velocity=92 time=0\n",
      "note_on channel=0 note=67 velocity=92 time=0\n",
      "note_on channel=0 note=71 velocity=92 time=0\n",
      "note_off channel=0 note=74 velocity=64 time=192\n",
      "note_on channel=0 note=79 velocity=92 time=0\n",
      "note_off channel=0 note=79 velocity=64 time=192\n",
      "note_off channel=0 note=71 velocity=64 time=0\n",
      "note_off channel=0 note=67 velocity=64 time=0\n",
      "note_on channel=0 note=67 velocity=92 time=0\n",
      "note_off channel=0 note=67 velocity=64 time=192\n",
      "note_on channel=0 note=79 velocity=92 time=0\n",
      "note_on channel=0 note=74 velocity=92 time=0\n",
      "note_on channel=0 note=67 velocity=92 time=0\n",
      "note_off channel=0 note=67 velocity=64 time=192\n",
      "note_off channel=0 note=74 velocity=64 time=0\n",
      "note_off channel=0 note=79 velocity=64 time=0\n",
      "note_on channel=0 note=76 velocity=92 time=0\n",
      "note_on channel=0 note=72 velocity=92 time=0\n",
      "note_on channel=0 note=67 velocity=92 time=0\n",
      "note_off channel=0 note=76 velocity=64 time=192\n",
      "note_on channel=0 note=76 velocity=92 time=0\n",
      "note_off channel=0 note=76 velocity=64 time=96\n",
      "note_on channel=0 note=77 velocity=92 time=0\n",
      "note_off channel=0 note=77 velocity=64 time=96\n",
      "note_off channel=0 note=67 velocity=64 time=0\n",
      "note_off channel=0 note=72 velocity=64 time=0\n",
      "note_on channel=0 note=79 velocity=92 time=0\n",
      "note_off channel=0 note=79 velocity=64 time=192\n",
      "note_on channel=0 note=77 velocity=92 time=0\n",
      "note_on channel=0 note=67 velocity=92 time=0\n",
      "note_on channel=0 note=72 velocity=92 time=0\n",
      "note_off channel=0 note=77 velocity=64 time=96\n",
      "note_on channel=0 note=76 velocity=92 time=0\n",
      "note_off channel=0 note=76 velocity=64 time=96\n",
      "note_off channel=0 note=72 velocity=64 time=0\n",
      "note_off channel=0 note=67 velocity=64 time=0\n",
      "note_on channel=0 note=67 velocity=92 time=0\n",
      "note_on channel=0 note=71 velocity=92 time=0\n",
      "note_on channel=0 note=74 velocity=92 time=0\n",
      "note_off channel=0 note=67 velocity=64 time=96\n",
      "note_on channel=0 note=66 velocity=92 time=0\n",
      "note_off channel=0 note=66 velocity=64 time=96\n",
      "note_on channel=0 note=67 velocity=92 time=0\n",
      "note_off channel=0 note=67 velocity=64 time=96\n",
      "note_on channel=0 note=69 velocity=92 time=0\n",
      "note_off channel=0 note=69 velocity=64 time=96\n",
      "note_off channel=0 note=74 velocity=64 time=0\n",
      "note_off channel=0 note=71 velocity=64 time=0\n",
      "note_on channel=0 note=71 velocity=92 time=0\n",
      "note_off channel=0 note=71 velocity=64 time=96\n",
      "note_on channel=0 note=66 velocity=92 time=0\n",
      "note_off channel=0 note=66 velocity=64 time=96\n",
      "note_on channel=0 note=67 velocity=92 time=0\n",
      "note_off channel=0 note=67 velocity=64 time=96\n",
      "note_on channel=0 note=62 velocity=92 time=0\n",
      "note_on channel=0 note=67 velocity=92 time=96\n",
      "note_off channel=0 note=67 velocity=64 time=192\n",
      "note_on channel=0 note=71 velocity=92 time=0\n",
      "note_off channel=0 note=71 velocity=64 time=96\n",
      "note_on channel=0 note=69 velocity=92 time=0\n",
      "note_off channel=0 note=69 velocity=64 time=96\n",
      "note_off channel=0 note=62 velocity=64 time=0\n",
      "note_on channel=0 note=67 velocity=92 time=0\n",
      "note_off channel=0 note=67 velocity=64 time=192\n",
      "note_on channel=0 note=62 velocity=92 time=0\n",
      "note_on channel=0 note=67 velocity=92 time=0\n",
      "note_on channel=0 note=71 velocity=92 time=0\n",
      "note_off channel=0 note=71 velocity=64 time=192\n",
      "note_off channel=0 note=67 velocity=64 time=0\n",
      "note_off channel=0 note=62 velocity=64 time=0\n",
      "note_on channel=0 note=69 velocity=92 time=0\n",
      "note_on channel=0 note=62 velocity=92 time=0\n",
      "note_off channel=0 note=69 velocity=64 time=192\n",
      "note_on channel=0 note=74 velocity=92 time=0\n",
      "note_off channel=0 note=74 velocity=64 time=192\n",
      "note_off channel=0 note=62 velocity=64 time=0\n",
      "note_on channel=0 note=62 velocity=92 time=0\n",
      "note_off channel=0 note=62 velocity=64 time=192\n",
      "note_on channel=0 note=74 velocity=92 time=0\n",
      "note_on channel=0 note=69 velocity=92 time=0\n",
      "note_on channel=0 note=62 velocity=92 time=0\n",
      "note_off channel=0 note=62 velocity=64 time=192\n",
      "note_off channel=0 note=69 velocity=64 time=0\n",
      "note_off channel=0 note=74 velocity=64 time=0\n",
      "note_on channel=0 note=71 velocity=92 time=0\n",
      "note_on channel=0 note=67 velocity=92 time=0\n",
      "note_on channel=0 note=62 velocity=92 time=0\n",
      "note_off channel=0 note=71 velocity=64 time=192\n",
      "note_on channel=0 note=71 velocity=92 time=0\n",
      "note_off channel=0 note=71 velocity=64 time=96\n",
      "note_on channel=0 note=72 velocity=92 time=0\n",
      "note_off channel=0 note=72 velocity=64 time=96\n",
      "note_off channel=0 note=62 velocity=64 time=0\n",
      "note_off channel=0 note=67 velocity=64 time=0\n",
      "note_on channel=0 note=74 velocity=92 time=0\n",
      "note_off channel=0 note=74 velocity=64 time=192\n",
      "note_on channel=0 note=72 velocity=92 time=0\n",
      "note_on channel=0 note=62 velocity=92 time=0\n",
      "note_on channel=0 note=67 velocity=92 time=0\n",
      "note_off channel=0 note=72 velocity=64 time=96\n",
      "note_on channel=0 note=71 velocity=92 time=0\n",
      "note_off channel=0 note=71 velocity=64 time=96\n",
      "note_off channel=0 note=67 velocity=64 time=0\n",
      "note_off channel=0 note=62 velocity=64 time=0\n",
      "note_on channel=0 note=62 velocity=92 time=0\n",
      "note_on channel=0 note=66 velocity=92 time=0\n",
      "note_on channel=0 note=69 velocity=92 time=0\n",
      "note_off channel=0 note=69 velocity=64 time=384\n",
      "note_off channel=0 note=66 velocity=64 time=0\n",
      "note_off channel=0 note=62 velocity=64 time=0\n",
      "note_on channel=0 note=62 velocity=92 time=0\n",
      "note_off channel=0 note=62 velocity=64 time=192\n",
      "note_on channel=0 note=74 velocity=92 time=0\n",
      "note_on channel=0 note=69 velocity=92 time=0\n",
      "note_on channel=0 note=62 velocity=92 time=0\n",
      "note_off channel=0 note=62 velocity=64 time=192\n",
      "note_off channel=0 note=69 velocity=64 time=0\n",
      "note_off channel=0 note=74 velocity=64 time=0\n",
      "note_on channel=0 note=62 velocity=92 time=0\n",
      "note_on channel=0 note=67 velocity=92 time=0\n",
      "note_on channel=0 note=71 velocity=92 time=0\n",
      "note_off channel=0 note=71 velocity=64 time=96\n",
      "note_off channel=0 note=67 velocity=64 time=0\n",
      "note_off channel=0 note=62 velocity=64 time=0\n",
      "note_on channel=0 note=62 velocity=92 time=0\n",
      "note_off channel=0 note=62 velocity=64 time=96\n",
      "note_on channel=0 note=60 velocity=92 time=0\n",
      "note_off channel=0 note=60 velocity=64 time=96\n",
      "note_on channel=0 note=62 velocity=92 time=0\n",
      "note_off channel=0 note=62 velocity=64 time=96\n",
      "note_on channel=0 note=59 velocity=92 time=0\n",
      "note_off channel=0 note=59 velocity=64 time=96\n",
      "note_on channel=0 note=62 velocity=92 time=0\n",
      "note_off channel=0 note=62 velocity=64 time=96\n",
      "note_on channel=0 note=60 velocity=92 time=0\n",
      "note_off channel=0 note=60 velocity=64 time=96\n",
      "note_on channel=0 note=62 velocity=92 time=0\n",
      "note_off channel=0 note=62 velocity=64 time=96\n",
      "note_on channel=0 note=64 velocity=92 time=0\n",
      "note_off channel=0 note=64 velocity=64 time=96\n",
      "note_on channel=0 note=72 velocity=92 time=0\n",
      "note_off channel=0 note=72 velocity=64 time=96\n",
      "note_on channel=0 note=71 velocity=92 time=0\n",
      "note_off channel=0 note=71 velocity=64 time=96\n",
      "note_on channel=0 note=72 velocity=92 time=0\n",
      "note_off channel=0 note=72 velocity=64 time=96\n",
      "note_on channel=0 note=67 velocity=92 time=0\n",
      "note_off channel=0 note=67 velocity=64 time=96\n",
      "note_on channel=0 note=72 velocity=92 time=0\n",
      "note_off channel=0 note=72 velocity=64 time=96\n",
      "note_on channel=0 note=71 velocity=92 time=0\n",
      "note_off channel=0 note=71 velocity=64 time=96\n",
      "note_on channel=0 note=72 velocity=92 time=0\n",
      "note_off channel=0 note=72 velocity=64 time=96\n",
      "note_on channel=0 note=69 velocity=92 time=0\n",
      "note_off channel=0 note=69 velocity=64 time=96\n",
      "note_on channel=0 note=60 velocity=92 time=0\n",
      "note_off channel=0 note=60 velocity=64 time=96\n",
      "note_on channel=0 note=59 velocity=92 time=0\n",
      "note_off channel=0 note=59 velocity=64 time=96\n",
      "note_on channel=0 note=60 velocity=92 time=0\n",
      "note_off channel=0 note=60 velocity=64 time=96\n",
      "note_on channel=0 note=57 velocity=92 time=0\n",
      "note_off channel=0 note=57 velocity=64 time=96\n",
      "note_on channel=0 note=60 velocity=92 time=0\n",
      "note_off channel=0 note=60 velocity=64 time=96\n",
      "note_on channel=0 note=59 velocity=92 time=0\n",
      "note_off channel=0 note=59 velocity=64 time=96\n",
      "note_on channel=0 note=60 velocity=92 time=0\n",
      "note_off channel=0 note=60 velocity=64 time=96\n",
      "note_on channel=0 note=62 velocity=92 time=0\n",
      "note_off channel=0 note=62 velocity=64 time=96\n",
      "note_on channel=0 note=71 velocity=92 time=0\n",
      "note_off channel=0 note=71 velocity=64 time=96\n",
      "note_on channel=0 note=69 velocity=92 time=0\n",
      "note_off channel=0 note=69 velocity=64 time=96\n",
      "note_on channel=0 note=71 velocity=92 time=0\n",
      "note_off channel=0 note=71 velocity=64 time=96\n",
      "note_on channel=0 note=66 velocity=92 time=0\n",
      "note_off channel=0 note=66 velocity=64 time=96\n",
      "note_on channel=0 note=71 velocity=92 time=0\n",
      "note_off channel=0 note=71 velocity=64 time=96\n",
      "note_on channel=0 note=69 velocity=92 time=0\n",
      "note_off channel=0 note=69 velocity=64 time=96\n",
      "note_on channel=0 note=71 velocity=92 time=0\n",
      "note_off channel=0 note=71 velocity=64 time=96\n",
      "note_on channel=0 note=67 velocity=92 time=0\n",
      "note_off channel=0 note=67 velocity=64 time=96\n",
      "note_on channel=0 note=69 velocity=92 time=768\n",
      "note_off channel=0 note=69 velocity=64 time=96\n",
      "note_on channel=0 note=67 velocity=92 time=0\n",
      "note_off channel=0 note=67 velocity=64 time=96\n",
      "note_on channel=0 note=69 velocity=92 time=0\n",
      "note_off channel=0 note=69 velocity=64 time=96\n",
      "note_on channel=0 note=64 velocity=92 time=0\n",
      "note_off channel=0 note=64 velocity=64 time=96\n",
      "note_on channel=0 note=69 velocity=92 time=0\n",
      "note_off channel=0 note=69 velocity=64 time=96\n",
      "note_on channel=0 note=67 velocity=92 time=0\n",
      "note_off channel=0 note=67 velocity=64 time=96\n",
      "note_on channel=0 note=69 velocity=92 time=0\n",
      "note_off channel=0 note=69 velocity=64 time=96\n",
      "note_on channel=0 note=66 velocity=92 time=0\n",
      "note_off channel=0 note=66 velocity=64 time=96\n",
      "note_on channel=0 note=67 velocity=92 time=768\n",
      "note_off channel=0 note=67 velocity=64 time=96\n",
      "note_on channel=0 note=66 velocity=92 time=0\n",
      "note_off channel=0 note=66 velocity=64 time=96\n",
      "note_on channel=0 note=67 velocity=92 time=0\n",
      "note_off channel=0 note=67 velocity=64 time=96\n",
      "note_on channel=0 note=62 velocity=92 time=0\n",
      "note_off channel=0 note=62 velocity=64 time=96\n",
      "note_on channel=0 note=67 velocity=92 time=0\n",
      "note_off channel=0 note=67 velocity=64 time=96\n",
      "note_on channel=0 note=66 velocity=92 time=0\n",
      "note_off channel=0 note=66 velocity=64 time=96\n",
      "note_on channel=0 note=67 velocity=92 time=0\n",
      "note_off channel=0 note=67 velocity=64 time=96\n",
      "note_on channel=0 note=64 velocity=92 time=0\n",
      "note_off channel=0 note=64 velocity=64 time=192\n",
      "note_on channel=0 note=60 velocity=92 time=0\n",
      "note_on channel=0 note=64 velocity=92 time=0\n",
      "note_on channel=0 note=67 velocity=92 time=0\n",
      "note_off channel=0 note=64 velocity=64 time=192\n",
      "note_off channel=0 note=60 velocity=64 time=0\n",
      "note_on channel=0 note=60 velocity=92 time=0\n",
      "note_on channel=0 note=62 velocity=92 time=0\n",
      "note_off channel=0 note=67 velocity=64 time=192\n",
      "note_on channel=0 note=66 velocity=92 time=0\n",
      "note_off channel=0 note=66 velocity=64 time=192\n",
      "note_off channel=0 note=62 velocity=64 time=0\n",
      "note_off channel=0 note=60 velocity=64 time=0\n",
      "note_on channel=0 note=59 velocity=92 time=0\n",
      "note_on channel=0 note=62 velocity=92 time=0\n",
      "note_on channel=0 note=67 velocity=92 time=0\n",
      "note_off channel=0 note=67 velocity=64 time=192\n",
      "note_off channel=0 note=62 velocity=64 time=0\n",
      "note_off channel=0 note=59 velocity=64 time=0\n",
      "note_on channel=0 note=71 velocity=92 time=0\n",
      "note_off channel=0 note=71 velocity=64 time=96\n",
      "note_on channel=0 note=69 velocity=92 time=0\n",
      "note_off channel=0 note=69 velocity=64 time=96\n",
      "note_on channel=0 note=67 velocity=92 time=0\n",
      "note_off channel=0 note=67 velocity=64 time=192\n",
      "note_on channel=0 note=62 velocity=92 time=0\n",
      "note_on channel=0 note=67 velocity=92 time=0\n",
      "note_on channel=0 note=71 velocity=92 time=0\n",
      "note_off channel=0 note=71 velocity=64 time=192\n",
      "note_off channel=0 note=67 velocity=64 time=0\n",
      "note_off channel=0 note=62 velocity=64 time=0\n",
      "note_on channel=0 note=62 velocity=92 time=0\n",
      "note_on channel=0 note=66 velocity=92 time=0\n",
      "note_on channel=0 note=69 velocity=92 time=0\n",
      "note_off channel=0 note=69 velocity=64 time=192\n",
      "note_on channel=0 note=74 velocity=92 time=0\n",
      "note_off channel=0 note=74 velocity=64 time=192\n",
      "note_off channel=0 note=66 velocity=64 time=0\n",
      "note_off channel=0 note=62 velocity=64 time=0\n",
      "note_on channel=0 note=62 velocity=92 time=0\n",
      "note_off channel=0 note=62 velocity=64 time=192\n",
      "note_on channel=0 note=74 velocity=92 time=0\n",
      "note_on channel=0 note=69 velocity=92 time=0\n",
      "note_on channel=0 note=62 velocity=92 time=0\n",
      "note_off channel=0 note=62 velocity=64 time=192\n",
      "note_off channel=0 note=69 velocity=64 time=0\n",
      "note_off channel=0 note=74 velocity=64 time=0\n",
      "note_on channel=0 note=62 velocity=92 time=0\n",
      "note_on channel=0 note=67 velocity=92 time=0\n",
      "note_on channel=0 note=71 velocity=92 time=0\n",
      "note_off channel=0 note=71 velocity=64 time=192\n",
      "note_on channel=0 note=71 velocity=92 time=0\n",
      "note_off channel=0 note=71 velocity=64 time=96\n",
      "note_on channel=0 note=72 velocity=92 time=0\n",
      "note_off channel=0 note=72 velocity=64 time=96\n",
      "note_off channel=0 note=67 velocity=64 time=0\n",
      "note_off channel=0 note=62 velocity=64 time=0\n",
      "note_on channel=0 note=74 velocity=92 time=0\n",
      "note_off channel=0 note=74 velocity=64 time=192\n",
      "note_on channel=0 note=62 velocity=92 time=0\n",
      "note_on channel=0 note=67 velocity=92 time=0\n",
      "note_off channel=0 note=67 velocity=64 time=192\n",
      "note_off channel=0 note=62 velocity=64 time=0\n",
      "note_on channel=0 note=69 velocity=92 time=0\n",
      "note_on channel=0 note=66 velocity=92 time=0\n",
      "note_on channel=0 note=62 velocity=92 time=192\n",
      "note_off channel=0 note=62 velocity=64 time=96\n",
      "note_on channel=0 note=64 velocity=92 time=0\n",
      "note_off channel=0 note=64 velocity=64 time=96\n",
      "note_off channel=0 note=66 velocity=64 time=0\n",
      "note_off channel=0 note=69 velocity=64 time=0\n",
      "note_on channel=0 note=66 velocity=92 time=0\n",
      "note_off channel=0 note=66 velocity=64 time=96\n",
      "note_on channel=0 note=64 velocity=92 time=0\n",
      "note_off channel=0 note=64 velocity=64 time=96\n",
      "note_on channel=0 note=66 velocity=92 time=0\n",
      "note_off channel=0 note=66 velocity=64 time=96\n",
      "note_on channel=0 note=68 velocity=92 time=0\n",
      "note_off channel=0 note=68 velocity=64 time=96\n",
      "note_on channel=0 note=69 velocity=92 time=0\n",
      "note_on channel=0 note=64 velocity=92 time=0\n",
      "note_off channel=0 note=69 velocity=64 time=192\n",
      "note_on channel=0 note=72 velocity=92 time=0\n",
      "note_off channel=0 note=72 velocity=64 time=96\n",
      "note_on channel=0 note=71 velocity=92 time=0\n",
      "note_off channel=0 note=71 velocity=64 time=96\n",
      "note_off channel=0 note=64 velocity=64 time=0\n",
      "note_on channel=0 note=69 velocity=92 time=0\n",
      "note_off channel=0 note=69 velocity=64 time=192\n",
      "note_on channel=0 note=64 velocity=92 time=0\n",
      "note_on channel=0 note=69 velocity=92 time=0\n",
      "note_on channel=0 note=72 velocity=92 time=0\n",
      "note_off channel=0 note=72 velocity=64 time=192\n",
      "note_off channel=0 note=69 velocity=64 time=0\n",
      "note_off channel=0 note=64 velocity=64 time=0\n",
      "note_on channel=0 note=71 velocity=92 time=0\n",
      "note_on channel=0 note=64 velocity=92 time=0\n",
      "note_off channel=0 note=71 velocity=64 time=192\n",
      "note_on channel=0 note=76 velocity=92 time=0\n",
      "note_off channel=0 note=76 velocity=64 time=192\n",
      "note_off channel=0 note=64 velocity=64 time=0\n",
      "note_on channel=0 note=64 velocity=92 time=0\n",
      "note_off channel=0 note=64 velocity=64 time=192\n",
      "note_on channel=0 note=76 velocity=92 time=0\n",
      "note_on channel=0 note=71 velocity=92 time=0\n",
      "note_on channel=0 note=64 velocity=92 time=0\n",
      "note_off channel=0 note=64 velocity=64 time=192\n",
      "note_off channel=0 note=71 velocity=64 time=0\n",
      "note_off channel=0 note=76 velocity=64 time=0\n",
      "note_on channel=0 note=72 velocity=92 time=0\n",
      "note_on channel=0 note=64 velocity=92 time=0\n",
      "note_on channel=0 note=69 velocity=92 time=0\n",
      "note_off channel=0 note=72 velocity=64 time=192\n",
      "note_on channel=0 note=72 velocity=92 time=0\n",
      "note_off channel=0 note=72 velocity=64 time=96\n",
      "note_on channel=0 note=74 velocity=92 time=0\n",
      "note_off channel=0 note=74 velocity=64 time=96\n",
      "note_off channel=0 note=69 velocity=64 time=0\n",
      "note_off channel=0 note=64 velocity=64 time=0\n",
      "note_on channel=0 note=76 velocity=92 time=0\n",
      "note_off channel=0 note=76 velocity=64 time=192\n",
      "note_on channel=0 note=64 velocity=92 time=0\n",
      "note_on channel=0 note=69 velocity=92 time=0\n",
      "note_on channel=0 note=74 velocity=92 time=0\n",
      "note_off channel=0 note=74 velocity=64 time=96\n",
      "note_on channel=0 note=72 velocity=92 time=0\n",
      "note_off channel=0 note=72 velocity=64 time=96\n",
      "note_off channel=0 note=69 velocity=64 time=0\n",
      "note_off channel=0 note=64 velocity=64 time=0\n",
      "note_on channel=0 note=64 velocity=92 time=0\n",
      "note_on channel=0 note=68 velocity=92 time=0\n",
      "note_on channel=0 note=71 velocity=92 time=0\n",
      "note_off channel=0 note=71 velocity=64 time=384\n",
      "note_off channel=0 note=68 velocity=64 time=0\n",
      "note_off channel=0 note=64 velocity=64 time=0\n",
      "note_on channel=0 note=64 velocity=92 time=0\n",
      "note_off channel=0 note=64 velocity=64 time=192\n",
      "note_on channel=0 note=76 velocity=92 time=0\n",
      "note_on channel=0 note=72 velocity=92 time=0\n",
      "note_on channel=0 note=69 velocity=92 time=0\n",
      "note_off channel=0 note=69 velocity=64 time=192\n",
      "note_off channel=0 note=72 velocity=64 time=0\n",
      "note_off channel=0 note=76 velocity=64 time=0\n",
      "note_on channel=0 note=77 velocity=92 time=0\n",
      "note_on channel=0 note=74 velocity=92 time=96\n",
      "note_off channel=0 note=74 velocity=64 time=96\n",
      "note_on channel=0 note=72 velocity=92 time=0\n",
      "note_off channel=0 note=72 velocity=64 time=96\n",
      "note_on channel=0 note=74 velocity=92 time=0\n",
      "note_off channel=0 note=74 velocity=64 time=96\n",
      "note_on channel=0 note=69 velocity=92 time=0\n",
      "note_off channel=0 note=69 velocity=64 time=96\n",
      "note_on channel=0 note=74 velocity=92 time=0\n",
      "note_off channel=0 note=74 velocity=64 time=96\n",
      "note_on channel=0 note=72 velocity=92 time=0\n",
      "note_off channel=0 note=72 velocity=64 time=96\n",
      "note_on channel=0 note=74 velocity=92 time=0\n",
      "note_off channel=0 note=74 velocity=64 time=96\n",
      "note_on channel=0 note=71 velocity=92 time=0\n",
      "note_off channel=0 note=71 velocity=64 time=96\n",
      "note_off channel=0 note=77 velocity=64 time=0\n",
      "note_on channel=0 note=76 velocity=92 time=672\n",
      "note_on channel=0 note=72 velocity=92 time=96\n",
      "note_off channel=0 note=72 velocity=64 time=96\n",
      "note_on channel=0 note=71 velocity=92 time=0\n",
      "note_off channel=0 note=71 velocity=64 time=96\n",
      "note_on channel=0 note=72 velocity=92 time=0\n",
      "note_off channel=0 note=72 velocity=64 time=96\n",
      "note_on channel=0 note=67 velocity=92 time=0\n",
      "note_off channel=0 note=67 velocity=64 time=96\n",
      "note_on channel=0 note=72 velocity=92 time=0\n",
      "note_off channel=0 note=72 velocity=64 time=96\n",
      "note_on channel=0 note=71 velocity=92 time=0\n",
      "note_off channel=0 note=71 velocity=64 time=96\n",
      "note_on channel=0 note=72 velocity=92 time=0\n",
      "note_off channel=0 note=72 velocity=64 time=96\n",
      "note_on channel=0 note=69 velocity=92 time=0\n",
      "note_off channel=0 note=69 velocity=64 time=96\n",
      "note_off channel=0 note=76 velocity=64 time=0\n",
      "note_on channel=0 note=74 velocity=92 time=672\n",
      "note_on channel=0 note=71 velocity=92 time=96\n",
      "note_off channel=0 note=71 velocity=64 time=96\n",
      "note_on channel=0 note=69 velocity=92 time=0\n",
      "note_off channel=0 note=69 velocity=64 time=96\n",
      "note_on channel=0 note=71 velocity=92 time=0\n",
      "note_off channel=0 note=71 velocity=64 time=96\n",
      "note_on channel=0 note=66 velocity=92 time=0\n",
      "note_off channel=0 note=66 velocity=64 time=96\n",
      "note_on channel=0 note=71 velocity=92 time=0\n",
      "note_off channel=0 note=71 velocity=64 time=96\n",
      "note_on channel=0 note=69 velocity=92 time=0\n",
      "note_off channel=0 note=69 velocity=64 time=96\n",
      "note_on channel=0 note=71 velocity=92 time=0\n",
      "note_off channel=0 note=71 velocity=64 time=96\n",
      "note_on channel=0 note=68 velocity=92 time=0\n",
      "note_off channel=0 note=68 velocity=64 time=96\n",
      "note_off channel=0 note=74 velocity=64 time=0\n",
      "note_on channel=0 note=72 velocity=92 time=672\n",
      "note_on channel=0 note=69 velocity=92 time=96\n",
      "note_off channel=0 note=69 velocity=64 time=96\n",
      "note_on channel=0 note=67 velocity=92 time=0\n",
      "note_off channel=0 note=67 velocity=64 time=96\n",
      "note_on channel=0 note=69 velocity=92 time=0\n",
      "note_off channel=0 note=69 velocity=64 time=96\n",
      "note_on channel=0 note=64 velocity=92 time=0\n",
      "note_off channel=0 note=64 velocity=64 time=96\n",
      "note_on channel=0 note=69 velocity=92 time=0\n",
      "note_off channel=0 note=69 velocity=64 time=96\n",
      "note_on channel=0 note=67 velocity=92 time=0\n",
      "note_off channel=0 note=67 velocity=64 time=96\n",
      "note_on channel=0 note=69 velocity=92 time=0\n",
      "note_off channel=0 note=69 velocity=64 time=96\n",
      "note_on channel=0 note=66 velocity=92 time=0\n",
      "note_off channel=0 note=66 velocity=64 time=96\n",
      "note_off channel=0 note=72 velocity=64 time=0\n",
      "note_on channel=0 note=64 velocity=92 time=768\n",
      "note_on channel=0 note=72 velocity=92 time=0\n",
      "note_off channel=0 note=72 velocity=64 time=96\n",
      "note_off channel=0 note=64 velocity=64 time=0\n",
      "note_on channel=0 note=62 velocity=92 time=0\n",
      "note_on channel=0 note=71 velocity=92 time=0\n",
      "note_off channel=0 note=71 velocity=64 time=96\n",
      "note_off channel=0 note=62 velocity=64 time=0\n",
      "note_on channel=0 note=60 velocity=92 time=0\n",
      "note_on channel=0 note=69 velocity=92 time=0\n",
      "note_off channel=0 note=69 velocity=64 time=96\n",
      "note_off channel=0 note=60 velocity=64 time=0\n",
      "note_on channel=0 note=59 velocity=92 time=0\n",
      "note_on channel=0 note=67 velocity=92 time=0\n",
      "note_off channel=0 note=67 velocity=64 time=96\n",
      "note_off channel=0 note=59 velocity=64 time=0\n",
      "note_on channel=0 note=71 velocity=92 time=0\n",
      "note_on channel=0 note=79 velocity=92 time=0\n",
      "note_off channel=0 note=79 velocity=64 time=96\n",
      "note_off channel=0 note=71 velocity=64 time=0\n",
      "note_on channel=0 note=69 velocity=92 time=0\n",
      "note_on channel=0 note=78 velocity=92 time=0\n",
      "note_off channel=0 note=78 velocity=64 time=96\n",
      "note_off channel=0 note=69 velocity=64 time=0\n",
      "note_on channel=0 note=67 velocity=92 time=0\n",
      "note_on channel=0 note=76 velocity=92 time=0\n",
      "note_off channel=0 note=76 velocity=64 time=96\n",
      "note_off channel=0 note=67 velocity=64 time=0\n",
      "note_on channel=0 note=66 velocity=92 time=0\n",
      "note_on channel=0 note=75 velocity=92 time=0\n",
      "note_off channel=0 note=75 velocity=64 time=96\n",
      "note_on channel=0 note=69 velocity=92 time=0\n",
      "note_off channel=0 note=69 velocity=64 time=96\n",
      "note_off channel=0 note=66 velocity=64 time=0\n",
      "note_on channel=0 note=64 velocity=92 time=0\n",
      "note_on channel=0 note=67 velocity=92 time=0\n",
      "note_off channel=0 note=67 velocity=64 time=96\n",
      "note_off channel=0 note=64 velocity=64 time=0\n",
      "note_on channel=0 note=62 velocity=92 time=0\n",
      "note_on channel=0 note=76 velocity=92 time=0\n",
      "note_off channel=0 note=76 velocity=64 time=96\n",
      "note_off channel=0 note=62 velocity=64 time=0\n",
      "note_on channel=0 note=60 velocity=92 time=0\n",
      "note_on channel=0 note=66 velocity=92 time=0\n",
      "note_off channel=0 note=66 velocity=64 time=96\n",
      "note_on channel=0 note=76 velocity=92 time=0\n",
      "note_off channel=0 note=76 velocity=64 time=96\n",
      "note_off channel=0 note=60 velocity=64 time=0\n",
      "note_on channel=0 note=66 velocity=92 time=0\n",
      "note_off channel=0 note=66 velocity=64 time=96\n",
      "note_on channel=0 note=75 velocity=92 time=0\n",
      "note_off channel=0 note=75 velocity=64 time=96\n",
      "note_on channel=0 note=64 velocity=92 time=0\n",
      "note_on channel=0 note=71 velocity=92 time=0\n",
      "note_on channel=0 note=76 velocity=92 time=0\n",
      "note_off channel=0 note=76 velocity=64 time=192\n",
      "note_off channel=0 note=71 velocity=64 time=0\n",
      "note_off channel=0 note=64 velocity=64 time=0\n",
      "note_on channel=0 note=79 velocity=92 time=0\n",
      "note_off channel=0 note=79 velocity=64 time=96\n",
      "note_on channel=0 note=78 velocity=92 time=0\n",
      "note_off channel=0 note=78 velocity=64 time=96\n",
      "note_on channel=0 note=76 velocity=92 time=0\n",
      "note_off channel=0 note=76 velocity=64 time=192\n",
      "note_on channel=0 note=71 velocity=92 time=0\n",
      "note_on channel=0 note=76 velocity=92 time=0\n",
      "note_on channel=0 note=79 velocity=92 time=0\n",
      "note_off channel=0 note=79 velocity=64 time=192\n",
      "note_off channel=0 note=76 velocity=64 time=0\n",
      "note_off channel=0 note=71 velocity=64 time=0\n",
      "note_on channel=0 note=78 velocity=92 time=0\n",
      "note_on channel=0 note=71 velocity=92 time=0\n",
      "note_off channel=0 note=78 velocity=64 time=192\n",
      "note_on channel=0 note=83 velocity=92 time=0\n",
      "note_off channel=0 note=83 velocity=64 time=192\n",
      "note_off channel=0 note=71 velocity=64 time=0\n",
      "note_on channel=0 note=71 velocity=92 time=0\n",
      "note_off channel=0 note=71 velocity=64 time=192\n",
      "note_on channel=0 note=83 velocity=92 time=0\n",
      "note_on channel=0 note=78 velocity=92 time=0\n",
      "note_on channel=0 note=71 velocity=92 time=0\n",
      "note_off channel=0 note=71 velocity=64 time=192\n",
      "note_off channel=0 note=78 velocity=64 time=0\n",
      "note_off channel=0 note=83 velocity=64 time=0\n",
      "note_on channel=0 note=71 velocity=92 time=0\n",
      "note_on channel=0 note=76 velocity=92 time=0\n",
      "note_on channel=0 note=79 velocity=92 time=0\n",
      "note_off channel=0 note=79 velocity=64 time=192\n",
      "note_off channel=0 note=76 velocity=64 time=0\n",
      "note_off channel=0 note=71 velocity=64 time=0\n",
      "note_on channel=0 note=79 velocity=92 time=0\n",
      "note_off channel=0 note=79 velocity=64 time=96\n",
      "note_on channel=0 note=81 velocity=92 time=0\n",
      "note_off channel=0 note=81 velocity=64 time=96\n",
      "note_on channel=0 note=83 velocity=92 time=0\n",
      "note_off channel=0 note=83 velocity=64 time=192\n",
      "note_on channel=0 note=81 velocity=92 time=0\n",
      "note_on channel=0 note=71 velocity=92 time=0\n",
      "note_on channel=0 note=76 velocity=92 time=0\n",
      "note_off channel=0 note=81 velocity=64 time=96\n",
      "note_on channel=0 note=79 velocity=92 time=0\n",
      "note_off channel=0 note=79 velocity=64 time=96\n",
      "note_off channel=0 note=76 velocity=64 time=0\n",
      "note_off channel=0 note=71 velocity=64 time=0\n",
      "note_on channel=0 note=71 velocity=92 time=0\n",
      "note_on channel=0 note=75 velocity=92 time=0\n",
      "note_on channel=0 note=78 velocity=92 time=0\n",
      "note_off channel=0 note=78 velocity=64 time=384\n",
      "note_off channel=0 note=75 velocity=64 time=0\n",
      "note_off channel=0 note=71 velocity=64 time=0\n",
      "note_on channel=0 note=71 velocity=92 time=0\n",
      "note_off channel=0 note=71 velocity=64 time=192\n",
      "note_on channel=0 note=83 velocity=92 time=0\n",
      "note_on channel=0 note=78 velocity=92 time=0\n",
      "note_on channel=0 note=71 velocity=92 time=0\n",
      "note_off channel=0 note=71 velocity=64 time=192\n",
      "note_off channel=0 note=78 velocity=64 time=0\n",
      "note_off channel=0 note=83 velocity=64 time=0\n",
      "note_on channel=0 note=71 velocity=92 time=0\n",
      "note_on channel=0 note=76 velocity=92 time=0\n",
      "note_on channel=0 note=79 velocity=92 time=0\n",
      "note_off channel=0 note=79 velocity=64 time=96\n",
      "note_off channel=0 note=76 velocity=64 time=0\n",
      "note_off channel=0 note=71 velocity=64 time=0\n",
      "note_on channel=0 note=76 velocity=92 time=0\n",
      "note_on channel=0 note=67 velocity=92 time=0\n",
      "note_off channel=0 note=67 velocity=64 time=96\n",
      "note_off channel=0 note=76 velocity=64 time=0\n",
      "note_on channel=0 note=74 velocity=92 time=0\n",
      "note_on channel=0 note=66 velocity=92 time=0\n",
      "note_off channel=0 note=66 velocity=64 time=96\n",
      "note_off channel=0 note=74 velocity=64 time=0\n",
      "note_on channel=0 note=76 velocity=92 time=0\n",
      "note_on channel=0 note=67 velocity=92 time=0\n",
      "note_off channel=0 note=67 velocity=64 time=96\n",
      "note_off channel=0 note=76 velocity=64 time=0\n",
      "note_on channel=0 note=71 velocity=92 time=0\n",
      "note_on channel=0 note=64 velocity=92 time=0\n",
      "note_off channel=0 note=64 velocity=64 time=96\n",
      "note_off channel=0 note=71 velocity=64 time=0\n",
      "note_on channel=0 note=76 velocity=92 time=0\n",
      "note_on channel=0 note=67 velocity=92 time=0\n",
      "note_off channel=0 note=67 velocity=64 time=96\n",
      "note_off channel=0 note=76 velocity=64 time=0\n",
      "note_on channel=0 note=74 velocity=92 time=0\n",
      "note_on channel=0 note=66 velocity=92 time=0\n",
      "note_off channel=0 note=66 velocity=64 time=96\n",
      "note_off channel=0 note=74 velocity=64 time=0\n",
      "note_on channel=0 note=76 velocity=92 time=0\n",
      "note_on channel=0 note=67 velocity=92 time=0\n",
      "note_off channel=0 note=67 velocity=64 time=96\n",
      "note_off channel=0 note=76 velocity=64 time=0\n",
      "note_on channel=0 note=69 velocity=92 time=0\n",
      "note_on channel=0 note=72 velocity=92 time=0\n",
      "note_off channel=0 note=72 velocity=64 time=96\n",
      "note_off channel=0 note=69 velocity=64 time=0\n",
      "note_on channel=0 note=81 velocity=92 time=0\n",
      "note_off channel=0 note=81 velocity=64 time=96\n",
      "note_on channel=0 note=79 velocity=92 time=0\n",
      "note_off channel=0 note=79 velocity=64 time=96\n",
      "note_on channel=0 note=81 velocity=92 time=0\n",
      "note_off channel=0 note=81 velocity=64 time=96\n",
      "note_on channel=0 note=76 velocity=92 time=0\n",
      "note_off channel=0 note=76 velocity=64 time=96\n",
      "note_on channel=0 note=81 velocity=92 time=0\n",
      "note_off channel=0 note=81 velocity=64 time=96\n",
      "note_on channel=0 note=79 velocity=92 time=0\n",
      "note_off channel=0 note=79 velocity=64 time=96\n",
      "note_on channel=0 note=81 velocity=92 time=0\n",
      "note_off channel=0 note=81 velocity=64 time=96\n",
      "note_on channel=0 note=78 velocity=92 time=0\n",
      "note_off channel=0 note=78 velocity=64 time=96\n",
      "note_on channel=0 note=66 velocity=92 time=0\n",
      "note_on channel=0 note=74 velocity=92 time=0\n",
      "note_off channel=0 note=74 velocity=64 time=96\n",
      "note_off channel=0 note=66 velocity=64 time=0\n",
      "note_on channel=0 note=64 velocity=92 time=0\n",
      "note_on channel=0 note=72 velocity=92 time=0\n",
      "note_off channel=0 note=72 velocity=64 time=96\n",
      "note_off channel=0 note=64 velocity=64 time=0\n",
      "note_on channel=0 note=66 velocity=92 time=0\n",
      "note_on channel=0 note=74 velocity=92 time=0\n",
      "note_off channel=0 note=74 velocity=64 time=96\n",
      "note_off channel=0 note=66 velocity=64 time=0\n",
      "note_on channel=0 note=69 velocity=92 time=0\n",
      "note_on channel=0 note=62 velocity=92 time=0\n",
      "note_off channel=0 note=62 velocity=64 time=96\n",
      "note_off channel=0 note=69 velocity=64 time=0\n",
      "note_on channel=0 note=74 velocity=92 time=0\n",
      "note_on channel=0 note=66 velocity=92 time=0\n",
      "note_off channel=0 note=66 velocity=64 time=96\n",
      "note_off channel=0 note=74 velocity=64 time=0\n",
      "note_on channel=0 note=72 velocity=92 time=0\n",
      "note_on channel=0 note=64 velocity=92 time=0\n",
      "note_off channel=0 note=64 velocity=64 time=96\n",
      "note_off channel=0 note=72 velocity=64 time=0\n",
      "note_on channel=0 note=74 velocity=92 time=0\n",
      "note_on channel=0 note=66 velocity=92 time=0\n",
      "note_off channel=0 note=66 velocity=64 time=96\n",
      "note_off channel=0 note=74 velocity=64 time=0\n",
      "note_on channel=0 note=67 velocity=92 time=0\n",
      "note_on channel=0 note=71 velocity=92 time=0\n",
      "note_off channel=0 note=71 velocity=64 time=96\n",
      "note_off channel=0 note=67 velocity=64 time=0\n",
      "note_on channel=0 note=79 velocity=92 time=0\n",
      "note_off channel=0 note=79 velocity=64 time=96\n",
      "note_on channel=0 note=77 velocity=92 time=0\n",
      "note_off channel=0 note=77 velocity=64 time=96\n",
      "note_on channel=0 note=79 velocity=92 time=0\n",
      "note_off channel=0 note=79 velocity=64 time=96\n",
      "note_on channel=0 note=74 velocity=92 time=0\n",
      "note_off channel=0 note=74 velocity=64 time=96\n",
      "note_on channel=0 note=79 velocity=92 time=0\n",
      "note_off channel=0 note=79 velocity=64 time=96\n",
      "note_on channel=0 note=77 velocity=92 time=0\n",
      "note_off channel=0 note=77 velocity=64 time=96\n",
      "note_on channel=0 note=79 velocity=92 time=0\n",
      "note_off channel=0 note=79 velocity=64 time=96\n",
      "note_on channel=0 note=76 velocity=92 time=0\n",
      "note_off channel=0 note=76 velocity=64 time=96\n",
      "note_on channel=0 note=64 velocity=92 time=0\n",
      "note_on channel=0 note=72 velocity=92 time=0\n",
      "note_off channel=0 note=72 velocity=64 time=96\n",
      "note_off channel=0 note=64 velocity=64 time=0\n",
      "note_on channel=0 note=62 velocity=92 time=0\n",
      "note_on channel=0 note=71 velocity=92 time=0\n",
      "note_off channel=0 note=71 velocity=64 time=96\n",
      "note_off channel=0 note=62 velocity=64 time=0\n",
      "note_on channel=0 note=64 velocity=92 time=0\n",
      "note_on channel=0 note=72 velocity=92 time=0\n",
      "note_off channel=0 note=72 velocity=64 time=96\n",
      "note_off channel=0 note=64 velocity=64 time=0\n",
      "note_on channel=0 note=67 velocity=92 time=0\n",
      "note_on channel=0 note=60 velocity=92 time=0\n",
      "note_off channel=0 note=60 velocity=64 time=96\n",
      "note_off channel=0 note=67 velocity=64 time=0\n",
      "note_on channel=0 note=72 velocity=92 time=0\n",
      "note_on channel=0 note=64 velocity=92 time=0\n",
      "note_off channel=0 note=64 velocity=64 time=96\n",
      "note_off channel=0 note=72 velocity=64 time=0\n",
      "note_on channel=0 note=71 velocity=92 time=0\n",
      "note_on channel=0 note=62 velocity=92 time=0\n",
      "note_off channel=0 note=62 velocity=64 time=96\n",
      "note_off channel=0 note=71 velocity=64 time=0\n",
      "note_on channel=0 note=72 velocity=92 time=0\n",
      "note_on channel=0 note=64 velocity=92 time=0\n",
      "note_off channel=0 note=64 velocity=64 time=96\n",
      "note_off channel=0 note=72 velocity=64 time=0\n",
      "note_on channel=0 note=66 velocity=92 time=0\n",
      "note_on channel=0 note=69 velocity=92 time=0\n",
      "note_off channel=0 note=69 velocity=64 time=96\n",
      "note_off channel=0 note=66 velocity=64 time=0\n",
      "note_on channel=0 note=78 velocity=92 time=0\n",
      "note_off channel=0 note=78 velocity=64 time=96\n",
      "note_on channel=0 note=76 velocity=92 time=0\n",
      "note_off channel=0 note=76 velocity=64 time=96\n",
      "note_on channel=0 note=78 velocity=92 time=0\n",
      "note_off channel=0 note=78 velocity=64 time=96\n",
      "note_on channel=0 note=73 velocity=92 time=0\n",
      "note_off channel=0 note=73 velocity=64 time=96\n",
      "note_on channel=0 note=78 velocity=92 time=0\n",
      "note_off channel=0 note=78 velocity=64 time=96\n",
      "note_on channel=0 note=76 velocity=92 time=0\n",
      "note_off channel=0 note=76 velocity=64 time=96\n",
      "note_on channel=0 note=78 velocity=92 time=0\n",
      "note_off channel=0 note=78 velocity=64 time=96\n",
      "note_on channel=0 note=75 velocity=92 time=0\n",
      "note_off channel=0 note=75 velocity=64 time=96\n",
      "note_on channel=0 note=63 velocity=92 time=0\n",
      "note_on channel=0 note=71 velocity=92 time=0\n",
      "note_off channel=0 note=71 velocity=64 time=96\n",
      "note_off channel=0 note=63 velocity=64 time=0\n",
      "note_on channel=0 note=61 velocity=92 time=0\n",
      "note_on channel=0 note=69 velocity=92 time=0\n",
      "note_off channel=0 note=69 velocity=64 time=96\n",
      "note_off channel=0 note=61 velocity=64 time=0\n",
      "note_on channel=0 note=63 velocity=92 time=0\n",
      "note_on channel=0 note=71 velocity=92 time=0\n",
      "note_off channel=0 note=71 velocity=64 time=96\n",
      "note_off channel=0 note=63 velocity=64 time=0\n",
      "note_on channel=0 note=66 velocity=92 time=0\n",
      "note_on channel=0 note=59 velocity=92 time=0\n",
      "note_off channel=0 note=59 velocity=64 time=96\n",
      "note_off channel=0 note=66 velocity=64 time=0\n",
      "note_on channel=0 note=71 velocity=92 time=0\n",
      "note_on channel=0 note=63 velocity=92 time=0\n",
      "note_off channel=0 note=63 velocity=64 time=96\n",
      "note_off channel=0 note=71 velocity=64 time=0\n",
      "note_on channel=0 note=69 velocity=92 time=0\n",
      "note_on channel=0 note=61 velocity=92 time=0\n",
      "note_off channel=0 note=61 velocity=64 time=96\n",
      "note_off channel=0 note=69 velocity=64 time=0\n",
      "note_on channel=0 note=71 velocity=92 time=0\n",
      "note_on channel=0 note=63 velocity=92 time=0\n",
      "note_off channel=0 note=63 velocity=64 time=96\n",
      "note_off channel=0 note=71 velocity=64 time=0\n",
      "note_on channel=0 note=67 velocity=92 time=0\n",
      "note_on channel=0 note=64 velocity=92 time=0\n",
      "note_off channel=0 note=64 velocity=64 time=96\n",
      "note_off channel=0 note=67 velocity=64 time=0\n",
      "note_on channel=0 note=76 velocity=92 time=0\n",
      "note_off channel=0 note=76 velocity=64 time=96\n",
      "note_on channel=0 note=74 velocity=92 time=0\n",
      "note_off channel=0 note=74 velocity=64 time=96\n",
      "note_on channel=0 note=76 velocity=92 time=0\n",
      "note_off channel=0 note=76 velocity=64 time=96\n",
      "note_on channel=0 note=71 velocity=92 time=0\n",
      "note_off channel=0 note=71 velocity=64 time=96\n",
      "note_on channel=0 note=76 velocity=92 time=0\n",
      "note_off channel=0 note=76 velocity=64 time=96\n",
      "note_on channel=0 note=74 velocity=92 time=0\n",
      "note_off channel=0 note=74 velocity=64 time=96\n",
      "note_on channel=0 note=76 velocity=92 time=0\n",
      "note_off channel=0 note=76 velocity=64 time=96\n",
      "note_on channel=0 note=72 velocity=92 time=0\n",
      "note_off channel=0 note=72 velocity=64 time=192\n",
      "note_on channel=0 note=76 velocity=92 time=0\n",
      "note_on channel=0 note=72 velocity=92 time=0\n",
      "note_on channel=0 note=69 velocity=92 time=0\n",
      "note_off channel=0 note=69 velocity=64 time=192\n",
      "note_off channel=0 note=72 velocity=64 time=0\n",
      "note_on channel=0 note=69 velocity=92 time=0\n",
      "note_on channel=0 note=71 velocity=92 time=0\n",
      "note_off channel=0 note=76 velocity=64 time=192\n",
      "note_on channel=0 note=75 velocity=92 time=0\n",
      "note_off channel=0 note=75 velocity=64 time=192\n",
      "note_off channel=0 note=71 velocity=64 time=0\n",
      "note_off channel=0 note=69 velocity=64 time=0\n",
      "note_on channel=0 note=67 velocity=92 time=0\n",
      "note_on channel=0 note=71 velocity=92 time=0\n",
      "note_on channel=0 note=76 velocity=92 time=0\n",
      "note_off channel=0 note=76 velocity=64 time=192\n",
      "note_off channel=0 note=71 velocity=64 time=0\n",
      "note_off channel=0 note=67 velocity=64 time=0\n",
      "note_on channel=0 note=79 velocity=92 time=0\n",
      "note_off channel=0 note=79 velocity=64 time=96\n",
      "note_on channel=0 note=78 velocity=92 time=0\n",
      "note_off channel=0 note=78 velocity=64 time=96\n",
      "note_on channel=0 note=76 velocity=92 time=0\n",
      "note_off channel=0 note=76 velocity=64 time=192\n",
      "note_on channel=0 note=71 velocity=92 time=0\n",
      "note_on channel=0 note=79 velocity=92 time=0\n",
      "note_on channel=0 note=76 velocity=92 time=0\n",
      "note_off channel=0 note=76 velocity=64 time=192\n",
      "note_off channel=0 note=79 velocity=64 time=0\n",
      "note_off channel=0 note=71 velocity=64 time=0\n",
      "note_on channel=0 note=78 velocity=92 time=0\n",
      "note_on channel=0 note=71 velocity=92 time=0\n",
      "note_on channel=0 note=75 velocity=92 time=0\n",
      "note_off channel=0 note=78 velocity=64 time=192\n",
      "note_on channel=0 note=83 velocity=92 time=0\n",
      "note_off channel=0 note=83 velocity=64 time=192\n",
      "note_off channel=0 note=75 velocity=64 time=0\n",
      "note_off channel=0 note=71 velocity=64 time=0\n",
      "note_on channel=0 note=71 velocity=92 time=0\n",
      "note_off channel=0 note=71 velocity=64 time=192\n",
      "note_on channel=0 note=83 velocity=92 time=0\n",
      "note_on channel=0 note=78 velocity=92 time=0\n",
      "note_on channel=0 note=71 velocity=92 time=0\n",
      "note_off channel=0 note=71 velocity=64 time=192\n",
      "note_off channel=0 note=78 velocity=64 time=0\n",
      "note_off channel=0 note=83 velocity=64 time=0\n",
      "note_on channel=0 note=79 velocity=92 time=0\n",
      "note_on channel=0 note=71 velocity=92 time=0\n",
      "note_on channel=0 note=76 velocity=92 time=0\n",
      "note_off channel=0 note=79 velocity=64 time=192\n",
      "note_on channel=0 note=79 velocity=92 time=0\n",
      "note_off channel=0 note=79 velocity=64 time=96\n",
      "note_on channel=0 note=81 velocity=92 time=0\n",
      "note_off channel=0 note=81 velocity=64 time=96\n",
      "note_off channel=0 note=76 velocity=64 time=0\n",
      "note_off channel=0 note=71 velocity=64 time=0\n",
      "note_on channel=0 note=83 velocity=92 time=0\n",
      "note_off channel=0 note=83 velocity=64 time=192\n",
      "note_on channel=0 note=81 velocity=92 time=0\n",
      "note_on channel=0 note=71 velocity=92 time=0\n",
      "note_on channel=0 note=76 velocity=92 time=0\n",
      "note_off channel=0 note=81 velocity=64 time=96\n",
      "note_on channel=0 note=79 velocity=92 time=0\n",
      "note_off channel=0 note=79 velocity=64 time=96\n",
      "note_off channel=0 note=76 velocity=64 time=0\n",
      "note_off channel=0 note=71 velocity=64 time=0\n",
      "note_on channel=0 note=75 velocity=92 time=0\n",
      "note_on channel=0 note=78 velocity=92 time=0\n",
      "note_off channel=0 note=78 velocity=64 time=384\n",
      "note_off channel=0 note=75 velocity=64 time=0\n",
      "note_on channel=0 note=74 velocity=92 time=384\n",
      "note_off channel=0 note=74 velocity=64 time=192\n",
      "note_on channel=0 note=77 velocity=92 time=0\n",
      "note_off channel=0 note=77 velocity=64 time=96\n",
      "note_on channel=0 note=76 velocity=92 time=0\n",
      "note_off channel=0 note=76 velocity=64 time=96\n",
      "note_on channel=0 note=74 velocity=92 time=0\n",
      "note_off channel=0 note=74 velocity=64 time=192\n",
      "note_on channel=0 note=77 velocity=92 time=0\n",
      "note_on channel=0 note=74 velocity=92 time=0\n",
      "note_off channel=0 note=74 velocity=64 time=192\n",
      "note_off channel=0 note=77 velocity=64 time=0\n",
      "note_on channel=0 note=76 velocity=92 time=0\n",
      "note_on channel=0 note=73 velocity=92 time=0\n",
      "note_off channel=0 note=76 velocity=64 time=192\n",
      "note_on channel=0 note=81 velocity=92 time=0\n",
      "note_off channel=0 note=81 velocity=64 time=192\n",
      "note_off channel=0 note=73 velocity=64 time=0\n",
      "note_on channel=0 note=69 velocity=92 time=0\n",
      "note_off channel=0 note=69 velocity=64 time=192\n",
      "note_on channel=0 note=81 velocity=92 time=0\n",
      "note_on channel=0 note=76 velocity=92 time=0\n",
      "note_on channel=0 note=69 velocity=92 time=0\n",
      "note_off channel=0 note=69 velocity=64 time=192\n",
      "note_off channel=0 note=76 velocity=64 time=0\n",
      "note_off channel=0 note=81 velocity=64 time=0\n",
      "note_on channel=0 note=77 velocity=92 time=0\n",
      "note_on channel=0 note=74 velocity=92 time=0\n",
      "note_on channel=0 note=69 velocity=92 time=0\n",
      "note_off channel=0 note=77 velocity=64 time=192\n",
      "note_on channel=0 note=77 velocity=92 time=0\n",
      "note_off channel=0 note=77 velocity=64 time=96\n",
      "note_on channel=0 note=79 velocity=92 time=0\n",
      "note_off channel=0 note=79 velocity=64 time=96\n",
      "note_off channel=0 note=69 velocity=64 time=0\n",
      "note_off channel=0 note=74 velocity=64 time=0\n",
      "note_on channel=0 note=81 velocity=92 time=0\n",
      "note_off channel=0 note=81 velocity=64 time=192\n",
      "note_on channel=0 note=79 velocity=92 time=0\n",
      "note_on channel=0 note=69 velocity=92 time=0\n",
      "note_on channel=0 note=74 velocity=92 time=0\n",
      "note_off channel=0 note=79 velocity=64 time=96\n",
      "note_on channel=0 note=77 velocity=92 time=0\n",
      "note_off channel=0 note=77 velocity=64 time=96\n",
      "note_off channel=0 note=74 velocity=64 time=0\n",
      "note_off channel=0 note=69 velocity=64 time=0\n",
      "note_on channel=0 note=69 velocity=92 time=0\n",
      "note_on channel=0 note=73 velocity=92 time=0\n",
      "note_on channel=0 note=76 velocity=92 time=0\n",
      "note_off channel=0 note=76 velocity=64 time=384\n",
      "note_off channel=0 note=73 velocity=64 time=0\n",
      "note_off channel=0 note=69 velocity=64 time=0\n",
      "note_on channel=0 note=69 velocity=92 time=0\n",
      "note_off channel=0 note=69 velocity=64 time=192\n",
      "note_on channel=0 note=81 velocity=92 time=0\n",
      "note_on channel=0 note=76 velocity=92 time=0\n",
      "note_on channel=0 note=69 velocity=92 time=0\n",
      "note_off channel=0 note=69 velocity=64 time=192\n",
      "note_off channel=0 note=76 velocity=64 time=0\n",
      "note_off channel=0 note=81 velocity=64 time=0\n",
      "note_on channel=0 note=69 velocity=92 time=0\n",
      "note_on channel=0 note=74 velocity=92 time=0\n",
      "note_on channel=0 note=77 velocity=92 time=0\n",
      "note_off channel=0 note=77 velocity=64 time=96\n",
      "note_off channel=0 note=74 velocity=64 time=0\n",
      "note_off channel=0 note=69 velocity=64 time=0\n",
      "note_on channel=0 note=65 velocity=92 time=0\n",
      "note_on channel=0 note=74 velocity=92 time=0\n",
      "note_off channel=0 note=74 velocity=64 time=96\n",
      "note_off channel=0 note=65 velocity=64 time=0\n",
      "note_on channel=0 note=64 velocity=92 time=0\n",
      "note_on channel=0 note=72 velocity=92 time=0\n",
      "note_off channel=0 note=72 velocity=64 time=96\n",
      "note_off channel=0 note=64 velocity=64 time=0\n",
      "note_on channel=0 note=65 velocity=92 time=0\n",
      "note_on channel=0 note=74 velocity=92 time=0\n",
      "note_off channel=0 note=74 velocity=64 time=96\n",
      "note_off channel=0 note=65 velocity=64 time=0\n",
      "note_on channel=0 note=62 velocity=92 time=0\n",
      "note_on channel=0 note=69 velocity=92 time=0\n",
      "note_off channel=0 note=69 velocity=64 time=96\n",
      "note_off channel=0 note=62 velocity=64 time=0\n",
      "note_on channel=0 note=65 velocity=92 time=0\n",
      "note_on channel=0 note=74 velocity=92 time=0\n",
      "note_off channel=0 note=74 velocity=64 time=96\n",
      "note_off channel=0 note=65 velocity=64 time=0\n",
      "note_on channel=0 note=64 velocity=92 time=0\n",
      "note_on channel=0 note=72 velocity=92 time=0\n",
      "note_off channel=0 note=72 velocity=64 time=96\n",
      "note_off channel=0 note=64 velocity=64 time=0\n",
      "note_on channel=0 note=65 velocity=92 time=0\n",
      "note_on channel=0 note=74 velocity=92 time=0\n",
      "note_off channel=0 note=74 velocity=64 time=96\n",
      "note_off channel=0 note=65 velocity=64 time=0\n",
      "note_on channel=0 note=67 velocity=92 time=0\n",
      "note_on channel=0 note=70 velocity=92 time=0\n",
      "note_off channel=0 note=70 velocity=64 time=96\n",
      "note_off channel=0 note=67 velocity=64 time=0\n",
      "note_on channel=0 note=79 velocity=92 time=0\n",
      "note_off channel=0 note=79 velocity=64 time=96\n",
      "note_on channel=0 note=77 velocity=92 time=0\n",
      "note_off channel=0 note=77 velocity=64 time=96\n",
      "note_on channel=0 note=79 velocity=92 time=0\n",
      "note_off channel=0 note=79 velocity=64 time=96\n",
      "note_on channel=0 note=74 velocity=92 time=0\n",
      "note_off channel=0 note=74 velocity=64 time=96\n",
      "note_on channel=0 note=79 velocity=92 time=0\n",
      "note_off channel=0 note=79 velocity=64 time=96\n",
      "note_on channel=0 note=77 velocity=92 time=0\n",
      "note_off channel=0 note=77 velocity=64 time=96\n",
      "note_on channel=0 note=79 velocity=92 time=0\n",
      "note_off channel=0 note=79 velocity=64 time=96\n",
      "note_on channel=0 note=76 velocity=92 time=0\n",
      "note_off channel=0 note=76 velocity=64 time=96\n",
      "note_on channel=0 note=64 velocity=92 time=0\n",
      "note_on channel=0 note=72 velocity=92 time=0\n",
      "note_off channel=0 note=72 velocity=64 time=96\n",
      "note_off channel=0 note=64 velocity=64 time=0\n",
      "note_on channel=0 note=62 velocity=92 time=0\n",
      "note_on channel=0 note=70 velocity=92 time=0\n",
      "note_off channel=0 note=70 velocity=64 time=96\n",
      "note_off channel=0 note=62 velocity=64 time=0\n",
      "note_on channel=0 note=64 velocity=92 time=0\n",
      "note_on channel=0 note=72 velocity=92 time=0\n",
      "note_off channel=0 note=72 velocity=64 time=96\n",
      "note_off channel=0 note=64 velocity=64 time=0\n",
      "note_on channel=0 note=60 velocity=92 time=0\n",
      "note_on channel=0 note=67 velocity=92 time=0\n",
      "note_off channel=0 note=67 velocity=64 time=96\n",
      "note_off channel=0 note=60 velocity=64 time=0\n",
      "note_on channel=0 note=64 velocity=92 time=0\n",
      "note_on channel=0 note=72 velocity=92 time=0\n",
      "note_off channel=0 note=72 velocity=64 time=96\n",
      "note_off channel=0 note=64 velocity=64 time=0\n",
      "note_on channel=0 note=62 velocity=92 time=0\n",
      "note_on channel=0 note=70 velocity=92 time=0\n",
      "note_off channel=0 note=70 velocity=64 time=96\n",
      "note_off channel=0 note=62 velocity=64 time=0\n",
      "note_on channel=0 note=64 velocity=92 time=0\n",
      "note_on channel=0 note=72 velocity=92 time=0\n",
      "note_off channel=0 note=72 velocity=64 time=96\n",
      "note_off channel=0 note=64 velocity=64 time=0\n",
      "note_on channel=0 note=65 velocity=92 time=0\n",
      "note_on channel=0 note=69 velocity=92 time=0\n",
      "note_off channel=0 note=69 velocity=64 time=96\n",
      "note_off channel=0 note=65 velocity=64 time=0\n",
      "note_on channel=0 note=77 velocity=92 time=0\n",
      "note_off channel=0 note=77 velocity=64 time=96\n",
      "note_on channel=0 note=76 velocity=92 time=0\n",
      "note_off channel=0 note=76 velocity=64 time=96\n",
      "note_on channel=0 note=77 velocity=92 time=0\n",
      "note_off channel=0 note=77 velocity=64 time=96\n",
      "note_on channel=0 note=72 velocity=92 time=0\n",
      "note_off channel=0 note=72 velocity=64 time=96\n",
      "note_on channel=0 note=77 velocity=92 time=0\n",
      "note_off channel=0 note=77 velocity=64 time=96\n",
      "note_on channel=0 note=76 velocity=92 time=0\n",
      "note_off channel=0 note=76 velocity=64 time=96\n",
      "note_on channel=0 note=77 velocity=92 time=0\n",
      "note_off channel=0 note=77 velocity=64 time=96\n",
      "note_on channel=0 note=74 velocity=92 time=0\n",
      "note_off channel=0 note=74 velocity=64 time=96\n",
      "note_on channel=0 note=62 velocity=92 time=0\n",
      "note_on channel=0 note=70 velocity=92 time=0\n",
      "note_off channel=0 note=70 velocity=64 time=96\n",
      "note_off channel=0 note=62 velocity=64 time=0\n",
      "note_on channel=0 note=60 velocity=92 time=0\n",
      "note_on channel=0 note=69 velocity=92 time=0\n",
      "note_off channel=0 note=69 velocity=64 time=96\n",
      "note_off channel=0 note=60 velocity=64 time=0\n",
      "note_on channel=0 note=62 velocity=92 time=0\n",
      "note_on channel=0 note=70 velocity=92 time=0\n",
      "note_off channel=0 note=70 velocity=64 time=96\n",
      "note_off channel=0 note=62 velocity=64 time=0\n",
      "note_on channel=0 note=58 velocity=92 time=0\n",
      "note_on channel=0 note=65 velocity=92 time=0\n",
      "note_off channel=0 note=65 velocity=64 time=96\n",
      "note_off channel=0 note=58 velocity=64 time=0\n",
      "note_on channel=0 note=62 velocity=92 time=0\n",
      "note_on channel=0 note=70 velocity=92 time=0\n",
      "note_off channel=0 note=70 velocity=64 time=96\n",
      "note_off channel=0 note=62 velocity=64 time=0\n",
      "note_on channel=0 note=60 velocity=92 time=0\n",
      "note_on channel=0 note=69 velocity=92 time=0\n",
      "note_off channel=0 note=69 velocity=64 time=96\n",
      "note_off channel=0 note=60 velocity=64 time=0\n",
      "note_on channel=0 note=62 velocity=92 time=0\n",
      "note_on channel=0 note=70 velocity=92 time=0\n",
      "note_off channel=0 note=70 velocity=64 time=96\n",
      "note_off channel=0 note=62 velocity=64 time=0\n",
      "note_on channel=0 note=64 velocity=92 time=0\n",
      "note_on channel=0 note=67 velocity=92 time=0\n",
      "note_off channel=0 note=67 velocity=64 time=96\n",
      "note_off channel=0 note=64 velocity=64 time=0\n",
      "note_on channel=0 note=76 velocity=92 time=0\n",
      "note_off channel=0 note=76 velocity=64 time=96\n",
      "note_on channel=0 note=74 velocity=92 time=0\n",
      "note_off channel=0 note=74 velocity=64 time=96\n",
      "note_on channel=0 note=76 velocity=92 time=0\n",
      "note_off channel=0 note=76 velocity=64 time=96\n",
      "note_on channel=0 note=71 velocity=92 time=0\n",
      "note_off channel=0 note=71 velocity=64 time=96\n",
      "note_on channel=0 note=76 velocity=92 time=0\n",
      "note_off channel=0 note=76 velocity=64 time=96\n",
      "note_on channel=0 note=74 velocity=92 time=0\n",
      "note_off channel=0 note=74 velocity=64 time=96\n",
      "note_on channel=0 note=76 velocity=92 time=0\n",
      "note_off channel=0 note=76 velocity=64 time=96\n",
      "note_on channel=0 note=73 velocity=92 time=0\n",
      "note_off channel=0 note=73 velocity=64 time=96\n",
      "note_on channel=0 note=69 velocity=92 time=0\n",
      "note_off channel=0 note=69 velocity=64 time=96\n",
      "note_on channel=0 note=67 velocity=92 time=0\n",
      "note_off channel=0 note=67 velocity=64 time=96\n",
      "note_on channel=0 note=69 velocity=92 time=0\n",
      "note_off channel=0 note=69 velocity=64 time=96\n",
      "note_on channel=0 note=64 velocity=92 time=0\n",
      "note_off channel=0 note=64 velocity=64 time=96\n",
      "note_on channel=0 note=69 velocity=92 time=0\n",
      "note_off channel=0 note=69 velocity=64 time=96\n",
      "note_on channel=0 note=67 velocity=92 time=0\n",
      "note_off channel=0 note=67 velocity=64 time=96\n",
      "note_on channel=0 note=69 velocity=92 time=0\n",
      "note_off channel=0 note=69 velocity=64 time=96\n",
      "note_on channel=0 note=65 velocity=92 time=0\n",
      "note_off channel=0 note=65 velocity=64 time=96\n",
      "note_on channel=0 note=74 velocity=92 time=0\n",
      "note_off channel=0 note=74 velocity=64 time=96\n",
      "note_on channel=0 note=72 velocity=92 time=0\n",
      "note_off channel=0 note=72 velocity=64 time=96\n",
      "note_on channel=0 note=74 velocity=92 time=0\n",
      "note_off channel=0 note=74 velocity=64 time=96\n",
      "note_on channel=0 note=69 velocity=92 time=0\n",
      "note_off channel=0 note=69 velocity=64 time=96\n",
      "note_on channel=0 note=74 velocity=92 time=0\n",
      "note_off channel=0 note=74 velocity=64 time=96\n",
      "note_on channel=0 note=72 velocity=92 time=0\n",
      "note_off channel=0 note=72 velocity=64 time=96\n",
      "note_on channel=0 note=74 velocity=92 time=0\n",
      "note_off channel=0 note=74 velocity=64 time=96\n",
      "note_on channel=0 note=70 velocity=92 time=0\n",
      "note_off channel=0 note=70 velocity=64 time=96\n",
      "note_on channel=0 note=69 velocity=92 time=0\n",
      "note_off channel=0 note=69 velocity=64 time=96\n",
      "note_on channel=0 note=67 velocity=92 time=0\n",
      "note_off channel=0 note=67 velocity=64 time=96\n",
      "note_on channel=0 note=65 velocity=92 time=0\n",
      "note_off channel=0 note=65 velocity=64 time=96\n",
      "note_on channel=0 note=64 velocity=92 time=0\n",
      "note_off channel=0 note=64 velocity=64 time=96\n",
      "note_on channel=0 note=62 velocity=92 time=0\n",
      "note_off channel=0 note=62 velocity=64 time=96\n",
      "note_on channel=0 note=73 velocity=92 time=288\n",
      "note_off channel=0 note=73 velocity=64 time=96\n",
      "note_on channel=0 note=71 velocity=92 time=0\n",
      "note_off channel=0 note=71 velocity=64 time=96\n",
      "note_on channel=0 note=73 velocity=92 time=0\n",
      "note_off channel=0 note=73 velocity=64 time=96\n",
      "note_on channel=0 note=69 velocity=92 time=0\n",
      "note_off channel=0 note=69 velocity=64 time=96\n",
      "note_on channel=0 note=73 velocity=92 time=0\n",
      "note_off channel=0 note=73 velocity=64 time=96\n",
      "note_on channel=0 note=71 velocity=92 time=0\n",
      "note_off channel=0 note=71 velocity=64 time=96\n",
      "note_on channel=0 note=73 velocity=92 time=0\n",
      "note_off channel=0 note=73 velocity=64 time=96\n",
      "note_on channel=0 note=74 velocity=92 time=0\n",
      "note_off channel=0 note=74 velocity=64 time=96\n",
      "note_on channel=0 note=67 velocity=92 time=0\n",
      "note_off channel=0 note=67 velocity=64 time=96\n",
      "note_on channel=0 note=65 velocity=92 time=0\n",
      "note_off channel=0 note=65 velocity=64 time=96\n",
      "note_on channel=0 note=64 velocity=92 time=0\n",
      "note_off channel=0 note=64 velocity=64 time=96\n",
      "note_on channel=0 note=62 velocity=92 time=0\n",
      "note_off channel=0 note=62 velocity=64 time=96\n",
      "note_on channel=0 note=60 velocity=92 time=0\n",
      "note_off channel=0 note=60 velocity=64 time=96\n",
      "note_on channel=0 note=82 velocity=92 time=288\n",
      "note_off channel=0 note=82 velocity=64 time=96\n",
      "note_on channel=0 note=81 velocity=92 time=0\n",
      "note_off channel=0 note=81 velocity=64 time=96\n",
      "note_on channel=0 note=82 velocity=92 time=0\n",
      "note_off channel=0 note=82 velocity=64 time=96\n",
      "note_on channel=0 note=79 velocity=92 time=0\n",
      "note_off channel=0 note=79 velocity=64 time=96\n",
      "note_on channel=0 note=82 velocity=92 time=0\n",
      "note_off channel=0 note=82 velocity=64 time=96\n",
      "note_on channel=0 note=81 velocity=92 time=0\n",
      "note_off channel=0 note=81 velocity=64 time=96\n",
      "note_on channel=0 note=82 velocity=92 time=0\n",
      "note_off channel=0 note=82 velocity=64 time=96\n",
      "note_on channel=0 note=76 velocity=92 time=0\n",
      "note_off channel=0 note=76 velocity=64 time=96\n",
      "note_on channel=0 note=70 velocity=92 time=0\n",
      "note_on channel=0 note=79 velocity=92 time=0\n",
      "note_off channel=0 note=79 velocity=64 time=96\n",
      "note_off channel=0 note=70 velocity=64 time=0\n",
      "note_on channel=0 note=69 velocity=92 time=0\n",
      "note_on channel=0 note=77 velocity=92 time=0\n",
      "note_off channel=0 note=77 velocity=64 time=96\n",
      "note_off channel=0 note=69 velocity=64 time=0\n",
      "note_on channel=0 note=70 velocity=92 time=0\n",
      "note_on channel=0 note=79 velocity=92 time=0\n",
      "note_off channel=0 note=79 velocity=64 time=96\n",
      "note_off channel=0 note=70 velocity=64 time=0\n",
      "note_on channel=0 note=67 velocity=92 time=0\n",
      "note_on channel=0 note=76 velocity=92 time=0\n",
      "note_off channel=0 note=76 velocity=64 time=96\n",
      "note_off channel=0 note=67 velocity=64 time=0\n",
      "note_on channel=0 note=70 velocity=92 time=0\n",
      "note_on channel=0 note=79 velocity=92 time=0\n",
      "note_off channel=0 note=79 velocity=64 time=96\n",
      "note_off channel=0 note=70 velocity=64 time=0\n",
      "note_on channel=0 note=69 velocity=92 time=0\n",
      "note_on channel=0 note=77 velocity=92 time=0\n",
      "note_off channel=0 note=77 velocity=64 time=96\n",
      "note_off channel=0 note=69 velocity=64 time=0\n",
      "note_on channel=0 note=70 velocity=92 time=0\n",
      "note_on channel=0 note=79 velocity=92 time=0\n",
      "note_off channel=0 note=79 velocity=64 time=96\n",
      "note_off channel=0 note=70 velocity=64 time=0\n",
      "note_on channel=0 note=64 velocity=92 time=0\n",
      "note_on channel=0 note=73 velocity=92 time=0\n",
      "note_off channel=0 note=73 velocity=64 time=96\n",
      "note_off channel=0 note=64 velocity=64 time=0\n",
      "note_on channel=0 note=67 velocity=92 time=0\n",
      "note_on channel=0 note=76 velocity=92 time=0\n",
      "note_off channel=0 note=76 velocity=64 time=96\n",
      "note_off channel=0 note=67 velocity=64 time=0\n",
      "note_on channel=0 note=65 velocity=92 time=0\n",
      "note_on channel=0 note=74 velocity=92 time=0\n",
      "note_off channel=0 note=74 velocity=64 time=96\n",
      "note_off channel=0 note=65 velocity=64 time=0\n",
      "note_on channel=0 note=67 velocity=92 time=0\n",
      "note_on channel=0 note=76 velocity=92 time=0\n",
      "note_off channel=0 note=76 velocity=64 time=96\n",
      "note_off channel=0 note=67 velocity=64 time=0\n",
      "note_on channel=0 note=64 velocity=92 time=0\n",
      "note_on channel=0 note=73 velocity=92 time=0\n",
      "note_off channel=0 note=73 velocity=64 time=96\n",
      "note_off channel=0 note=64 velocity=64 time=0\n",
      "note_on channel=0 note=67 velocity=92 time=0\n",
      "note_on channel=0 note=76 velocity=92 time=0\n",
      "note_off channel=0 note=76 velocity=64 time=96\n",
      "note_off channel=0 note=67 velocity=64 time=0\n",
      "note_on channel=0 note=65 velocity=92 time=0\n",
      "note_on channel=0 note=74 velocity=92 time=0\n",
      "note_off channel=0 note=74 velocity=64 time=96\n",
      "note_off channel=0 note=65 velocity=64 time=0\n",
      "note_on channel=0 note=67 velocity=92 time=0\n",
      "note_on channel=0 note=76 velocity=92 time=0\n",
      "note_off channel=0 note=76 velocity=64 time=96\n",
      "note_off channel=0 note=67 velocity=64 time=0\n",
      "note_on channel=0 note=69 velocity=92 time=0\n",
      "note_on channel=0 note=61 velocity=92 time=0\n",
      "note_off channel=0 note=61 velocity=64 time=96\n",
      "note_off channel=0 note=69 velocity=64 time=0\n",
      "note_on channel=0 note=71 velocity=92 time=0\n",
      "note_on channel=0 note=62 velocity=92 time=0\n",
      "note_off channel=0 note=62 velocity=64 time=96\n",
      "note_off channel=0 note=71 velocity=64 time=0\n",
      "note_on channel=0 note=69 velocity=92 time=0\n",
      "note_on channel=0 note=61 velocity=92 time=0\n",
      "note_off channel=0 note=61 velocity=64 time=96\n",
      "note_off channel=0 note=69 velocity=64 time=0\n",
      "note_on channel=0 note=71 velocity=92 time=0\n",
      "note_on channel=0 note=62 velocity=92 time=0\n",
      "note_off channel=0 note=62 velocity=64 time=96\n",
      "note_off channel=0 note=71 velocity=64 time=0\n",
      "note_on channel=0 note=73 velocity=92 time=0\n",
      "note_on channel=0 note=64 velocity=92 time=0\n",
      "note_off channel=0 note=64 velocity=64 time=96\n",
      "note_off channel=0 note=73 velocity=64 time=0\n",
      "note_on channel=0 note=74 velocity=92 time=0\n",
      "note_on channel=0 note=65 velocity=92 time=0\n",
      "note_off channel=0 note=65 velocity=64 time=96\n",
      "note_off channel=0 note=74 velocity=64 time=0\n",
      "note_on channel=0 note=73 velocity=92 time=0\n",
      "note_on channel=0 note=64 velocity=92 time=0\n",
      "note_off channel=0 note=64 velocity=64 time=96\n",
      "note_off channel=0 note=73 velocity=64 time=0\n",
      "note_on channel=0 note=74 velocity=92 time=0\n",
      "note_on channel=0 note=65 velocity=92 time=0\n",
      "note_off channel=0 note=65 velocity=64 time=96\n",
      "note_off channel=0 note=74 velocity=64 time=0\n",
      "note_on channel=0 note=74 velocity=92 time=0\n",
      "note_on channel=0 note=67 velocity=92 time=0\n",
      "note_off channel=0 note=74 velocity=64 time=48\n",
      "note_on channel=0 note=73 velocity=92 time=0\n",
      "note_off channel=0 note=73 velocity=64 time=48\n",
      "note_off channel=0 note=67 velocity=64 time=0\n",
      "note_on channel=0 note=74 velocity=92 time=0\n",
      "note_on channel=0 note=70 velocity=92 time=0\n",
      "note_off channel=0 note=74 velocity=64 time=48\n",
      "note_on channel=0 note=73 velocity=92 time=0\n",
      "note_off channel=0 note=73 velocity=64 time=48\n",
      "note_off channel=0 note=70 velocity=64 time=0\n",
      "note_on channel=0 note=74 velocity=92 time=0\n",
      "note_on channel=0 note=69 velocity=92 time=0\n",
      "note_off channel=0 note=74 velocity=64 time=48\n",
      "note_on channel=0 note=73 velocity=92 time=0\n",
      "note_off channel=0 note=73 velocity=64 time=48\n",
      "note_off channel=0 note=69 velocity=64 time=0\n",
      "note_on channel=0 note=74 velocity=92 time=0\n",
      "note_on channel=0 note=70 velocity=92 time=0\n",
      "note_off channel=0 note=74 velocity=64 time=48\n",
      "note_on channel=0 note=73 velocity=92 time=0\n",
      "note_off channel=0 note=73 velocity=64 time=48\n",
      "note_off channel=0 note=70 velocity=64 time=0\n",
      "note_on channel=0 note=74 velocity=92 time=0\n",
      "note_on channel=0 note=64 velocity=92 time=0\n",
      "note_off channel=0 note=74 velocity=64 time=48\n",
      "note_on channel=0 note=73 velocity=92 time=0\n",
      "note_off channel=0 note=73 velocity=64 time=48\n",
      "note_off channel=0 note=64 velocity=64 time=0\n",
      "note_on channel=0 note=74 velocity=92 time=0\n",
      "note_on channel=0 note=65 velocity=92 time=0\n",
      "note_off channel=0 note=74 velocity=64 time=48\n",
      "note_on channel=0 note=73 velocity=92 time=0\n",
      "note_off channel=0 note=73 velocity=64 time=48\n",
      "note_off channel=0 note=65 velocity=64 time=0\n",
      "note_on channel=0 note=74 velocity=92 time=0\n",
      "note_on channel=0 note=64 velocity=92 time=0\n",
      "note_off channel=0 note=74 velocity=64 time=48\n",
      "note_on channel=0 note=73 velocity=92 time=0\n",
      "note_off channel=0 note=73 velocity=64 time=48\n",
      "note_off channel=0 note=64 velocity=64 time=0\n",
      "note_on channel=0 note=74 velocity=92 time=0\n",
      "note_on channel=0 note=65 velocity=92 time=0\n",
      "note_off channel=0 note=74 velocity=64 time=48\n",
      "note_on channel=0 note=73 velocity=92 time=0\n",
      "note_off channel=0 note=73 velocity=64 time=48\n",
      "note_off channel=0 note=65 velocity=64 time=0\n",
      "note_on channel=0 note=74 velocity=92 time=0\n",
      "note_on channel=0 note=67 velocity=92 time=0\n",
      "note_off channel=0 note=74 velocity=64 time=48\n",
      "note_on channel=0 note=73 velocity=92 time=0\n",
      "note_off channel=0 note=73 velocity=64 time=48\n",
      "note_off channel=0 note=67 velocity=64 time=0\n",
      "note_on channel=0 note=74 velocity=92 time=0\n",
      "note_on channel=0 note=70 velocity=92 time=0\n",
      "note_off channel=0 note=74 velocity=64 time=48\n",
      "note_on channel=0 note=73 velocity=92 time=0\n",
      "note_off channel=0 note=73 velocity=64 time=48\n",
      "note_off channel=0 note=70 velocity=64 time=0\n",
      "note_on channel=0 note=74 velocity=92 time=0\n",
      "note_on channel=0 note=69 velocity=92 time=0\n",
      "note_off channel=0 note=74 velocity=64 time=48\n",
      "note_on channel=0 note=73 velocity=92 time=0\n",
      "note_off channel=0 note=73 velocity=64 time=48\n",
      "note_off channel=0 note=69 velocity=64 time=0\n",
      "note_on channel=0 note=74 velocity=92 time=0\n",
      "note_on channel=0 note=70 velocity=92 time=0\n",
      "note_off channel=0 note=74 velocity=64 time=48\n",
      "note_on channel=0 note=73 velocity=92 time=0\n",
      "note_off channel=0 note=73 velocity=64 time=48\n",
      "note_off channel=0 note=70 velocity=64 time=0\n",
      "note_on channel=0 note=74 velocity=92 time=0\n",
      "note_on channel=0 note=64 velocity=92 time=0\n",
      "note_off channel=0 note=74 velocity=64 time=48\n",
      "note_on channel=0 note=73 velocity=92 time=0\n",
      "note_off channel=0 note=73 velocity=64 time=48\n",
      "note_off channel=0 note=64 velocity=64 time=0\n",
      "note_on channel=0 note=74 velocity=92 time=0\n",
      "note_on channel=0 note=65 velocity=92 time=0\n",
      "note_off channel=0 note=74 velocity=64 time=48\n",
      "note_on channel=0 note=73 velocity=92 time=0\n",
      "note_off channel=0 note=73 velocity=64 time=48\n",
      "note_off channel=0 note=65 velocity=64 time=0\n",
      "note_on channel=0 note=74 velocity=92 time=0\n",
      "note_on channel=0 note=64 velocity=92 time=0\n",
      "note_off channel=0 note=74 velocity=64 time=48\n",
      "note_on channel=0 note=73 velocity=92 time=0\n",
      "note_off channel=0 note=73 velocity=64 time=48\n",
      "note_off channel=0 note=64 velocity=64 time=0\n",
      "note_on channel=0 note=74 velocity=92 time=0\n",
      "note_on channel=0 note=65 velocity=92 time=0\n",
      "note_off channel=0 note=74 velocity=64 time=48\n",
      "note_on channel=0 note=73 velocity=92 time=0\n",
      "note_off channel=0 note=73 velocity=64 time=48\n",
      "note_off channel=0 note=65 velocity=64 time=0\n",
      "note_on channel=0 note=67 velocity=92 time=0\n",
      "note_on channel=0 note=74 velocity=92 time=0\n",
      "note_off channel=0 note=74 velocity=64 time=48\n",
      "note_on channel=0 note=73 velocity=92 time=0\n",
      "note_off channel=0 note=73 velocity=64 time=48\n",
      "note_on channel=0 note=76 velocity=92 time=0\n",
      "note_off channel=0 note=76 velocity=64 time=96\n",
      "note_on channel=0 note=73 velocity=92 time=0\n",
      "note_off channel=0 note=73 velocity=64 time=96\n",
      "note_on channel=0 note=76 velocity=92 time=0\n",
      "note_off channel=0 note=76 velocity=64 time=96\n",
      "note_off channel=0 note=67 velocity=64 time=0\n",
      "note_on channel=0 note=69 velocity=92 time=0\n",
      "note_off channel=0 note=69 velocity=64 time=96\n",
      "note_on channel=0 note=76 velocity=92 time=0\n",
      "note_off channel=0 note=76 velocity=64 time=96\n",
      "note_on channel=0 note=73 velocity=92 time=0\n",
      "note_off channel=0 note=73 velocity=64 time=96\n",
      "note_on channel=0 note=76 velocity=92 time=0\n",
      "note_off channel=0 note=76 velocity=64 time=96\n",
      "note_on channel=0 note=69 velocity=92 time=0\n",
      "note_off channel=0 note=69 velocity=64 time=96\n",
      "note_on channel=0 note=76 velocity=92 time=0\n",
      "note_off channel=0 note=76 velocity=64 time=96\n",
      "note_on channel=0 note=73 velocity=92 time=0\n",
      "note_off channel=0 note=73 velocity=64 time=96\n",
      "note_on channel=0 note=76 velocity=92 time=0\n",
      "note_off channel=0 note=76 velocity=64 time=96\n",
      "note_on channel=0 note=69 velocity=92 time=0\n",
      "note_off channel=0 note=69 velocity=64 time=96\n",
      "note_on channel=0 note=76 velocity=92 time=0\n",
      "note_off channel=0 note=76 velocity=64 time=96\n",
      "note_on channel=0 note=73 velocity=92 time=0\n",
      "note_off channel=0 note=73 velocity=64 time=96\n",
      "note_on channel=0 note=76 velocity=92 time=0\n",
      "note_off channel=0 note=76 velocity=64 time=96\n",
      "note_on channel=0 note=69 velocity=92 time=0\n",
      "note_off channel=0 note=69 velocity=64 time=96\n",
      "note_on channel=0 note=77 velocity=92 time=0\n",
      "note_off channel=0 note=77 velocity=64 time=96\n",
      "note_on channel=0 note=74 velocity=92 time=0\n",
      "note_off channel=0 note=74 velocity=64 time=96\n",
      "note_on channel=0 note=77 velocity=92 time=0\n",
      "note_off channel=0 note=77 velocity=64 time=96\n",
      "note_on channel=0 note=69 velocity=92 time=0\n",
      "note_off channel=0 note=69 velocity=64 time=96\n",
      "note_on channel=0 note=77 velocity=92 time=0\n",
      "note_off channel=0 note=77 velocity=64 time=96\n",
      "note_on channel=0 note=74 velocity=92 time=0\n",
      "note_off channel=0 note=74 velocity=64 time=96\n",
      "note_on channel=0 note=77 velocity=92 time=0\n",
      "note_off channel=0 note=77 velocity=64 time=96\n",
      "note_on channel=0 note=69 velocity=92 time=0\n",
      "note_off channel=0 note=69 velocity=64 time=96\n",
      "note_on channel=0 note=77 velocity=92 time=0\n",
      "note_off channel=0 note=77 velocity=64 time=96\n",
      "note_on channel=0 note=74 velocity=92 time=0\n",
      "note_off channel=0 note=74 velocity=64 time=96\n",
      "note_on channel=0 note=77 velocity=92 time=0\n",
      "note_off channel=0 note=77 velocity=64 time=96\n",
      "note_on channel=0 note=69 velocity=92 time=0\n",
      "note_off channel=0 note=69 velocity=64 time=96\n",
      "note_on channel=0 note=77 velocity=92 time=0\n",
      "note_off channel=0 note=77 velocity=64 time=96\n",
      "note_on channel=0 note=74 velocity=92 time=0\n",
      "note_off channel=0 note=74 velocity=64 time=96\n",
      "note_on channel=0 note=77 velocity=92 time=0\n",
      "note_off channel=0 note=77 velocity=64 time=96\n",
      "note_on channel=0 note=73 velocity=92 time=0\n",
      "note_off channel=0 note=73 velocity=64 time=96\n",
      "note_on channel=0 note=79 velocity=92 time=0\n",
      "note_off channel=0 note=79 velocity=64 time=96\n",
      "note_on channel=0 note=76 velocity=92 time=0\n",
      "note_off channel=0 note=76 velocity=64 time=96\n",
      "note_on channel=0 note=79 velocity=92 time=0\n",
      "note_off channel=0 note=79 velocity=64 time=96\n",
      "note_on channel=0 note=73 velocity=92 time=0\n",
      "note_off channel=0 note=73 velocity=64 time=96\n",
      "note_on channel=0 note=79 velocity=92 time=0\n",
      "note_off channel=0 note=79 velocity=64 time=96\n",
      "note_on channel=0 note=76 velocity=92 time=0\n",
      "note_off channel=0 note=76 velocity=64 time=96\n",
      "note_on channel=0 note=79 velocity=92 time=0\n",
      "note_off channel=0 note=79 velocity=64 time=96\n",
      "note_on channel=0 note=73 velocity=92 time=0\n",
      "note_off channel=0 note=73 velocity=64 time=96\n",
      "note_on channel=0 note=79 velocity=92 time=0\n",
      "note_off channel=0 note=79 velocity=64 time=96\n",
      "note_on channel=0 note=76 velocity=92 time=0\n",
      "note_off channel=0 note=76 velocity=64 time=96\n",
      "note_on channel=0 note=79 velocity=92 time=0\n",
      "note_off channel=0 note=79 velocity=64 time=96\n",
      "note_on channel=0 note=73 velocity=92 time=0\n",
      "note_off channel=0 note=73 velocity=64 time=96\n",
      "note_on channel=0 note=79 velocity=92 time=0\n",
      "note_off channel=0 note=79 velocity=64 time=96\n",
      "note_on channel=0 note=76 velocity=92 time=0\n",
      "note_off channel=0 note=76 velocity=64 time=96\n",
      "note_on channel=0 note=79 velocity=92 time=0\n",
      "note_off channel=0 note=79 velocity=64 time=96\n",
      "note_on channel=0 note=69 velocity=92 time=0\n",
      "note_off channel=0 note=69 velocity=64 time=96\n",
      "note_on channel=0 note=79 velocity=92 time=0\n",
      "note_off channel=0 note=79 velocity=64 time=96\n",
      "note_on channel=0 note=73 velocity=92 time=0\n",
      "note_off channel=0 note=73 velocity=64 time=96\n",
      "note_on channel=0 note=79 velocity=92 time=0\n",
      "note_off channel=0 note=79 velocity=64 time=96\n",
      "note_on channel=0 note=69 velocity=92 time=0\n",
      "note_off channel=0 note=69 velocity=64 time=96\n",
      "note_on channel=0 note=79 velocity=92 time=0\n",
      "note_off channel=0 note=79 velocity=64 time=96\n",
      "note_on channel=0 note=73 velocity=92 time=0\n",
      "note_off channel=0 note=73 velocity=64 time=96\n",
      "note_on channel=0 note=79 velocity=92 time=0\n",
      "note_off channel=0 note=79 velocity=64 time=96\n",
      "note_on channel=0 note=69 velocity=92 time=0\n",
      "note_off channel=0 note=69 velocity=64 time=96\n",
      "note_on channel=0 note=79 velocity=92 time=0\n",
      "note_off channel=0 note=79 velocity=64 time=96\n",
      "note_on channel=0 note=73 velocity=92 time=0\n",
      "note_off channel=0 note=73 velocity=64 time=96\n",
      "note_on channel=0 note=79 velocity=92 time=0\n",
      "note_off channel=0 note=79 velocity=64 time=96\n",
      "note_on channel=0 note=69 velocity=92 time=0\n",
      "note_off channel=0 note=69 velocity=64 time=96\n",
      "note_on channel=0 note=79 velocity=92 time=0\n",
      "note_off channel=0 note=79 velocity=64 time=96\n",
      "note_on channel=0 note=73 velocity=92 time=0\n",
      "note_off channel=0 note=73 velocity=64 time=96\n",
      "note_on channel=0 note=79 velocity=92 time=0\n",
      "note_off channel=0 note=79 velocity=64 time=96\n",
      "note_on channel=0 note=69 velocity=92 time=0\n",
      "note_off channel=0 note=69 velocity=64 time=96\n",
      "note_on channel=0 note=77 velocity=92 time=0\n",
      "note_off channel=0 note=77 velocity=64 time=96\n",
      "note_on channel=0 note=74 velocity=92 time=0\n",
      "note_off channel=0 note=74 velocity=64 time=96\n",
      "note_on channel=0 note=77 velocity=92 time=0\n",
      "note_off channel=0 note=77 velocity=64 time=96\n",
      "note_on channel=0 note=69 velocity=92 time=0\n",
      "note_off channel=0 note=69 velocity=64 time=96\n",
      "note_on channel=0 note=77 velocity=92 time=0\n",
      "note_off channel=0 note=77 velocity=64 time=96\n",
      "note_on channel=0 note=74 velocity=92 time=0\n",
      "note_off channel=0 note=74 velocity=64 time=96\n",
      "note_on channel=0 note=77 velocity=92 time=0\n",
      "note_off channel=0 note=77 velocity=64 time=96\n",
      "note_on channel=0 note=69 velocity=92 time=0\n",
      "note_off channel=0 note=69 velocity=64 time=96\n",
      "note_on channel=0 note=77 velocity=92 time=0\n",
      "note_off channel=0 note=77 velocity=64 time=96\n",
      "note_on channel=0 note=74 velocity=92 time=0\n",
      "note_off channel=0 note=74 velocity=64 time=96\n",
      "note_on channel=0 note=77 velocity=92 time=0\n",
      "note_off channel=0 note=77 velocity=64 time=96\n",
      "note_on channel=0 note=69 velocity=92 time=0\n",
      "note_off channel=0 note=69 velocity=64 time=96\n",
      "note_on channel=0 note=77 velocity=92 time=0\n",
      "note_off channel=0 note=77 velocity=64 time=96\n",
      "note_on channel=0 note=74 velocity=92 time=0\n",
      "note_off channel=0 note=74 velocity=64 time=96\n",
      "note_on channel=0 note=77 velocity=92 time=0\n",
      "note_off channel=0 note=77 velocity=64 time=96\n",
      "note_on channel=0 note=69 velocity=92 time=0\n",
      "note_off channel=0 note=69 velocity=64 time=96\n",
      "note_on channel=0 note=76 velocity=92 time=0\n",
      "note_off channel=0 note=76 velocity=64 time=96\n",
      "note_on channel=0 note=74 velocity=92 time=0\n",
      "note_off channel=0 note=74 velocity=64 time=96\n",
      "note_on channel=0 note=76 velocity=92 time=0\n",
      "note_off channel=0 note=76 velocity=64 time=96\n",
      "note_on channel=0 note=69 velocity=92 time=0\n",
      "note_off channel=0 note=69 velocity=64 time=96\n",
      "note_on channel=0 note=76 velocity=92 time=0\n",
      "note_off channel=0 note=76 velocity=64 time=96\n",
      "note_on channel=0 note=74 velocity=92 time=0\n",
      "note_off channel=0 note=74 velocity=64 time=96\n",
      "note_on channel=0 note=76 velocity=92 time=0\n",
      "note_off channel=0 note=76 velocity=64 time=96\n",
      "note_on channel=0 note=69 velocity=92 time=0\n",
      "note_off channel=0 note=69 velocity=64 time=96\n",
      "note_on channel=0 note=76 velocity=92 time=0\n",
      "note_off channel=0 note=76 velocity=64 time=96\n",
      "note_on channel=0 note=73 velocity=92 time=0\n",
      "note_off channel=0 note=73 velocity=64 time=96\n",
      "note_on channel=0 note=76 velocity=92 time=0\n",
      "note_off channel=0 note=76 velocity=64 time=96\n",
      "note_on channel=0 note=69 velocity=92 time=0\n",
      "note_off channel=0 note=69 velocity=64 time=96\n",
      "note_on channel=0 note=76 velocity=92 time=0\n",
      "note_off channel=0 note=76 velocity=64 time=96\n",
      "note_on channel=0 note=73 velocity=92 time=0\n",
      "note_off channel=0 note=73 velocity=64 time=96\n",
      "note_on channel=0 note=76 velocity=92 time=0\n",
      "note_off channel=0 note=76 velocity=64 time=96\n",
      "note_on channel=0 note=74 velocity=92 time=0\n",
      "note_on channel=0 note=69 velocity=92 time=0\n",
      "note_off channel=0 note=74 velocity=64 time=192\n",
      "note_on channel=0 note=77 velocity=92 time=0\n",
      "note_off channel=0 note=77 velocity=64 time=96\n",
      "note_on channel=0 note=76 velocity=92 time=0\n",
      "note_off channel=0 note=76 velocity=64 time=96\n",
      "note_off channel=0 note=69 velocity=64 time=0\n",
      "note_on channel=0 note=74 velocity=92 time=0\n",
      "note_off channel=0 note=74 velocity=64 time=192\n",
      "note_on channel=0 note=69 velocity=92 time=0\n",
      "note_on channel=0 note=74 velocity=92 time=0\n",
      "note_on channel=0 note=77 velocity=92 time=0\n",
      "note_off channel=0 note=77 velocity=64 time=192\n",
      "note_off channel=0 note=74 velocity=64 time=0\n",
      "note_off channel=0 note=69 velocity=64 time=0\n",
      "note_on channel=0 note=76 velocity=92 time=0\n",
      "note_on channel=0 note=73 velocity=92 time=0\n",
      "note_off channel=0 note=76 velocity=64 time=192\n",
      "note_on channel=0 note=81 velocity=92 time=0\n",
      "note_off channel=0 note=81 velocity=64 time=192\n",
      "note_off channel=0 note=73 velocity=64 time=0\n",
      "note_on channel=0 note=69 velocity=92 time=0\n",
      "note_off channel=0 note=69 velocity=64 time=192\n",
      "note_on channel=0 note=69 velocity=92 time=0\n",
      "note_on channel=0 note=76 velocity=92 time=0\n",
      "note_on channel=0 note=81 velocity=92 time=0\n",
      "note_off channel=0 note=81 velocity=64 time=192\n",
      "note_off channel=0 note=76 velocity=64 time=0\n",
      "note_off channel=0 note=69 velocity=64 time=0\n",
      "note_on channel=0 note=77 velocity=92 time=0\n",
      "note_on channel=0 note=69 velocity=92 time=0\n",
      "note_on channel=0 note=74 velocity=92 time=0\n",
      "note_off channel=0 note=77 velocity=64 time=192\n",
      "note_on channel=0 note=77 velocity=92 time=0\n",
      "note_off channel=0 note=77 velocity=64 time=96\n",
      "note_on channel=0 note=79 velocity=92 time=0\n",
      "note_off channel=0 note=79 velocity=64 time=96\n",
      "note_off channel=0 note=74 velocity=64 time=0\n",
      "note_off channel=0 note=69 velocity=64 time=0\n",
      "note_on channel=0 note=81 velocity=92 time=0\n",
      "note_off channel=0 note=81 velocity=64 time=192\n",
      "note_on channel=0 note=79 velocity=92 time=0\n",
      "note_on channel=0 note=69 velocity=92 time=0\n",
      "note_on channel=0 note=74 velocity=92 time=0\n",
      "note_off channel=0 note=79 velocity=64 time=96\n",
      "note_on channel=0 note=77 velocity=92 time=0\n",
      "note_off channel=0 note=77 velocity=64 time=96\n",
      "note_off channel=0 note=74 velocity=64 time=0\n",
      "note_off channel=0 note=69 velocity=64 time=0\n",
      "note_on channel=0 note=69 velocity=92 time=0\n",
      "note_on channel=0 note=73 velocity=92 time=0\n",
      "note_on channel=0 note=76 velocity=92 time=0\n",
      "note_off channel=0 note=76 velocity=64 time=384\n",
      "note_off channel=0 note=73 velocity=64 time=0\n",
      "note_off channel=0 note=69 velocity=64 time=0\n",
      "note_on channel=0 note=69 velocity=92 time=0\n",
      "note_off channel=0 note=69 velocity=64 time=384\n",
      "note_on channel=0 note=81 velocity=92 time=0\n",
      "note_off channel=0 note=81 velocity=64 time=96\n",
      "note_on channel=0 note=77 velocity=92 time=0\n",
      "note_off channel=0 note=77 velocity=64 time=96\n",
      "note_on channel=0 note=81 velocity=92 time=0\n",
      "note_off channel=0 note=81 velocity=64 time=96\n",
      "note_on channel=0 note=74 velocity=92 time=0\n",
      "note_off channel=0 note=74 velocity=64 time=96\n",
      "note_on channel=0 note=81 velocity=92 time=0\n",
      "note_off channel=0 note=81 velocity=64 time=96\n",
      "note_on channel=0 note=77 velocity=92 time=0\n",
      "note_off channel=0 note=77 velocity=64 time=96\n",
      "note_on channel=0 note=81 velocity=92 time=0\n",
      "note_off channel=0 note=81 velocity=64 time=96\n",
      "note_on channel=0 note=74 velocity=92 time=0\n",
      "note_off channel=0 note=74 velocity=64 time=96\n",
      "note_on channel=0 note=82 velocity=92 time=0\n",
      "note_off channel=0 note=82 velocity=64 time=192\n",
      "note_on channel=0 note=82 velocity=92 time=0\n",
      "note_off channel=0 note=82 velocity=64 time=192\n",
      "note_on channel=0 note=82 velocity=92 time=0\n",
      "note_off channel=0 note=82 velocity=64 time=192\n",
      "note_on channel=0 note=82 velocity=92 time=0\n",
      "note_off channel=0 note=82 velocity=64 time=192\n",
      "note_on channel=0 note=82 velocity=92 time=0\n",
      "note_off channel=0 note=82 velocity=64 time=96\n",
      "note_on channel=0 note=79 velocity=92 time=0\n",
      "note_off channel=0 note=79 velocity=64 time=96\n",
      "note_on channel=0 note=82 velocity=92 time=0\n",
      "note_off channel=0 note=82 velocity=64 time=96\n",
      "note_on channel=0 note=76 velocity=92 time=0\n",
      "note_off channel=0 note=76 velocity=64 time=96\n",
      "note_on channel=0 note=82 velocity=92 time=0\n",
      "note_off channel=0 note=82 velocity=64 time=96\n",
      "note_on channel=0 note=79 velocity=92 time=0\n",
      "note_off channel=0 note=79 velocity=64 time=96\n",
      "note_on channel=0 note=82 velocity=92 time=0\n",
      "note_off channel=0 note=82 velocity=64 time=96\n",
      "note_on channel=0 note=76 velocity=92 time=0\n",
      "note_off channel=0 note=76 velocity=64 time=96\n",
      "note_on channel=0 note=81 velocity=92 time=0\n",
      "note_off channel=0 note=81 velocity=64 time=192\n",
      "note_on channel=0 note=81 velocity=92 time=0\n",
      "note_off channel=0 note=81 velocity=64 time=192\n",
      "note_on channel=0 note=81 velocity=92 time=0\n",
      "note_off channel=0 note=81 velocity=64 time=192\n",
      "note_on channel=0 note=81 velocity=92 time=0\n",
      "note_off channel=0 note=81 velocity=64 time=192\n",
      "note_on channel=0 note=81 velocity=92 time=0\n",
      "note_off channel=0 note=81 velocity=64 time=96\n",
      "note_on channel=0 note=77 velocity=92 time=0\n",
      "note_off channel=0 note=77 velocity=64 time=96\n",
      "note_on channel=0 note=81 velocity=92 time=0\n",
      "note_off channel=0 note=81 velocity=64 time=96\n",
      "note_on channel=0 note=74 velocity=92 time=0\n",
      "note_off channel=0 note=74 velocity=64 time=96\n",
      "note_on channel=0 note=81 velocity=92 time=0\n",
      "note_off channel=0 note=81 velocity=64 time=96\n",
      "note_on channel=0 note=77 velocity=92 time=0\n",
      "note_off channel=0 note=77 velocity=64 time=96\n",
      "note_on channel=0 note=81 velocity=92 time=0\n",
      "note_off channel=0 note=81 velocity=64 time=96\n",
      "note_on channel=0 note=74 velocity=92 time=0\n",
      "note_off channel=0 note=74 velocity=64 time=96\n",
      "note_on channel=0 note=79 velocity=92 time=0\n",
      "note_off channel=0 note=79 velocity=64 time=192\n",
      "note_on channel=0 note=79 velocity=92 time=0\n",
      "note_off channel=0 note=79 velocity=64 time=192\n",
      "note_on channel=0 note=79 velocity=92 time=0\n",
      "note_off channel=0 note=79 velocity=64 time=192\n",
      "note_on channel=0 note=79 velocity=92 time=0\n",
      "note_off channel=0 note=79 velocity=64 time=192\n",
      "note_on channel=0 note=79 velocity=92 time=0\n",
      "note_off channel=0 note=79 velocity=64 time=96\n",
      "note_on channel=0 note=76 velocity=92 time=0\n",
      "note_off channel=0 note=76 velocity=64 time=96\n",
      "note_on channel=0 note=79 velocity=92 time=0\n",
      "note_off channel=0 note=79 velocity=64 time=96\n",
      "note_on channel=0 note=73 velocity=92 time=0\n",
      "note_off channel=0 note=73 velocity=64 time=96\n",
      "note_on channel=0 note=79 velocity=92 time=0\n",
      "note_off channel=0 note=79 velocity=64 time=96\n",
      "note_on channel=0 note=76 velocity=92 time=0\n",
      "note_off channel=0 note=76 velocity=64 time=96\n",
      "note_on channel=0 note=79 velocity=92 time=0\n",
      "note_off channel=0 note=79 velocity=64 time=96\n",
      "note_on channel=0 note=73 velocity=92 time=0\n",
      "note_off channel=0 note=73 velocity=64 time=96\n",
      "note_on channel=0 note=69 velocity=92 time=0\n",
      "note_on channel=0 note=77 velocity=92 time=0\n",
      "note_off channel=0 note=77 velocity=64 time=96\n",
      "note_off channel=0 note=69 velocity=64 time=0\n",
      "note_on channel=0 note=65 velocity=92 time=0\n",
      "note_on channel=0 note=74 velocity=92 time=0\n",
      "note_off channel=0 note=74 velocity=64 time=96\n",
      "note_off channel=0 note=65 velocity=64 time=0\n",
      "note_on channel=0 note=69 velocity=92 time=0\n",
      "note_on channel=0 note=77 velocity=92 time=0\n",
      "note_off channel=0 note=77 velocity=64 time=96\n",
      "note_off channel=0 note=69 velocity=64 time=0\n",
      "note_on channel=0 note=62 velocity=92 time=0\n",
      "note_on channel=0 note=81 velocity=92 time=0\n",
      "note_off channel=0 note=81 velocity=64 time=96\n",
      "note_off channel=0 note=62 velocity=64 time=0\n",
      "note_on channel=0 note=69 velocity=92 time=0\n",
      "note_on channel=0 note=77 velocity=92 time=0\n",
      "note_off channel=0 note=77 velocity=64 time=96\n",
      "note_off channel=0 note=69 velocity=64 time=0\n",
      "note_on channel=0 note=65 velocity=92 time=0\n",
      "note_on channel=0 note=74 velocity=92 time=0\n",
      "note_off channel=0 note=74 velocity=64 time=96\n",
      "note_off channel=0 note=65 velocity=64 time=0\n",
      "note_on channel=0 note=69 velocity=92 time=0\n",
      "note_on channel=0 note=77 velocity=92 time=0\n",
      "note_off channel=0 note=77 velocity=64 time=96\n",
      "note_off channel=0 note=69 velocity=64 time=0\n",
      "note_on channel=0 note=65 velocity=92 time=0\n",
      "note_on channel=0 note=81 velocity=92 time=0\n",
      "note_off channel=0 note=81 velocity=64 time=96\n",
      "note_off channel=0 note=65 velocity=64 time=0\n",
      "note_on channel=0 note=67 velocity=92 time=0\n",
      "note_on channel=0 note=82 velocity=92 time=0\n",
      "note_off channel=0 note=82 velocity=64 time=96\n",
      "note_on channel=0 note=79 velocity=92 time=0\n",
      "note_off channel=0 note=79 velocity=64 time=96\n",
      "note_on channel=0 note=80 velocity=92 time=0\n",
      "note_off channel=0 note=80 velocity=64 time=96\n",
      "note_on channel=0 note=77 velocity=92 time=0\n",
      "note_off channel=0 note=77 velocity=64 time=96\n",
      "note_off channel=0 note=67 velocity=64 time=0\n",
      "note_on channel=0 note=79 velocity=92 time=0\n",
      "note_off channel=0 note=79 velocity=64 time=96\n",
      "note_on channel=0 note=75 velocity=92 time=0\n",
      "note_off channel=0 note=75 velocity=64 time=96\n",
      "note_on channel=0 note=77 velocity=92 time=0\n",
      "note_off channel=0 note=77 velocity=64 time=96\n",
      "note_on channel=0 note=74 velocity=92 time=0\n"
     ]
    },
    {
     "name": "stdout",
     "output_type": "stream",
     "text": [
      "note_off channel=0 note=74 velocity=64 time=96\n",
      "note_on channel=0 note=70 velocity=92 time=0\n",
      "note_on channel=0 note=79 velocity=92 time=0\n",
      "note_off channel=0 note=79 velocity=64 time=96\n",
      "note_off channel=0 note=70 velocity=64 time=0\n",
      "note_on channel=0 note=67 velocity=92 time=0\n",
      "note_on channel=0 note=75 velocity=92 time=0\n",
      "note_off channel=0 note=75 velocity=64 time=96\n",
      "note_off channel=0 note=67 velocity=64 time=0\n",
      "note_on channel=0 note=68 velocity=92 time=0\n",
      "note_on channel=0 note=79 velocity=92 time=0\n",
      "note_off channel=0 note=79 velocity=64 time=96\n",
      "note_off channel=0 note=68 velocity=64 time=0\n",
      "note_on channel=0 note=65 velocity=92 time=0\n",
      "note_on channel=0 note=74 velocity=92 time=0\n",
      "note_off channel=0 note=74 velocity=64 time=96\n",
      "note_off channel=0 note=65 velocity=64 time=0\n",
      "note_on channel=0 note=67 velocity=92 time=0\n",
      "note_on channel=0 note=75 velocity=92 time=0\n",
      "note_off channel=0 note=75 velocity=64 time=96\n",
      "note_off channel=0 note=67 velocity=64 time=0\n",
      "note_on channel=0 note=64 velocity=92 time=0\n",
      "note_on channel=0 note=73 velocity=92 time=0\n",
      "note_off channel=0 note=73 velocity=64 time=96\n",
      "note_off channel=0 note=64 velocity=64 time=0\n",
      "note_on channel=0 note=65 velocity=92 time=0\n",
      "note_on channel=0 note=74 velocity=92 time=0\n",
      "note_off channel=0 note=74 velocity=64 time=96\n",
      "note_off channel=0 note=65 velocity=64 time=0\n",
      "note_on channel=0 note=67 velocity=92 time=0\n",
      "note_on channel=0 note=76 velocity=92 time=0\n",
      "note_off channel=0 note=76 velocity=64 time=96\n",
      "note_off channel=0 note=67 velocity=64 time=0\n",
      "note_on channel=0 note=64 velocity=92 time=0\n",
      "note_on channel=0 note=73 velocity=92 time=0\n",
      "note_off channel=0 note=73 velocity=64 time=96\n",
      "note_off channel=0 note=64 velocity=64 time=0\n",
      "note_on channel=0 note=61 velocity=92 time=0\n",
      "note_on channel=0 note=69 velocity=92 time=0\n",
      "note_off channel=0 note=69 velocity=64 time=96\n",
      "note_off channel=0 note=61 velocity=64 time=0\n",
      "note_on channel=0 note=62 velocity=92 time=0\n",
      "note_on channel=0 note=71 velocity=92 time=0\n",
      "note_off channel=0 note=71 velocity=64 time=96\n",
      "note_off channel=0 note=62 velocity=64 time=0\n",
      "note_on channel=0 note=68 velocity=92 time=0\n",
      "note_off channel=0 note=68 velocity=64 time=96\n",
      "note_on channel=0 note=69 velocity=92 time=0\n",
      "note_off channel=0 note=69 velocity=64 time=192\n",
      "note_on channel=0 note=81 velocity=92 time=1056\n",
      "note_off channel=0 note=81 velocity=64 time=96\n",
      "note_on channel=0 note=79 velocity=92 time=0\n",
      "note_off channel=0 note=79 velocity=64 time=96\n",
      "note_on channel=0 note=81 velocity=92 time=0\n",
      "note_off channel=0 note=81 velocity=64 time=96\n",
      "note_on channel=0 note=76 velocity=92 time=0\n",
      "note_off channel=0 note=76 velocity=64 time=96\n",
      "note_on channel=0 note=81 velocity=92 time=0\n",
      "note_off channel=0 note=81 velocity=64 time=96\n",
      "note_on channel=0 note=79 velocity=92 time=0\n",
      "note_off channel=0 note=79 velocity=64 time=96\n",
      "note_on channel=0 note=81 velocity=92 time=0\n",
      "note_off channel=0 note=81 velocity=64 time=96\n",
      "note_on channel=0 note=77 velocity=92 time=0\n",
      "note_off channel=0 note=77 velocity=64 time=96\n",
      "note_on channel=0 note=74 velocity=92 time=0\n",
      "note_on channel=0 note=77 velocity=92 time=0\n",
      "note_off channel=0 note=77 velocity=64 time=96\n",
      "note_off channel=0 note=74 velocity=64 time=0\n",
      "note_on channel=0 note=72 velocity=92 time=0\n",
      "note_on channel=0 note=76 velocity=92 time=0\n",
      "note_off channel=0 note=76 velocity=64 time=96\n",
      "note_off channel=0 note=72 velocity=64 time=0\n",
      "note_on channel=0 note=74 velocity=92 time=0\n",
      "note_on channel=0 note=77 velocity=92 time=0\n",
      "note_off channel=0 note=77 velocity=64 time=96\n",
      "note_off channel=0 note=74 velocity=64 time=0\n",
      "note_on channel=0 note=65 velocity=92 time=0\n",
      "note_on channel=0 note=74 velocity=92 time=0\n",
      "note_off channel=0 note=74 velocity=64 time=96\n",
      "note_off channel=0 note=65 velocity=64 time=0\n",
      "note_on channel=0 note=74 velocity=92 time=0\n",
      "note_on channel=0 note=77 velocity=92 time=0\n",
      "note_off channel=0 note=77 velocity=64 time=96\n",
      "note_off channel=0 note=74 velocity=64 time=0\n",
      "note_on channel=0 note=72 velocity=92 time=0\n",
      "note_on channel=0 note=76 velocity=92 time=0\n",
      "note_off channel=0 note=76 velocity=64 time=96\n",
      "note_off channel=0 note=72 velocity=64 time=0\n",
      "note_on channel=0 note=74 velocity=92 time=0\n",
      "note_on channel=0 note=77 velocity=92 time=0\n",
      "note_off channel=0 note=77 velocity=64 time=96\n",
      "note_off channel=0 note=74 velocity=64 time=0\n",
      "note_on channel=0 note=71 velocity=92 time=0\n",
      "note_on channel=0 note=79 velocity=92 time=0\n",
      "note_off channel=0 note=79 velocity=64 time=96\n",
      "note_off channel=0 note=71 velocity=64 time=0\n",
      "note_on channel=0 note=71 velocity=92 time=0\n",
      "note_on channel=0 note=79 velocity=92 time=0\n",
      "note_off channel=0 note=79 velocity=64 time=96\n",
      "note_off channel=0 note=71 velocity=64 time=0\n",
      "note_on channel=0 note=69 velocity=92 time=0\n",
      "note_on channel=0 note=77 velocity=92 time=0\n",
      "note_off channel=0 note=77 velocity=64 time=96\n",
      "note_off channel=0 note=69 velocity=64 time=0\n",
      "note_on channel=0 note=71 velocity=92 time=0\n",
      "note_on channel=0 note=79 velocity=92 time=0\n",
      "note_off channel=0 note=79 velocity=64 time=96\n",
      "note_off channel=0 note=71 velocity=64 time=0\n",
      "note_on channel=0 note=67 velocity=92 time=0\n",
      "note_on channel=0 note=74 velocity=92 time=0\n",
      "note_off channel=0 note=74 velocity=64 time=96\n",
      "note_off channel=0 note=67 velocity=64 time=0\n",
      "note_on channel=0 note=71 velocity=92 time=0\n",
      "note_on channel=0 note=79 velocity=92 time=0\n",
      "note_off channel=0 note=79 velocity=64 time=96\n",
      "note_off channel=0 note=71 velocity=64 time=0\n",
      "note_on channel=0 note=69 velocity=92 time=0\n",
      "note_on channel=0 note=77 velocity=92 time=0\n",
      "note_off channel=0 note=77 velocity=64 time=96\n",
      "note_off channel=0 note=69 velocity=64 time=0\n",
      "note_on channel=0 note=71 velocity=92 time=0\n",
      "note_on channel=0 note=79 velocity=92 time=0\n",
      "note_off channel=0 note=79 velocity=64 time=96\n",
      "note_off channel=0 note=71 velocity=64 time=0\n",
      "note_on channel=0 note=72 velocity=92 time=0\n",
      "note_on channel=0 note=76 velocity=92 time=0\n",
      "note_off channel=0 note=76 velocity=64 time=96\n",
      "note_off channel=0 note=72 velocity=64 time=0\n",
      "note_on channel=0 note=72 velocity=92 time=0\n",
      "note_on channel=0 note=76 velocity=92 time=0\n",
      "note_off channel=0 note=76 velocity=64 time=96\n",
      "note_off channel=0 note=72 velocity=64 time=0\n",
      "note_on channel=0 note=71 velocity=92 time=0\n",
      "note_on channel=0 note=74 velocity=92 time=0\n",
      "note_off channel=0 note=74 velocity=64 time=96\n",
      "note_off channel=0 note=71 velocity=64 time=0\n",
      "note_on channel=0 note=72 velocity=92 time=0\n",
      "note_on channel=0 note=76 velocity=92 time=0\n",
      "note_off channel=0 note=76 velocity=64 time=96\n",
      "note_off channel=0 note=72 velocity=64 time=0\n",
      "note_on channel=0 note=67 velocity=92 time=0\n",
      "note_on channel=0 note=72 velocity=92 time=0\n",
      "note_off channel=0 note=72 velocity=64 time=96\n",
      "note_off channel=0 note=67 velocity=64 time=0\n",
      "note_on channel=0 note=72 velocity=92 time=0\n",
      "note_on channel=0 note=76 velocity=92 time=0\n",
      "note_off channel=0 note=76 velocity=64 time=96\n",
      "note_off channel=0 note=72 velocity=64 time=0\n",
      "note_on channel=0 note=71 velocity=92 time=0\n",
      "note_on channel=0 note=74 velocity=92 time=0\n",
      "note_off channel=0 note=74 velocity=64 time=96\n",
      "note_off channel=0 note=71 velocity=64 time=0\n",
      "note_on channel=0 note=72 velocity=92 time=0\n",
      "note_on channel=0 note=76 velocity=92 time=0\n",
      "note_off channel=0 note=76 velocity=64 time=96\n",
      "note_off channel=0 note=72 velocity=64 time=0\n",
      "note_on channel=0 note=69 velocity=92 time=0\n",
      "note_on channel=0 note=77 velocity=92 time=0\n",
      "note_off channel=0 note=77 velocity=64 time=96\n",
      "note_off channel=0 note=69 velocity=64 time=0\n",
      "note_on channel=0 note=69 velocity=92 time=0\n",
      "note_on channel=0 note=77 velocity=92 time=0\n",
      "note_off channel=0 note=77 velocity=64 time=96\n",
      "note_off channel=0 note=69 velocity=64 time=0\n",
      "note_on channel=0 note=67 velocity=92 time=0\n",
      "note_on channel=0 note=76 velocity=92 time=0\n",
      "note_off channel=0 note=76 velocity=64 time=96\n",
      "note_off channel=0 note=67 velocity=64 time=0\n",
      "note_on channel=0 note=69 velocity=92 time=0\n",
      "note_on channel=0 note=77 velocity=92 time=0\n",
      "note_off channel=0 note=77 velocity=64 time=96\n",
      "note_off channel=0 note=69 velocity=64 time=0\n",
      "note_on channel=0 note=65 velocity=92 time=0\n",
      "note_on channel=0 note=72 velocity=92 time=0\n",
      "note_off channel=0 note=72 velocity=64 time=96\n",
      "note_off channel=0 note=65 velocity=64 time=0\n",
      "note_on channel=0 note=69 velocity=92 time=0\n",
      "note_on channel=0 note=77 velocity=92 time=0\n",
      "note_off channel=0 note=77 velocity=64 time=96\n",
      "note_off channel=0 note=69 velocity=64 time=0\n",
      "note_on channel=0 note=67 velocity=92 time=0\n",
      "note_on channel=0 note=76 velocity=92 time=0\n",
      "note_off channel=0 note=76 velocity=64 time=96\n",
      "note_off channel=0 note=67 velocity=64 time=0\n",
      "note_on channel=0 note=69 velocity=92 time=0\n",
      "note_on channel=0 note=77 velocity=92 time=0\n",
      "note_off channel=0 note=77 velocity=64 time=96\n",
      "note_off channel=0 note=69 velocity=64 time=0\n",
      "note_on channel=0 note=71 velocity=92 time=0\n",
      "note_on channel=0 note=74 velocity=92 time=0\n",
      "note_off channel=0 note=74 velocity=64 time=96\n",
      "note_off channel=0 note=71 velocity=64 time=0\n",
      "note_on channel=0 note=71 velocity=92 time=0\n",
      "note_on channel=0 note=74 velocity=92 time=0\n",
      "note_off channel=0 note=74 velocity=64 time=96\n",
      "note_off channel=0 note=71 velocity=64 time=0\n",
      "note_on channel=0 note=69 velocity=92 time=0\n",
      "note_on channel=0 note=72 velocity=92 time=0\n",
      "note_off channel=0 note=72 velocity=64 time=96\n",
      "note_off channel=0 note=69 velocity=64 time=0\n",
      "note_on channel=0 note=71 velocity=92 time=0\n",
      "note_on channel=0 note=74 velocity=92 time=0\n",
      "note_off channel=0 note=74 velocity=64 time=96\n",
      "note_off channel=0 note=71 velocity=64 time=0\n",
      "note_on channel=0 note=66 velocity=92 time=0\n",
      "note_on channel=0 note=71 velocity=92 time=0\n",
      "note_off channel=0 note=71 velocity=64 time=96\n",
      "note_off channel=0 note=66 velocity=64 time=0\n",
      "note_on channel=0 note=71 velocity=92 time=0\n",
      "note_on channel=0 note=74 velocity=92 time=0\n",
      "note_off channel=0 note=74 velocity=64 time=96\n",
      "note_off channel=0 note=71 velocity=64 time=0\n",
      "note_on channel=0 note=69 velocity=92 time=0\n",
      "note_on channel=0 note=72 velocity=92 time=0\n",
      "note_off channel=0 note=72 velocity=64 time=96\n",
      "note_off channel=0 note=69 velocity=64 time=0\n",
      "note_on channel=0 note=71 velocity=92 time=0\n",
      "note_on channel=0 note=74 velocity=92 time=0\n",
      "note_off channel=0 note=74 velocity=64 time=96\n",
      "note_off channel=0 note=71 velocity=64 time=0\n",
      "note_on channel=0 note=68 velocity=92 time=0\n",
      "note_on channel=0 note=76 velocity=92 time=0\n",
      "note_off channel=0 note=76 velocity=64 time=96\n",
      "note_off channel=0 note=68 velocity=64 time=0\n",
      "note_on channel=0 note=68 velocity=92 time=0\n",
      "note_on channel=0 note=76 velocity=92 time=0\n",
      "note_off channel=0 note=76 velocity=64 time=96\n",
      "note_off channel=0 note=68 velocity=64 time=0\n",
      "note_on channel=0 note=66 velocity=92 time=0\n",
      "note_on channel=0 note=74 velocity=92 time=0\n",
      "note_off channel=0 note=74 velocity=64 time=96\n",
      "note_off channel=0 note=66 velocity=64 time=0\n",
      "note_on channel=0 note=68 velocity=92 time=0\n",
      "note_on channel=0 note=76 velocity=92 time=0\n",
      "note_off channel=0 note=76 velocity=64 time=96\n",
      "note_off channel=0 note=68 velocity=64 time=0\n",
      "note_on channel=0 note=64 velocity=92 time=0\n",
      "note_on channel=0 note=71 velocity=92 time=0\n",
      "note_off channel=0 note=71 velocity=64 time=96\n",
      "note_off channel=0 note=64 velocity=64 time=0\n",
      "note_on channel=0 note=68 velocity=92 time=0\n",
      "note_on channel=0 note=76 velocity=92 time=0\n",
      "note_off channel=0 note=76 velocity=64 time=96\n",
      "note_off channel=0 note=68 velocity=64 time=0\n",
      "note_on channel=0 note=66 velocity=92 time=0\n",
      "note_on channel=0 note=74 velocity=92 time=0\n",
      "note_off channel=0 note=74 velocity=64 time=96\n",
      "note_off channel=0 note=66 velocity=64 time=0\n",
      "note_on channel=0 note=68 velocity=92 time=0\n",
      "note_on channel=0 note=76 velocity=92 time=0\n",
      "note_off channel=0 note=76 velocity=64 time=96\n",
      "note_off channel=0 note=68 velocity=64 time=0\n",
      "note_on channel=0 note=69 velocity=92 time=0\n",
      "note_on channel=0 note=72 velocity=92 time=0\n",
      "note_off channel=0 note=72 velocity=64 time=96\n",
      "note_off channel=0 note=69 velocity=64 time=0\n",
      "note_on channel=0 note=69 velocity=92 time=0\n",
      "note_on channel=0 note=72 velocity=92 time=0\n",
      "note_off channel=0 note=72 velocity=64 time=96\n",
      "note_off channel=0 note=69 velocity=64 time=0\n",
      "note_on channel=0 note=67 velocity=92 time=0\n",
      "note_on channel=0 note=71 velocity=92 time=0\n",
      "note_off channel=0 note=71 velocity=64 time=96\n",
      "note_off channel=0 note=67 velocity=64 time=0\n",
      "note_on channel=0 note=69 velocity=92 time=0\n",
      "note_on channel=0 note=72 velocity=92 time=0\n",
      "note_off channel=0 note=72 velocity=64 time=96\n",
      "note_off channel=0 note=69 velocity=64 time=0\n",
      "note_on channel=0 note=64 velocity=92 time=0\n",
      "note_on channel=0 note=69 velocity=92 time=0\n",
      "note_off channel=0 note=69 velocity=64 time=96\n",
      "note_off channel=0 note=64 velocity=64 time=0\n",
      "note_on channel=0 note=69 velocity=92 time=0\n",
      "note_on channel=0 note=72 velocity=92 time=0\n",
      "note_off channel=0 note=72 velocity=64 time=96\n",
      "note_off channel=0 note=69 velocity=64 time=0\n",
      "note_on channel=0 note=67 velocity=92 time=0\n",
      "note_on channel=0 note=71 velocity=92 time=0\n",
      "note_off channel=0 note=71 velocity=64 time=96\n",
      "note_off channel=0 note=67 velocity=64 time=0\n",
      "note_on channel=0 note=69 velocity=92 time=0\n",
      "note_on channel=0 note=72 velocity=92 time=0\n",
      "note_off channel=0 note=72 velocity=64 time=96\n",
      "note_off channel=0 note=69 velocity=64 time=0\n",
      "note_on channel=0 note=65 velocity=92 time=0\n",
      "note_on channel=0 note=74 velocity=92 time=0\n",
      "note_off channel=0 note=74 velocity=64 time=96\n",
      "note_off channel=0 note=65 velocity=64 time=0\n",
      "note_on channel=0 note=65 velocity=92 time=0\n",
      "note_on channel=0 note=74 velocity=92 time=0\n",
      "note_off channel=0 note=74 velocity=64 time=96\n",
      "note_off channel=0 note=65 velocity=64 time=0\n",
      "note_on channel=0 note=64 velocity=92 time=0\n",
      "note_on channel=0 note=72 velocity=92 time=0\n",
      "note_off channel=0 note=72 velocity=64 time=96\n",
      "note_off channel=0 note=64 velocity=64 time=0\n",
      "note_on channel=0 note=65 velocity=92 time=0\n",
      "note_on channel=0 note=74 velocity=92 time=0\n",
      "note_off channel=0 note=74 velocity=64 time=96\n",
      "note_off channel=0 note=65 velocity=64 time=0\n",
      "note_on channel=0 note=62 velocity=92 time=0\n",
      "note_on channel=0 note=71 velocity=92 time=0\n",
      "note_off channel=0 note=71 velocity=64 time=96\n",
      "note_off channel=0 note=62 velocity=64 time=0\n",
      "note_on channel=0 note=64 velocity=92 time=0\n",
      "note_on channel=0 note=72 velocity=92 time=0\n",
      "note_off channel=0 note=72 velocity=64 time=96\n",
      "note_off channel=0 note=64 velocity=64 time=0\n",
      "note_on channel=0 note=60 velocity=92 time=0\n",
      "note_on channel=0 note=69 velocity=92 time=0\n",
      "note_off channel=0 note=69 velocity=64 time=96\n",
      "note_off channel=0 note=60 velocity=64 time=0\n",
      "note_on channel=0 note=62 velocity=92 time=0\n",
      "note_on channel=0 note=71 velocity=92 time=0\n",
      "note_off channel=0 note=71 velocity=64 time=96\n",
      "note_off channel=0 note=62 velocity=64 time=0\n",
      "note_on channel=0 note=68 velocity=92 time=0\n",
      "note_off channel=0 note=68 velocity=64 time=96\n",
      "note_on channel=0 note=64 velocity=92 time=0\n",
      "note_off channel=0 note=64 velocity=64 time=96\n",
      "note_on channel=0 note=69 velocity=92 time=0\n",
      "note_off channel=0 note=69 velocity=64 time=192\n",
      "note_on channel=0 note=64 velocity=92 time=96\n",
      "note_off channel=0 note=64 velocity=64 time=96\n",
      "note_on channel=0 note=69 velocity=92 time=0\n",
      "note_off channel=0 note=69 velocity=64 time=96\n",
      "note_on channel=0 note=68 velocity=92 time=0\n",
      "note_off channel=0 note=68 velocity=64 time=96\n",
      "note_on channel=0 note=60 velocity=92 time=0\n",
      "note_on channel=0 note=69 velocity=92 time=0\n",
      "note_off channel=0 note=69 velocity=64 time=192\n",
      "note_off channel=0 note=60 velocity=64 time=0\n",
      "note_on channel=0 note=72 velocity=92 time=0\n",
      "note_off channel=0 note=72 velocity=64 time=96\n",
      "note_on channel=0 note=71 velocity=92 time=0\n",
      "note_off channel=0 note=71 velocity=64 time=96\n",
      "note_on channel=0 note=69 velocity=92 time=0\n",
      "note_off channel=0 note=69 velocity=64 time=192\n",
      "note_on channel=0 note=64 velocity=92 time=0\n",
      "note_on channel=0 note=69 velocity=92 time=0\n",
      "note_on channel=0 note=72 velocity=92 time=0\n",
      "note_off channel=0 note=72 velocity=64 time=192\n",
      "note_off channel=0 note=69 velocity=64 time=0\n",
      "note_off channel=0 note=64 velocity=64 time=0\n",
      "note_on channel=0 note=68 velocity=92 time=0\n",
      "note_on channel=0 note=71 velocity=92 time=0\n",
      "note_off channel=0 note=71 velocity=64 time=192\n",
      "note_on channel=0 note=76 velocity=92 time=0\n",
      "note_off channel=0 note=76 velocity=64 time=192\n",
      "note_off channel=0 note=68 velocity=64 time=0\n",
      "note_on channel=0 note=64 velocity=92 time=0\n",
      "note_off channel=0 note=64 velocity=64 time=192\n",
      "note_on channel=0 note=76 velocity=92 time=0\n",
      "note_on channel=0 note=71 velocity=92 time=0\n",
      "note_on channel=0 note=64 velocity=92 time=0\n",
      "note_off channel=0 note=64 velocity=64 time=192\n",
      "note_off channel=0 note=71 velocity=64 time=0\n",
      "note_off channel=0 note=76 velocity=64 time=0\n",
      "note_on channel=0 note=72 velocity=92 time=0\n",
      "note_on channel=0 note=64 velocity=92 time=0\n",
      "note_on channel=0 note=69 velocity=92 time=0\n",
      "note_off channel=0 note=72 velocity=64 time=192\n",
      "note_on channel=0 note=72 velocity=92 time=0\n",
      "note_off channel=0 note=72 velocity=64 time=96\n",
      "note_on channel=0 note=74 velocity=92 time=0\n",
      "note_off channel=0 note=74 velocity=64 time=96\n",
      "note_off channel=0 note=69 velocity=64 time=0\n",
      "note_off channel=0 note=64 velocity=64 time=0\n",
      "note_on channel=0 note=76 velocity=92 time=0\n",
      "note_off channel=0 note=76 velocity=64 time=192\n",
      "note_on channel=0 note=64 velocity=92 time=0\n",
      "note_on channel=0 note=69 velocity=92 time=0\n",
      "note_on channel=0 note=74 velocity=92 time=0\n",
      "note_off channel=0 note=74 velocity=64 time=96\n",
      "note_on channel=0 note=72 velocity=92 time=0\n",
      "note_off channel=0 note=72 velocity=64 time=96\n",
      "note_off channel=0 note=69 velocity=64 time=0\n",
      "note_off channel=0 note=64 velocity=64 time=0\n",
      "note_on channel=0 note=64 velocity=92 time=0\n",
      "note_on channel=0 note=68 velocity=92 time=0\n",
      "note_on channel=0 note=71 velocity=92 time=0\n",
      "note_off channel=0 note=71 velocity=64 time=384\n",
      "note_off channel=0 note=68 velocity=64 time=0\n",
      "note_off channel=0 note=64 velocity=64 time=0\n",
      "note_on channel=0 note=64 velocity=92 time=0\n",
      "note_off channel=0 note=64 velocity=64 time=192\n",
      "note_on channel=0 note=76 velocity=92 time=0\n",
      "note_on channel=0 note=72 velocity=92 time=0\n",
      "note_on channel=0 note=69 velocity=92 time=0\n",
      "note_off channel=0 note=69 velocity=64 time=192\n",
      "note_off channel=0 note=72 velocity=64 time=0\n",
      "note_off channel=0 note=76 velocity=64 time=0\n",
      "note_on channel=0 note=69 velocity=92 time=0\n",
      "note_on channel=0 note=74 velocity=92 time=0\n",
      "note_on channel=0 note=77 velocity=92 time=0\n",
      "note_off channel=0 note=74 velocity=64 time=96\n",
      "note_off channel=0 note=69 velocity=64 time=0\n",
      "note_on channel=0 note=74 velocity=92 time=0\n",
      "note_off channel=0 note=74 velocity=64 time=96\n",
      "note_on channel=0 note=72 velocity=92 time=0\n",
      "note_off channel=0 note=72 velocity=64 time=96\n",
      "note_on channel=0 note=74 velocity=92 time=0\n",
      "note_off channel=0 note=74 velocity=64 time=96\n",
      "note_on channel=0 note=69 velocity=92 time=0\n",
      "note_off channel=0 note=69 velocity=64 time=96\n",
      "note_on channel=0 note=74 velocity=92 time=0\n",
      "note_off channel=0 note=74 velocity=64 time=96\n",
      "note_on channel=0 note=72 velocity=92 time=0\n",
      "note_off channel=0 note=72 velocity=64 time=96\n",
      "note_on channel=0 note=74 velocity=92 time=0\n",
      "note_off channel=0 note=74 velocity=64 time=96\n",
      "note_on channel=0 note=71 velocity=92 time=0\n",
      "note_off channel=0 note=71 velocity=64 time=96\n",
      "note_off channel=0 note=77 velocity=64 time=0\n",
      "note_on channel=0 note=76 velocity=92 time=672\n",
      "note_on channel=0 note=72 velocity=92 time=96\n",
      "note_off channel=0 note=72 velocity=64 time=96\n",
      "note_on channel=0 note=71 velocity=92 time=0\n",
      "note_off channel=0 note=71 velocity=64 time=96\n",
      "note_on channel=0 note=72 velocity=92 time=0\n",
      "note_off channel=0 note=72 velocity=64 time=96\n",
      "note_on channel=0 note=67 velocity=92 time=0\n",
      "note_off channel=0 note=67 velocity=64 time=96\n",
      "note_on channel=0 note=72 velocity=92 time=0\n",
      "note_off channel=0 note=72 velocity=64 time=96\n",
      "note_on channel=0 note=71 velocity=92 time=0\n",
      "note_off channel=0 note=71 velocity=64 time=96\n",
      "note_on channel=0 note=72 velocity=92 time=0\n",
      "note_off channel=0 note=72 velocity=64 time=96\n",
      "note_on channel=0 note=69 velocity=92 time=0\n",
      "note_off channel=0 note=69 velocity=64 time=96\n",
      "note_off channel=0 note=76 velocity=64 time=0\n",
      "note_on channel=0 note=74 velocity=92 time=672\n",
      "note_on channel=0 note=71 velocity=92 time=96\n",
      "note_off channel=0 note=71 velocity=64 time=96\n",
      "note_on channel=0 note=69 velocity=92 time=0\n",
      "note_off channel=0 note=69 velocity=64 time=96\n",
      "note_on channel=0 note=71 velocity=92 time=0\n",
      "note_off channel=0 note=71 velocity=64 time=96\n",
      "note_on channel=0 note=66 velocity=92 time=0\n",
      "note_off channel=0 note=66 velocity=64 time=96\n",
      "note_on channel=0 note=71 velocity=92 time=0\n",
      "note_off channel=0 note=71 velocity=64 time=96\n",
      "note_on channel=0 note=69 velocity=92 time=0\n",
      "note_off channel=0 note=69 velocity=64 time=96\n",
      "note_on channel=0 note=71 velocity=92 time=0\n",
      "note_off channel=0 note=71 velocity=64 time=96\n",
      "note_on channel=0 note=68 velocity=92 time=0\n",
      "note_off channel=0 note=68 velocity=64 time=96\n",
      "note_off channel=0 note=74 velocity=64 time=0\n",
      "note_on channel=0 note=64 velocity=92 time=768\n",
      "note_on channel=0 note=72 velocity=92 time=0\n",
      "note_off channel=0 note=72 velocity=64 time=96\n",
      "note_off channel=0 note=64 velocity=64 time=0\n",
      "note_on channel=0 note=62 velocity=92 time=0\n",
      "note_on channel=0 note=71 velocity=92 time=0\n",
      "note_off channel=0 note=71 velocity=64 time=96\n",
      "note_off channel=0 note=62 velocity=64 time=0\n",
      "note_on channel=0 note=64 velocity=92 time=0\n",
      "note_on channel=0 note=72 velocity=92 time=0\n",
      "note_off channel=0 note=72 velocity=64 time=96\n",
      "note_off channel=0 note=64 velocity=64 time=0\n",
      "note_on channel=0 note=60 velocity=92 time=0\n",
      "note_on channel=0 note=69 velocity=92 time=0\n",
      "note_off channel=0 note=69 velocity=64 time=96\n",
      "note_off channel=0 note=60 velocity=64 time=0\n",
      "note_on channel=0 note=62 velocity=92 time=0\n",
      "note_on channel=0 note=81 velocity=92 time=0\n",
      "note_off channel=0 note=81 velocity=64 time=96\n",
      "note_off channel=0 note=62 velocity=64 time=0\n",
      "note_on channel=0 note=59 velocity=92 time=0\n",
      "note_on channel=0 note=79 velocity=92 time=0\n",
      "note_off channel=0 note=79 velocity=64 time=96\n",
      "note_off channel=0 note=59 velocity=64 time=0\n",
      "note_on channel=0 note=60 velocity=92 time=0\n",
      "note_on channel=0 note=81 velocity=92 time=0\n",
      "note_off channel=0 note=81 velocity=64 time=96\n",
      "note_off channel=0 note=60 velocity=64 time=0\n",
      "note_on channel=0 note=62 velocity=92 time=0\n",
      "note_on channel=0 note=77 velocity=92 time=0\n",
      "note_off channel=0 note=77 velocity=64 time=96\n",
      "note_off channel=0 note=62 velocity=64 time=0\n",
      "note_on channel=0 note=60 velocity=92 time=0\n",
      "note_on channel=0 note=81 velocity=92 time=0\n",
      "note_off channel=0 note=81 velocity=64 time=96\n",
      "note_off channel=0 note=60 velocity=64 time=0\n",
      "note_on channel=0 note=62 velocity=92 time=0\n",
      "note_on channel=0 note=74 velocity=92 time=0\n",
      "note_off channel=0 note=74 velocity=64 time=96\n",
      "note_off channel=0 note=62 velocity=64 time=0\n",
      "note_on channel=0 note=59 velocity=92 time=0\n",
      "note_on channel=0 note=81 velocity=92 time=0\n",
      "note_off channel=0 note=81 velocity=64 time=96\n",
      "note_off channel=0 note=59 velocity=64 time=0\n",
      "note_on channel=0 note=64 velocity=92 time=0\n",
      "note_on channel=0 note=71 velocity=92 time=0\n",
      "note_off channel=0 note=71 velocity=64 time=96\n",
      "note_off channel=0 note=64 velocity=64 time=0\n",
      "note_on channel=0 note=65 velocity=92 time=0\n",
      "note_on channel=0 note=80 velocity=92 time=0\n",
      "note_off channel=0 note=80 velocity=64 time=96\n",
      "note_off channel=0 note=65 velocity=64 time=0\n",
      "note_on channel=0 note=62 velocity=92 time=0\n",
      "note_on channel=0 note=78 velocity=92 time=0\n",
      "note_off channel=0 note=78 velocity=64 time=96\n",
      "note_off channel=0 note=62 velocity=64 time=0\n",
      "note_on channel=0 note=64 velocity=92 time=0\n",
      "note_on channel=0 note=80 velocity=92 time=0\n",
      "note_off channel=0 note=80 velocity=64 time=96\n",
      "note_off channel=0 note=64 velocity=64 time=0\n",
      "note_on channel=0 note=81 velocity=92 time=0\n",
      "note_on channel=0 note=60 velocity=92 time=0\n",
      "note_off channel=0 note=60 velocity=64 time=96\n",
      "note_on channel=0 note=76 velocity=92 time=0\n",
      "note_off channel=0 note=76 velocity=64 time=96\n",
      "note_on channel=0 note=74 velocity=92 time=0\n",
      "note_off channel=0 note=74 velocity=64 time=96\n",
      "note_on channel=0 note=76 velocity=92 time=0\n",
      "note_off channel=0 note=76 velocity=64 time=96\n",
      "note_on channel=0 note=72 velocity=92 time=0\n",
      "note_off channel=0 note=72 velocity=64 time=96\n",
      "note_on channel=0 note=76 velocity=92 time=0\n",
      "note_off channel=0 note=76 velocity=64 time=96\n",
      "note_on channel=0 note=74 velocity=92 time=0\n",
      "note_off channel=0 note=74 velocity=64 time=96\n",
      "note_on channel=0 note=76 velocity=92 time=0\n",
      "note_off channel=0 note=76 velocity=64 time=96\n",
      "note_off channel=0 note=81 velocity=64 time=0\n",
      "note_on channel=0 note=69 velocity=92 time=0\n",
      "note_off channel=0 note=69 velocity=64 time=96\n",
      "note_on channel=0 note=77 velocity=92 time=0\n",
      "note_on channel=0 note=69 velocity=92 time=0\n",
      "note_off channel=0 note=69 velocity=64 time=96\n",
      "note_off channel=0 note=77 velocity=64 time=0\n",
      "note_on channel=0 note=76 velocity=92 time=0\n",
      "note_on channel=0 note=67 velocity=92 time=0\n",
      "note_off channel=0 note=67 velocity=64 time=96\n",
      "note_off channel=0 note=76 velocity=64 time=0\n",
      "note_on channel=0 note=77 velocity=92 time=0\n",
      "note_on channel=0 note=69 velocity=92 time=0\n",
      "note_off channel=0 note=69 velocity=64 time=96\n",
      "note_off channel=0 note=77 velocity=64 time=0\n",
      "note_on channel=0 note=74 velocity=92 time=0\n",
      "note_on channel=0 note=65 velocity=92 time=0\n",
      "note_off channel=0 note=65 velocity=64 time=96\n",
      "note_off channel=0 note=74 velocity=64 time=0\n",
      "note_on channel=0 note=77 velocity=92 time=0\n",
      "note_on channel=0 note=69 velocity=92 time=0\n",
      "note_off channel=0 note=69 velocity=64 time=96\n",
      "note_off channel=0 note=77 velocity=64 time=0\n",
      "note_on channel=0 note=76 velocity=92 time=0\n",
      "note_on channel=0 note=67 velocity=92 time=0\n",
      "note_off channel=0 note=67 velocity=64 time=96\n",
      "note_off channel=0 note=76 velocity=64 time=0\n",
      "note_on channel=0 note=77 velocity=92 time=0\n",
      "note_on channel=0 note=69 velocity=92 time=0\n",
      "note_off channel=0 note=69 velocity=64 time=96\n",
      "note_off channel=0 note=77 velocity=64 time=0\n",
      "note_on channel=0 note=62 velocity=92 time=0\n",
      "note_on channel=0 note=79 velocity=92 time=0\n",
      "note_off channel=0 note=62 velocity=64 time=96\n",
      "note_on channel=0 note=74 velocity=92 time=0\n",
      "note_off channel=0 note=74 velocity=64 time=96\n",
      "note_on channel=0 note=72 velocity=92 time=0\n",
      "note_off channel=0 note=72 velocity=64 time=96\n",
      "note_on channel=0 note=74 velocity=92 time=0\n",
      "note_off channel=0 note=74 velocity=64 time=96\n",
      "note_on channel=0 note=71 velocity=92 time=0\n",
      "note_off channel=0 note=71 velocity=64 time=96\n",
      "note_on channel=0 note=74 velocity=92 time=0\n",
      "note_off channel=0 note=74 velocity=64 time=96\n",
      "note_on channel=0 note=72 velocity=92 time=0\n",
      "note_off channel=0 note=72 velocity=64 time=96\n",
      "note_on channel=0 note=74 velocity=92 time=0\n",
      "note_off channel=0 note=74 velocity=64 time=96\n",
      "note_off channel=0 note=79 velocity=64 time=0\n",
      "note_on channel=0 note=67 velocity=92 time=0\n",
      "note_off channel=0 note=67 velocity=64 time=96\n",
      "note_on channel=0 note=76 velocity=92 time=0\n",
      "note_on channel=0 note=67 velocity=92 time=0\n",
      "note_off channel=0 note=67 velocity=64 time=96\n",
      "note_off channel=0 note=76 velocity=64 time=0\n",
      "note_on channel=0 note=74 velocity=92 time=0\n",
      "note_on channel=0 note=65 velocity=92 time=0\n",
      "note_off channel=0 note=65 velocity=64 time=96\n",
      "note_off channel=0 note=74 velocity=64 time=0\n",
      "note_on channel=0 note=76 velocity=92 time=0\n",
      "note_on channel=0 note=67 velocity=92 time=0\n",
      "note_off channel=0 note=67 velocity=64 time=96\n",
      "note_off channel=0 note=76 velocity=64 time=0\n",
      "note_on channel=0 note=72 velocity=92 time=0\n",
      "note_on channel=0 note=64 velocity=92 time=0\n",
      "note_off channel=0 note=64 velocity=64 time=96\n",
      "note_off channel=0 note=72 velocity=64 time=0\n",
      "note_on channel=0 note=76 velocity=92 time=0\n",
      "note_on channel=0 note=67 velocity=92 time=0\n",
      "note_off channel=0 note=67 velocity=64 time=96\n",
      "note_off channel=0 note=76 velocity=64 time=0\n",
      "note_on channel=0 note=74 velocity=92 time=0\n",
      "note_on channel=0 note=65 velocity=92 time=0\n",
      "note_off channel=0 note=65 velocity=64 time=96\n",
      "note_off channel=0 note=74 velocity=64 time=0\n",
      "note_on channel=0 note=76 velocity=92 time=0\n",
      "note_on channel=0 note=67 velocity=92 time=0\n",
      "note_off channel=0 note=67 velocity=64 time=96\n",
      "note_off channel=0 note=76 velocity=64 time=0\n",
      "note_on channel=0 note=69 velocity=92 time=0\n",
      "note_on channel=0 note=77 velocity=92 time=0\n",
      "note_off channel=0 note=77 velocity=64 time=96\n",
      "note_off channel=0 note=69 velocity=64 time=0\n",
      "note_on channel=0 note=71 velocity=92 time=0\n",
      "note_on channel=0 note=79 velocity=92 time=0\n",
      "note_off channel=0 note=79 velocity=64 time=96\n",
      "note_off channel=0 note=71 velocity=64 time=0\n",
      "note_on channel=0 note=67 velocity=92 time=0\n",
      "note_on channel=0 note=76 velocity=92 time=0\n",
      "note_off channel=0 note=76 velocity=64 time=96\n",
      "note_off channel=0 note=67 velocity=64 time=0\n",
      "note_on channel=0 note=69 velocity=92 time=0\n",
      "note_on channel=0 note=77 velocity=92 time=0\n",
      "note_off channel=0 note=77 velocity=64 time=96\n",
      "note_off channel=0 note=69 velocity=64 time=0\n",
      "note_on channel=0 note=65 velocity=92 time=0\n",
      "note_on channel=0 note=74 velocity=92 time=0\n",
      "note_off channel=0 note=74 velocity=64 time=96\n",
      "note_off channel=0 note=65 velocity=64 time=0\n",
      "note_on channel=0 note=67 velocity=92 time=0\n",
      "note_on channel=0 note=76 velocity=92 time=0\n",
      "note_off channel=0 note=76 velocity=64 time=96\n",
      "note_off channel=0 note=67 velocity=64 time=0\n",
      "note_on channel=0 note=64 velocity=92 time=0\n",
      "note_on channel=0 note=72 velocity=92 time=0\n",
      "note_off channel=0 note=72 velocity=64 time=96\n",
      "note_off channel=0 note=64 velocity=64 time=0\n",
      "note_on channel=0 note=65 velocity=92 time=0\n",
      "note_on channel=0 note=74 velocity=92 time=0\n",
      "note_off channel=0 note=74 velocity=64 time=96\n",
      "note_off channel=0 note=65 velocity=64 time=0\n",
      "note_on channel=0 note=62 velocity=92 time=0\n",
      "note_on channel=0 note=71 velocity=92 time=0\n",
      "note_off channel=0 note=71 velocity=64 time=96\n",
      "note_on channel=0 note=67 velocity=92 time=0\n",
      "note_off channel=0 note=67 velocity=64 time=96\n",
      "note_off channel=0 note=62 velocity=64 time=0\n",
      "note_on channel=0 note=60 velocity=92 time=0\n",
      "note_on channel=0 note=72 velocity=92 time=0\n",
      "note_off channel=0 note=72 velocity=64 time=96\n",
      "note_off channel=0 note=60 velocity=64 time=0\n",
      "note_on channel=0 note=59 velocity=92 time=0\n",
      "note_on channel=0 note=64 velocity=92 time=0\n",
      "note_off channel=0 note=64 velocity=64 time=96\n",
      "note_off channel=0 note=59 velocity=64 time=0\n",
      "note_on channel=0 note=62 velocity=92 time=0\n",
      "note_off channel=0 note=62 velocity=64 time=96\n",
      "note_on channel=0 note=72 velocity=92 time=0\n",
      "note_off channel=0 note=72 velocity=64 time=96\n",
      "note_on channel=0 note=62 velocity=92 time=0\n",
      "note_off channel=0 note=62 velocity=64 time=96\n",
      "note_on channel=0 note=71 velocity=92 time=0\n",
      "note_off channel=0 note=71 velocity=64 time=96\n",
      "note_on channel=0 note=72 velocity=92 time=0\n",
      "note_off channel=0 note=72 velocity=64 time=96\n",
      "note_on channel=0 note=74 velocity=92 time=0\n",
      "note_off channel=0 note=74 velocity=64 time=96\n",
      "note_on channel=0 note=76 velocity=92 time=0\n",
      "note_off channel=0 note=76 velocity=64 time=96\n",
      "note_on channel=0 note=74 velocity=92 time=0\n",
      "note_off channel=0 note=74 velocity=64 time=96\n",
      "note_on channel=0 note=72 velocity=92 time=0\n",
      "note_off channel=0 note=72 velocity=64 time=192\n",
      "note_on channel=0 note=67 velocity=92 time=0\n",
      "note_on channel=0 note=72 velocity=92 time=0\n",
      "note_on channel=0 note=76 velocity=92 time=0\n",
      "note_off channel=0 note=76 velocity=64 time=192\n",
      "note_off channel=0 note=72 velocity=64 time=0\n",
      "note_off channel=0 note=67 velocity=64 time=0\n",
      "note_on channel=0 note=71 velocity=92 time=0\n",
      "note_on channel=0 note=67 velocity=92 time=0\n",
      "note_on channel=0 note=74 velocity=92 time=0\n",
      "note_off channel=0 note=74 velocity=64 time=192\n",
      "note_on channel=0 note=79 velocity=92 time=0\n",
      "note_off channel=0 note=79 velocity=64 time=192\n",
      "note_off channel=0 note=67 velocity=64 time=0\n",
      "note_off channel=0 note=71 velocity=64 time=0\n",
      "note_on channel=0 note=67 velocity=92 time=0\n",
      "note_off channel=0 note=67 velocity=64 time=192\n",
      "note_on channel=0 note=79 velocity=92 time=0\n",
      "note_on channel=0 note=74 velocity=92 time=0\n",
      "note_on channel=0 note=67 velocity=92 time=0\n",
      "note_off channel=0 note=67 velocity=64 time=192\n",
      "note_off channel=0 note=74 velocity=64 time=0\n",
      "note_off channel=0 note=79 velocity=64 time=0\n",
      "note_on channel=0 note=67 velocity=92 time=0\n",
      "note_on channel=0 note=72 velocity=92 time=0\n",
      "note_on channel=0 note=76 velocity=92 time=0\n",
      "note_off channel=0 note=76 velocity=64 time=192\n",
      "note_on channel=0 note=76 velocity=92 time=0\n",
      "note_off channel=0 note=76 velocity=64 time=96\n",
      "note_on channel=0 note=77 velocity=92 time=0\n",
      "note_off channel=0 note=77 velocity=64 time=96\n",
      "note_off channel=0 note=72 velocity=64 time=0\n",
      "note_off channel=0 note=67 velocity=64 time=0\n",
      "note_on channel=0 note=79 velocity=92 time=0\n",
      "note_off channel=0 note=79 velocity=64 time=192\n",
      "note_on channel=0 note=77 velocity=92 time=0\n",
      "note_on channel=0 note=67 velocity=92 time=0\n",
      "note_on channel=0 note=72 velocity=92 time=0\n",
      "note_off channel=0 note=77 velocity=64 time=96\n",
      "note_on channel=0 note=76 velocity=92 time=0\n",
      "note_off channel=0 note=76 velocity=64 time=96\n",
      "note_off channel=0 note=72 velocity=64 time=0\n",
      "note_off channel=0 note=67 velocity=64 time=0\n",
      "note_on channel=0 note=71 velocity=92 time=0\n",
      "note_on channel=0 note=74 velocity=92 time=0\n",
      "note_off channel=0 note=74 velocity=64 time=384\n",
      "note_off channel=0 note=71 velocity=64 time=0\n",
      "note_on channel=0 note=67 velocity=92 time=0\n",
      "note_off channel=0 note=67 velocity=64 time=192\n",
      "note_on channel=0 note=74 velocity=92 time=0\n",
      "note_on channel=0 note=79 velocity=92 time=0\n",
      "note_off channel=0 note=79 velocity=64 time=192\n",
      "note_off channel=0 note=74 velocity=64 time=0\n",
      "note_on channel=0 note=76 velocity=92 time=0\n",
      "note_off channel=0 note=76 velocity=64 time=96\n",
      "note_on channel=0 note=67 velocity=92 time=0\n",
      "note_off channel=0 note=67 velocity=64 time=96\n",
      "note_on channel=0 note=65 velocity=92 time=0\n",
      "note_off channel=0 note=65 velocity=64 time=96\n",
      "note_on channel=0 note=67 velocity=92 time=0\n",
      "note_off channel=0 note=67 velocity=64 time=96\n",
      "note_on channel=0 note=64 velocity=92 time=0\n",
      "note_off channel=0 note=64 velocity=64 time=96\n",
      "note_on channel=0 note=67 velocity=92 time=0\n",
      "note_off channel=0 note=67 velocity=64 time=96\n",
      "note_on channel=0 note=65 velocity=92 time=0\n",
      "note_off channel=0 note=65 velocity=64 time=96\n",
      "note_on channel=0 note=67 velocity=92 time=0\n",
      "note_off channel=0 note=67 velocity=64 time=96\n",
      "note_on channel=0 note=69 velocity=92 time=0\n",
      "note_off channel=0 note=69 velocity=64 time=96\n",
      "note_on channel=0 note=77 velocity=92 time=0\n",
      "note_off channel=0 note=77 velocity=64 time=96\n",
      "note_on channel=0 note=76 velocity=92 time=0\n",
      "note_off channel=0 note=76 velocity=64 time=96\n",
      "note_on channel=0 note=77 velocity=92 time=0\n",
      "note_off channel=0 note=77 velocity=64 time=96\n",
      "note_on channel=0 note=72 velocity=92 time=0\n",
      "note_off channel=0 note=72 velocity=64 time=96\n",
      "note_on channel=0 note=77 velocity=92 time=0\n",
      "note_off channel=0 note=77 velocity=64 time=96\n",
      "note_on channel=0 note=76 velocity=92 time=0\n",
      "note_off channel=0 note=76 velocity=64 time=96\n",
      "note_on channel=0 note=77 velocity=92 time=0\n",
      "note_off channel=0 note=77 velocity=64 time=96\n",
      "note_on channel=0 note=74 velocity=92 time=0\n",
      "note_off channel=0 note=74 velocity=64 time=96\n",
      "note_on channel=0 note=65 velocity=92 time=0\n",
      "note_off channel=0 note=65 velocity=64 time=96\n",
      "note_on channel=0 note=64 velocity=92 time=0\n",
      "note_off channel=0 note=64 velocity=64 time=96\n",
      "note_on channel=0 note=65 velocity=92 time=0\n",
      "note_off channel=0 note=65 velocity=64 time=96\n",
      "note_on channel=0 note=62 velocity=92 time=0\n",
      "note_off channel=0 note=62 velocity=64 time=96\n",
      "note_on channel=0 note=65 velocity=92 time=0\n",
      "note_off channel=0 note=65 velocity=64 time=96\n",
      "note_on channel=0 note=64 velocity=92 time=0\n",
      "note_off channel=0 note=64 velocity=64 time=96\n",
      "note_on channel=0 note=65 velocity=92 time=0\n",
      "note_off channel=0 note=65 velocity=64 time=96\n",
      "note_on channel=0 note=67 velocity=92 time=0\n",
      "note_off channel=0 note=67 velocity=64 time=96\n",
      "note_on channel=0 note=76 velocity=92 time=0\n",
      "note_off channel=0 note=76 velocity=64 time=96\n",
      "note_on channel=0 note=74 velocity=92 time=0\n",
      "note_off channel=0 note=74 velocity=64 time=96\n",
      "note_on channel=0 note=76 velocity=92 time=0\n",
      "note_off channel=0 note=76 velocity=64 time=96\n",
      "note_on channel=0 note=71 velocity=92 time=0\n",
      "note_off channel=0 note=71 velocity=64 time=96\n",
      "note_on channel=0 note=76 velocity=92 time=0\n",
      "note_off channel=0 note=76 velocity=64 time=96\n",
      "note_on channel=0 note=74 velocity=92 time=0\n",
      "note_off channel=0 note=74 velocity=64 time=96\n",
      "note_on channel=0 note=76 velocity=92 time=0\n",
      "note_off channel=0 note=76 velocity=64 time=96\n",
      "note_on channel=0 note=72 velocity=92 time=0\n",
      "note_off channel=0 note=72 velocity=64 time=96\n",
      "note_on channel=0 note=64 velocity=92 time=0\n",
      "note_off channel=0 note=64 velocity=64 time=96\n",
      "note_on channel=0 note=62 velocity=92 time=0\n",
      "note_off channel=0 note=62 velocity=64 time=96\n",
      "note_on channel=0 note=64 velocity=92 time=0\n",
      "note_off channel=0 note=64 velocity=64 time=96\n",
      "note_on channel=0 note=60 velocity=92 time=0\n",
      "note_off channel=0 note=60 velocity=64 time=96\n",
      "note_on channel=0 note=64 velocity=92 time=0\n",
      "note_off channel=0 note=64 velocity=64 time=96\n",
      "note_on channel=0 note=62 velocity=92 time=0\n",
      "note_off channel=0 note=62 velocity=64 time=96\n",
      "note_on channel=0 note=64 velocity=92 time=0\n",
      "note_off channel=0 note=64 velocity=64 time=96\n",
      "note_on channel=0 note=65 velocity=92 time=0\n",
      "note_off channel=0 note=65 velocity=64 time=96\n",
      "note_on channel=0 note=74 velocity=92 time=0\n",
      "note_off channel=0 note=74 velocity=64 time=96\n",
      "note_on channel=0 note=72 velocity=92 time=0\n",
      "note_off channel=0 note=72 velocity=64 time=96\n",
      "note_on channel=0 note=74 velocity=92 time=0\n",
      "note_off channel=0 note=74 velocity=64 time=96\n",
      "note_on channel=0 note=69 velocity=92 time=0\n",
      "note_off channel=0 note=69 velocity=64 time=96\n",
      "note_on channel=0 note=74 velocity=92 time=0\n",
      "note_off channel=0 note=74 velocity=64 time=96\n",
      "note_on channel=0 note=72 velocity=92 time=0\n",
      "note_off channel=0 note=72 velocity=64 time=96\n",
      "note_on channel=0 note=74 velocity=92 time=0\n",
      "note_off channel=0 note=74 velocity=64 time=96\n",
      "note_on channel=0 note=71 velocity=92 time=0\n",
      "note_off channel=0 note=71 velocity=64 time=96\n",
      "note_on channel=0 note=62 velocity=92 time=0\n",
      "note_off channel=0 note=62 velocity=64 time=96\n",
      "note_on channel=0 note=60 velocity=92 time=0\n",
      "note_off channel=0 note=60 velocity=64 time=96\n",
      "note_on channel=0 note=62 velocity=92 time=0\n",
      "note_off channel=0 note=62 velocity=64 time=96\n",
      "note_on channel=0 note=59 velocity=92 time=0\n",
      "note_off channel=0 note=59 velocity=64 time=96\n",
      "note_on channel=0 note=62 velocity=92 time=0\n",
      "note_off channel=0 note=62 velocity=64 time=96\n",
      "note_on channel=0 note=60 velocity=92 time=0\n",
      "note_off channel=0 note=60 velocity=64 time=96\n",
      "note_on channel=0 note=62 velocity=92 time=0\n",
      "note_off channel=0 note=62 velocity=64 time=96\n",
      "note_on channel=0 note=64 velocity=92 time=0\n",
      "note_off channel=0 note=64 velocity=64 time=96\n",
      "note_on channel=0 note=72 velocity=92 time=0\n",
      "note_off channel=0 note=72 velocity=64 time=96\n",
      "note_on channel=0 note=71 velocity=92 time=0\n",
      "note_off channel=0 note=71 velocity=64 time=96\n",
      "note_on channel=0 note=72 velocity=92 time=0\n",
      "note_off channel=0 note=72 velocity=64 time=96\n",
      "note_on channel=0 note=67 velocity=92 time=0\n",
      "note_off channel=0 note=67 velocity=64 time=96\n",
      "note_on channel=0 note=72 velocity=92 time=0\n",
      "note_off channel=0 note=72 velocity=64 time=96\n",
      "note_on channel=0 note=71 velocity=92 time=0\n",
      "note_off channel=0 note=71 velocity=64 time=96\n",
      "note_on channel=0 note=72 velocity=92 time=0\n",
      "note_off channel=0 note=72 velocity=64 time=96\n",
      "note_on channel=0 note=69 velocity=92 time=0\n",
      "note_off channel=0 note=69 velocity=64 time=96\n",
      "note_on channel=0 note=72 velocity=92 time=0\n",
      "note_off channel=0 note=72 velocity=64 time=96\n",
      "note_on channel=0 note=65 velocity=92 time=0\n",
      "note_on channel=0 note=69 velocity=92 time=0\n",
      "note_off channel=0 note=69 velocity=64 time=96\n",
      "note_on channel=0 note=72 velocity=92 time=0\n",
      "note_off channel=0 note=72 velocity=64 time=96\n",
      "note_off channel=0 note=65 velocity=64 time=0\n",
      "note_on channel=0 note=65 velocity=92 time=0\n",
      "note_on channel=0 note=69 velocity=92 time=0\n",
      "note_off channel=0 note=69 velocity=64 time=96\n",
      "note_on channel=0 note=72 velocity=92 time=0\n",
      "note_off channel=0 note=72 velocity=64 time=96\n",
      "note_off channel=0 note=65 velocity=64 time=0\n",
      "note_on channel=0 note=65 velocity=92 time=0\n",
      "note_on channel=0 note=69 velocity=92 time=0\n",
      "note_off channel=0 note=69 velocity=64 time=96\n",
      "note_on channel=0 note=72 velocity=92 time=0\n",
      "note_off channel=0 note=72 velocity=64 time=96\n",
      "note_off channel=0 note=65 velocity=64 time=0\n",
      "note_on channel=0 note=64 velocity=92 time=0\n",
      "note_on channel=0 note=67 velocity=92 time=0\n",
      "note_off channel=0 note=67 velocity=64 time=96\n",
      "note_on channel=0 note=72 velocity=92 time=0\n",
      "note_off channel=0 note=72 velocity=64 time=96\n",
      "note_off channel=0 note=64 velocity=64 time=0\n",
      "note_on channel=0 note=64 velocity=92 time=0\n",
      "note_on channel=0 note=67 velocity=92 time=0\n",
      "note_off channel=0 note=67 velocity=64 time=96\n",
      "note_on channel=0 note=72 velocity=92 time=0\n",
      "note_off channel=0 note=72 velocity=64 time=96\n",
      "note_off channel=0 note=64 velocity=64 time=0\n",
      "note_on channel=0 note=64 velocity=92 time=0\n",
      "note_on channel=0 note=67 velocity=92 time=0\n",
      "note_off channel=0 note=67 velocity=64 time=96\n",
      "note_on channel=0 note=72 velocity=92 time=0\n",
      "note_off channel=0 note=72 velocity=64 time=96\n",
      "note_off channel=0 note=64 velocity=64 time=0\n",
      "note_on channel=0 note=64 velocity=92 time=0\n",
      "note_on channel=0 note=67 velocity=92 time=0\n",
      "note_off channel=0 note=67 velocity=64 time=96\n",
      "note_on channel=0 note=72 velocity=92 time=0\n",
      "note_off channel=0 note=72 velocity=64 time=96\n",
      "note_off channel=0 note=64 velocity=64 time=0\n",
      "note_on channel=0 note=62 velocity=92 time=0\n",
      "note_on channel=0 note=71 velocity=92 time=0\n",
      "note_off channel=0 note=71 velocity=64 time=96\n",
      "note_off channel=0 note=62 velocity=64 time=0\n",
      "note_on channel=0 note=79 velocity=92 time=0\n",
      "note_off channel=0 note=79 velocity=64 time=96\n",
      "note_on channel=0 note=77 velocity=92 time=0\n",
      "note_off channel=0 note=77 velocity=64 time=96\n",
      "note_on channel=0 note=79 velocity=92 time=0\n",
      "note_off channel=0 note=79 velocity=64 time=96\n",
      "note_on channel=0 note=74 velocity=92 time=0\n",
      "note_off channel=0 note=74 velocity=64 time=96\n",
      "note_on channel=0 note=79 velocity=92 time=0\n",
      "note_off channel=0 note=79 velocity=64 time=96\n",
      "note_on channel=0 note=77 velocity=92 time=0\n",
      "note_off channel=0 note=77 velocity=64 time=96\n",
      "note_on channel=0 note=79 velocity=92 time=0\n",
      "note_off channel=0 note=79 velocity=64 time=96\n",
      "note_on channel=0 note=76 velocity=92 time=0\n",
      "note_off channel=0 note=76 velocity=64 time=96\n",
      "note_on channel=0 note=84 velocity=92 time=0\n",
      "note_off channel=0 note=84 velocity=64 time=96\n",
      "note_on channel=0 note=60 velocity=92 time=0\n",
      "note_on channel=0 note=83 velocity=92 time=0\n",
      "note_off channel=0 note=83 velocity=64 time=96\n",
      "note_off channel=0 note=60 velocity=64 time=0\n",
      "note_on channel=0 note=62 velocity=92 time=0\n",
      "note_on channel=0 note=84 velocity=92 time=0\n",
      "note_off channel=0 note=84 velocity=64 time=96\n",
      "note_off channel=0 note=62 velocity=64 time=0\n",
      "note_on channel=0 note=64 velocity=92 time=0\n",
      "note_on channel=0 note=79 velocity=92 time=0\n",
      "note_off channel=0 note=79 velocity=64 time=96\n",
      "note_off channel=0 note=64 velocity=64 time=0\n",
      "note_on channel=0 note=62 velocity=92 time=0\n",
      "note_on channel=0 note=84 velocity=92 time=0\n",
      "note_off channel=0 note=84 velocity=64 time=96\n",
      "note_off channel=0 note=62 velocity=64 time=0\n",
      "note_on channel=0 note=64 velocity=92 time=0\n",
      "note_on channel=0 note=83 velocity=92 time=0\n",
      "note_off channel=0 note=83 velocity=64 time=96\n",
      "note_off channel=0 note=64 velocity=64 time=0\n",
      "note_on channel=0 note=60 velocity=92 time=0\n",
      "note_on channel=0 note=84 velocity=92 time=0\n",
      "note_off channel=0 note=84 velocity=64 time=96\n",
      "note_off channel=0 note=60 velocity=64 time=0\n",
      "note_on channel=0 note=65 velocity=92 time=0\n",
      "note_on channel=0 note=81 velocity=92 time=0\n",
      "note_off channel=0 note=81 velocity=64 time=96\n",
      "note_off channel=0 note=65 velocity=64 time=0\n",
      "note_on channel=0 note=64 velocity=92 time=0\n",
      "note_on channel=0 note=84 velocity=92 time=0\n",
      "note_off channel=0 note=84 velocity=64 time=96\n",
      "note_off channel=0 note=64 velocity=64 time=0\n",
      "note_on channel=0 note=65 velocity=92 time=0\n",
      "note_on channel=0 note=83 velocity=92 time=0\n",
      "note_off channel=0 note=83 velocity=64 time=96\n",
      "note_off channel=0 note=65 velocity=64 time=0\n",
      "note_on channel=0 note=62 velocity=92 time=0\n",
      "note_on channel=0 note=84 velocity=92 time=0\n",
      "note_off channel=0 note=84 velocity=64 time=96\n",
      "note_off channel=0 note=62 velocity=64 time=0\n",
      "note_on channel=0 note=67 velocity=92 time=0\n",
      "note_on channel=0 note=74 velocity=92 time=0\n",
      "note_off channel=0 note=74 velocity=64 time=96\n",
      "note_off channel=0 note=67 velocity=64 time=0\n",
      "note_on channel=0 note=69 velocity=92 time=0\n",
      "note_on channel=0 note=83 velocity=92 time=0\n",
      "note_off channel=0 note=83 velocity=64 time=96\n",
      "note_off channel=0 note=69 velocity=64 time=0\n",
      "note_on channel=0 note=67 velocity=92 time=0\n",
      "note_on channel=0 note=81 velocity=92 time=0\n",
      "note_off channel=0 note=81 velocity=64 time=96\n",
      "note_off channel=0 note=67 velocity=64 time=0\n",
      "note_on channel=0 note=65 velocity=92 time=0\n",
      "note_on channel=0 note=83 velocity=92 time=0\n",
      "note_off channel=0 note=83 velocity=64 time=96\n",
      "note_off channel=0 note=65 velocity=64 time=0\n",
      "note_on channel=0 note=64 velocity=92 time=0\n",
      "note_on channel=0 note=84 velocity=92 time=0\n",
      "note_off channel=0 note=84 velocity=64 time=96\n",
      "note_off channel=0 note=64 velocity=64 time=0\n",
      "note_on channel=0 note=62 velocity=92 time=0\n",
      "note_on channel=0 note=81 velocity=92 time=0\n",
      "note_off channel=0 note=81 velocity=64 time=96\n",
      "note_off channel=0 note=62 velocity=64 time=0\n",
      "note_on channel=0 note=64 velocity=92 time=0\n",
      "note_on channel=0 note=79 velocity=92 time=0\n",
      "note_off channel=0 note=79 velocity=64 time=96\n",
      "note_off channel=0 note=64 velocity=64 time=0\n",
      "note_on channel=0 note=65 velocity=92 time=0\n",
      "note_on channel=0 note=77 velocity=92 time=0\n",
      "note_off channel=0 note=77 velocity=64 time=96\n",
      "note_off channel=0 note=65 velocity=64 time=0\n",
      "note_on channel=0 note=76 velocity=92 time=0\n",
      "note_on channel=0 note=72 velocity=92 time=0\n",
      "note_on channel=0 note=67 velocity=92 time=0\n",
      "note_off channel=0 note=67 velocity=64 time=192\n",
      "note_off channel=0 note=72 velocity=64 time=0\n",
      "note_off channel=0 note=76 velocity=64 time=0\n",
      "note_on channel=0 note=74 velocity=92 time=0\n",
      "note_on channel=0 note=71 velocity=92 time=0\n",
      "note_on channel=0 note=65 velocity=92 time=0\n",
      "note_off channel=0 note=65 velocity=64 time=192\n",
      "note_off channel=0 note=71 velocity=64 time=0\n",
      "note_off channel=0 note=74 velocity=64 time=0\n",
      "note_on channel=0 note=64 velocity=92 time=0\n",
      "note_on channel=0 note=67 velocity=92 time=0\n",
      "note_on channel=0 note=72 velocity=92 time=0\n",
      "note_off channel=0 note=72 velocity=64 time=384\n",
      "note_off channel=0 note=67 velocity=64 time=0\n",
      "note_off channel=0 note=64 velocity=64 time=0\n",
      "<meta message end_of_track time=1152>\n"
     ]
    }
   ],
   "source": [
    "song = []\n",
    "full_song_message = []\n",
    "for i, track in enumerate(mid.tracks):\n",
    "    if track.name == \"Track 1\":\n",
    "        for msg in track:\n",
    "            print(msg)\n",
    "            if msg.dict()['type'] in ['note_on','note_off']:\n",
    "                song.append((msg.dict()['note'],msg.dict()['velocity'],msg.dict()['time'],msg.dict()['type']))\n",
    "            full_song_message.append(msg)"
   ]
  },
  {
   "cell_type": "code",
   "execution_count": 5,
   "metadata": {
    "scrolled": true
   },
   "outputs": [
    {
     "data": {
      "text/plain": [
       "[(67, 92, 0, 'note_on'),\n",
       " (72, 92, 0, 'note_on'),\n",
       " (72, 64, 192, 'note_off'),\n",
       " (76, 92, 0, 'note_on'),\n",
       " (76, 64, 96, 'note_off'),\n",
       " (74, 92, 0, 'note_on'),\n",
       " (74, 64, 96, 'note_off'),\n",
       " (67, 64, 0, 'note_off'),\n",
       " (72, 92, 0, 'note_on'),\n",
       " (72, 64, 192, 'note_off'),\n",
       " (67, 92, 0, 'note_on'),\n",
       " (72, 92, 0, 'note_on'),\n",
       " (76, 92, 0, 'note_on'),\n",
       " (76, 64, 192, 'note_off'),\n",
       " (72, 64, 0, 'note_off'),\n",
       " (67, 64, 0, 'note_off'),\n",
       " (67, 92, 0, 'note_on'),\n",
       " (74, 92, 0, 'note_on'),\n",
       " (74, 64, 192, 'note_off'),\n",
       " (79, 92, 0, 'note_on'),\n",
       " (79, 64, 192, 'note_off'),\n",
       " (67, 64, 0, 'note_off'),\n",
       " (67, 92, 0, 'note_on'),\n",
       " (67, 64, 192, 'note_off'),\n",
       " (79, 92, 0, 'note_on'),\n",
       " (74, 92, 0, 'note_on'),\n",
       " (67, 92, 0, 'note_on'),\n",
       " (67, 64, 192, 'note_off'),\n",
       " (74, 64, 0, 'note_off'),\n",
       " (79, 64, 0, 'note_off'),\n",
       " (67, 92, 0, 'note_on'),\n",
       " (72, 92, 0, 'note_on'),\n",
       " (76, 92, 0, 'note_on'),\n",
       " (76, 64, 192, 'note_off'),\n",
       " (76, 92, 0, 'note_on'),\n",
       " (76, 64, 96, 'note_off'),\n",
       " (77, 92, 0, 'note_on'),\n",
       " (77, 64, 96, 'note_off'),\n",
       " (72, 64, 0, 'note_off'),\n",
       " (67, 64, 0, 'note_off'),\n",
       " (79, 92, 0, 'note_on'),\n",
       " (79, 64, 192, 'note_off'),\n",
       " (72, 92, 0, 'note_on'),\n",
       " (67, 92, 0, 'note_on'),\n",
       " (77, 92, 0, 'note_on'),\n",
       " (77, 64, 96, 'note_off'),\n",
       " (76, 92, 0, 'note_on'),\n",
       " (76, 64, 96, 'note_off'),\n",
       " (67, 64, 0, 'note_off'),\n",
       " (72, 64, 0, 'note_off'),\n",
       " (67, 92, 0, 'note_on'),\n",
       " (76, 92, 0, 'note_on'),\n",
       " (76, 64, 48, 'note_off'),\n",
       " (74, 92, 0, 'note_on'),\n",
       " (74, 64, 48, 'note_off'),\n",
       " (76, 92, 0, 'note_on'),\n",
       " (76, 64, 48, 'note_off'),\n",
       " (74, 92, 0, 'note_on'),\n",
       " (74, 64, 48, 'note_off'),\n",
       " (76, 92, 0, 'note_on'),\n",
       " (76, 64, 48, 'note_off'),\n",
       " (74, 92, 0, 'note_on'),\n",
       " (74, 64, 48, 'note_off'),\n",
       " (76, 92, 0, 'note_on'),\n",
       " (76, 64, 48, 'note_off'),\n",
       " (74, 92, 0, 'note_on'),\n",
       " (74, 64, 48, 'note_off'),\n",
       " (67, 64, 0, 'note_off'),\n",
       " (67, 92, 0, 'note_on'),\n",
       " (67, 64, 192, 'note_off'),\n",
       " (79, 92, 0, 'note_on'),\n",
       " (74, 92, 0, 'note_on'),\n",
       " (67, 92, 0, 'note_on'),\n",
       " (67, 64, 192, 'note_off'),\n",
       " (74, 64, 0, 'note_off'),\n",
       " (79, 64, 0, 'note_off'),\n",
       " (67, 92, 0, 'note_on'),\n",
       " (72, 92, 0, 'note_on'),\n",
       " (76, 92, 0, 'note_on'),\n",
       " (76, 64, 96, 'note_off'),\n",
       " (72, 64, 0, 'note_off'),\n",
       " (67, 64, 0, 'note_off'),\n",
       " (64, 92, 0, 'note_on'),\n",
       " (67, 92, 0, 'note_on'),\n",
       " (67, 64, 96, 'note_off'),\n",
       " (64, 64, 0, 'note_off'),\n",
       " (62, 92, 0, 'note_on'),\n",
       " (65, 92, 0, 'note_on'),\n",
       " (65, 64, 96, 'note_off'),\n",
       " (62, 64, 0, 'note_off'),\n",
       " (64, 92, 0, 'note_on'),\n",
       " (67, 92, 0, 'note_on'),\n",
       " (67, 64, 96, 'note_off'),\n",
       " (64, 64, 0, 'note_off'),\n",
       " (60, 92, 0, 'note_on'),\n",
       " (64, 92, 0, 'note_on'),\n",
       " (64, 64, 96, 'note_off'),\n",
       " (60, 64, 0, 'note_off'),\n",
       " (64, 92, 0, 'note_on'),\n",
       " (67, 92, 0, 'note_on'),\n",
       " (67, 64, 96, 'note_off'),\n",
       " (64, 64, 0, 'note_off'),\n",
       " (62, 92, 0, 'note_on'),\n",
       " (65, 92, 0, 'note_on'),\n",
       " (65, 64, 96, 'note_off'),\n",
       " (62, 64, 0, 'note_off'),\n",
       " (64, 92, 0, 'note_on'),\n",
       " (67, 92, 0, 'note_on'),\n",
       " (67, 64, 96, 'note_off'),\n",
       " (64, 64, 0, 'note_off'),\n",
       " (65, 92, 0, 'note_on'),\n",
       " (69, 92, 0, 'note_on'),\n",
       " (69, 64, 96, 'note_off'),\n",
       " (65, 64, 0, 'note_off'),\n",
       " (77, 92, 0, 'note_on'),\n",
       " (77, 64, 96, 'note_off'),\n",
       " (76, 92, 0, 'note_on'),\n",
       " (76, 64, 96, 'note_off'),\n",
       " (77, 92, 0, 'note_on'),\n",
       " (77, 64, 96, 'note_off'),\n",
       " (72, 92, 0, 'note_on'),\n",
       " (72, 64, 96, 'note_off'),\n",
       " (77, 92, 0, 'note_on'),\n",
       " (77, 64, 96, 'note_off'),\n",
       " (76, 92, 0, 'note_on'),\n",
       " (76, 64, 96, 'note_off'),\n",
       " (77, 92, 0, 'note_on'),\n",
       " (77, 64, 96, 'note_off'),\n",
       " (74, 92, 0, 'note_on'),\n",
       " (74, 64, 96, 'note_off'),\n",
       " (62, 92, 0, 'note_on'),\n",
       " (65, 92, 0, 'note_on'),\n",
       " (65, 64, 96, 'note_off'),\n",
       " (62, 64, 0, 'note_off'),\n",
       " (60, 92, 0, 'note_on'),\n",
       " (64, 92, 0, 'note_on'),\n",
       " (64, 64, 96, 'note_off'),\n",
       " (60, 64, 0, 'note_off'),\n",
       " (62, 92, 0, 'note_on'),\n",
       " (65, 92, 0, 'note_on'),\n",
       " (65, 64, 96, 'note_off'),\n",
       " (62, 64, 0, 'note_off'),\n",
       " (59, 92, 0, 'note_on'),\n",
       " (62, 92, 0, 'note_on'),\n",
       " (62, 64, 96, 'note_off'),\n",
       " (59, 64, 0, 'note_off'),\n",
       " (62, 92, 0, 'note_on'),\n",
       " (65, 92, 0, 'note_on'),\n",
       " (65, 64, 96, 'note_off'),\n",
       " (62, 64, 0, 'note_off'),\n",
       " (60, 92, 0, 'note_on'),\n",
       " (64, 92, 0, 'note_on'),\n",
       " (64, 64, 96, 'note_off'),\n",
       " (60, 64, 0, 'note_off'),\n",
       " (62, 92, 0, 'note_on'),\n",
       " (65, 92, 0, 'note_on'),\n",
       " (65, 64, 96, 'note_off'),\n",
       " (62, 64, 0, 'note_off'),\n",
       " (64, 92, 0, 'note_on'),\n",
       " (67, 92, 0, 'note_on'),\n",
       " (67, 64, 96, 'note_off'),\n",
       " (64, 64, 0, 'note_off'),\n",
       " (76, 92, 0, 'note_on'),\n",
       " (76, 64, 96, 'note_off'),\n",
       " (74, 92, 0, 'note_on'),\n",
       " (74, 64, 96, 'note_off'),\n",
       " (76, 92, 0, 'note_on'),\n",
       " (76, 64, 96, 'note_off'),\n",
       " (71, 92, 0, 'note_on'),\n",
       " (71, 64, 96, 'note_off'),\n",
       " (76, 92, 0, 'note_on'),\n",
       " (76, 64, 96, 'note_off'),\n",
       " (74, 92, 0, 'note_on'),\n",
       " (74, 64, 96, 'note_off'),\n",
       " (76, 92, 0, 'note_on'),\n",
       " (76, 64, 96, 'note_off'),\n",
       " (72, 92, 0, 'note_on'),\n",
       " (72, 64, 96, 'note_off'),\n",
       " (64, 92, 0, 'note_on'),\n",
       " (64, 64, 96, 'note_off'),\n",
       " (62, 92, 0, 'note_on'),\n",
       " (62, 64, 96, 'note_off'),\n",
       " (64, 92, 0, 'note_on'),\n",
       " (64, 64, 96, 'note_off'),\n",
       " (60, 92, 0, 'note_on'),\n",
       " (60, 64, 96, 'note_off'),\n",
       " (64, 92, 0, 'note_on'),\n",
       " (64, 64, 96, 'note_off'),\n",
       " (62, 92, 0, 'note_on'),\n",
       " (62, 64, 96, 'note_off'),\n",
       " (64, 92, 0, 'note_on'),\n",
       " (64, 64, 96, 'note_off'),\n",
       " (65, 92, 0, 'note_on'),\n",
       " (65, 64, 96, 'note_off'),\n",
       " (74, 92, 0, 'note_on'),\n",
       " (74, 64, 96, 'note_off'),\n",
       " (72, 92, 0, 'note_on'),\n",
       " (72, 64, 96, 'note_off'),\n",
       " (74, 92, 0, 'note_on'),\n",
       " (74, 64, 96, 'note_off'),\n",
       " (69, 92, 0, 'note_on'),\n",
       " (69, 64, 96, 'note_off'),\n",
       " (74, 92, 0, 'note_on'),\n",
       " (74, 64, 96, 'note_off'),\n",
       " (72, 92, 0, 'note_on'),\n",
       " (72, 64, 96, 'note_off'),\n",
       " (74, 92, 0, 'note_on'),\n",
       " (74, 64, 96, 'note_off'),\n",
       " (71, 92, 0, 'note_on'),\n",
       " (71, 64, 96, 'note_off'),\n",
       " (62, 92, 0, 'note_on'),\n",
       " (62, 64, 96, 'note_off'),\n",
       " (60, 92, 0, 'note_on'),\n",
       " (60, 64, 96, 'note_off'),\n",
       " (62, 92, 0, 'note_on'),\n",
       " (62, 64, 96, 'note_off'),\n",
       " (59, 92, 0, 'note_on'),\n",
       " (59, 64, 96, 'note_off'),\n",
       " (62, 92, 0, 'note_on'),\n",
       " (62, 64, 96, 'note_off'),\n",
       " (60, 92, 0, 'note_on'),\n",
       " (60, 64, 96, 'note_off'),\n",
       " (62, 92, 0, 'note_on'),\n",
       " (62, 64, 96, 'note_off'),\n",
       " (64, 92, 0, 'note_on'),\n",
       " (64, 64, 96, 'note_off'),\n",
       " (72, 92, 0, 'note_on'),\n",
       " (72, 64, 96, 'note_off'),\n",
       " (71, 92, 0, 'note_on'),\n",
       " (71, 64, 96, 'note_off'),\n",
       " (72, 92, 0, 'note_on'),\n",
       " (72, 64, 96, 'note_off'),\n",
       " (67, 92, 0, 'note_on'),\n",
       " (67, 64, 96, 'note_off'),\n",
       " (72, 92, 0, 'note_on'),\n",
       " (72, 64, 96, 'note_off'),\n",
       " (71, 92, 0, 'note_on'),\n",
       " (71, 64, 96, 'note_off'),\n",
       " (72, 92, 0, 'note_on'),\n",
       " (72, 64, 96, 'note_off'),\n",
       " (69, 92, 0, 'note_on'),\n",
       " (69, 64, 192, 'note_off'),\n",
       " (72, 92, 0, 'note_on'),\n",
       " (65, 92, 0, 'note_on'),\n",
       " (69, 92, 0, 'note_on'),\n",
       " (69, 64, 192, 'note_off'),\n",
       " (65, 64, 0, 'note_off'),\n",
       " (65, 92, 0, 'note_on'),\n",
       " (67, 92, 0, 'note_on'),\n",
       " (72, 64, 192, 'note_off'),\n",
       " (71, 92, 0, 'note_on'),\n",
       " (71, 64, 192, 'note_off'),\n",
       " (67, 64, 0, 'note_off'),\n",
       " (65, 64, 0, 'note_off'),\n",
       " (64, 92, 0, 'note_on'),\n",
       " (67, 92, 0, 'note_on'),\n",
       " (72, 92, 0, 'note_on'),\n",
       " (72, 64, 192, 'note_off'),\n",
       " (67, 64, 0, 'note_off'),\n",
       " (64, 64, 0, 'note_off'),\n",
       " (76, 92, 0, 'note_on'),\n",
       " (76, 64, 96, 'note_off'),\n",
       " (74, 92, 0, 'note_on'),\n",
       " (74, 64, 96, 'note_off'),\n",
       " (72, 92, 0, 'note_on'),\n",
       " (72, 64, 192, 'note_off'),\n",
       " (67, 92, 0, 'note_on'),\n",
       " (72, 92, 0, 'note_on'),\n",
       " (76, 92, 0, 'note_on'),\n",
       " (76, 64, 192, 'note_off'),\n",
       " (72, 64, 0, 'note_off'),\n",
       " (67, 64, 0, 'note_off'),\n",
       " (74, 92, 0, 'note_on'),\n",
       " (67, 92, 0, 'note_on'),\n",
       " (71, 92, 0, 'note_on'),\n",
       " (74, 64, 192, 'note_off'),\n",
       " (79, 92, 0, 'note_on'),\n",
       " (79, 64, 192, 'note_off'),\n",
       " (71, 64, 0, 'note_off'),\n",
       " (67, 64, 0, 'note_off'),\n",
       " (67, 92, 0, 'note_on'),\n",
       " (67, 64, 192, 'note_off'),\n",
       " (79, 92, 0, 'note_on'),\n",
       " (74, 92, 0, 'note_on'),\n",
       " (67, 92, 0, 'note_on'),\n",
       " (67, 64, 192, 'note_off'),\n",
       " (74, 64, 0, 'note_off'),\n",
       " (79, 64, 0, 'note_off'),\n",
       " (76, 92, 0, 'note_on'),\n",
       " (72, 92, 0, 'note_on'),\n",
       " (67, 92, 0, 'note_on'),\n",
       " (76, 64, 192, 'note_off'),\n",
       " (76, 92, 0, 'note_on'),\n",
       " (76, 64, 96, 'note_off'),\n",
       " (77, 92, 0, 'note_on'),\n",
       " (77, 64, 96, 'note_off'),\n",
       " (67, 64, 0, 'note_off'),\n",
       " (72, 64, 0, 'note_off'),\n",
       " (79, 92, 0, 'note_on'),\n",
       " (79, 64, 192, 'note_off'),\n",
       " (77, 92, 0, 'note_on'),\n",
       " (67, 92, 0, 'note_on'),\n",
       " (72, 92, 0, 'note_on'),\n",
       " (77, 64, 96, 'note_off'),\n",
       " (76, 92, 0, 'note_on'),\n",
       " (76, 64, 96, 'note_off'),\n",
       " (72, 64, 0, 'note_off'),\n",
       " (67, 64, 0, 'note_off'),\n",
       " (67, 92, 0, 'note_on'),\n",
       " (71, 92, 0, 'note_on'),\n",
       " (74, 92, 0, 'note_on'),\n",
       " (67, 64, 96, 'note_off'),\n",
       " (66, 92, 0, 'note_on'),\n",
       " (66, 64, 96, 'note_off'),\n",
       " (67, 92, 0, 'note_on'),\n",
       " (67, 64, 96, 'note_off'),\n",
       " (69, 92, 0, 'note_on'),\n",
       " (69, 64, 96, 'note_off'),\n",
       " (74, 64, 0, 'note_off'),\n",
       " (71, 64, 0, 'note_off'),\n",
       " (71, 92, 0, 'note_on'),\n",
       " (71, 64, 96, 'note_off'),\n",
       " (66, 92, 0, 'note_on'),\n",
       " (66, 64, 96, 'note_off'),\n",
       " (67, 92, 0, 'note_on'),\n",
       " (67, 64, 96, 'note_off'),\n",
       " (62, 92, 0, 'note_on'),\n",
       " (67, 92, 96, 'note_on'),\n",
       " (67, 64, 192, 'note_off'),\n",
       " (71, 92, 0, 'note_on'),\n",
       " (71, 64, 96, 'note_off'),\n",
       " (69, 92, 0, 'note_on'),\n",
       " (69, 64, 96, 'note_off'),\n",
       " (62, 64, 0, 'note_off'),\n",
       " (67, 92, 0, 'note_on'),\n",
       " (67, 64, 192, 'note_off'),\n",
       " (62, 92, 0, 'note_on'),\n",
       " (67, 92, 0, 'note_on'),\n",
       " (71, 92, 0, 'note_on'),\n",
       " (71, 64, 192, 'note_off'),\n",
       " (67, 64, 0, 'note_off'),\n",
       " (62, 64, 0, 'note_off'),\n",
       " (69, 92, 0, 'note_on'),\n",
       " (62, 92, 0, 'note_on'),\n",
       " (69, 64, 192, 'note_off'),\n",
       " (74, 92, 0, 'note_on'),\n",
       " (74, 64, 192, 'note_off'),\n",
       " (62, 64, 0, 'note_off'),\n",
       " (62, 92, 0, 'note_on'),\n",
       " (62, 64, 192, 'note_off'),\n",
       " (74, 92, 0, 'note_on'),\n",
       " (69, 92, 0, 'note_on'),\n",
       " (62, 92, 0, 'note_on'),\n",
       " (62, 64, 192, 'note_off'),\n",
       " (69, 64, 0, 'note_off'),\n",
       " (74, 64, 0, 'note_off'),\n",
       " (71, 92, 0, 'note_on'),\n",
       " (67, 92, 0, 'note_on'),\n",
       " (62, 92, 0, 'note_on'),\n",
       " (71, 64, 192, 'note_off'),\n",
       " (71, 92, 0, 'note_on'),\n",
       " (71, 64, 96, 'note_off'),\n",
       " (72, 92, 0, 'note_on'),\n",
       " (72, 64, 96, 'note_off'),\n",
       " (62, 64, 0, 'note_off'),\n",
       " (67, 64, 0, 'note_off'),\n",
       " (74, 92, 0, 'note_on'),\n",
       " (74, 64, 192, 'note_off'),\n",
       " (72, 92, 0, 'note_on'),\n",
       " (62, 92, 0, 'note_on'),\n",
       " (67, 92, 0, 'note_on'),\n",
       " (72, 64, 96, 'note_off'),\n",
       " (71, 92, 0, 'note_on'),\n",
       " (71, 64, 96, 'note_off'),\n",
       " (67, 64, 0, 'note_off'),\n",
       " (62, 64, 0, 'note_off'),\n",
       " (62, 92, 0, 'note_on'),\n",
       " (66, 92, 0, 'note_on'),\n",
       " (69, 92, 0, 'note_on'),\n",
       " (69, 64, 384, 'note_off'),\n",
       " (66, 64, 0, 'note_off'),\n",
       " (62, 64, 0, 'note_off'),\n",
       " (62, 92, 0, 'note_on'),\n",
       " (62, 64, 192, 'note_off'),\n",
       " (74, 92, 0, 'note_on'),\n",
       " (69, 92, 0, 'note_on'),\n",
       " (62, 92, 0, 'note_on'),\n",
       " (62, 64, 192, 'note_off'),\n",
       " (69, 64, 0, 'note_off'),\n",
       " (74, 64, 0, 'note_off'),\n",
       " (62, 92, 0, 'note_on'),\n",
       " (67, 92, 0, 'note_on'),\n",
       " (71, 92, 0, 'note_on'),\n",
       " (71, 64, 96, 'note_off'),\n",
       " (67, 64, 0, 'note_off'),\n",
       " (62, 64, 0, 'note_off'),\n",
       " (62, 92, 0, 'note_on'),\n",
       " (62, 64, 96, 'note_off'),\n",
       " (60, 92, 0, 'note_on'),\n",
       " (60, 64, 96, 'note_off'),\n",
       " (62, 92, 0, 'note_on'),\n",
       " (62, 64, 96, 'note_off'),\n",
       " (59, 92, 0, 'note_on'),\n",
       " (59, 64, 96, 'note_off'),\n",
       " (62, 92, 0, 'note_on'),\n",
       " (62, 64, 96, 'note_off'),\n",
       " (60, 92, 0, 'note_on'),\n",
       " (60, 64, 96, 'note_off'),\n",
       " (62, 92, 0, 'note_on'),\n",
       " (62, 64, 96, 'note_off'),\n",
       " (64, 92, 0, 'note_on'),\n",
       " (64, 64, 96, 'note_off'),\n",
       " (72, 92, 0, 'note_on'),\n",
       " (72, 64, 96, 'note_off'),\n",
       " (71, 92, 0, 'note_on'),\n",
       " (71, 64, 96, 'note_off'),\n",
       " (72, 92, 0, 'note_on'),\n",
       " (72, 64, 96, 'note_off'),\n",
       " (67, 92, 0, 'note_on'),\n",
       " (67, 64, 96, 'note_off'),\n",
       " (72, 92, 0, 'note_on'),\n",
       " (72, 64, 96, 'note_off'),\n",
       " (71, 92, 0, 'note_on'),\n",
       " (71, 64, 96, 'note_off'),\n",
       " (72, 92, 0, 'note_on'),\n",
       " (72, 64, 96, 'note_off'),\n",
       " (69, 92, 0, 'note_on'),\n",
       " (69, 64, 96, 'note_off'),\n",
       " (60, 92, 0, 'note_on'),\n",
       " (60, 64, 96, 'note_off'),\n",
       " (59, 92, 0, 'note_on'),\n",
       " (59, 64, 96, 'note_off'),\n",
       " (60, 92, 0, 'note_on'),\n",
       " (60, 64, 96, 'note_off'),\n",
       " (57, 92, 0, 'note_on'),\n",
       " (57, 64, 96, 'note_off'),\n",
       " (60, 92, 0, 'note_on'),\n",
       " (60, 64, 96, 'note_off'),\n",
       " (59, 92, 0, 'note_on'),\n",
       " (59, 64, 96, 'note_off'),\n",
       " (60, 92, 0, 'note_on'),\n",
       " (60, 64, 96, 'note_off'),\n",
       " (62, 92, 0, 'note_on'),\n",
       " (62, 64, 96, 'note_off'),\n",
       " (71, 92, 0, 'note_on'),\n",
       " (71, 64, 96, 'note_off'),\n",
       " (69, 92, 0, 'note_on'),\n",
       " (69, 64, 96, 'note_off'),\n",
       " (71, 92, 0, 'note_on'),\n",
       " (71, 64, 96, 'note_off'),\n",
       " (66, 92, 0, 'note_on'),\n",
       " (66, 64, 96, 'note_off'),\n",
       " (71, 92, 0, 'note_on'),\n",
       " (71, 64, 96, 'note_off'),\n",
       " (69, 92, 0, 'note_on'),\n",
       " (69, 64, 96, 'note_off'),\n",
       " (71, 92, 0, 'note_on'),\n",
       " (71, 64, 96, 'note_off'),\n",
       " (67, 92, 0, 'note_on'),\n",
       " (67, 64, 96, 'note_off'),\n",
       " (69, 92, 768, 'note_on'),\n",
       " (69, 64, 96, 'note_off'),\n",
       " (67, 92, 0, 'note_on'),\n",
       " (67, 64, 96, 'note_off'),\n",
       " (69, 92, 0, 'note_on'),\n",
       " (69, 64, 96, 'note_off'),\n",
       " (64, 92, 0, 'note_on'),\n",
       " (64, 64, 96, 'note_off'),\n",
       " (69, 92, 0, 'note_on'),\n",
       " (69, 64, 96, 'note_off'),\n",
       " (67, 92, 0, 'note_on'),\n",
       " (67, 64, 96, 'note_off'),\n",
       " (69, 92, 0, 'note_on'),\n",
       " (69, 64, 96, 'note_off'),\n",
       " (66, 92, 0, 'note_on'),\n",
       " (66, 64, 96, 'note_off'),\n",
       " (67, 92, 768, 'note_on'),\n",
       " (67, 64, 96, 'note_off'),\n",
       " (66, 92, 0, 'note_on'),\n",
       " (66, 64, 96, 'note_off'),\n",
       " (67, 92, 0, 'note_on'),\n",
       " (67, 64, 96, 'note_off'),\n",
       " (62, 92, 0, 'note_on'),\n",
       " (62, 64, 96, 'note_off'),\n",
       " (67, 92, 0, 'note_on'),\n",
       " (67, 64, 96, 'note_off'),\n",
       " (66, 92, 0, 'note_on'),\n",
       " (66, 64, 96, 'note_off'),\n",
       " (67, 92, 0, 'note_on'),\n",
       " (67, 64, 96, 'note_off'),\n",
       " (64, 92, 0, 'note_on'),\n",
       " (64, 64, 192, 'note_off'),\n",
       " (60, 92, 0, 'note_on'),\n",
       " (64, 92, 0, 'note_on'),\n",
       " (67, 92, 0, 'note_on'),\n",
       " (64, 64, 192, 'note_off'),\n",
       " (60, 64, 0, 'note_off'),\n",
       " (60, 92, 0, 'note_on'),\n",
       " (62, 92, 0, 'note_on'),\n",
       " (67, 64, 192, 'note_off'),\n",
       " (66, 92, 0, 'note_on'),\n",
       " (66, 64, 192, 'note_off'),\n",
       " (62, 64, 0, 'note_off'),\n",
       " (60, 64, 0, 'note_off'),\n",
       " (59, 92, 0, 'note_on'),\n",
       " (62, 92, 0, 'note_on'),\n",
       " (67, 92, 0, 'note_on'),\n",
       " (67, 64, 192, 'note_off'),\n",
       " (62, 64, 0, 'note_off'),\n",
       " (59, 64, 0, 'note_off'),\n",
       " (71, 92, 0, 'note_on'),\n",
       " (71, 64, 96, 'note_off'),\n",
       " (69, 92, 0, 'note_on'),\n",
       " (69, 64, 96, 'note_off'),\n",
       " (67, 92, 0, 'note_on'),\n",
       " (67, 64, 192, 'note_off'),\n",
       " (62, 92, 0, 'note_on'),\n",
       " (67, 92, 0, 'note_on'),\n",
       " (71, 92, 0, 'note_on'),\n",
       " (71, 64, 192, 'note_off'),\n",
       " (67, 64, 0, 'note_off'),\n",
       " (62, 64, 0, 'note_off'),\n",
       " (62, 92, 0, 'note_on'),\n",
       " (66, 92, 0, 'note_on'),\n",
       " (69, 92, 0, 'note_on'),\n",
       " (69, 64, 192, 'note_off'),\n",
       " (74, 92, 0, 'note_on'),\n",
       " (74, 64, 192, 'note_off'),\n",
       " (66, 64, 0, 'note_off'),\n",
       " (62, 64, 0, 'note_off'),\n",
       " (62, 92, 0, 'note_on'),\n",
       " (62, 64, 192, 'note_off'),\n",
       " (74, 92, 0, 'note_on'),\n",
       " (69, 92, 0, 'note_on'),\n",
       " (62, 92, 0, 'note_on'),\n",
       " (62, 64, 192, 'note_off'),\n",
       " (69, 64, 0, 'note_off'),\n",
       " (74, 64, 0, 'note_off'),\n",
       " (62, 92, 0, 'note_on'),\n",
       " (67, 92, 0, 'note_on'),\n",
       " (71, 92, 0, 'note_on'),\n",
       " (71, 64, 192, 'note_off'),\n",
       " (71, 92, 0, 'note_on'),\n",
       " (71, 64, 96, 'note_off'),\n",
       " (72, 92, 0, 'note_on'),\n",
       " (72, 64, 96, 'note_off'),\n",
       " (67, 64, 0, 'note_off'),\n",
       " (62, 64, 0, 'note_off'),\n",
       " (74, 92, 0, 'note_on'),\n",
       " (74, 64, 192, 'note_off'),\n",
       " (62, 92, 0, 'note_on'),\n",
       " (67, 92, 0, 'note_on'),\n",
       " (67, 64, 192, 'note_off'),\n",
       " (62, 64, 0, 'note_off'),\n",
       " (69, 92, 0, 'note_on'),\n",
       " (66, 92, 0, 'note_on'),\n",
       " (62, 92, 192, 'note_on'),\n",
       " (62, 64, 96, 'note_off'),\n",
       " (64, 92, 0, 'note_on'),\n",
       " (64, 64, 96, 'note_off'),\n",
       " (66, 64, 0, 'note_off'),\n",
       " (69, 64, 0, 'note_off'),\n",
       " (66, 92, 0, 'note_on'),\n",
       " (66, 64, 96, 'note_off'),\n",
       " (64, 92, 0, 'note_on'),\n",
       " (64, 64, 96, 'note_off'),\n",
       " (66, 92, 0, 'note_on'),\n",
       " (66, 64, 96, 'note_off'),\n",
       " (68, 92, 0, 'note_on'),\n",
       " (68, 64, 96, 'note_off'),\n",
       " (69, 92, 0, 'note_on'),\n",
       " (64, 92, 0, 'note_on'),\n",
       " (69, 64, 192, 'note_off'),\n",
       " (72, 92, 0, 'note_on'),\n",
       " (72, 64, 96, 'note_off'),\n",
       " (71, 92, 0, 'note_on'),\n",
       " (71, 64, 96, 'note_off'),\n",
       " (64, 64, 0, 'note_off'),\n",
       " (69, 92, 0, 'note_on'),\n",
       " (69, 64, 192, 'note_off'),\n",
       " (64, 92, 0, 'note_on'),\n",
       " (69, 92, 0, 'note_on'),\n",
       " (72, 92, 0, 'note_on'),\n",
       " (72, 64, 192, 'note_off'),\n",
       " (69, 64, 0, 'note_off'),\n",
       " (64, 64, 0, 'note_off'),\n",
       " (71, 92, 0, 'note_on'),\n",
       " (64, 92, 0, 'note_on'),\n",
       " (71, 64, 192, 'note_off'),\n",
       " (76, 92, 0, 'note_on'),\n",
       " (76, 64, 192, 'note_off'),\n",
       " (64, 64, 0, 'note_off'),\n",
       " (64, 92, 0, 'note_on'),\n",
       " (64, 64, 192, 'note_off'),\n",
       " (76, 92, 0, 'note_on'),\n",
       " (71, 92, 0, 'note_on'),\n",
       " (64, 92, 0, 'note_on'),\n",
       " (64, 64, 192, 'note_off'),\n",
       " (71, 64, 0, 'note_off'),\n",
       " (76, 64, 0, 'note_off'),\n",
       " (72, 92, 0, 'note_on'),\n",
       " (64, 92, 0, 'note_on'),\n",
       " (69, 92, 0, 'note_on'),\n",
       " (72, 64, 192, 'note_off'),\n",
       " (72, 92, 0, 'note_on'),\n",
       " (72, 64, 96, 'note_off'),\n",
       " (74, 92, 0, 'note_on'),\n",
       " (74, 64, 96, 'note_off'),\n",
       " (69, 64, 0, 'note_off'),\n",
       " (64, 64, 0, 'note_off'),\n",
       " (76, 92, 0, 'note_on'),\n",
       " (76, 64, 192, 'note_off'),\n",
       " (64, 92, 0, 'note_on'),\n",
       " (69, 92, 0, 'note_on'),\n",
       " (74, 92, 0, 'note_on'),\n",
       " (74, 64, 96, 'note_off'),\n",
       " (72, 92, 0, 'note_on'),\n",
       " (72, 64, 96, 'note_off'),\n",
       " (69, 64, 0, 'note_off'),\n",
       " (64, 64, 0, 'note_off'),\n",
       " (64, 92, 0, 'note_on'),\n",
       " (68, 92, 0, 'note_on'),\n",
       " (71, 92, 0, 'note_on'),\n",
       " (71, 64, 384, 'note_off'),\n",
       " (68, 64, 0, 'note_off'),\n",
       " (64, 64, 0, 'note_off'),\n",
       " (64, 92, 0, 'note_on'),\n",
       " (64, 64, 192, 'note_off'),\n",
       " (76, 92, 0, 'note_on'),\n",
       " (72, 92, 0, 'note_on'),\n",
       " (69, 92, 0, 'note_on'),\n",
       " (69, 64, 192, 'note_off'),\n",
       " (72, 64, 0, 'note_off'),\n",
       " (76, 64, 0, 'note_off'),\n",
       " (77, 92, 0, 'note_on'),\n",
       " (74, 92, 96, 'note_on'),\n",
       " (74, 64, 96, 'note_off'),\n",
       " (72, 92, 0, 'note_on'),\n",
       " (72, 64, 96, 'note_off'),\n",
       " (74, 92, 0, 'note_on'),\n",
       " (74, 64, 96, 'note_off'),\n",
       " (69, 92, 0, 'note_on'),\n",
       " (69, 64, 96, 'note_off'),\n",
       " (74, 92, 0, 'note_on'),\n",
       " (74, 64, 96, 'note_off'),\n",
       " (72, 92, 0, 'note_on'),\n",
       " (72, 64, 96, 'note_off'),\n",
       " (74, 92, 0, 'note_on'),\n",
       " (74, 64, 96, 'note_off'),\n",
       " (71, 92, 0, 'note_on'),\n",
       " (71, 64, 96, 'note_off'),\n",
       " (77, 64, 0, 'note_off'),\n",
       " (76, 92, 672, 'note_on'),\n",
       " (72, 92, 96, 'note_on'),\n",
       " (72, 64, 96, 'note_off'),\n",
       " (71, 92, 0, 'note_on'),\n",
       " (71, 64, 96, 'note_off'),\n",
       " (72, 92, 0, 'note_on'),\n",
       " (72, 64, 96, 'note_off'),\n",
       " (67, 92, 0, 'note_on'),\n",
       " (67, 64, 96, 'note_off'),\n",
       " (72, 92, 0, 'note_on'),\n",
       " (72, 64, 96, 'note_off'),\n",
       " (71, 92, 0, 'note_on'),\n",
       " (71, 64, 96, 'note_off'),\n",
       " (72, 92, 0, 'note_on'),\n",
       " (72, 64, 96, 'note_off'),\n",
       " (69, 92, 0, 'note_on'),\n",
       " (69, 64, 96, 'note_off'),\n",
       " (76, 64, 0, 'note_off'),\n",
       " (74, 92, 672, 'note_on'),\n",
       " (71, 92, 96, 'note_on'),\n",
       " (71, 64, 96, 'note_off'),\n",
       " (69, 92, 0, 'note_on'),\n",
       " (69, 64, 96, 'note_off'),\n",
       " (71, 92, 0, 'note_on'),\n",
       " (71, 64, 96, 'note_off'),\n",
       " (66, 92, 0, 'note_on'),\n",
       " (66, 64, 96, 'note_off'),\n",
       " (71, 92, 0, 'note_on'),\n",
       " (71, 64, 96, 'note_off'),\n",
       " (69, 92, 0, 'note_on'),\n",
       " (69, 64, 96, 'note_off'),\n",
       " (71, 92, 0, 'note_on'),\n",
       " (71, 64, 96, 'note_off'),\n",
       " (68, 92, 0, 'note_on'),\n",
       " (68, 64, 96, 'note_off'),\n",
       " (74, 64, 0, 'note_off'),\n",
       " (72, 92, 672, 'note_on'),\n",
       " (69, 92, 96, 'note_on'),\n",
       " (69, 64, 96, 'note_off'),\n",
       " (67, 92, 0, 'note_on'),\n",
       " (67, 64, 96, 'note_off'),\n",
       " (69, 92, 0, 'note_on'),\n",
       " (69, 64, 96, 'note_off'),\n",
       " (64, 92, 0, 'note_on'),\n",
       " (64, 64, 96, 'note_off'),\n",
       " (69, 92, 0, 'note_on'),\n",
       " (69, 64, 96, 'note_off'),\n",
       " (67, 92, 0, 'note_on'),\n",
       " (67, 64, 96, 'note_off'),\n",
       " (69, 92, 0, 'note_on'),\n",
       " (69, 64, 96, 'note_off'),\n",
       " (66, 92, 0, 'note_on'),\n",
       " (66, 64, 96, 'note_off'),\n",
       " (72, 64, 0, 'note_off'),\n",
       " (64, 92, 768, 'note_on'),\n",
       " (72, 92, 0, 'note_on'),\n",
       " (72, 64, 96, 'note_off'),\n",
       " (64, 64, 0, 'note_off'),\n",
       " (62, 92, 0, 'note_on'),\n",
       " (71, 92, 0, 'note_on'),\n",
       " (71, 64, 96, 'note_off'),\n",
       " (62, 64, 0, 'note_off'),\n",
       " (60, 92, 0, 'note_on'),\n",
       " (69, 92, 0, 'note_on'),\n",
       " (69, 64, 96, 'note_off'),\n",
       " (60, 64, 0, 'note_off'),\n",
       " (59, 92, 0, 'note_on'),\n",
       " (67, 92, 0, 'note_on'),\n",
       " (67, 64, 96, 'note_off'),\n",
       " (59, 64, 0, 'note_off'),\n",
       " (71, 92, 0, 'note_on'),\n",
       " (79, 92, 0, 'note_on'),\n",
       " (79, 64, 96, 'note_off'),\n",
       " (71, 64, 0, 'note_off'),\n",
       " (69, 92, 0, 'note_on'),\n",
       " (78, 92, 0, 'note_on'),\n",
       " (78, 64, 96, 'note_off'),\n",
       " (69, 64, 0, 'note_off'),\n",
       " (67, 92, 0, 'note_on'),\n",
       " (76, 92, 0, 'note_on'),\n",
       " (76, 64, 96, 'note_off'),\n",
       " (67, 64, 0, 'note_off'),\n",
       " (66, 92, 0, 'note_on'),\n",
       " (75, 92, 0, 'note_on'),\n",
       " (75, 64, 96, 'note_off'),\n",
       " (69, 92, 0, 'note_on'),\n",
       " (69, 64, 96, 'note_off'),\n",
       " (66, 64, 0, 'note_off'),\n",
       " (64, 92, 0, 'note_on'),\n",
       " (67, 92, 0, 'note_on'),\n",
       " (67, 64, 96, 'note_off'),\n",
       " (64, 64, 0, 'note_off'),\n",
       " (62, 92, 0, 'note_on'),\n",
       " (76, 92, 0, 'note_on'),\n",
       " (76, 64, 96, 'note_off'),\n",
       " (62, 64, 0, 'note_off'),\n",
       " (60, 92, 0, 'note_on'),\n",
       " (66, 92, 0, 'note_on'),\n",
       " (66, 64, 96, 'note_off'),\n",
       " (76, 92, 0, 'note_on'),\n",
       " (76, 64, 96, 'note_off'),\n",
       " (60, 64, 0, 'note_off'),\n",
       " (66, 92, 0, 'note_on'),\n",
       " (66, 64, 96, 'note_off'),\n",
       " (75, 92, 0, 'note_on'),\n",
       " (75, 64, 96, 'note_off'),\n",
       " (64, 92, 0, 'note_on'),\n",
       " (71, 92, 0, 'note_on'),\n",
       " (76, 92, 0, 'note_on'),\n",
       " (76, 64, 192, 'note_off'),\n",
       " (71, 64, 0, 'note_off'),\n",
       " (64, 64, 0, 'note_off'),\n",
       " (79, 92, 0, 'note_on'),\n",
       " (79, 64, 96, 'note_off'),\n",
       " (78, 92, 0, 'note_on'),\n",
       " (78, 64, 96, 'note_off'),\n",
       " (76, 92, 0, 'note_on'),\n",
       " (76, 64, 192, 'note_off'),\n",
       " (71, 92, 0, 'note_on'),\n",
       " (76, 92, 0, 'note_on'),\n",
       " (79, 92, 0, 'note_on'),\n",
       " (79, 64, 192, 'note_off'),\n",
       " (76, 64, 0, 'note_off'),\n",
       " (71, 64, 0, 'note_off'),\n",
       " (78, 92, 0, 'note_on'),\n",
       " (71, 92, 0, 'note_on'),\n",
       " (78, 64, 192, 'note_off'),\n",
       " (83, 92, 0, 'note_on'),\n",
       " (83, 64, 192, 'note_off'),\n",
       " (71, 64, 0, 'note_off'),\n",
       " (71, 92, 0, 'note_on'),\n",
       " (71, 64, 192, 'note_off'),\n",
       " (83, 92, 0, 'note_on'),\n",
       " (78, 92, 0, 'note_on'),\n",
       " (71, 92, 0, 'note_on'),\n",
       " (71, 64, 192, 'note_off'),\n",
       " (78, 64, 0, 'note_off'),\n",
       " (83, 64, 0, 'note_off'),\n",
       " (71, 92, 0, 'note_on'),\n",
       " (76, 92, 0, 'note_on'),\n",
       " (79, 92, 0, 'note_on'),\n",
       " (79, 64, 192, 'note_off'),\n",
       " (76, 64, 0, 'note_off'),\n",
       " (71, 64, 0, 'note_off'),\n",
       " (79, 92, 0, 'note_on'),\n",
       " (79, 64, 96, 'note_off'),\n",
       " (81, 92, 0, 'note_on'),\n",
       " (81, 64, 96, 'note_off'),\n",
       " (83, 92, 0, 'note_on'),\n",
       " (83, 64, 192, 'note_off'),\n",
       " (81, 92, 0, 'note_on'),\n",
       " (71, 92, 0, 'note_on'),\n",
       " (76, 92, 0, 'note_on'),\n",
       " (81, 64, 96, 'note_off'),\n",
       " (79, 92, 0, 'note_on'),\n",
       " (79, 64, 96, 'note_off'),\n",
       " (76, 64, 0, 'note_off'),\n",
       " (71, 64, 0, 'note_off'),\n",
       " (71, 92, 0, 'note_on'),\n",
       " (75, 92, 0, 'note_on'),\n",
       " (78, 92, 0, 'note_on'),\n",
       " (78, 64, 384, 'note_off'),\n",
       " (75, 64, 0, 'note_off'),\n",
       " (71, 64, 0, 'note_off'),\n",
       " (71, 92, 0, 'note_on'),\n",
       " (71, 64, 192, 'note_off'),\n",
       " (83, 92, 0, 'note_on'),\n",
       " (78, 92, 0, 'note_on'),\n",
       " (71, 92, 0, 'note_on'),\n",
       " (71, 64, 192, 'note_off'),\n",
       " (78, 64, 0, 'note_off'),\n",
       " (83, 64, 0, 'note_off'),\n",
       " (71, 92, 0, 'note_on'),\n",
       " (76, 92, 0, 'note_on'),\n",
       " (79, 92, 0, 'note_on'),\n",
       " (79, 64, 96, 'note_off'),\n",
       " (76, 64, 0, 'note_off'),\n",
       " (71, 64, 0, 'note_off'),\n",
       " (76, 92, 0, 'note_on'),\n",
       " (67, 92, 0, 'note_on'),\n",
       " (67, 64, 96, 'note_off'),\n",
       " (76, 64, 0, 'note_off'),\n",
       " (74, 92, 0, 'note_on'),\n",
       " (66, 92, 0, 'note_on'),\n",
       " (66, 64, 96, 'note_off'),\n",
       " (74, 64, 0, 'note_off'),\n",
       " (76, 92, 0, 'note_on'),\n",
       " (67, 92, 0, 'note_on'),\n",
       " (67, 64, 96, 'note_off'),\n",
       " (76, 64, 0, 'note_off'),\n",
       " (71, 92, 0, 'note_on'),\n",
       " (64, 92, 0, 'note_on'),\n",
       " (64, 64, 96, 'note_off'),\n",
       " (71, 64, 0, 'note_off'),\n",
       " (76, 92, 0, 'note_on'),\n",
       " (67, 92, 0, 'note_on'),\n",
       " (67, 64, 96, 'note_off'),\n",
       " (76, 64, 0, 'note_off'),\n",
       " (74, 92, 0, 'note_on'),\n",
       " (66, 92, 0, 'note_on'),\n",
       " (66, 64, 96, 'note_off'),\n",
       " (74, 64, 0, 'note_off'),\n",
       " (76, 92, 0, 'note_on'),\n",
       " (67, 92, 0, 'note_on'),\n",
       " (67, 64, 96, 'note_off'),\n",
       " (76, 64, 0, 'note_off'),\n",
       " (69, 92, 0, 'note_on'),\n",
       " (72, 92, 0, 'note_on'),\n",
       " (72, 64, 96, 'note_off'),\n",
       " (69, 64, 0, 'note_off'),\n",
       " (81, 92, 0, 'note_on'),\n",
       " (81, 64, 96, 'note_off'),\n",
       " (79, 92, 0, 'note_on'),\n",
       " (79, 64, 96, 'note_off'),\n",
       " (81, 92, 0, 'note_on'),\n",
       " (81, 64, 96, 'note_off'),\n",
       " (76, 92, 0, 'note_on'),\n",
       " (76, 64, 96, 'note_off'),\n",
       " (81, 92, 0, 'note_on'),\n",
       " (81, 64, 96, 'note_off'),\n",
       " (79, 92, 0, 'note_on'),\n",
       " (79, 64, 96, 'note_off'),\n",
       " (81, 92, 0, 'note_on'),\n",
       " (81, 64, 96, 'note_off'),\n",
       " (78, 92, 0, 'note_on'),\n",
       " (78, 64, 96, 'note_off'),\n",
       " (66, 92, 0, 'note_on'),\n",
       " (74, 92, 0, 'note_on'),\n",
       " (74, 64, 96, 'note_off'),\n",
       " (66, 64, 0, 'note_off'),\n",
       " (64, 92, 0, 'note_on'),\n",
       " (72, 92, 0, 'note_on'),\n",
       " (72, 64, 96, 'note_off'),\n",
       " (64, 64, 0, 'note_off'),\n",
       " (66, 92, 0, 'note_on'),\n",
       " (74, 92, 0, 'note_on'),\n",
       " (74, 64, 96, 'note_off'),\n",
       " (66, 64, 0, 'note_off'),\n",
       " (69, 92, 0, 'note_on'),\n",
       " (62, 92, 0, 'note_on'),\n",
       " (62, 64, 96, 'note_off'),\n",
       " (69, 64, 0, 'note_off'),\n",
       " (74, 92, 0, 'note_on'),\n",
       " (66, 92, 0, 'note_on'),\n",
       " (66, 64, 96, 'note_off'),\n",
       " (74, 64, 0, 'note_off'),\n",
       " (72, 92, 0, 'note_on'),\n",
       " (64, 92, 0, 'note_on'),\n",
       " (64, 64, 96, 'note_off'),\n",
       " (72, 64, 0, 'note_off'),\n",
       " (74, 92, 0, 'note_on'),\n",
       " (66, 92, 0, 'note_on'),\n",
       " (66, 64, 96, 'note_off'),\n",
       " (74, 64, 0, 'note_off'),\n",
       " (67, 92, 0, 'note_on'),\n",
       " (71, 92, 0, 'note_on'),\n",
       " (71, 64, 96, 'note_off'),\n",
       " (67, 64, 0, 'note_off'),\n",
       " (79, 92, 0, 'note_on'),\n",
       " (79, 64, 96, 'note_off'),\n",
       " (77, 92, 0, 'note_on'),\n",
       " (77, 64, 96, 'note_off'),\n",
       " (79, 92, 0, 'note_on'),\n",
       " (79, 64, 96, 'note_off'),\n",
       " (74, 92, 0, 'note_on'),\n",
       " (74, 64, 96, 'note_off'),\n",
       " (79, 92, 0, 'note_on'),\n",
       " (79, 64, 96, 'note_off'),\n",
       " (77, 92, 0, 'note_on'),\n",
       " (77, 64, 96, 'note_off'),\n",
       " (79, 92, 0, 'note_on'),\n",
       " (79, 64, 96, 'note_off'),\n",
       " (76, 92, 0, 'note_on'),\n",
       " (76, 64, 96, 'note_off'),\n",
       " (64, 92, 0, 'note_on'),\n",
       " (72, 92, 0, 'note_on'),\n",
       " (72, 64, 96, 'note_off'),\n",
       " (64, 64, 0, 'note_off'),\n",
       " (62, 92, 0, 'note_on'),\n",
       " (71, 92, 0, 'note_on'),\n",
       " (71, 64, 96, 'note_off'),\n",
       " (62, 64, 0, 'note_off'),\n",
       " (64, 92, 0, 'note_on'),\n",
       " (72, 92, 0, 'note_on'),\n",
       " (72, 64, 96, 'note_off'),\n",
       " (64, 64, 0, 'note_off'),\n",
       " (67, 92, 0, 'note_on'),\n",
       " (60, 92, 0, 'note_on'),\n",
       " (60, 64, 96, 'note_off'),\n",
       " (67, 64, 0, 'note_off'),\n",
       " (72, 92, 0, 'note_on'),\n",
       " (64, 92, 0, 'note_on'),\n",
       " (64, 64, 96, 'note_off'),\n",
       " (72, 64, 0, 'note_off'),\n",
       " (71, 92, 0, 'note_on'),\n",
       " (62, 92, 0, 'note_on'),\n",
       " (62, 64, 96, 'note_off'),\n",
       " (71, 64, 0, 'note_off'),\n",
       " (72, 92, 0, 'note_on'),\n",
       " (64, 92, 0, 'note_on'),\n",
       " (64, 64, 96, 'note_off'),\n",
       " (72, 64, 0, 'note_off'),\n",
       " (66, 92, 0, 'note_on'),\n",
       " (69, 92, 0, 'note_on'),\n",
       " (69, 64, 96, 'note_off'),\n",
       " (66, 64, 0, 'note_off'),\n",
       " (78, 92, 0, 'note_on'),\n",
       " (78, 64, 96, 'note_off'),\n",
       " (76, 92, 0, 'note_on'),\n",
       " (76, 64, 96, 'note_off'),\n",
       " (78, 92, 0, 'note_on'),\n",
       " (78, 64, 96, 'note_off'),\n",
       " (73, 92, 0, 'note_on'),\n",
       " (73, 64, 96, 'note_off'),\n",
       " (78, 92, 0, 'note_on'),\n",
       " (78, 64, 96, 'note_off'),\n",
       " (76, 92, 0, 'note_on'),\n",
       " (76, 64, 96, 'note_off'),\n",
       " (78, 92, 0, 'note_on'),\n",
       " (78, 64, 96, 'note_off'),\n",
       " (75, 92, 0, 'note_on'),\n",
       " (75, 64, 96, 'note_off'),\n",
       " (63, 92, 0, 'note_on'),\n",
       " (71, 92, 0, 'note_on'),\n",
       " (71, 64, 96, 'note_off'),\n",
       " (63, 64, 0, 'note_off'),\n",
       " (61, 92, 0, 'note_on'),\n",
       " (69, 92, 0, 'note_on'),\n",
       " (69, 64, 96, 'note_off'),\n",
       " (61, 64, 0, 'note_off'),\n",
       " (63, 92, 0, 'note_on'),\n",
       " (71, 92, 0, 'note_on'),\n",
       " (71, 64, 96, 'note_off'),\n",
       " (63, 64, 0, 'note_off'),\n",
       " (66, 92, 0, 'note_on'),\n",
       " (59, 92, 0, 'note_on'),\n",
       " (59, 64, 96, 'note_off'),\n",
       " (66, 64, 0, 'note_off'),\n",
       " (71, 92, 0, 'note_on'),\n",
       " (63, 92, 0, 'note_on'),\n",
       " (63, 64, 96, 'note_off'),\n",
       " (71, 64, 0, 'note_off'),\n",
       " (69, 92, 0, 'note_on'),\n",
       " (61, 92, 0, 'note_on'),\n",
       " (61, 64, 96, 'note_off'),\n",
       " (69, 64, 0, 'note_off'),\n",
       " (71, 92, 0, 'note_on'),\n",
       " (63, 92, 0, 'note_on'),\n",
       " ...]"
      ]
     },
     "execution_count": 5,
     "metadata": {},
     "output_type": "execute_result"
    }
   ],
   "source": [
    "song"
   ]
  },
  {
   "cell_type": "code",
   "execution_count": 6,
   "metadata": {},
   "outputs": [],
   "source": [
    "from mido import Message, MidiFile, MidiTrack\n",
    "\n",
    "mid = MidiFile()\n",
    "track = MidiTrack()\n",
    "mid.tracks.append(track)\n",
    "\n",
    "\n",
    "\n",
    "\n",
    "for note, velocity, time, type in song:\n",
    "    track.append(mido.Message(type, note=note, velocity=velocity, time=time))\n",
    "    #track.append(message)\n",
    "    \n",
    "mid.save('new_song.mid')"
   ]
  },
  {
   "cell_type": "code",
   "execution_count": 15,
   "metadata": {},
   "outputs": [
    {
     "name": "stdout",
     "output_type": "stream",
     "text": [
      "    0   1    2         3\n",
      "0  67  92    0   note_on\n",
      "1  72  92    0   note_on\n",
      "2  72  64  192  note_off\n",
      "3  76  92    0   note_on\n",
      "4  76  64   96  note_off\n",
      "\n",
      "(2974, 4)\n",
      "(2974, 1)\n"
     ]
    }
   ],
   "source": [
    "training_set = pd.DataFrame(song)\n",
    "print(training_set.head())\n",
    "print()\n",
    "print(training_set.shape)\n",
    "del training_set[1]\n",
    "del training_set[2]\n",
    "del training_set[3]\n",
    "training_set = training_set.to_numpy()\n",
    "print(training_set.shape)"
   ]
  },
  {
   "cell_type": "code",
   "execution_count": 12,
   "metadata": {},
   "outputs": [
    {
     "data": {
      "text/plain": [
       "array([[67],\n",
       "       [72],\n",
       "       [72],\n",
       "       [76],\n",
       "       [76],\n",
       "       [74],\n",
       "       [74],\n",
       "       [67],\n",
       "       [72],\n",
       "       [72]], dtype=int64)"
      ]
     },
     "execution_count": 12,
     "metadata": {},
     "output_type": "execute_result"
    }
   ],
   "source": [
    "training_set[:10]"
   ]
  },
  {
   "cell_type": "code",
   "execution_count": 10,
   "metadata": {},
   "outputs": [
    {
     "data": {
      "text/plain": [
       "array([[67],\n",
       "       [72],\n",
       "       [72],\n",
       "       ...,\n",
       "       [72],\n",
       "       [67],\n",
       "       [64]], dtype=int64)"
      ]
     },
     "execution_count": 10,
     "metadata": {},
     "output_type": "execute_result"
    }
   ],
   "source": [
    "\"\"\"\n",
    "from sklearn.preprocessing import MinMaxScaler\n",
    "sc = MinMaxScaler(feature_range = (0, 1))\n",
    "training_set_scaled = sc.fit_transform(training_set)\n",
    "\"\"\"\n",
    "training_set_scaled = training_set\n",
    "training_set_scaled"
   ]
  },
  {
   "cell_type": "code",
   "execution_count": 16,
   "metadata": {},
   "outputs": [],
   "source": [
    "X_train = []\n",
    "y_train = []\n",
    "for i in range(60, 2700):\n",
    "    X_train.append(training_set_scaled[i-60:i, 0])\n",
    "    y_train.append(training_set_scaled[i:i+60, 0])\n",
    "X_train, y_train = np.array(X_train), np.array(y_train)\n",
    "\n",
    "X_train = np.reshape(X_train, (X_train.shape[0], X_train.shape[1], 1))\n",
    "y_train = np.reshape(y_train, (y_train.shape[0], y_train.shape[1], 1))\n"
   ]
  },
  {
   "cell_type": "code",
   "execution_count": 17,
   "metadata": {},
   "outputs": [
    {
     "data": {
      "text/plain": [
       "array([[[76],\n",
       "        [74],\n",
       "        [74],\n",
       "        ...,\n",
       "        [76],\n",
       "        [77],\n",
       "        [77]],\n",
       "\n",
       "       [[74],\n",
       "        [74],\n",
       "        [76],\n",
       "        ...,\n",
       "        [77],\n",
       "        [77],\n",
       "        [72]],\n",
       "\n",
       "       [[74],\n",
       "        [76],\n",
       "        [76],\n",
       "        ...,\n",
       "        [77],\n",
       "        [72],\n",
       "        [72]],\n",
       "\n",
       "       ...,\n",
       "\n",
       "       [[64],\n",
       "        [67],\n",
       "        [67],\n",
       "        ...,\n",
       "        [64],\n",
       "        [64],\n",
       "        [62]],\n",
       "\n",
       "       [[67],\n",
       "        [67],\n",
       "        [65],\n",
       "        ...,\n",
       "        [64],\n",
       "        [62],\n",
       "        [62]],\n",
       "\n",
       "       [[67],\n",
       "        [65],\n",
       "        [65],\n",
       "        ...,\n",
       "        [62],\n",
       "        [62],\n",
       "        [64]]], dtype=int64)"
      ]
     },
     "execution_count": 17,
     "metadata": {},
     "output_type": "execute_result"
    }
   ],
   "source": [
    "y_train"
   ]
  },
  {
   "cell_type": "code",
   "execution_count": 19,
   "metadata": {},
   "outputs": [
    {
     "ename": "ModuleNotFoundError",
     "evalue": "No module named 'tesnsorflow'",
     "output_type": "error",
     "traceback": [
      "\u001b[1;31m-----------------------------------------------------------------------\u001b[0m",
      "\u001b[1;31mModuleNotFoundError\u001b[0m                   Traceback (most recent call last)",
      "\u001b[1;32m<ipython-input-19-0bdefdd9183a>\u001b[0m in \u001b[0;36m<module>\u001b[1;34m\u001b[0m\n\u001b[1;32m----> 1\u001b[1;33m \u001b[1;32mfrom\u001b[0m \u001b[0mtesnsorflow\u001b[0m\u001b[1;33m.\u001b[0m\u001b[0mkeras\u001b[0m\u001b[1;33m.\u001b[0m\u001b[0mmodels\u001b[0m \u001b[1;32mimport\u001b[0m \u001b[0mSequential\u001b[0m\u001b[1;33m\u001b[0m\u001b[1;33m\u001b[0m\u001b[0m\n\u001b[0m\u001b[0;32m      2\u001b[0m \u001b[1;32mfrom\u001b[0m \u001b[0mkeras\u001b[0m\u001b[1;33m.\u001b[0m\u001b[0mlayers\u001b[0m \u001b[1;32mimport\u001b[0m \u001b[0mDense\u001b[0m\u001b[1;33m\u001b[0m\u001b[1;33m\u001b[0m\u001b[0m\n\u001b[0;32m      3\u001b[0m \u001b[1;32mfrom\u001b[0m \u001b[0mkeras\u001b[0m\u001b[1;33m.\u001b[0m\u001b[0mlayers\u001b[0m \u001b[1;32mimport\u001b[0m \u001b[0mLSTM\u001b[0m\u001b[1;33m\u001b[0m\u001b[1;33m\u001b[0m\u001b[0m\n\u001b[0;32m      4\u001b[0m \u001b[1;32mfrom\u001b[0m \u001b[0mkeras\u001b[0m\u001b[1;33m.\u001b[0m\u001b[0mlayers\u001b[0m \u001b[1;32mimport\u001b[0m \u001b[0mDropout\u001b[0m\u001b[1;33m\u001b[0m\u001b[1;33m\u001b[0m\u001b[0m\n",
      "\u001b[1;31mModuleNotFoundError\u001b[0m: No module named 'tesnsorflow'"
     ]
    }
   ],
   "source": [
    "from keras.models import Sequential\n",
    "from keras.layers import Dense\n",
    "from keras.layers import LSTM\n",
    "from keras.layers import Dropout"
   ]
  },
  {
   "cell_type": "code",
   "execution_count": 27,
   "metadata": {},
   "outputs": [],
   "source": [
    "import tensorflow as tf\n",
    "from tensorflow.keras.layers import Dense, LSTM, Dropout, Flatten\n",
    "from tensorflow.keras import Sequential"
   ]
  },
  {
   "cell_type": "code",
   "execution_count": 30,
   "metadata": {},
   "outputs": [],
   "source": [
    "model = Sequential()\n",
    "model.add(LSTM(units = 50, return_sequences = True, input_shape = (X_train.shape[1], 1)))\n",
    "model.add(LSTM(units = 50, return_sequences = True))\n",
    "model.add(LSTM(units = 50, return_sequences = True))\n",
    "model.add(LSTM(units = 50, return_sequences = True))\n",
    "model.add(LSTM(units = 1, return_sequences = True))\n",
    "\n",
    "\n",
    "model.compile(optimizer = 'adam', loss = 'mean_squared_error')\n",
    "\n"
   ]
  },
  {
   "cell_type": "code",
   "execution_count": 31,
   "metadata": {
    "scrolled": true
   },
   "outputs": [
    {
     "name": "stdout",
     "output_type": "stream",
     "text": [
      "Train on 2640 samples\n",
      "Epoch 1/100\n",
      "  32/2640 [..............................] - ETA: 6:01"
     ]
    },
    {
     "ename": "KeyboardInterrupt",
     "evalue": "",
     "output_type": "error",
     "traceback": [
      "\u001b[1;31m-----------------------------------------------------------------------\u001b[0m",
      "\u001b[1;31mKeyboardInterrupt\u001b[0m                     Traceback (most recent call last)",
      "\u001b[1;32m<ipython-input-31-be37e0e0981d>\u001b[0m in \u001b[0;36m<module>\u001b[1;34m\u001b[0m\n\u001b[1;32m----> 1\u001b[1;33m \u001b[0mmodel\u001b[0m\u001b[1;33m.\u001b[0m\u001b[0mfit\u001b[0m\u001b[1;33m(\u001b[0m\u001b[0mX_train\u001b[0m\u001b[1;33m,\u001b[0m \u001b[0my_train\u001b[0m\u001b[1;33m,\u001b[0m \u001b[0mepochs\u001b[0m \u001b[1;33m=\u001b[0m \u001b[1;36m100\u001b[0m\u001b[1;33m,\u001b[0m \u001b[0mbatch_size\u001b[0m \u001b[1;33m=\u001b[0m \u001b[1;36m32\u001b[0m\u001b[1;33m)\u001b[0m\u001b[1;33m\u001b[0m\u001b[1;33m\u001b[0m\u001b[0m\n\u001b[0m",
      "\u001b[1;32m~\\anaconda3\\envs\\tf_env\\lib\\site-packages\\tensorflow_core\\python\\keras\\engine\\training.py\u001b[0m in \u001b[0;36mfit\u001b[1;34m(self, x, y, batch_size, epochs, verbose, callbacks, validation_split, validation_data, shuffle, class_weight, sample_weight, initial_epoch, steps_per_epoch, validation_steps, validation_freq, max_queue_size, workers, use_multiprocessing, **kwargs)\u001b[0m\n\u001b[0;32m    817\u001b[0m         \u001b[0mmax_queue_size\u001b[0m\u001b[1;33m=\u001b[0m\u001b[0mmax_queue_size\u001b[0m\u001b[1;33m,\u001b[0m\u001b[1;33m\u001b[0m\u001b[1;33m\u001b[0m\u001b[0m\n\u001b[0;32m    818\u001b[0m         \u001b[0mworkers\u001b[0m\u001b[1;33m=\u001b[0m\u001b[0mworkers\u001b[0m\u001b[1;33m,\u001b[0m\u001b[1;33m\u001b[0m\u001b[1;33m\u001b[0m\u001b[0m\n\u001b[1;32m--> 819\u001b[1;33m         use_multiprocessing=use_multiprocessing)\n\u001b[0m\u001b[0;32m    820\u001b[0m \u001b[1;33m\u001b[0m\u001b[0m\n\u001b[0;32m    821\u001b[0m   def evaluate(self,\n",
      "\u001b[1;32m~\\anaconda3\\envs\\tf_env\\lib\\site-packages\\tensorflow_core\\python\\keras\\engine\\training_v2.py\u001b[0m in \u001b[0;36mfit\u001b[1;34m(self, model, x, y, batch_size, epochs, verbose, callbacks, validation_split, validation_data, shuffle, class_weight, sample_weight, initial_epoch, steps_per_epoch, validation_steps, validation_freq, max_queue_size, workers, use_multiprocessing, **kwargs)\u001b[0m\n\u001b[0;32m    340\u001b[0m                 \u001b[0mmode\u001b[0m\u001b[1;33m=\u001b[0m\u001b[0mModeKeys\u001b[0m\u001b[1;33m.\u001b[0m\u001b[0mTRAIN\u001b[0m\u001b[1;33m,\u001b[0m\u001b[1;33m\u001b[0m\u001b[1;33m\u001b[0m\u001b[0m\n\u001b[0;32m    341\u001b[0m                 \u001b[0mtraining_context\u001b[0m\u001b[1;33m=\u001b[0m\u001b[0mtraining_context\u001b[0m\u001b[1;33m,\u001b[0m\u001b[1;33m\u001b[0m\u001b[1;33m\u001b[0m\u001b[0m\n\u001b[1;32m--> 342\u001b[1;33m                 total_epochs=epochs)\n\u001b[0m\u001b[0;32m    343\u001b[0m             \u001b[0mcbks\u001b[0m\u001b[1;33m.\u001b[0m\u001b[0mmake_logs\u001b[0m\u001b[1;33m(\u001b[0m\u001b[0mmodel\u001b[0m\u001b[1;33m,\u001b[0m \u001b[0mepoch_logs\u001b[0m\u001b[1;33m,\u001b[0m \u001b[0mtraining_result\u001b[0m\u001b[1;33m,\u001b[0m \u001b[0mModeKeys\u001b[0m\u001b[1;33m.\u001b[0m\u001b[0mTRAIN\u001b[0m\u001b[1;33m)\u001b[0m\u001b[1;33m\u001b[0m\u001b[1;33m\u001b[0m\u001b[0m\n\u001b[0;32m    344\u001b[0m \u001b[1;33m\u001b[0m\u001b[0m\n",
      "\u001b[1;32m~\\anaconda3\\envs\\tf_env\\lib\\site-packages\\tensorflow_core\\python\\keras\\engine\\training_v2.py\u001b[0m in \u001b[0;36mrun_one_epoch\u001b[1;34m(model, iterator, execution_function, dataset_size, batch_size, strategy, steps_per_epoch, num_samples, mode, training_context, total_epochs)\u001b[0m\n\u001b[0;32m    126\u001b[0m         step=step, mode=mode, size=current_batch_size) as batch_logs:\n\u001b[0;32m    127\u001b[0m       \u001b[1;32mtry\u001b[0m\u001b[1;33m:\u001b[0m\u001b[1;33m\u001b[0m\u001b[1;33m\u001b[0m\u001b[0m\n\u001b[1;32m--> 128\u001b[1;33m         \u001b[0mbatch_outs\u001b[0m \u001b[1;33m=\u001b[0m \u001b[0mexecution_function\u001b[0m\u001b[1;33m(\u001b[0m\u001b[0miterator\u001b[0m\u001b[1;33m)\u001b[0m\u001b[1;33m\u001b[0m\u001b[1;33m\u001b[0m\u001b[0m\n\u001b[0m\u001b[0;32m    129\u001b[0m       \u001b[1;32mexcept\u001b[0m \u001b[1;33m(\u001b[0m\u001b[0mStopIteration\u001b[0m\u001b[1;33m,\u001b[0m \u001b[0merrors\u001b[0m\u001b[1;33m.\u001b[0m\u001b[0mOutOfRangeError\u001b[0m\u001b[1;33m)\u001b[0m\u001b[1;33m:\u001b[0m\u001b[1;33m\u001b[0m\u001b[1;33m\u001b[0m\u001b[0m\n\u001b[0;32m    130\u001b[0m         \u001b[1;31m# TODO(kaftan): File bug about tf function and errors.OutOfRangeError?\u001b[0m\u001b[1;33m\u001b[0m\u001b[1;33m\u001b[0m\u001b[1;33m\u001b[0m\u001b[0m\n",
      "\u001b[1;32m~\\anaconda3\\envs\\tf_env\\lib\\site-packages\\tensorflow_core\\python\\keras\\engine\\training_v2_utils.py\u001b[0m in \u001b[0;36mexecution_function\u001b[1;34m(input_fn)\u001b[0m\n\u001b[0;32m     96\u001b[0m     \u001b[1;31m# `numpy` translates Tensors to values in Eager mode.\u001b[0m\u001b[1;33m\u001b[0m\u001b[1;33m\u001b[0m\u001b[1;33m\u001b[0m\u001b[0m\n\u001b[0;32m     97\u001b[0m     return nest.map_structure(_non_none_constant_value,\n\u001b[1;32m---> 98\u001b[1;33m                               distributed_function(input_fn))\n\u001b[0m\u001b[0;32m     99\u001b[0m \u001b[1;33m\u001b[0m\u001b[0m\n\u001b[0;32m    100\u001b[0m   \u001b[1;32mreturn\u001b[0m \u001b[0mexecution_function\u001b[0m\u001b[1;33m\u001b[0m\u001b[1;33m\u001b[0m\u001b[0m\n",
      "\u001b[1;32m~\\anaconda3\\envs\\tf_env\\lib\\site-packages\\tensorflow_core\\python\\eager\\def_function.py\u001b[0m in \u001b[0;36m__call__\u001b[1;34m(self, *args, **kwds)\u001b[0m\n\u001b[0;32m    566\u001b[0m         \u001b[0mxla_context\u001b[0m\u001b[1;33m.\u001b[0m\u001b[0mExit\u001b[0m\u001b[1;33m(\u001b[0m\u001b[1;33m)\u001b[0m\u001b[1;33m\u001b[0m\u001b[1;33m\u001b[0m\u001b[0m\n\u001b[0;32m    567\u001b[0m     \u001b[1;32melse\u001b[0m\u001b[1;33m:\u001b[0m\u001b[1;33m\u001b[0m\u001b[1;33m\u001b[0m\u001b[0m\n\u001b[1;32m--> 568\u001b[1;33m       \u001b[0mresult\u001b[0m \u001b[1;33m=\u001b[0m \u001b[0mself\u001b[0m\u001b[1;33m.\u001b[0m\u001b[0m_call\u001b[0m\u001b[1;33m(\u001b[0m\u001b[1;33m*\u001b[0m\u001b[0margs\u001b[0m\u001b[1;33m,\u001b[0m \u001b[1;33m**\u001b[0m\u001b[0mkwds\u001b[0m\u001b[1;33m)\u001b[0m\u001b[1;33m\u001b[0m\u001b[1;33m\u001b[0m\u001b[0m\n\u001b[0m\u001b[0;32m    569\u001b[0m \u001b[1;33m\u001b[0m\u001b[0m\n\u001b[0;32m    570\u001b[0m     \u001b[1;32mif\u001b[0m \u001b[0mtracing_count\u001b[0m \u001b[1;33m==\u001b[0m \u001b[0mself\u001b[0m\u001b[1;33m.\u001b[0m\u001b[0m_get_tracing_count\u001b[0m\u001b[1;33m(\u001b[0m\u001b[1;33m)\u001b[0m\u001b[1;33m:\u001b[0m\u001b[1;33m\u001b[0m\u001b[1;33m\u001b[0m\u001b[0m\n",
      "\u001b[1;32m~\\anaconda3\\envs\\tf_env\\lib\\site-packages\\tensorflow_core\\python\\eager\\def_function.py\u001b[0m in \u001b[0;36m_call\u001b[1;34m(self, *args, **kwds)\u001b[0m\n\u001b[0;32m    613\u001b[0m       \u001b[1;31m# This is the first call of __call__, so we have to initialize.\u001b[0m\u001b[1;33m\u001b[0m\u001b[1;33m\u001b[0m\u001b[1;33m\u001b[0m\u001b[0m\n\u001b[0;32m    614\u001b[0m       \u001b[0minitializers\u001b[0m \u001b[1;33m=\u001b[0m \u001b[1;33m[\u001b[0m\u001b[1;33m]\u001b[0m\u001b[1;33m\u001b[0m\u001b[1;33m\u001b[0m\u001b[0m\n\u001b[1;32m--> 615\u001b[1;33m       \u001b[0mself\u001b[0m\u001b[1;33m.\u001b[0m\u001b[0m_initialize\u001b[0m\u001b[1;33m(\u001b[0m\u001b[0margs\u001b[0m\u001b[1;33m,\u001b[0m \u001b[0mkwds\u001b[0m\u001b[1;33m,\u001b[0m \u001b[0madd_initializers_to\u001b[0m\u001b[1;33m=\u001b[0m\u001b[0minitializers\u001b[0m\u001b[1;33m)\u001b[0m\u001b[1;33m\u001b[0m\u001b[1;33m\u001b[0m\u001b[0m\n\u001b[0m\u001b[0;32m    616\u001b[0m     \u001b[1;32mfinally\u001b[0m\u001b[1;33m:\u001b[0m\u001b[1;33m\u001b[0m\u001b[1;33m\u001b[0m\u001b[0m\n\u001b[0;32m    617\u001b[0m       \u001b[1;31m# At this point we know that the initialization is complete (or less\u001b[0m\u001b[1;33m\u001b[0m\u001b[1;33m\u001b[0m\u001b[1;33m\u001b[0m\u001b[0m\n",
      "\u001b[1;32m~\\anaconda3\\envs\\tf_env\\lib\\site-packages\\tensorflow_core\\python\\eager\\def_function.py\u001b[0m in \u001b[0;36m_initialize\u001b[1;34m(self, args, kwds, add_initializers_to)\u001b[0m\n\u001b[0;32m    495\u001b[0m     self._concrete_stateful_fn = (\n\u001b[0;32m    496\u001b[0m         self._stateful_fn._get_concrete_function_internal_garbage_collected(  # pylint: disable=protected-access\n\u001b[1;32m--> 497\u001b[1;33m             *args, **kwds))\n\u001b[0m\u001b[0;32m    498\u001b[0m \u001b[1;33m\u001b[0m\u001b[0m\n\u001b[0;32m    499\u001b[0m     \u001b[1;32mdef\u001b[0m \u001b[0minvalid_creator_scope\u001b[0m\u001b[1;33m(\u001b[0m\u001b[1;33m*\u001b[0m\u001b[0munused_args\u001b[0m\u001b[1;33m,\u001b[0m \u001b[1;33m**\u001b[0m\u001b[0munused_kwds\u001b[0m\u001b[1;33m)\u001b[0m\u001b[1;33m:\u001b[0m\u001b[1;33m\u001b[0m\u001b[1;33m\u001b[0m\u001b[0m\n",
      "\u001b[1;32m~\\anaconda3\\envs\\tf_env\\lib\\site-packages\\tensorflow_core\\python\\eager\\function.py\u001b[0m in \u001b[0;36m_get_concrete_function_internal_garbage_collected\u001b[1;34m(self, *args, **kwargs)\u001b[0m\n\u001b[0;32m   2387\u001b[0m       \u001b[0margs\u001b[0m\u001b[1;33m,\u001b[0m \u001b[0mkwargs\u001b[0m \u001b[1;33m=\u001b[0m \u001b[1;32mNone\u001b[0m\u001b[1;33m,\u001b[0m \u001b[1;32mNone\u001b[0m\u001b[1;33m\u001b[0m\u001b[1;33m\u001b[0m\u001b[0m\n\u001b[0;32m   2388\u001b[0m     \u001b[1;32mwith\u001b[0m \u001b[0mself\u001b[0m\u001b[1;33m.\u001b[0m\u001b[0m_lock\u001b[0m\u001b[1;33m:\u001b[0m\u001b[1;33m\u001b[0m\u001b[1;33m\u001b[0m\u001b[0m\n\u001b[1;32m-> 2389\u001b[1;33m       \u001b[0mgraph_function\u001b[0m\u001b[1;33m,\u001b[0m \u001b[0m_\u001b[0m\u001b[1;33m,\u001b[0m \u001b[0m_\u001b[0m \u001b[1;33m=\u001b[0m \u001b[0mself\u001b[0m\u001b[1;33m.\u001b[0m\u001b[0m_maybe_define_function\u001b[0m\u001b[1;33m(\u001b[0m\u001b[0margs\u001b[0m\u001b[1;33m,\u001b[0m \u001b[0mkwargs\u001b[0m\u001b[1;33m)\u001b[0m\u001b[1;33m\u001b[0m\u001b[1;33m\u001b[0m\u001b[0m\n\u001b[0m\u001b[0;32m   2390\u001b[0m     \u001b[1;32mreturn\u001b[0m \u001b[0mgraph_function\u001b[0m\u001b[1;33m\u001b[0m\u001b[1;33m\u001b[0m\u001b[0m\n\u001b[0;32m   2391\u001b[0m \u001b[1;33m\u001b[0m\u001b[0m\n",
      "\u001b[1;32m~\\anaconda3\\envs\\tf_env\\lib\\site-packages\\tensorflow_core\\python\\eager\\function.py\u001b[0m in \u001b[0;36m_maybe_define_function\u001b[1;34m(self, args, kwargs)\u001b[0m\n\u001b[0;32m   2701\u001b[0m \u001b[1;33m\u001b[0m\u001b[0m\n\u001b[0;32m   2702\u001b[0m       \u001b[0mself\u001b[0m\u001b[1;33m.\u001b[0m\u001b[0m_function_cache\u001b[0m\u001b[1;33m.\u001b[0m\u001b[0mmissed\u001b[0m\u001b[1;33m.\u001b[0m\u001b[0madd\u001b[0m\u001b[1;33m(\u001b[0m\u001b[0mcall_context_key\u001b[0m\u001b[1;33m)\u001b[0m\u001b[1;33m\u001b[0m\u001b[1;33m\u001b[0m\u001b[0m\n\u001b[1;32m-> 2703\u001b[1;33m       \u001b[0mgraph_function\u001b[0m \u001b[1;33m=\u001b[0m \u001b[0mself\u001b[0m\u001b[1;33m.\u001b[0m\u001b[0m_create_graph_function\u001b[0m\u001b[1;33m(\u001b[0m\u001b[0margs\u001b[0m\u001b[1;33m,\u001b[0m \u001b[0mkwargs\u001b[0m\u001b[1;33m)\u001b[0m\u001b[1;33m\u001b[0m\u001b[1;33m\u001b[0m\u001b[0m\n\u001b[0m\u001b[0;32m   2704\u001b[0m       \u001b[0mself\u001b[0m\u001b[1;33m.\u001b[0m\u001b[0m_function_cache\u001b[0m\u001b[1;33m.\u001b[0m\u001b[0mprimary\u001b[0m\u001b[1;33m[\u001b[0m\u001b[0mcache_key\u001b[0m\u001b[1;33m]\u001b[0m \u001b[1;33m=\u001b[0m \u001b[0mgraph_function\u001b[0m\u001b[1;33m\u001b[0m\u001b[1;33m\u001b[0m\u001b[0m\n\u001b[0;32m   2705\u001b[0m       \u001b[1;32mreturn\u001b[0m \u001b[0mgraph_function\u001b[0m\u001b[1;33m,\u001b[0m \u001b[0margs\u001b[0m\u001b[1;33m,\u001b[0m \u001b[0mkwargs\u001b[0m\u001b[1;33m\u001b[0m\u001b[1;33m\u001b[0m\u001b[0m\n",
      "\u001b[1;32m~\\anaconda3\\envs\\tf_env\\lib\\site-packages\\tensorflow_core\\python\\eager\\function.py\u001b[0m in \u001b[0;36m_create_graph_function\u001b[1;34m(self, args, kwargs, override_flat_arg_shapes)\u001b[0m\n\u001b[0;32m   2591\u001b[0m             \u001b[0marg_names\u001b[0m\u001b[1;33m=\u001b[0m\u001b[0marg_names\u001b[0m\u001b[1;33m,\u001b[0m\u001b[1;33m\u001b[0m\u001b[1;33m\u001b[0m\u001b[0m\n\u001b[0;32m   2592\u001b[0m             \u001b[0moverride_flat_arg_shapes\u001b[0m\u001b[1;33m=\u001b[0m\u001b[0moverride_flat_arg_shapes\u001b[0m\u001b[1;33m,\u001b[0m\u001b[1;33m\u001b[0m\u001b[1;33m\u001b[0m\u001b[0m\n\u001b[1;32m-> 2593\u001b[1;33m             capture_by_value=self._capture_by_value),\n\u001b[0m\u001b[0;32m   2594\u001b[0m         \u001b[0mself\u001b[0m\u001b[1;33m.\u001b[0m\u001b[0m_function_attributes\u001b[0m\u001b[1;33m,\u001b[0m\u001b[1;33m\u001b[0m\u001b[1;33m\u001b[0m\u001b[0m\n\u001b[0;32m   2595\u001b[0m         \u001b[1;31m# Tell the ConcreteFunction to clean up its graph once it goes out of\u001b[0m\u001b[1;33m\u001b[0m\u001b[1;33m\u001b[0m\u001b[1;33m\u001b[0m\u001b[0m\n",
      "\u001b[1;32m~\\anaconda3\\envs\\tf_env\\lib\\site-packages\\tensorflow_core\\python\\framework\\func_graph.py\u001b[0m in \u001b[0;36mfunc_graph_from_py_func\u001b[1;34m(name, python_func, args, kwargs, signature, func_graph, autograph, autograph_options, add_control_dependencies, arg_names, op_return_value, collections, capture_by_value, override_flat_arg_shapes)\u001b[0m\n\u001b[0;32m    976\u001b[0m                                           converted_func)\n\u001b[0;32m    977\u001b[0m \u001b[1;33m\u001b[0m\u001b[0m\n\u001b[1;32m--> 978\u001b[1;33m       \u001b[0mfunc_outputs\u001b[0m \u001b[1;33m=\u001b[0m \u001b[0mpython_func\u001b[0m\u001b[1;33m(\u001b[0m\u001b[1;33m*\u001b[0m\u001b[0mfunc_args\u001b[0m\u001b[1;33m,\u001b[0m \u001b[1;33m**\u001b[0m\u001b[0mfunc_kwargs\u001b[0m\u001b[1;33m)\u001b[0m\u001b[1;33m\u001b[0m\u001b[1;33m\u001b[0m\u001b[0m\n\u001b[0m\u001b[0;32m    979\u001b[0m \u001b[1;33m\u001b[0m\u001b[0m\n\u001b[0;32m    980\u001b[0m       \u001b[1;31m# invariant: `func_outputs` contains only Tensors, CompositeTensors,\u001b[0m\u001b[1;33m\u001b[0m\u001b[1;33m\u001b[0m\u001b[1;33m\u001b[0m\u001b[0m\n",
      "\u001b[1;32m~\\anaconda3\\envs\\tf_env\\lib\\site-packages\\tensorflow_core\\python\\eager\\def_function.py\u001b[0m in \u001b[0;36mwrapped_fn\u001b[1;34m(*args, **kwds)\u001b[0m\n\u001b[0;32m    437\u001b[0m         \u001b[1;31m# __wrapped__ allows AutoGraph to swap in a converted function. We give\u001b[0m\u001b[1;33m\u001b[0m\u001b[1;33m\u001b[0m\u001b[1;33m\u001b[0m\u001b[0m\n\u001b[0;32m    438\u001b[0m         \u001b[1;31m# the function a weak reference to itself to avoid a reference cycle.\u001b[0m\u001b[1;33m\u001b[0m\u001b[1;33m\u001b[0m\u001b[1;33m\u001b[0m\u001b[0m\n\u001b[1;32m--> 439\u001b[1;33m         \u001b[1;32mreturn\u001b[0m \u001b[0mweak_wrapped_fn\u001b[0m\u001b[1;33m(\u001b[0m\u001b[1;33m)\u001b[0m\u001b[1;33m.\u001b[0m\u001b[0m__wrapped__\u001b[0m\u001b[1;33m(\u001b[0m\u001b[1;33m*\u001b[0m\u001b[0margs\u001b[0m\u001b[1;33m,\u001b[0m \u001b[1;33m**\u001b[0m\u001b[0mkwds\u001b[0m\u001b[1;33m)\u001b[0m\u001b[1;33m\u001b[0m\u001b[1;33m\u001b[0m\u001b[0m\n\u001b[0m\u001b[0;32m    440\u001b[0m     \u001b[0mweak_wrapped_fn\u001b[0m \u001b[1;33m=\u001b[0m \u001b[0mweakref\u001b[0m\u001b[1;33m.\u001b[0m\u001b[0mref\u001b[0m\u001b[1;33m(\u001b[0m\u001b[0mwrapped_fn\u001b[0m\u001b[1;33m)\u001b[0m\u001b[1;33m\u001b[0m\u001b[1;33m\u001b[0m\u001b[0m\n\u001b[0;32m    441\u001b[0m \u001b[1;33m\u001b[0m\u001b[0m\n",
      "\u001b[1;32m~\\anaconda3\\envs\\tf_env\\lib\\site-packages\\tensorflow_core\\python\\keras\\engine\\training_v2_utils.py\u001b[0m in \u001b[0;36mdistributed_function\u001b[1;34m(input_iterator)\u001b[0m\n\u001b[0;32m     83\u001b[0m     \u001b[0margs\u001b[0m \u001b[1;33m=\u001b[0m \u001b[0m_prepare_feed_values\u001b[0m\u001b[1;33m(\u001b[0m\u001b[0mmodel\u001b[0m\u001b[1;33m,\u001b[0m \u001b[0minput_iterator\u001b[0m\u001b[1;33m,\u001b[0m \u001b[0mmode\u001b[0m\u001b[1;33m,\u001b[0m \u001b[0mstrategy\u001b[0m\u001b[1;33m)\u001b[0m\u001b[1;33m\u001b[0m\u001b[1;33m\u001b[0m\u001b[0m\n\u001b[0;32m     84\u001b[0m     outputs = strategy.experimental_run_v2(\n\u001b[1;32m---> 85\u001b[1;33m         per_replica_function, args=args)\n\u001b[0m\u001b[0;32m     86\u001b[0m     \u001b[1;31m# Out of PerReplica outputs reduce or pick values to return.\u001b[0m\u001b[1;33m\u001b[0m\u001b[1;33m\u001b[0m\u001b[1;33m\u001b[0m\u001b[0m\n\u001b[0;32m     87\u001b[0m     all_outputs = dist_utils.unwrap_output_dict(\n",
      "\u001b[1;32m~\\anaconda3\\envs\\tf_env\\lib\\site-packages\\tensorflow_core\\python\\distribute\\distribute_lib.py\u001b[0m in \u001b[0;36mexperimental_run_v2\u001b[1;34m(self, fn, args, kwargs)\u001b[0m\n\u001b[0;32m    761\u001b[0m       fn = autograph.tf_convert(fn, ag_ctx.control_status_ctx(),\n\u001b[0;32m    762\u001b[0m                                 convert_by_default=False)\n\u001b[1;32m--> 763\u001b[1;33m       \u001b[1;32mreturn\u001b[0m \u001b[0mself\u001b[0m\u001b[1;33m.\u001b[0m\u001b[0m_extended\u001b[0m\u001b[1;33m.\u001b[0m\u001b[0mcall_for_each_replica\u001b[0m\u001b[1;33m(\u001b[0m\u001b[0mfn\u001b[0m\u001b[1;33m,\u001b[0m \u001b[0margs\u001b[0m\u001b[1;33m=\u001b[0m\u001b[0margs\u001b[0m\u001b[1;33m,\u001b[0m \u001b[0mkwargs\u001b[0m\u001b[1;33m=\u001b[0m\u001b[0mkwargs\u001b[0m\u001b[1;33m)\u001b[0m\u001b[1;33m\u001b[0m\u001b[1;33m\u001b[0m\u001b[0m\n\u001b[0m\u001b[0;32m    764\u001b[0m \u001b[1;33m\u001b[0m\u001b[0m\n\u001b[0;32m    765\u001b[0m   \u001b[1;32mdef\u001b[0m \u001b[0mreduce\u001b[0m\u001b[1;33m(\u001b[0m\u001b[0mself\u001b[0m\u001b[1;33m,\u001b[0m \u001b[0mreduce_op\u001b[0m\u001b[1;33m,\u001b[0m \u001b[0mvalue\u001b[0m\u001b[1;33m,\u001b[0m \u001b[0maxis\u001b[0m\u001b[1;33m)\u001b[0m\u001b[1;33m:\u001b[0m\u001b[1;33m\u001b[0m\u001b[1;33m\u001b[0m\u001b[0m\n",
      "\u001b[1;32m~\\anaconda3\\envs\\tf_env\\lib\\site-packages\\tensorflow_core\\python\\distribute\\distribute_lib.py\u001b[0m in \u001b[0;36mcall_for_each_replica\u001b[1;34m(self, fn, args, kwargs)\u001b[0m\n\u001b[0;32m   1817\u001b[0m       \u001b[0mkwargs\u001b[0m \u001b[1;33m=\u001b[0m \u001b[1;33m{\u001b[0m\u001b[1;33m}\u001b[0m\u001b[1;33m\u001b[0m\u001b[1;33m\u001b[0m\u001b[0m\n\u001b[0;32m   1818\u001b[0m     \u001b[1;32mwith\u001b[0m \u001b[0mself\u001b[0m\u001b[1;33m.\u001b[0m\u001b[0m_container_strategy\u001b[0m\u001b[1;33m(\u001b[0m\u001b[1;33m)\u001b[0m\u001b[1;33m.\u001b[0m\u001b[0mscope\u001b[0m\u001b[1;33m(\u001b[0m\u001b[1;33m)\u001b[0m\u001b[1;33m:\u001b[0m\u001b[1;33m\u001b[0m\u001b[1;33m\u001b[0m\u001b[0m\n\u001b[1;32m-> 1819\u001b[1;33m       \u001b[1;32mreturn\u001b[0m \u001b[0mself\u001b[0m\u001b[1;33m.\u001b[0m\u001b[0m_call_for_each_replica\u001b[0m\u001b[1;33m(\u001b[0m\u001b[0mfn\u001b[0m\u001b[1;33m,\u001b[0m \u001b[0margs\u001b[0m\u001b[1;33m,\u001b[0m \u001b[0mkwargs\u001b[0m\u001b[1;33m)\u001b[0m\u001b[1;33m\u001b[0m\u001b[1;33m\u001b[0m\u001b[0m\n\u001b[0m\u001b[0;32m   1820\u001b[0m \u001b[1;33m\u001b[0m\u001b[0m\n\u001b[0;32m   1821\u001b[0m   \u001b[1;32mdef\u001b[0m \u001b[0m_call_for_each_replica\u001b[0m\u001b[1;33m(\u001b[0m\u001b[0mself\u001b[0m\u001b[1;33m,\u001b[0m \u001b[0mfn\u001b[0m\u001b[1;33m,\u001b[0m \u001b[0margs\u001b[0m\u001b[1;33m,\u001b[0m \u001b[0mkwargs\u001b[0m\u001b[1;33m)\u001b[0m\u001b[1;33m:\u001b[0m\u001b[1;33m\u001b[0m\u001b[1;33m\u001b[0m\u001b[0m\n",
      "\u001b[1;32m~\\anaconda3\\envs\\tf_env\\lib\\site-packages\\tensorflow_core\\python\\distribute\\distribute_lib.py\u001b[0m in \u001b[0;36m_call_for_each_replica\u001b[1;34m(self, fn, args, kwargs)\u001b[0m\n\u001b[0;32m   2162\u001b[0m         \u001b[0mself\u001b[0m\u001b[1;33m.\u001b[0m\u001b[0m_container_strategy\u001b[0m\u001b[1;33m(\u001b[0m\u001b[1;33m)\u001b[0m\u001b[1;33m,\u001b[0m\u001b[1;33m\u001b[0m\u001b[1;33m\u001b[0m\u001b[0m\n\u001b[0;32m   2163\u001b[0m         replica_id_in_sync_group=constant_op.constant(0, dtypes.int32)):\n\u001b[1;32m-> 2164\u001b[1;33m       \u001b[1;32mreturn\u001b[0m \u001b[0mfn\u001b[0m\u001b[1;33m(\u001b[0m\u001b[1;33m*\u001b[0m\u001b[0margs\u001b[0m\u001b[1;33m,\u001b[0m \u001b[1;33m**\u001b[0m\u001b[0mkwargs\u001b[0m\u001b[1;33m)\u001b[0m\u001b[1;33m\u001b[0m\u001b[1;33m\u001b[0m\u001b[0m\n\u001b[0m\u001b[0;32m   2165\u001b[0m \u001b[1;33m\u001b[0m\u001b[0m\n\u001b[0;32m   2166\u001b[0m   \u001b[1;32mdef\u001b[0m \u001b[0m_reduce_to\u001b[0m\u001b[1;33m(\u001b[0m\u001b[0mself\u001b[0m\u001b[1;33m,\u001b[0m \u001b[0mreduce_op\u001b[0m\u001b[1;33m,\u001b[0m \u001b[0mvalue\u001b[0m\u001b[1;33m,\u001b[0m \u001b[0mdestinations\u001b[0m\u001b[1;33m)\u001b[0m\u001b[1;33m:\u001b[0m\u001b[1;33m\u001b[0m\u001b[1;33m\u001b[0m\u001b[0m\n",
      "\u001b[1;32m~\\anaconda3\\envs\\tf_env\\lib\\site-packages\\tensorflow_core\\python\\autograph\\impl\\api.py\u001b[0m in \u001b[0;36mwrapper\u001b[1;34m(*args, **kwargs)\u001b[0m\n\u001b[0;32m    290\u001b[0m   \u001b[1;32mdef\u001b[0m \u001b[0mwrapper\u001b[0m\u001b[1;33m(\u001b[0m\u001b[1;33m*\u001b[0m\u001b[0margs\u001b[0m\u001b[1;33m,\u001b[0m \u001b[1;33m**\u001b[0m\u001b[0mkwargs\u001b[0m\u001b[1;33m)\u001b[0m\u001b[1;33m:\u001b[0m\u001b[1;33m\u001b[0m\u001b[1;33m\u001b[0m\u001b[0m\n\u001b[0;32m    291\u001b[0m     \u001b[1;32mwith\u001b[0m \u001b[0mag_ctx\u001b[0m\u001b[1;33m.\u001b[0m\u001b[0mControlStatusCtx\u001b[0m\u001b[1;33m(\u001b[0m\u001b[0mstatus\u001b[0m\u001b[1;33m=\u001b[0m\u001b[0mag_ctx\u001b[0m\u001b[1;33m.\u001b[0m\u001b[0mStatus\u001b[0m\u001b[1;33m.\u001b[0m\u001b[0mDISABLED\u001b[0m\u001b[1;33m)\u001b[0m\u001b[1;33m:\u001b[0m\u001b[1;33m\u001b[0m\u001b[1;33m\u001b[0m\u001b[0m\n\u001b[1;32m--> 292\u001b[1;33m       \u001b[1;32mreturn\u001b[0m \u001b[0mfunc\u001b[0m\u001b[1;33m(\u001b[0m\u001b[1;33m*\u001b[0m\u001b[0margs\u001b[0m\u001b[1;33m,\u001b[0m \u001b[1;33m**\u001b[0m\u001b[0mkwargs\u001b[0m\u001b[1;33m)\u001b[0m\u001b[1;33m\u001b[0m\u001b[1;33m\u001b[0m\u001b[0m\n\u001b[0m\u001b[0;32m    293\u001b[0m \u001b[1;33m\u001b[0m\u001b[0m\n\u001b[0;32m    294\u001b[0m   \u001b[1;32mif\u001b[0m \u001b[0minspect\u001b[0m\u001b[1;33m.\u001b[0m\u001b[0misfunction\u001b[0m\u001b[1;33m(\u001b[0m\u001b[0mfunc\u001b[0m\u001b[1;33m)\u001b[0m \u001b[1;32mor\u001b[0m \u001b[0minspect\u001b[0m\u001b[1;33m.\u001b[0m\u001b[0mismethod\u001b[0m\u001b[1;33m(\u001b[0m\u001b[0mfunc\u001b[0m\u001b[1;33m)\u001b[0m\u001b[1;33m:\u001b[0m\u001b[1;33m\u001b[0m\u001b[1;33m\u001b[0m\u001b[0m\n",
      "\u001b[1;32m~\\anaconda3\\envs\\tf_env\\lib\\site-packages\\tensorflow_core\\python\\keras\\engine\\training_v2_utils.py\u001b[0m in \u001b[0;36mtrain_on_batch\u001b[1;34m(model, x, y, sample_weight, class_weight, reset_metrics, standalone)\u001b[0m\n\u001b[0;32m    431\u001b[0m       \u001b[0my\u001b[0m\u001b[1;33m,\u001b[0m\u001b[1;33m\u001b[0m\u001b[1;33m\u001b[0m\u001b[0m\n\u001b[0;32m    432\u001b[0m       \u001b[0msample_weights\u001b[0m\u001b[1;33m=\u001b[0m\u001b[0msample_weights\u001b[0m\u001b[1;33m,\u001b[0m\u001b[1;33m\u001b[0m\u001b[1;33m\u001b[0m\u001b[0m\n\u001b[1;32m--> 433\u001b[1;33m       output_loss_metrics=model._output_loss_metrics)\n\u001b[0m\u001b[0;32m    434\u001b[0m \u001b[1;33m\u001b[0m\u001b[0m\n\u001b[0;32m    435\u001b[0m   \u001b[1;32mif\u001b[0m \u001b[0mreset_metrics\u001b[0m\u001b[1;33m:\u001b[0m\u001b[1;33m\u001b[0m\u001b[1;33m\u001b[0m\u001b[0m\n",
      "\u001b[1;32m~\\anaconda3\\envs\\tf_env\\lib\\site-packages\\tensorflow_core\\python\\keras\\engine\\training_eager.py\u001b[0m in \u001b[0;36mtrain_on_batch\u001b[1;34m(model, inputs, targets, sample_weights, output_loss_metrics)\u001b[0m\n\u001b[0;32m    310\u001b[0m           \u001b[0msample_weights\u001b[0m\u001b[1;33m=\u001b[0m\u001b[0msample_weights\u001b[0m\u001b[1;33m,\u001b[0m\u001b[1;33m\u001b[0m\u001b[1;33m\u001b[0m\u001b[0m\n\u001b[0;32m    311\u001b[0m           \u001b[0mtraining\u001b[0m\u001b[1;33m=\u001b[0m\u001b[1;32mTrue\u001b[0m\u001b[1;33m,\u001b[0m\u001b[1;33m\u001b[0m\u001b[1;33m\u001b[0m\u001b[0m\n\u001b[1;32m--> 312\u001b[1;33m           output_loss_metrics=output_loss_metrics))\n\u001b[0m\u001b[0;32m    313\u001b[0m   \u001b[1;32mif\u001b[0m \u001b[1;32mnot\u001b[0m \u001b[0misinstance\u001b[0m\u001b[1;33m(\u001b[0m\u001b[0mouts\u001b[0m\u001b[1;33m,\u001b[0m \u001b[0mlist\u001b[0m\u001b[1;33m)\u001b[0m\u001b[1;33m:\u001b[0m\u001b[1;33m\u001b[0m\u001b[1;33m\u001b[0m\u001b[0m\n\u001b[0;32m    314\u001b[0m     \u001b[0mouts\u001b[0m \u001b[1;33m=\u001b[0m \u001b[1;33m[\u001b[0m\u001b[0mouts\u001b[0m\u001b[1;33m]\u001b[0m\u001b[1;33m\u001b[0m\u001b[1;33m\u001b[0m\u001b[0m\n",
      "\u001b[1;32m~\\anaconda3\\envs\\tf_env\\lib\\site-packages\\tensorflow_core\\python\\keras\\engine\\training_eager.py\u001b[0m in \u001b[0;36m_process_single_batch\u001b[1;34m(model, inputs, targets, output_loss_metrics, sample_weights, training)\u001b[0m\n\u001b[0;32m    267\u001b[0m           \u001b[0mmodel\u001b[0m\u001b[1;33m.\u001b[0m\u001b[0m_backwards\u001b[0m\u001b[1;33m(\u001b[0m\u001b[0mtape\u001b[0m\u001b[1;33m,\u001b[0m \u001b[0mscaled_total_loss\u001b[0m\u001b[1;33m)\u001b[0m\u001b[1;33m\u001b[0m\u001b[1;33m\u001b[0m\u001b[0m\n\u001b[0;32m    268\u001b[0m         \u001b[1;32melse\u001b[0m\u001b[1;33m:\u001b[0m\u001b[1;33m\u001b[0m\u001b[1;33m\u001b[0m\u001b[0m\n\u001b[1;32m--> 269\u001b[1;33m           \u001b[0mgrads\u001b[0m \u001b[1;33m=\u001b[0m \u001b[0mtape\u001b[0m\u001b[1;33m.\u001b[0m\u001b[0mgradient\u001b[0m\u001b[1;33m(\u001b[0m\u001b[0mscaled_total_loss\u001b[0m\u001b[1;33m,\u001b[0m \u001b[0mtrainable_weights\u001b[0m\u001b[1;33m)\u001b[0m\u001b[1;33m\u001b[0m\u001b[1;33m\u001b[0m\u001b[0m\n\u001b[0m\u001b[0;32m    270\u001b[0m           if isinstance(model.optimizer,\n\u001b[0;32m    271\u001b[0m                         loss_scale_optimizer.LossScaleOptimizer):\n",
      "\u001b[1;32m~\\anaconda3\\envs\\tf_env\\lib\\site-packages\\tensorflow_core\\python\\eager\\backprop.py\u001b[0m in \u001b[0;36mgradient\u001b[1;34m(self, target, sources, output_gradients, unconnected_gradients)\u001b[0m\n\u001b[0;32m   1027\u001b[0m         \u001b[0moutput_gradients\u001b[0m\u001b[1;33m=\u001b[0m\u001b[0moutput_gradients\u001b[0m\u001b[1;33m,\u001b[0m\u001b[1;33m\u001b[0m\u001b[1;33m\u001b[0m\u001b[0m\n\u001b[0;32m   1028\u001b[0m         \u001b[0msources_raw\u001b[0m\u001b[1;33m=\u001b[0m\u001b[0mflat_sources_raw\u001b[0m\u001b[1;33m,\u001b[0m\u001b[1;33m\u001b[0m\u001b[1;33m\u001b[0m\u001b[0m\n\u001b[1;32m-> 1029\u001b[1;33m         unconnected_gradients=unconnected_gradients)\n\u001b[0m\u001b[0;32m   1030\u001b[0m \u001b[1;33m\u001b[0m\u001b[0m\n\u001b[0;32m   1031\u001b[0m     \u001b[1;32mif\u001b[0m \u001b[1;32mnot\u001b[0m \u001b[0mself\u001b[0m\u001b[1;33m.\u001b[0m\u001b[0m_persistent\u001b[0m\u001b[1;33m:\u001b[0m\u001b[1;33m\u001b[0m\u001b[1;33m\u001b[0m\u001b[0m\n",
      "\u001b[1;32m~\\anaconda3\\envs\\tf_env\\lib\\site-packages\\tensorflow_core\\python\\eager\\imperative_grad.py\u001b[0m in \u001b[0;36mimperative_grad\u001b[1;34m(tape, target, sources, output_gradients, sources_raw, unconnected_gradients)\u001b[0m\n\u001b[0;32m     75\u001b[0m       \u001b[0moutput_gradients\u001b[0m\u001b[1;33m,\u001b[0m\u001b[1;33m\u001b[0m\u001b[1;33m\u001b[0m\u001b[0m\n\u001b[0;32m     76\u001b[0m       \u001b[0msources_raw\u001b[0m\u001b[1;33m,\u001b[0m\u001b[1;33m\u001b[0m\u001b[1;33m\u001b[0m\u001b[0m\n\u001b[1;32m---> 77\u001b[1;33m       compat.as_str(unconnected_gradients.value))\n\u001b[0m",
      "\u001b[1;32m~\\anaconda3\\envs\\tf_env\\lib\\site-packages\\tensorflow_core\\python\\eager\\function.py\u001b[0m in \u001b[0;36m_backward_function\u001b[1;34m(*args)\u001b[0m\n\u001b[0;32m    786\u001b[0m     \u001b[1;32mdef\u001b[0m \u001b[0m_backward_function\u001b[0m\u001b[1;33m(\u001b[0m\u001b[1;33m*\u001b[0m\u001b[0margs\u001b[0m\u001b[1;33m)\u001b[0m\u001b[1;33m:\u001b[0m\u001b[1;33m\u001b[0m\u001b[1;33m\u001b[0m\u001b[0m\n\u001b[0;32m    787\u001b[0m       \u001b[0mcall_op\u001b[0m \u001b[1;33m=\u001b[0m \u001b[0moutputs\u001b[0m\u001b[1;33m[\u001b[0m\u001b[1;36m0\u001b[0m\u001b[1;33m]\u001b[0m\u001b[1;33m.\u001b[0m\u001b[0mop\u001b[0m\u001b[1;33m\u001b[0m\u001b[1;33m\u001b[0m\u001b[0m\n\u001b[1;32m--> 788\u001b[1;33m       \u001b[1;32mreturn\u001b[0m \u001b[0mself\u001b[0m\u001b[1;33m.\u001b[0m\u001b[0m_rewrite_forward_and_call_backward\u001b[0m\u001b[1;33m(\u001b[0m\u001b[0mcall_op\u001b[0m\u001b[1;33m,\u001b[0m \u001b[1;33m*\u001b[0m\u001b[0margs\u001b[0m\u001b[1;33m)\u001b[0m\u001b[1;33m\u001b[0m\u001b[1;33m\u001b[0m\u001b[0m\n\u001b[0m\u001b[0;32m    789\u001b[0m     \u001b[1;32mreturn\u001b[0m \u001b[0m_backward_function\u001b[0m\u001b[1;33m,\u001b[0m \u001b[0moutputs\u001b[0m\u001b[1;33m\u001b[0m\u001b[1;33m\u001b[0m\u001b[0m\n\u001b[0;32m    790\u001b[0m \u001b[1;33m\u001b[0m\u001b[0m\n",
      "\u001b[1;32m~\\anaconda3\\envs\\tf_env\\lib\\site-packages\\tensorflow_core\\python\\eager\\function.py\u001b[0m in \u001b[0;36m_rewrite_forward_and_call_backward\u001b[1;34m(self, op, *doutputs)\u001b[0m\n\u001b[0;32m    716\u001b[0m     op._add_outputs(\n\u001b[0;32m    717\u001b[0m         \u001b[0mforward_function\u001b[0m\u001b[1;33m.\u001b[0m\u001b[0m_output_types\u001b[0m\u001b[1;33m[\u001b[0m\u001b[0mlen\u001b[0m\u001b[1;33m(\u001b[0m\u001b[0mop\u001b[0m\u001b[1;33m.\u001b[0m\u001b[0moutputs\u001b[0m\u001b[1;33m)\u001b[0m\u001b[1;33m:\u001b[0m\u001b[1;33m]\u001b[0m\u001b[1;33m,\u001b[0m\u001b[1;33m\u001b[0m\u001b[1;33m\u001b[0m\u001b[0m\n\u001b[1;32m--> 718\u001b[1;33m         forward_function._output_shapes[len(op.outputs):])\n\u001b[0m\u001b[0;32m    719\u001b[0m     \u001b[1;32mfor\u001b[0m \u001b[0mi\u001b[0m \u001b[1;32min\u001b[0m \u001b[0mrange\u001b[0m\u001b[1;33m(\u001b[0m\u001b[0mlen\u001b[0m\u001b[1;33m(\u001b[0m\u001b[0mop\u001b[0m\u001b[1;33m.\u001b[0m\u001b[0moutputs\u001b[0m\u001b[1;33m)\u001b[0m\u001b[1;33m)\u001b[0m\u001b[1;33m:\u001b[0m\u001b[1;33m\u001b[0m\u001b[1;33m\u001b[0m\u001b[0m\n\u001b[0;32m    720\u001b[0m       \u001b[0mfunc_graph_output\u001b[0m \u001b[1;33m=\u001b[0m \u001b[0mforward_function\u001b[0m\u001b[1;33m.\u001b[0m\u001b[0m_func_graph_outputs\u001b[0m\u001b[1;33m[\u001b[0m\u001b[0mi\u001b[0m\u001b[1;33m]\u001b[0m\u001b[1;33m\u001b[0m\u001b[1;33m\u001b[0m\u001b[0m\n",
      "\u001b[1;32m~\\anaconda3\\envs\\tf_env\\lib\\site-packages\\tensorflow_core\\python\\framework\\ops.py\u001b[0m in \u001b[0;36m_add_outputs\u001b[1;34m(self, types, shapes)\u001b[0m\n\u001b[0;32m   2142\u001b[0m       \u001b[0mt\u001b[0m \u001b[1;33m=\u001b[0m \u001b[0mTensor\u001b[0m\u001b[1;33m(\u001b[0m\u001b[0mself\u001b[0m\u001b[1;33m,\u001b[0m \u001b[0morig_num_outputs\u001b[0m \u001b[1;33m+\u001b[0m \u001b[0mi\u001b[0m\u001b[1;33m,\u001b[0m \u001b[0mtypes\u001b[0m\u001b[1;33m[\u001b[0m\u001b[0mi\u001b[0m\u001b[1;33m]\u001b[0m\u001b[1;33m)\u001b[0m\u001b[1;33m\u001b[0m\u001b[1;33m\u001b[0m\u001b[0m\n\u001b[0;32m   2143\u001b[0m       \u001b[0mself\u001b[0m\u001b[1;33m.\u001b[0m\u001b[0m_outputs\u001b[0m\u001b[1;33m.\u001b[0m\u001b[0mappend\u001b[0m\u001b[1;33m(\u001b[0m\u001b[0mt\u001b[0m\u001b[1;33m)\u001b[0m\u001b[1;33m\u001b[0m\u001b[1;33m\u001b[0m\u001b[0m\n\u001b[1;32m-> 2144\u001b[1;33m       \u001b[0mt\u001b[0m\u001b[1;33m.\u001b[0m\u001b[0mset_shape\u001b[0m\u001b[1;33m(\u001b[0m\u001b[0mshapes\u001b[0m\u001b[1;33m[\u001b[0m\u001b[0mi\u001b[0m\u001b[1;33m]\u001b[0m\u001b[1;33m)\u001b[0m\u001b[1;33m\u001b[0m\u001b[1;33m\u001b[0m\u001b[0m\n\u001b[0m\u001b[0;32m   2145\u001b[0m \u001b[1;33m\u001b[0m\u001b[0m\n\u001b[0;32m   2146\u001b[0m   \u001b[1;32mdef\u001b[0m \u001b[0m__str__\u001b[0m\u001b[1;33m(\u001b[0m\u001b[0mself\u001b[0m\u001b[1;33m)\u001b[0m\u001b[1;33m:\u001b[0m\u001b[1;33m\u001b[0m\u001b[1;33m\u001b[0m\u001b[0m\n",
      "\u001b[1;32m~\\anaconda3\\envs\\tf_env\\lib\\site-packages\\tensorflow_core\\python\\framework\\ops.py\u001b[0m in \u001b[0;36mset_shape\u001b[1;34m(self, shape)\u001b[0m\n\u001b[0;32m    632\u001b[0m           \u001b[0mself\u001b[0m\u001b[1;33m.\u001b[0m\u001b[0m_as_tf_output\u001b[0m\u001b[1;33m(\u001b[0m\u001b[1;33m)\u001b[0m\u001b[1;33m,\u001b[0m\u001b[1;33m\u001b[0m\u001b[1;33m\u001b[0m\u001b[0m\n\u001b[0;32m    633\u001b[0m           \u001b[0mdim_list\u001b[0m\u001b[1;33m,\u001b[0m\u001b[1;33m\u001b[0m\u001b[1;33m\u001b[0m\u001b[0m\n\u001b[1;32m--> 634\u001b[1;33m           unknown_shape)\n\u001b[0m\u001b[0;32m    635\u001b[0m     \u001b[1;32mexcept\u001b[0m \u001b[0merrors\u001b[0m\u001b[1;33m.\u001b[0m\u001b[0mInvalidArgumentError\u001b[0m \u001b[1;32mas\u001b[0m \u001b[0me\u001b[0m\u001b[1;33m:\u001b[0m\u001b[1;33m\u001b[0m\u001b[1;33m\u001b[0m\u001b[0m\n\u001b[0;32m    636\u001b[0m       \u001b[1;31m# Convert to ValueError for backwards compatibility.\u001b[0m\u001b[1;33m\u001b[0m\u001b[1;33m\u001b[0m\u001b[1;33m\u001b[0m\u001b[0m\n",
      "\u001b[1;31mKeyboardInterrupt\u001b[0m: "
     ]
    }
   ],
   "source": [
    "model.fit(X_train, y_train, epochs = 100, batch_size = 32)"
   ]
  },
  {
   "cell_type": "code",
   "execution_count": null,
   "metadata": {},
   "outputs": [],
   "source": [
    "y_predict = model.predict(X_train)"
   ]
  },
  {
   "cell_type": "code",
   "execution_count": null,
   "metadata": {},
   "outputs": [],
   "source": [
    "y_predict"
   ]
  },
  {
   "cell_type": "code",
   "execution_count": null,
   "metadata": {},
   "outputs": [],
   "source": [
    "created_song = pd.DataFrame(song)"
   ]
  },
  {
   "cell_type": "code",
   "execution_count": null,
   "metadata": {},
   "outputs": [],
   "source": [
    "created_song"
   ]
  },
  {
   "cell_type": "code",
   "execution_count": null,
   "metadata": {},
   "outputs": [],
   "source": []
  }
 ],
 "metadata": {
  "kernelspec": {
   "display_name": "Python 3",
   "language": "python",
   "name": "python3"
  },
  "language_info": {
   "codemirror_mode": {
    "name": "ipython",
    "version": 3
   },
   "file_extension": ".py",
   "mimetype": "text/x-python",
   "name": "python",
   "nbconvert_exporter": "python",
   "pygments_lexer": "ipython3",
   "version": "3.7.7"
  }
 },
 "nbformat": 4,
 "nbformat_minor": 4
}
